<?xml version="1.0" encoding="utf-8"?>
<!-- Generator: Adobe Illustrator 18.1.1, SVG Export Plug-In . SVG Version: 6.00 Build 0)  -->
<svg version="1.1" id="Layer_1" xmlns="http://www.w3.org/2000/svg" xmlns:xlink="http://www.w3.org/1999/xlink" x="0px" y="0px"
	 viewBox="0 0 271 128" style="enable-background:new 0 0 271 128;" xml:space="preserve">
<style type="text/css">
	.st0{fill:#FFFFFF;}
	.st1{fill:#D5B049;}
</style>
<g>
	<g>
		<path class="st0" d="M121.9,16.2v9.7c0,0,0.9,0.8,1.7,1.5c0.8,0.7,0.3,1.8,0.3,1.8s-0.5-0.4-1.6-0.6c-1.2-0.2-1.7-0.1-3.3,0.4
			c-1.4,0.5-3.1,2.1-3.1,2.1c4.2-2.7,6.5,0.4,6.5,0.4s1.7-1.7,2-2c0.3-0.3,0.7-0.9,0.9-1.5c0.2-0.4-0.2-1.2-0.4-1.6
			c-0.2-0.4-0.3-1-0.3-1v-9.1l-1.4-1.3L121.9,16.2z"/>
		<path class="st0" d="M118.4,14.7l1.5,1.5V24l2.2,1.7l-0.1,0.2l-2.3,1.7l-3.2-2.3v-6.9l0-0.9C116.5,17.5,118.2,16.7,118.4,14.7"/>
		<path class="st0" d="M83.2,16v7.8l-4.4,3.9l-3.7-2.4V17l-0.9-0.8l2.4-2.3l1.8,1.9l0,8.7l1.4,1c0.7-0.6,0.6-1.5,0.6-1.5v-7.2
			l-1.2-1.3l1.9-1.6L83.2,16z"/>
		<path class="st0" d="M87.6,23.8v-7.3l2.2,1.8L87.6,20v0.5l4.2-3.4L88.5,14L84.4,17l0.1,8.4l3.4,2.3l3.4-2.9L91,24.4
			c0,0-0.5,0.7-1.6,0.8L87.6,23.8z"/>
	</g>
	<polygon class="st0" points="101.3,16.6 101.3,25.5 102.3,26 100.8,27.8 98.1,26 98.1,17.5 97.3,16.8 96.7,17.4 96.7,25.5 97.2,26 
		95.1,27.8 92.7,26 93.2,25.5 93.2,17.5 92.2,16.5 94.5,14.6 96.6,16.8 99.3,14.5 	"/>
	<g>
		<path class="st0" d="M54.5,24.3l0.4,0.4c0,0,2.8-2,3.4-3.3c0.6-1.3,0.5-1.2,0.5-3.5v-6.7l1.2-0.8v16.1c0,0-6.1-0.3-7.8-5.6
			c-1.4-4.6,0.2-6.9,0.3-7.1c0.2-0.6,0.9-1.5,0.9-1.5s1.8-2.3,4.3-3.4c0,0-4.2-0.2-7.8,4.7c-3.5,4.9-1.1,10.1,0.7,11.7
			c1.7,1.6,4.1,3.3,9.8,2.7c2.9-0.3,4.9-2.4,5-2.6c0.2-0.2-2.3,1.3-4.9,1.2l0-15.6c0,0,1.9,0.1,3-0.8C63.9,9.9,65.5,7.8,65,8
			c-1.9,0.8-3.5,0.2-3.9,0c-0.1,0-0.3-0.3-0.3-0.3l-0.3-0.3l-5.2,3.7l0,12.1C55.2,23.2,55.3,23.6,54.5,24.3"/>
		<path class="st0" d="M175.9,17.4v7.9c0,0,0.1,0.7,0.3,1c0.2,0.4,0.6,1.2,0.4,1.6c-0.2,0.6-0.6,1.1-0.9,1.5c-0.3,0.3-2,2-2,2
			s-2.2-3.1-6.5-0.4c0,0,1.7-1.6,3.1-2.1c1.6-0.5,2.1-0.6,3.3-0.4c1.1,0.2,1.6,0.6,1.6,0.6s0.5-1.2-0.3-1.8
			c-0.8-0.7-1.7-1.5-1.7-1.5v-7.2L171,17v7l2.2,1.7l0,0.2l-2.3,1.7l-3.2-2.3v-6.9l4.9-3.8L175.9,17.4z"/>
		<path class="st0" d="M153.2,9.9c0,0,1.3,1,1.3,1.9c0,1,0,14.1,0,14.1l2.4,1.7l2.2-1.8l-1.3-1V12c0,0,0.4-1.3,1.4-1.8
			c0,0-2-0.1-2.9,1.4C156.3,11.6,155.1,9.8,153.2,9.9"/>
		<path class="st0" d="M176.9,16.5l1.1,1v8l3,2.3L183,26l-1.6-1.2v-7.5c0,0,0.8,0.1,1.4-0.1c0.6-0.2,1.5-0.5,1.9-2.6
			c0,0-0.6,0.2-2.4,0c0,0,0.1,1.7-1.2,1.9l-1.9-1.9L176.9,16.5z"/>
		<path class="st0" d="M109,16.5l1.1,1v8l3,2.3l2.1-1.6l-1.6-1.2v-7.5c0,0,0.8,0.1,1.4-0.1c0.6-0.2,1.5-0.5,1.9-2.6
			c0,0-0.6,0.2-2.4,0c0,0,0.1,1.7-1.2,1.9l-1.9-1.9L109,16.5z"/>
		<path class="st0" d="M185.7,16.8l3.7-2.4l2.5,2.3v8.8l0.7,0.8l-2,1.5l-1.9-1.8l-2.8,1.8c-3.1-3.5-2.2-5.4-1.7-6.4
			c0.5-1.1,2.9-2.9,2.9-2.9l0.3,0.3c0,0-0.6,0.2-1.3,2.6c-0.9,3.4,2.7,4,2.7,4l0-7.8l-0.9-0.9l-1.4,0.9L185.7,16.8z"/>
		<path class="st0" d="M193.4,16.2l1.3,1.4v7.8c0,0-1.6,0.1-2.5,2.3c0,0,1.5-1.1,2.6-0.8v2.5c0,0-0.1,1.5-1.2,2.1
			c0,0,1.7-0.1,2.3-0.8l0.6-0.8c0,0,0.3,0.6,0.8,1c0.6,0.4,1.8,0.5,2.1,0.5c0,0-1.1-0.7-1.3-1.3c-0.2-0.6-0.2-1.3-0.2-1.3V16.9
			l0.4-0.5l1.2,1.3v8c0,0-0.6-0.3-1.6-0.4V27c0,0,1,0.1,1.8,0.7c0,0,0.6-0.9,1.4-1.4c0.8-0.5,1.7-0.9,1.7-0.9v-8.9l-2.7-2.3
			l-2.5,2.1l-2.1-2.1L193.4,16.2z"/>
		<path class="st0" d="M203.3,9.6c0,0,1.5,1,1.5,1.8v14l-1,0.6l2.6,1.8l2.8-1.7l-1-0.6v-7.9l0.3-0.4l1.3,1.3V29c0,0-0.8,2.1-2,2.6
			c0,0,3.2-0.1,4.3-2c1.1-1.9,1.1-2.5,1.1-2.5v-9.8l-2.7-2.3l-2.3,1.9v-5.7c0,0,0.1-0.9,0.6-1.4l0.5-0.6c0,0-1.3,0.1-1.9,0.7
			c-0.6,0.6-0.7,1.1-0.7,1.1s-0.9-1-1.8-1.2C204,9.5,203.3,9.6,203.3,9.6"/>
		<path class="st0" d="M138.6,24.3c0,0,2.6-1.3,3.1-3.6c0.4-1.8,0.3-3.2,0.3-3.2v-6.7c0,0,0.7,0.1,1.2,0.1v15.3l0.6-0.1V10.7
			c0,0,5.3,0,6.1-2.6c0.3-0.9,0.3-1.3,0.3-1.3s-0.5,1.2-4,1.5c-3.4,0.3-6.5-0.5-8.5-0.4c-2,0.1-6.1,0.4-6.8,4.3c0,0,1.9-1.5,3.4-1.8
			c1.5-0.3,2.6-0.4,3-0.3c0.4,0.1,0.5,0,0.5,0l0,0.6c0,0-5.6,1.6-7.2,5.7c-1.4,3.8-0.6,8.1,4,10.5c4.7,2.4,9.7-0.3,10.3-0.8
			c0.6-0.5,1-0.9,1-0.9s-1.4,0.9-2.7,0.9c-1.3,0-6.9,0-9-5.6c-2.2-5.6,3.7-9,3.7-9v12.1c0,0,0,0.2-0.3,0.5c-0.1,0.1-0.4,0.3-0.4,0.3
			s-0.1,0,0,0c0.1,0.1,0.5,0.3,0.5,0.3C137.5,24.7,138.2,24.4,138.6,24.3"/>
		<path class="st0" d="M149.6,23.8v-7.3l2.2,1.8l-2.2,1.8v0.5l4.2-3.4l-3.4-3.1l-4.1,3.1l0.1,8.4l3.4,2.3l3.4-2.9l-0.3-0.4
			c0,0-0.5,0.7-1.6,0.8L149.6,23.8z"/>
		<path class="st0" d="M163,23.8v-7.3l2.2,1.8L163,20v0.5l4.2-3.4l-3.4-3.1l-4.1,3.1l0.1,8.4l3.4,2.3l3.4-2.9l-0.3-0.4
			c0,0-0.5,0.7-1.6,0.8L163,23.8z"/>
		<path class="st0" d="M68.8,23.5v-7.3l2.6,2.3v7.6l2.4-2.1l0-6.7L70,14L65.9,17l0.1,8.4l3.4,2.3l3.4-2.9l-0.3-0.4
			c0,0-1.1,1-2.1,0.4L68.8,23.5z"/>
	</g>
	<polygon class="st0" points="185.7,16.8 188.6,21 188.9,20.4 186.7,17.2 	"/>
	<g>
		<path class="st0" d="M102.3,10.9c0,0,1.2,0.9,1.3,1.8c0,0.9,0,13.4,0,13.4l2.3,1.6l2.1-1.7l-1.2-1V12.8c0,0,0.4-1.3,1.3-1.7
			c0,0-1.9-0.1-2.7,1.3C105.3,12.4,104.2,10.8,102.3,10.9"/>
	</g>
	<polygon class="st0" points="102.8,14.3 101.8,16 107.9,16 109.7,14.3 	"/>
</g>
<g>
	<g>
		<path class="st0" d="M28.7,44.7c1.4,1.1,2.5,2.3,3.2,3.7c0.7,1.4,1.1,2.9,1.3,4.3c0.2,1.5,0.2,2.6,0.2,3.5c0,3.1-0.2,5.6-0.7,7.6
			c-0.5,1.9-1.2,3.4-2.1,4.5c-0.9,1.1-2,1.8-3.3,2.2c-1.3,0.4-2.8,0.6-4.4,0.6c-1.6,0-3.1-0.1-4.5-0.2V43.1h4.5
			C25.3,43.1,27.3,43.6,28.7,44.7 M26.9,41.1c-1.3,0.6-3.2,0.9-5.5,0.9h-3.2V18.3c0.6-0.1,1.1-0.1,1.7-0.2c0.6-0.1,1.1-0.1,1.7-0.1
			c1.9,0,3.5,0.3,4.8,0.8c1.3,0.5,2.2,1.3,3,2.3c0.7,1.1,1.2,2.4,1.5,4c0.3,1.6,0.5,3.5,0.5,5.8c0,1.4-0.1,2.7-0.3,4.1
			c-0.2,1.3-0.6,2.5-1.3,3.6C29.2,39.7,28.2,40.5,26.9,41.1 M27.5,42.6v-0.3c1.2-0.2,2.7-0.5,4.5-1c1.8-0.5,3.5-1.3,5.1-2.2
			c1.6-1,3-2.2,4.2-3.7c1.2-1.5,1.7-3.4,1.7-5.6c0-2.5-0.6-4.5-1.8-6.1c-1.2-1.6-2.7-2.9-4.5-3.9c-1.8-1-3.8-1.7-6-2.1
			c-2.2-0.4-4.3-0.6-6.3-0.6c-2.2,0-4.3,0-6.4,0.1c-2.1,0.1-4.2,0.1-6.4,0.1H0v1.1h7.1v52.6H0v1.1h11.6c2.2,0,4.3,0,6.4,0.1
			c2.1,0.1,4.3,0.1,6.4,0.1c1.9,0,4.1-0.2,6.6-0.7c2.5-0.4,4.8-1.2,7-2.3c2.2-1.1,4-2.7,5.5-4.6c1.5-1.9,2.3-4.4,2.3-7.4
			c0-2.7-0.6-5-1.8-6.8c-1.2-1.8-2.7-3.2-4.5-4.3c-1.8-1.1-3.8-1.9-5.9-2.4C31.6,43.1,29.5,42.7,27.5,42.6"/>
		<path class="st0" d="M62.9,39v24.4c0,1.9,0.4,3.6,1.2,5c0.8,1.4,2.1,2,4.1,2c1.2,0,2.3-0.3,3.2-0.8c1-0.6,1.8-1.3,2.5-2.3
			c0.7-0.9,1.2-2.1,1.6-3.3c0.4-1.3,0.6-2.6,0.6-4V40H71V39h14.4v31.9h5.1v1.1H76.2v-6.2h-0.2c-0.4,1.1-1,2.1-1.8,3
			c-0.8,0.8-1.8,1.6-2.8,2.2c-1.1,0.6-2.2,1-3.3,1.3c-1.2,0.3-2.3,0.4-3.5,0.4c-3.6,0-6.3-0.8-8.2-2.3c-1.9-1.6-2.8-4.2-2.8-8V40
			h-5.1V39H62.9z"/>
		<path class="st0" d="M93.1,60.8c0.6,1.4,1.2,2.8,1.9,4.1c0.6,1.3,1.4,2.5,2.3,3.5c0.9,1,1.9,1.9,3.2,2.5c1.2,0.6,2.7,1,4.5,1
			c0.5,0,1.1,0,1.8-0.1c0.8-0.1,1.5-0.3,2.3-0.7c0.7-0.4,1.4-1,1.9-1.8c0.5-0.8,0.8-1.9,0.8-3.4c0-0.5-0.1-0.9-0.2-1.4
			c-0.1-0.5-0.4-1-0.8-1.5c-0.4-0.5-1-1-1.8-1.5c-0.8-0.5-1.9-1-3.3-1.5l-6.2-2.3c-0.7-0.3-1.5-0.6-2.3-1c-0.8-0.4-1.6-1-2.3-1.7
			c-0.7-0.7-1.3-1.6-1.7-2.6c-0.5-1-0.7-2.2-0.7-3.6c0-1.5,0.3-2.9,0.9-4.2c0.6-1.3,1.5-2.5,2.6-3.5c1.1-1,2.4-1.8,4-2.4
			c1.6-0.6,3.3-0.9,5.1-0.9c1,0,1.9,0.1,2.7,0.3c0.8,0.2,1.6,0.4,2.3,0.7c0.7,0.2,1.3,0.4,1.8,0.7c0.5,0.2,1,0.3,1.3,0.3
			c0.6,0,0.9-0.1,1.1-0.3c0.2-0.2,0.3-0.4,0.4-0.7h1.1v9.4h-1c-0.5-1.2-1-2.4-1.6-3.5c-0.5-1.1-1.2-2.1-1.9-3
			c-0.7-0.8-1.7-1.5-2.7-2c-1.1-0.5-2.4-0.7-4-0.7c-1.7,0-3.2,0.4-4.6,1.3c-1.4,0.9-2.1,2.2-2.1,4c0,0.4,0.1,0.8,0.2,1.2
			c0.1,0.5,0.3,0.9,0.7,1.4c0.4,0.5,0.9,1,1.7,1.5c0.8,0.5,1.8,1,3.1,1.4l6.5,2.2c2.8,1,4.9,2.3,6.3,3.8c1.4,1.6,2.2,3.6,2.2,6.1
			c0,1.7-0.4,3.2-1.1,4.6c-0.7,1.4-1.7,2.5-2.9,3.5c-1.2,0.9-2.6,1.7-4.2,2.2c-1.6,0.5-3.2,0.8-4.9,0.8c-0.9,0-1.9-0.1-3-0.3
			c-1.1-0.2-2.1-0.4-3.1-0.7c-1-0.3-1.9-0.5-2.7-0.7c-0.8-0.2-1.5-0.3-1.9-0.3c-0.4,0-0.7,0.1-0.9,0.2c-0.2,0.2-0.3,0.4-0.5,0.8H92
			V60.8H93.1z"/>
	</g>
	<polygon class="st0" points="133.2,39 133.2,70.9 138.3,70.9 138.3,71.9 118.6,71.9 118.6,70.9 123.8,70.9 123.8,40 118.6,40 
		118.6,39 	"/>
	<g>
		<path class="st0" d="M144.7,70.9V40h-5.1V39h14.3v7.7h0.2c0.2-0.5,0.6-1.2,1.1-2.1c0.5-0.9,1.3-1.9,2.2-2.8c1-0.9,2.2-1.7,3.8-2.4
			c1.5-0.7,3.5-1,5.8-1c3.4,0,6,1,7.9,2.9c1.9,1.9,2.8,4.6,2.8,8v21.7h5.1v1.1h-19.3v-1.1h4.8V46.6c0-2.2-0.4-3.7-1.3-4.7
			c-0.9-1-2-1.5-3.5-1.5c-1.2,0-2.4,0.3-3.5,0.9c-1.1,0.6-2.1,1.5-3,2.7c-0.8,1.2-1.5,2.6-2,4.4c-0.5,1.7-0.8,3.8-0.8,6.1v16.4h4.8
			v1.1h-19.3v-1.1H144.7z"/>
		<path class="st0" d="M203.7,51.6h-12.3c0.1-1.3,0.1-2.7,0.3-4.2c0.1-1.5,0.4-2.8,0.9-4.1c0.5-1.3,1.2-2.3,2.1-3.1
			c0.9-0.8,2.3-1.2,4-1.2c1.2,0,2.2,0.3,2.9,0.8c0.7,0.6,1.2,1.3,1.5,2.1c0.3,0.8,0.5,1.6,0.5,2.5c0.1,0.8,0.1,1.5,0.1,2.1V51.6z
			 M214.1,52.7c0-2.6-0.5-4.9-1.4-6.7c-0.9-1.9-2.1-3.4-3.5-4.6c-1.4-1.2-3-2-4.8-2.6c-1.8-0.6-3.6-0.8-5.4-0.8
			c-2.5,0-4.9,0.5-7,1.5c-2.2,1-4.1,2.3-5.7,3.9c-1.6,1.6-2.9,3.5-3.8,5.6c-0.9,2.1-1.4,4.3-1.4,6.5c0,2.8,0.5,5.2,1.5,7.4
			c1,2.2,2.3,4,4,5.5c1.7,1.5,3.7,2.7,6,3.5c2.3,0.8,4.8,1.2,7.5,1.2c2.3,0,4.2-0.3,5.8-1c1.6-0.6,2.9-1.4,4-2.4
			c1.1-0.9,1.9-2,2.5-3.1c0.6-1.1,1-2.1,1.3-3.1l-1.1-0.4c-0.1,0.5-0.3,1.2-0.7,2.2c-0.4,1-1.1,2-2,3c-0.9,1-2,1.9-3.5,2.7
			c-1.4,0.8-3.1,1.2-5.2,1.2c-2.3,0-4.1-0.5-5.4-1.5c-1.3-1-2.3-2.2-2.9-3.7c-0.7-1.5-1.1-3.2-1.2-5.1c-0.2-1.9-0.2-3.7-0.2-5.6
			v-3.5H214.1z"/>
		<path class="st0" d="M217.5,60.8c0.6,1.4,1.2,2.8,1.9,4.1c0.6,1.3,1.4,2.5,2.3,3.5c0.9,1,1.9,1.9,3.2,2.5c1.2,0.6,2.7,1,4.5,1
			c0.5,0,1.1,0,1.8-0.1c0.8-0.1,1.5-0.3,2.3-0.7c0.7-0.4,1.4-1,1.9-1.8c0.5-0.8,0.8-1.9,0.8-3.4c0-0.5-0.1-0.9-0.2-1.4
			c-0.1-0.5-0.4-1-0.8-1.5c-0.4-0.5-1-1-1.8-1.5c-0.8-0.5-1.9-1-3.3-1.5l-6.2-2.3c-0.7-0.3-1.5-0.6-2.3-1c-0.8-0.4-1.6-1-2.3-1.7
			c-0.7-0.7-1.3-1.6-1.7-2.6c-0.5-1-0.7-2.2-0.7-3.6c0-1.5,0.3-2.9,0.9-4.2c0.6-1.3,1.5-2.5,2.6-3.5c1.1-1,2.4-1.8,4-2.4
			c1.6-0.6,3.3-0.9,5.1-0.9c1,0,1.9,0.1,2.7,0.3c0.8,0.2,1.6,0.4,2.3,0.7c0.7,0.2,1.3,0.4,1.8,0.7c0.5,0.2,1,0.3,1.3,0.3
			c0.6,0,0.9-0.1,1.1-0.3c0.2-0.2,0.3-0.4,0.4-0.7h1.1v9.4h-1c-0.5-1.2-1-2.4-1.6-3.5c-0.5-1.1-1.2-2.1-1.9-3
			c-0.7-0.8-1.7-1.5-2.7-2c-1.1-0.5-2.4-0.7-4-0.7c-1.7,0-3.2,0.4-4.6,1.3c-1.4,0.9-2.1,2.2-2.1,4c0,0.4,0.1,0.8,0.2,1.2
			c0.1,0.5,0.3,0.9,0.7,1.4c0.4,0.5,0.9,1,1.7,1.5c0.8,0.5,1.8,1,3.1,1.4l6.5,2.2c2.8,1,4.9,2.3,6.3,3.8c1.4,1.6,2.2,3.6,2.2,6.1
			c0,1.7-0.4,3.2-1.1,4.6c-0.7,1.4-1.7,2.5-2.9,3.5c-1.2,0.9-2.6,1.7-4.2,2.2c-1.6,0.5-3.2,0.8-4.9,0.8c-0.9,0-1.9-0.1-3-0.3
			c-1.1-0.2-2.1-0.4-3.1-0.7c-1-0.3-1.9-0.5-2.7-0.7c-0.8-0.2-1.5-0.3-1.9-0.3c-0.4,0-0.7,0.1-0.9,0.2c-0.2,0.2-0.3,0.4-0.5,0.8
			h-1.1V60.8H217.5z"/>
		<path class="st0" d="M245.7,60.8c0.6,1.4,1.2,2.8,1.9,4.1c0.6,1.3,1.4,2.5,2.3,3.5c0.9,1,1.9,1.9,3.2,2.5c1.2,0.6,2.7,1,4.5,1
			c0.5,0,1.1,0,1.8-0.1c0.8-0.1,1.5-0.3,2.3-0.7c0.7-0.4,1.4-1,1.9-1.8c0.5-0.8,0.8-1.9,0.8-3.4c0-0.5-0.1-0.9-0.2-1.4
			c-0.1-0.5-0.4-1-0.8-1.5c-0.4-0.5-1-1-1.8-1.5c-0.8-0.5-1.9-1-3.3-1.5l-6.2-2.3c-0.7-0.3-1.5-0.6-2.3-1c-0.8-0.4-1.6-1-2.3-1.7
			c-0.7-0.7-1.3-1.6-1.7-2.6c-0.5-1-0.7-2.2-0.7-3.6c0-1.5,0.3-2.9,0.9-4.2c0.6-1.3,1.5-2.5,2.6-3.5c1.1-1,2.4-1.8,4-2.4
			c1.6-0.6,3.3-0.9,5.1-0.9c1,0,1.9,0.1,2.7,0.3c0.8,0.2,1.6,0.4,2.3,0.7c0.7,0.2,1.3,0.4,1.8,0.7c0.5,0.2,1,0.3,1.3,0.3
			c0.6,0,0.9-0.1,1.1-0.3c0.2-0.2,0.3-0.4,0.4-0.7h1.1v9.4h-1c-0.5-1.2-1-2.4-1.6-3.5c-0.5-1.1-1.2-2.1-1.9-3
			c-0.7-0.8-1.7-1.5-2.7-2c-1.1-0.5-2.4-0.7-4-0.7c-1.7,0-3.2,0.4-4.6,1.3c-1.4,0.9-2.1,2.2-2.1,4c0,0.4,0.1,0.8,0.2,1.2
			c0.1,0.5,0.3,0.9,0.7,1.4c0.4,0.5,0.9,1,1.7,1.5c0.8,0.5,1.8,1,3.1,1.4l6.5,2.2c2.8,1,4.9,2.3,6.3,3.8c1.4,1.6,2.2,3.6,2.2,6.1
			c0,1.7-0.4,3.2-1.1,4.6c-0.7,1.4-1.7,2.5-2.9,3.5c-1.2,0.9-2.6,1.7-4.2,2.2c-1.6,0.5-3.2,0.8-4.9,0.8c-0.9,0-1.9-0.1-3-0.3
			c-1.1-0.2-2.1-0.4-3.1-0.7c-1-0.3-1.9-0.5-2.7-0.7c-0.8-0.2-1.5-0.3-1.9-0.3c-0.4,0-0.7,0.1-0.9,0.2c-0.2,0.2-0.3,0.4-0.5,0.8
			h-1.1V60.8H245.7z"/>
	</g>
</g>
<g>
	<path class="st1" d="M52.3,95.4H34.7l8.6-21L52.3,95.4z M80.3,118.1v-1.1h-6.6L49.5,61.3h-2.1l-22.9,55.8h-6.5v1.1h14.5v-1.1h-6.8
		l8.5-20.6h18.4l8.9,20.6h-7.1v1.1H80.3z"/>
	<polygon class="st1" points="66.4,84.2 66.4,83.1 85.9,83.1 85.9,84.2 80.9,84.2 88.8,104.2 94.9,87.8 93.4,84.2 89.4,84.2 
		89.4,83.1 108.6,83.1 108.6,84.2 103.5,84.2 111.4,104.2 118.8,84.2 113.4,84.2 113.4,83.1 123.8,83.1 123.8,84.2 120,84.2 
		107.4,118.1 106.9,118.1 95.5,89.4 84.8,118.1 84.3,118.1 70.9,84.2 	"/>
	<g>
		<path class="st1" d="M142.1,108.2c0,1.5-0.2,2.8-0.5,3.8c-0.3,1.1-0.7,1.9-1.2,2.5c-0.5,0.6-1.1,1.1-1.7,1.4
			c-0.6,0.3-1.3,0.5-2,0.5c-1.2,0-2.1-0.3-2.8-0.8c-0.7-0.5-1.2-1.2-1.5-2c-0.3-0.8-0.5-1.6-0.6-2.4c-0.1-0.8-0.1-1.5-0.1-2.2
			c0-1.5,0.2-2.8,0.7-3.8c0.5-1,1.1-1.8,1.9-2.5c0.8-0.7,1.6-1.2,2.6-1.7c1-0.4,1.9-0.9,2.9-1.3c0.7-0.4,1.2-0.7,1.5-1
			c0.3-0.3,0.5-0.6,0.6-0.9h0.2V108.2z M154,117c-1.1,0-1.8-0.7-2.1-1.5c-0.3-0.7-0.4-1.6-0.4-2.6V93.9c0-2.2-0.4-3.9-1.1-5.3
			c-0.7-1.4-1.7-2.5-3-3.3c-1.3-0.8-2.7-1.4-4.5-1.7c-1.7-0.3-3.5-0.5-5.5-0.5c-1.7,0-3.3,0.2-4.9,0.5c-1.6,0.4-3,0.9-4.2,1.6
			c-1.2,0.7-2.2,1.6-3,2.6c-0.7,1.1-1.1,2.2-1.1,3.6c0,0.9,0.1,1.6,0.4,2.1c0.3,0.5,0.6,0.9,1,1.2c0.4,0.3,0.9,0.5,1.4,0.5
			c0.5,0.1,1.1,0.1,1.6,0.1c0.4,0,0.8,0,1.3,0c0.5,0,1-0.1,1.5-0.3c0.5-0.2,0.9-0.5,1.3-1c0.4-0.4,0.5-1,0.5-1.8
			c0-0.2,0-0.4-0.1-0.8c-0.1-0.4-0.1-0.8-0.2-1.3c-0.1-0.5-0.1-0.9-0.2-1.3c-0.1-0.4-0.1-0.7-0.1-0.8c0-1.4,0.4-2.4,1.3-3
			c0.9-0.5,1.9-0.8,3.1-0.8c1.8,0,3.1,0.6,3.8,1.7c0.7,1.1,1,2.4,1,3.8v4.7c0,1-0.1,1.8-0.4,2.4c-0.3,0.6-0.8,1.2-1.5,1.7
			c-0.7,0.5-1.7,0.9-3,1.4c-1.3,0.4-3,1-5.1,1.6c-1.3,0.4-2.5,0.8-3.7,1.3c-1.2,0.4-2.3,1-3.2,1.7c-0.9,0.7-1.7,1.5-2.3,2.5
			c-0.6,1-0.9,2.2-0.9,3.7c0,1.4,0.3,2.7,1,3.7c0.7,1,1.5,1.8,2.6,2.3c1.1,0.6,2.3,1,3.5,1.2c1.3,0.3,2.5,0.4,3.8,0.4
			c2.7,0,4.8-0.4,6.2-1.1c1.4-0.7,2.6-2.1,3.4-4.1h0.2c0.3,1.6,1.1,2.9,2.3,3.8c1.3,0.9,3.2,1.4,5.8,1.4c1.2,0,2.1,0,3.7-0.2
			C155.4,117.8,154.6,117,154,117"/>
		<path class="st1" d="M174.6,83.7v6.7h0.2c1-2,2.3-3.8,3.9-5.3c1.6-1.5,3.8-2.2,6.5-2.2c2.2,0,4.1,0.6,5.5,1.8
			c1.4,1.2,2.1,2.9,2.1,5c0,1.6-0.4,2.9-1.2,3.8c-0.8,0.9-2,1.4-3.7,1.4c-1.2,0-2.4-0.3-3.4-0.8c-1-0.5-1.5-1.5-1.5-2.8
			c0-0.2,0-0.4,0.1-0.8c0.1-0.4,0.1-0.8,0.2-1.3c0.1-0.5,0.1-0.9,0.2-1.2c0.1-0.4,0.1-0.6,0.1-0.6c-0.1-0.4-0.1-0.8-0.2-1
			c-0.1-0.2-0.3-0.5-0.5-0.6c-0.2-0.2-0.6-0.3-1.1-0.3c-0.5,0-1.2,0.3-2,0.8c-0.8,0.5-1.6,1.2-2.2,2.2c-0.7,1-1.3,2.1-1.8,3.5
			c-0.5,1.4-0.8,2.9-0.8,4.6V117h6.3v1.1h-21.3V117h5.2V84.8h-5.2v-1.1H174.6z"/>
		<path class="st1" d="M217.8,101.4c0,1.6-0.1,3.3-0.2,5.3c-0.1,1.9-0.5,3.7-1.1,5.4c-0.6,1.7-1.5,3-2.7,4.1c-1.2,1.1-2.9,1.7-5,1.7
			c-1.4,0-2.6-0.4-3.4-1.2c-0.8-0.8-1.5-1.9-1.9-3.3c-0.4-1.4-0.7-3.2-0.8-5.2c-0.1-2-0.2-4.3-0.2-6.8c0-3.1,0.1-5.7,0.3-7.8
			c0.2-2.1,0.6-3.8,1.2-5.1c0.6-1.3,1.3-2.2,2.2-2.8c0.9-0.6,2-0.8,3.3-0.8c1.9,0,3.4,0.5,4.5,1.6c1.1,1.1,2,2.4,2.5,4.1
			c0.6,1.6,0.9,3.4,1.1,5.4C217.7,97.9,217.8,99.7,217.8,101.4 M232.2,117.9v-1.1h-5.1V74.4h-14.6v1.1h5.2v14.8h-0.2
			c-0.8-2.2-1.9-3.8-3.3-4.8c-1.4-1.1-3.3-1.6-5.6-1.6c-3,0-5.5,0.6-7.6,1.7c-2.1,1.2-3.8,2.6-5.2,4.3c-1.4,1.7-2.4,3.6-3,5.7
			c-0.6,2.1-1,4-1,5.8c0,2.3,0.4,4.5,1.2,6.6c0.8,2.1,2,4,3.4,5.6c1.5,1.6,3.2,2.9,5.3,3.9c2,1,4.3,1.5,6.8,1.5
			c2.3,0,4.2-0.6,5.6-1.7c1.5-1.2,2.6-2.8,3.4-5h0.2v5.7H232.2z"/>
		<path class="st1" d="M235.3,106c0.6,1.4,1.2,2.8,1.9,4.1c0.6,1.3,1.4,2.5,2.3,3.5c0.9,1,1.9,1.9,3.2,2.5c1.2,0.6,2.7,1,4.5,1
			c0.5,0,1.1,0,1.8-0.1c0.8-0.1,1.5-0.3,2.3-0.7c0.7-0.4,1.4-1,1.9-1.8c0.5-0.8,0.8-1.9,0.8-3.4c0-0.5-0.1-0.9-0.2-1.4
			c-0.1-0.5-0.4-1-0.8-1.5c-0.4-0.5-1-1-1.8-1.5s-1.9-1-3.3-1.5l-6.2-2.3c-0.7-0.3-1.5-0.6-2.3-1c-0.8-0.4-1.6-1-2.3-1.7
			c-0.7-0.7-1.3-1.6-1.7-2.6c-0.5-1-0.7-2.2-0.7-3.6c0-1.5,0.3-2.9,0.9-4.2c0.6-1.3,1.5-2.5,2.6-3.5c1.1-1,2.4-1.8,4-2.4
			c1.6-0.6,3.3-0.9,5.1-0.9c1,0,1.9,0.1,2.7,0.3c0.8,0.2,1.6,0.4,2.3,0.7c0.7,0.2,1.3,0.4,1.8,0.7c0.5,0.2,1,0.3,1.3,0.3
			c0.6,0,0.9-0.1,1.1-0.3c0.2-0.2,0.3-0.4,0.4-0.7h1.1v9.4h-1c-0.5-1.2-1-2.4-1.6-3.5c-0.5-1.1-1.2-2.1-1.9-3
			c-0.7-0.8-1.7-1.5-2.7-2c-1.1-0.5-2.4-0.7-4-0.7c-1.7,0-3.2,0.4-4.6,1.3c-1.4,0.9-2.1,2.2-2.1,4c0,0.4,0.1,0.8,0.2,1.2
			c0.1,0.5,0.3,0.9,0.7,1.4c0.4,0.5,0.9,1,1.7,1.5c0.8,0.5,1.8,1,3.1,1.4l6.5,2.2c2.8,1,4.9,2.3,6.3,3.8c1.4,1.6,2.2,3.6,2.2,6.1
			c0,1.7-0.4,3.2-1.1,4.6c-0.7,1.4-1.7,2.5-2.9,3.5c-1.2,0.9-2.6,1.7-4.2,2.2c-1.6,0.5-3.2,0.8-4.9,0.8c-0.9,0-1.9-0.1-3-0.3
			c-1.1-0.2-2.1-0.4-3.1-0.7c-1-0.3-1.9-0.5-2.7-0.7c-0.8-0.2-1.5-0.3-1.9-0.3c-0.4,0-0.7,0.1-0.9,0.2c-0.2,0.2-0.3,0.4-0.5,0.8
			h-1.1V106H235.3z"/>
	</g>
</g>
<rect x="153.1" y="117" class="st1" width="4.9" height="1.1"/>
</svg>
