<?xml version="1.0" encoding="utf-8"?>
<!-- Generator: Adobe Illustrator 13.0.0, SVG Export Plug-In . SVG Version: 6.00 Build 14948)  -->
<!DOCTYPE svg PUBLIC "-//W3C//DTD SVG 1.1//EN" "http://www.w3.org/Graphics/SVG/1.1/DTD/svg11.dtd">
<svg version="1.1" xmlns="http://www.w3.org/2000/svg" xmlns:xlink="http://www.w3.org/1999/xlink" x="0px" y="0px" width="88px"
	 height="308px" viewBox="0 0 88 308" style="enable-background:new 0 0 88 308;" xml:space="preserve">
<g id="Base">
</g>
<g id="Company_of_the_Year">
	<g>
		<polygon style="fill:#0071A0;" points="28.885,24.162 27.742,24.018 27.33,26.628 24.946,25.465 23.714,27.796 22.416,26.506 
			21.832,25.927 19.915,27.727 18.738,25.352 16.343,26.426 15.997,23.803 15.198,23.874 12.062,34.719 16.483,33.971 19.949,37 
			22,29.909 24.051,37 27.517,33.971 31.938,34.719 		"/>
		<path style="fill:#0071A0;" d="M14.223,18.452l-1.11,1.902l2.122,0.525l-0.435,2.163l0.736-0.065l1.444-0.13l0.289,2.191l2-0.898
			l0.983,1.984l0.45-0.423l1.152-1.081l1.361,1.354l0.21,0.209l1.03-1.947l1.991,0.972l0.344-2.181l1.749,0.221l0.448,0.056
			l-0.381-2.178l2.165-0.447l-1.064-1.941l1.9-1.122l-1.635-1.495l1.431-1.673l-2.029-0.887l0.808-2.042l-2.206-0.185l0.1-2.19
			l-2.145,0.537l-0.62-2.099l-1.852,1.199L22.191,7l-1.359,1.731l-1.781-1.266l-0.722,2.074l-2.097-0.615l-0.007,2.191l-2.186,0.104
			l0.707,2.07l-2.035,0.813l1.343,1.724l-1.663,1.435L14.223,18.452z M15.801,16l-1.046-1.344l1.586-0.633L15.79,12.41l1.703-0.082
			l0.005-1.708l1.635,0.479l0.562-1.616l1.388,0.986l1.06-1.349l0.989,1.387l1.443-0.935l0.482,1.636l1.672-0.418l-0.077,1.707
			l1.719,0.144l-0.63,1.592l1.582,0.692l-1.115,1.304l1.274,1.165l-1.481,0.874l0.83,1.512l-1.688,0.35l0.297,1.697l-1.712-0.216
			L25.46,23.31l-1.552-0.757l-0.803,1.517l-1.225-1.217l-1.249,1.172l-0.766-1.546l-1.559,0.699l-0.225-1.707l-1.699,0.152
			l0.339-1.686l-1.654-0.41l0.865-1.482l-1.428-0.927L15.801,16z"/>
	</g>
</g>
<g id="Communication">
	<g>
		<g>
			<g>
				<path style="fill:#0071A0;" d="M64.553,10.015c-0.01,0.006-0.021,0.012-0.031,0.018C64.531,10.026,64.543,10.021,64.553,10.015z
					"/>
				<path style="fill:#0071A0;" d="M68.129,22.1c0.048,0.008,0.095,0.019,0.139,0.024v11.794c0,1.639-1.099,2.828-2.608,2.828
					h-9.674c-1.512,0-2.611-1.189-2.611-2.828V10.171c0-1.638,1.1-2.828,2.611-2.828h9.674c1.076,0,1.94,0.604,2.351,1.544
					c0.084-0.015,0.166-0.031,0.251-0.044c-0.449-1.081-1.445-1.754-2.602-1.754h-0.2V7.055c0-0.03-0.024-0.055-0.052-0.055h-2.033
					c-0.026,0-0.051,0.024-0.051,0.055v0.034h-7.338c-1.576,0-2.857,1.245-2.857,3.082v2.576h-0.05
					c-0.044,0-0.078,0.013-0.078,0.032v1.328c0,0.02,0.034,0.034,0.078,0.034h0.05v2.664h-0.05C53.034,16.806,53,16.82,53,16.84
					v1.328c0,0.018,0.034,0.032,0.078,0.032h0.05v15.718c0,1.836,1.281,3.082,2.857,3.082h9.674c1.575,0,2.856-1.246,2.856-3.082
					V22.162C68.385,22.146,68.26,22.122,68.129,22.1z"/>
				<path style="fill:#0071A0;" d="M65.63,9.528c-0.004,0.002-0.008,0.005-0.013,0.005C65.622,9.533,65.626,9.53,65.63,9.528z"/>
				<path style="fill:#0071A0;" d="M67.546,21.987c0.056,0.012,0.113,0.025,0.168,0.036C67.659,22.013,67.602,21.999,67.546,21.987z
					"/>
				<path style="fill:#0071A0;" d="M66.894,21.822c0.072,0.021,0.145,0.043,0.217,0.061C67.038,21.865,66.966,21.844,66.894,21.822z
					"/>
			</g>
			<path style="fill:#0071A0;" d="M66.806,21.795v10.448H54.782V10.672h8.698c0.025-0.018,0.047-0.037,0.073-0.056
				c1.188-0.824,2.633-1.393,4.205-1.686c-0.384-0.815-1.15-1.335-2.1-1.335h-9.674c-1.369,0-2.363,1.083-2.363,2.575v23.747
				c0,1.492,0.994,2.576,2.363,2.576h9.674c1.37,0,2.362-1.084,2.362-2.576V22.085C67.612,22.013,67.207,21.912,66.806,21.795z"/>
			<path style="fill:#0071A0;" d="M78.312,13.13c-0.44-0.724-1.073-1.373-1.88-1.933c-1.666-1.156-3.886-1.792-6.247-1.792
				c-2.362,0-4.581,0.636-6.248,1.792c-0.806,0.56-1.438,1.209-1.88,1.933c-0.456,0.746-0.687,1.54-0.687,2.357
				c0,0.82,0.231,1.616,0.689,2.363c0.432,0.706,1.047,1.343,1.826,1.892l0.161,0.113l-0.851,2.407l2.664-1.525l0.11,0.043
				c1.356,0.53,2.735,0.79,4.214,0.79c2.361,0,4.581-0.637,6.247-1.793c0.807-0.558,1.439-1.208,1.88-1.932
				C78.769,17.099,79,16.306,79,15.487C79,14.67,78.769,13.876,78.312,13.13z"/>
		</g>
	</g>
</g>
<g id="Layer_4">
	<g>
		<g>
			<g>
				<path style="fill:#0071A0;" d="M26.284,77.708c0,0.261-0.287,0.475-0.637,0.475h-7.294c-0.351,0-0.637-0.214-0.637-0.475v-0.193
					c0-0.259,0.286-0.473,0.637-0.473h7.294c0.35,0,0.637,0.214,0.637,0.473V77.708z"/>
			</g>
			<g>
				<path style="fill:#0071A0;" d="M26.284,76.224c0,0.262-0.287,0.476-0.637,0.476h-7.294c-0.351,0-0.637-0.214-0.637-0.476v-0.192
					c0-0.262,0.286-0.476,0.637-0.476h7.294c0.35,0,0.637,0.214,0.637,0.476V76.224z"/>
			</g>
			<g>
				<path style="fill:#0071A0;" d="M26.284,74.74c0,0.261-0.287,0.474-0.637,0.474h-7.294c-0.351,0-0.637-0.213-0.637-0.474v-0.194
					c0-0.259,0.286-0.474,0.637-0.474h7.294c0.35,0,0.637,0.215,0.637,0.474V74.74z"/>
			</g>
			<path style="fill:#0071A0;" d="M18.961,78.837C19.396,80.095,20.592,81,22,81s2.601-0.905,3.038-2.163H18.961z"/>
			<path style="fill:#0071A0;" d="M22,51c-5.247,0-9.5,4.165-9.5,9.301c0,3,1.449,6.623,3.7,9.125
				c0.807,0.851,1.326,2.391,1.517,4.228h8.587c0.21-1.701,0.731-3.332,1.496-4.228c2.251-2.502,3.7-6.125,3.7-9.125
				C31.5,55.165,27.246,51,22,51z M18.38,72.925c-0.194-1.744-0.712-3.207-1.521-4.015c-2.248-2.377-3.699-5.82-3.699-8.669
				c0-4.88,4.256-8.835,9.501-8.835c0.171,0,0.341,0.003,0.509,0.011c-5.007,0.248-8.986,4.104-8.986,8.825
				c0,2.849,1.449,6.292,3.697,8.669c0.808,0.808,1.328,2.271,1.52,4.015H18.38z"/>
		</g>
	</g>
</g>
<g id="Layer_6">
	<g>
		<path style="fill:#0071A0;" d="M75.861,59.803H57.7c-0.132,0-0.238,0.107-0.238,0.238v2.68v2.751v3.169
			c-1.106,0.197-2.178,0.301-3.177,0.301c-0.05,0-0.098-0.001-0.146-0.002c0.595-0.865,1.436-1.839,2.603-2.863v-2.914
			c-3.927,2.446-5.685,4.133-5.739,5.48C50.998,68.729,51,68.81,51.01,68.89c0.017,0.135,0.106,0.361,0.178,0.509l0.129,0.268
			l1.336,2.771c0.061,0.159,0.136,0.312,0.225,0.458c0.617,1.014,2.266,1.594,4.524,1.594c0.021,0,0.04,0,0.061,0v0.45
			c0,0.579,0.47,1.048,1.048,1.048h17.352c0.132,0,0.239-0.106,0.239-0.238V60.042C76.101,59.91,75.993,59.803,75.861,59.803z
			 M53.479,72.529c-0.072-0.117-0.131-0.239-0.179-0.37l-0.657-1.362l-0.958-1.987c0.089,0.15,0.199,0.236,0.353,0.356
			c0.354,0.25,0.871,0.428,1.535,0.463c0.041,0.002,0.084,0.004,0.127,0.006c1.053,0.045,2.33-0.031,3.763-0.276
			c2.032-0.349,4.379-1.038,6.849-2.213c0.721-0.342,1.451-0.726,2.186-1.153c0.002,0,0.002-0.001,0.003-0.001
			c0.299-0.173,0.599-0.355,0.898-0.544c0.426-0.268,0.854-0.55,1.281-0.849c0.001-0.001-1.217-2.05-1.217-2.05l0.038,0.01
			l6.75,1.708l-1.455,5.751l-0.262,1.033v0.003v0.001l-0.002-0.001v-0.001l-0.002-0.004l-1.046-1.754l-0.141-0.235
			c-0.039,0.023-0.078,0.047-0.117,0.07c-0.336,0.202-0.669,0.396-1,0.583c0,0.001-0.001,0.001-0.002,0.001
			c-0.779,0.441-1.542,0.84-2.285,1.2c-4.278,2.076-7.905,2.859-10.477,2.871C55.338,73.794,53.934,73.278,53.479,72.529z"/>
		<path style="fill:#0071A0;" d="M80.81,56.605l-3.805,2.875c-0.105,0.08-0.19,0.25-0.19,0.382v15.452
			c0,0.131,0.068,0.156,0.151,0.054l3.489-4.242C80.756,70.761,81,70.08,81,69.606V56.699C81,56.568,80.915,56.525,80.81,56.605z"/>
		<path style="fill:#0071A0;" d="M80.169,56.014H64.707c-0.395,0-0.997,0.149-1.346,0.332l-5.01,2.632
			c-0.115,0.062-0.104,0.111,0.028,0.111h17.719c0.132,0,0.324-0.064,0.429-0.144l3.689-2.788
			C80.322,56.078,80.301,56.014,80.169,56.014z"/>
	</g>
</g>
<g id="Layer_5">
	<g>
		<g>
			<g>
				<path style="fill:#0071A0;" d="M22.25,95.03c-0.025-0.002-0.051,0.002-0.078,0.01c-0.088-0.021-0.205-0.028-0.355-0.039
					c-0.379-0.027-0.684,0.963-0.684,2.211c0.002,1.248,0.311,2.281,0.688,2.308c0.174,0.014,0.301,0.031,0.393,0.023
					c0.014,0.003,0.029,0.007,0.043,0.007c0.378,0.025,0.684-0.965,0.682-2.212C22.937,96.089,22.629,95.057,22.25,95.03z
					 M22.305,99.298c-0.01-0.002-0.043-0.019-0.092-0.095c-0.164-0.259-0.33-0.95-0.332-1.908c-0.002-1.303,0.293-1.953,0.42-1.944
					c0.008,0,0.043,0.019,0.09,0.095c0.166,0.259,0.333,0.949,0.334,1.907c0.002,0.555-0.055,1.069-0.159,1.451
					C22.451,99.216,22.33,99.3,22.305,99.298z"/>
				<path style="fill:#0071A0;" d="M23.932,102.707c-0.265-0.363-0.595-0.606-0.982-0.723c-1.67-0.506-3.977,1.625-4.334,2.049
					l-0.424,0.616l0.956,0.588c0.015,0.009,1.527,0.604,2.421,2.033c0.234,0.376,0.404,0.684,0.529,0.91
					c0.268,0.478,0.346,1.106,0.687,1.209c0.634,0.192,0.976-0.72,1.237-1.251C24.607,106.959,25.374,104.685,23.932,102.707z
					 M23.267,107.402c-0.449,0.914,0.01,0.094-0.993-1.271c-1.082-1.479-2.617-1.549-2.617-1.549s2.5-3.169,3.625-1.578
					C24.405,104.596,23.718,106.487,23.267,107.402z"/>
			</g>
			<path style="fill:#0071A0;" d="M35.994,112.892c0.122-3.971-1.63-7.28-4.434-9.493c0.131-0.237,0.25-0.557,0.293-0.973
				c0.186-1.758-2.003-1.763-1.554-1.521c0.229,0.124,0.401,0.359,0.401,0.359s0.69,0.914-0.152,1.412
				c-2.268-1.461-5.069-2.283-8.064-2.283c-2.059,0-4.535,0.773-5.742,1.402c-0.245,0.095-0.885,0.394-2.736,0.235
				c-4.265-1.178-6.6-0.943-5.875,2.519c0.458,2.186,0.976,3.222,1.237,3.539c-0.489,1.146-0.757,2.376-0.757,3.655
				c0,3.155,1.519,6.009,3.968,8.066c0.691,0.581-0.987,4.167,1.516,4.464c3.637,0.432,2.885-2.656,3.132-2.656
				c0.829,0,2.042,0.519,2.897,0.629c0.666,0.086,1.479,2.753,2.172,2.753c0.965,0,2.301,0,2.898,0c1.506,0,0.899-2.408,1.689-2.674
				c0.502-0.169,1.518-0.18,2.013-0.315c0.752-0.206,0.564,1.557,1.073,1.557c0.399,0,1.41,0.088,1.747,0.03
				c2.411-0.406,0.336-3.186,0.881-3.632C34.629,118.305,35.994,115.925,35.994,112.892z M14.244,114.113
				c0.332,0,0.601,0.314,0.601,0.702s-0.269,0.702-0.601,0.702c-0.33,0-0.6-0.314-0.6-0.702S13.914,114.113,14.244,114.113z
				 M8.828,104.789c-0.739-1.758-0.031-2.4,1.717-2.521c1.748-0.12,3.059,1.023,3.059,1.023s-1.022,0.358-2.253,1.73
				c-0.737,0.82-1.609,2.359-1.609,2.359S9.716,106.902,8.828,104.789z M11.97,109.896c-0.413-0.109-0.602-0.729-0.421-1.384
				c0.181-0.656,0.662-1.1,1.075-0.991c0.413,0.109,0.601,0.729,0.421,1.385C12.863,109.562,12.383,110.005,11.97,109.896z
				 M12.447,114.562c0,0.388-0.268,0.702-0.6,0.702c-0.331,0-0.6-0.314-0.6-0.702c0-0.389,0.269-0.703,0.6-0.703
				C12.179,113.859,12.447,114.174,12.447,114.562z M13.232,117.545c-0.974,0-1.844-0.317-2.46-0.818
				c0.548,0.291,1.212,0.465,1.931,0.465c1.864,0,3.375-1.146,3.375-2.56c0-0.675-0.352-1.284-0.914-1.741
				c0.871,0.463,1.443,1.228,1.443,2.094C16.607,116.398,15.097,117.545,13.232,117.545z M18.539,109.612
				c-0.181,0.655-0.662,1.099-1.074,0.99c-0.413-0.108-0.602-0.729-0.422-1.384c0.182-0.655,0.663-1.099,1.076-0.99
				C18.531,108.338,18.721,108.956,18.539,109.612z M24.231,108.069c-0.271,0.543-0.576,1.159-1.298,0.94
				c-0.382-0.116-0.545-0.41-0.816-0.896c-0.125-0.224-0.295-0.53-0.529-0.904c-0.877-1.404-2.311-2.304-2.324-2.313l-0.72-0.441
				l0.54-0.643c0.365-0.434,2.273-2.569,4.009-2.044c0.411,0.125,0.761,0.381,1.038,0.763
				C25.606,104.554,24.828,106.869,24.231,108.069z"/>
		</g>
	</g>
</g>
<g id="Layer_7">
	<g>
		<g>
			<g>
				<g>
					<rect x="54.463" y="99.21" style="fill:#0071A0;" width="23.071" height="0.934"/>
					<rect x="54.463" y="102.111" style="fill:#0071A0;" width="23.071" height="0.935"/>
					<rect x="54.463" y="104.942" style="fill:#0071A0;" width="14.777" height="0.934"/>
					<rect x="54.463" y="108.002" style="fill:#0071A0;" width="11.536" height="0.934"/>
				</g>
				<path style="fill:#0071A0;" d="M51.254,95v17.175h13.431c0.354-0.285,0.705-0.564,1.055-0.84H52.094V96.68h27.812v14.655h-5.722
					c-0.255,0.275-0.52,0.555-0.796,0.84h7.358V95H51.254z"/>
			</g>
			<g>
				<path style="fill:#0071A0;" d="M64.022,113.673c3.28-2.741,6.54-5.092,8.964-6.518l1.888,2.297
					c-1.812,2.146-4.666,4.95-7.904,7.71L64.022,113.673z"/>
				<path style="fill:#0071A0;" d="M57.907,117.631c-1.556,1.729-2.575,3.315-2.63,3.86c-0.043,0.058-0.274,0.467-0.312,0.431
					c-0.297-0.266,0.923-2.498,2.715-4.496c1.432-1.594,2.896-2.919,3.58-3.255c0.004-0.003,0.008-0.01,0.012-0.013
					c0.16-0.136,0.398-0.116,0.532,0.045c0.136,0.157,0.112,0.396-0.046,0.533c-0.157,0.132-0.396,0.112-0.531-0.047
					c-0.031-0.037-0.053-0.076-0.067-0.12C60.396,115.083,59.14,116.256,57.907,117.631z"/>
				<path style="fill:#0071A0;" d="M63.708,115.054c-0.219,0.182-0.438,0.363-0.657,0.549c-4.993,4.213-8.26,8.597-8.43,8.396
					c-0.17-0.2,1.474-3.037,8.041-8.85c0.217-0.192,0.433-0.38,0.646-0.565l-0.15-0.182c-3.484,2.984-6.216,5.768-7.694,7.733l0,0
					c-0.016,0.021-0.028,0.04-0.044,0.06c-0.09,0.121-0.174,0.237-0.253,0.351c-0.005,0.008-0.011,0.015-0.015,0.021l0,0
					c-0.783,1.121-1.091,1.922-0.805,2.261c0.287,0.339,1.127,0.169,2.361-0.413l0,0c0.018-0.006,0.037-0.017,0.053-0.024
					c0.137-0.065,0.277-0.135,0.426-0.211c0,0,0,0,0.001-0.001c2.188-1.128,5.39-3.352,8.917-6.286L63.708,115.054z"/>
				<path style="fill:#0071A0;" d="M73.622,106.692c1.871-1.07,3.189-1.541,3.55-1.145l-1.778,1.357
					c-0.163-0.105-0.378-0.103-0.536,0.026c-0.196,0.156-0.227,0.443-0.068,0.639c0.156,0.196,0.443,0.227,0.64,0.07
					c0.161-0.13,0.208-0.345,0.135-0.526l1.633-1.529c0.302,0.433-0.385,1.644-1.738,3.285L73.622,106.692z"/>
			</g>
		</g>
	</g>
	<g>
		<g>
			<rect x="18.076" y="149.021" style="fill:#0071A0;" width="7.645" height="0.643"/>
			<path style="fill:#0071A0;" d="M36.949,154.976l-4.343-2.391v2.391h-0.458l-4.343-2.391v2.391h-1.641v-5.096h-8.304v5.096h-1.675
				v4.896h-0.568v-0.856h-0.643v-16.536h-2.182v16.536h-2.078v-16.536H8.533v16.536h-0.31v0.856H7v4.898h30v-9.795H36.949z
				 M22.774,151.047h2.191v0.807h-2.191V151.047z M19.06,151.047h2.191v0.807H19.06V151.047z M19.06,152.399h2.191v0.803H19.06
				V152.399z M22.451,159.872h-4.367v-2.832h4.367V159.872z M22.774,152.399h2.191v0.803h-2.191V152.399z M28.869,159.872h-4.366
				v-2.832h4.366V159.872z M35.289,159.872h-4.368v-2.832h4.368V159.872z"/>
		</g>
	</g>
</g>
<g id="Layer_8">
	<g>
		<path style="fill:#0071A0;" d="M69.793,155.328l-0.332-1.149c0.834-1.009,2.14-2.905,2.558-4.263
			c0.335-0.124,0.691-0.562,0.837-1.51c0.155-1.008,0.018-1.898-0.305-2.054c-0.16-4.108-2.771-7.353-6.52-7.353
			c-3.746,0-6.357,3.24-6.52,7.344c-0.335,0.133-0.48,1.036-0.321,2.062c0.147,0.963,0.511,1.406,0.851,1.512
			c0.473,1.533,1.894,3.587,2.887,4.646l-0.332,0.736c-0.033-0.019-9.859,1.073-9.062,8.834c0.531,5.175,5.982,4.861,12.49,4.861
			c6.509,0,12.489,0.336,12.489-4.861C78.513,157.176,73.815,156.723,69.793,155.328z M68.118,166.332l-2.002,2.102l-2.086-2.102
			l1.742-5.67l-1.675-3.131h4.035l-1.673,3.131L68.118,166.332z"/>
	</g>
</g>
<g id="Layer_9">
	<g>
		<g>
			<rect x="28.951" y="184.775" style="fill:#0071A0;" width="1.99" height="0.891"/>
			<path style="fill:#0071A0;" d="M34.773,194.666l-12.196-8.168c-0.315-0.211-0.834-0.211-1.149,0l-12.2,8.168
				c-0.316,0.211-0.576,0.738-0.576,1.168V213h8.113v-15.711h10.47V213h8.112v-17.166C35.348,195.404,35.089,194.877,34.773,194.666
				z"/>
			<path style="fill:#0071A0;" d="M37.426,193.101l-6.707-4.491v-2.719h-1.544v1.685l-6.598-4.417c-0.315-0.211-0.834-0.211-1.149,0
				l-14.853,9.942C6.259,193.312,6,193.49,6,193.494c0,0.006,0.268,0.166,0.592,0.357l0.857,0.499
				c0.325,0.19,0.592,0.345,0.592,0.343s0.258-0.177,0.575-0.389l12.812-8.576c0.315-0.213,0.834-0.213,1.149,0l12.8,8.57
				c0.316,0.211,0.842,0.229,1.169,0.039l0.863-0.504c0.324-0.191,0.591-0.349,0.591-0.349S37.74,193.312,37.426,193.101z"/>
		</g>
	</g>
</g>
<g id="Layer_10">
	<g>
		<circle style="fill:#0071A0;" cx="65.082" cy="195.39" r="0.897"/>
		<path style="fill:#0071A0;" d="M81.52,190.123h1.324c0.363,0,0.656-0.294,0.656-0.656v-0.386c0-0.362-0.293-0.654-0.656-0.654
			H49.156c-0.362,0-0.656,0.292-0.656,0.654v0.386c0,0.362,0.294,0.656,0.656,0.656h1.324v15.754h-1.324
			c-0.362,0-0.656,0.294-0.656,0.658v0.384c0,0.363,0.294,0.655,0.656,0.655h33.688c0.363,0,0.656-0.292,0.656-0.655v-0.384
			c0-0.364-0.293-0.658-0.656-0.658H81.52V190.123z M59.689,200.142c0,0.36-0.293,0.654-0.656,0.654h-4.971
			c-0.362,0-0.656-0.294-0.656-0.654v-6.443c0-0.36,0.294-0.654,0.656-0.654h4.971c0.363,0,0.656,0.294,0.656,0.654V200.142z
			 M65.187,206.049h-0.208v-4.531h0.208V206.049z M70.049,205.392c0,0.364-0.295,0.657-0.657,0.657h-3.106v-7.489l0.268,0.689
			c0.05,0.126,0.145,0.222,0.259,0.275c0.04,0.026,0.083,0.048,0.131,0.061c0.307,0.093,1.714,0.507,1.828,0.538
			c0,0,0.488,0.173,0.674-0.223c0,0,0.037-0.088,0.05-0.178c0.018-0.17-0.044-0.368-0.198-0.458
			c-0.355-0.176-1.464-0.47-1.431-0.462l-0.449-0.132l-0.492-1.312c-0.305-0.84-1.227-0.793-1.227-0.793h-1.58
			c-0.706,0-1.277,0.595-1.277,1.329v3.061c0,0.242,0.193,0.438,0.434,0.438c0.242,0,0.437-0.195,0.437-0.438v-2.926h0.169v8.02
			h-1.333c-0.364,0-0.656-0.293-0.656-0.657v-11.693c0-0.36,0.292-0.654,0.656-0.654h6.846c0.362,0,0.657,0.294,0.657,0.654V205.392
			z M78.531,200.142c0,0.36-0.294,0.654-0.656,0.654h-4.971c-0.361,0-0.656-0.294-0.656-0.654v-6.443
			c0-0.36,0.295-0.654,0.656-0.654h4.971c0.362,0,0.656,0.294,0.656,0.654V200.142z"/>
	</g>
</g>
<g id="Layer_11">
	<g>
		<g>
			<path style="fill:#0071A0;" d="M13.847,253.099c0.22-0.802,0.986-1.396,1.907-1.396c0.312,0,0.604,0.075,0.866,0.197
				c0.579-0.429,1.293-0.684,2.072-0.684c0.001,0,0.002,0,0.005,0c0.239-0.541,0.86-0.93,1.596-0.93
				c0.379,0,0.726,0.104,1.008,0.278c0.63-0.318,1.367-0.508,2.161-0.508c1.893,0,3.488,1.044,4.003,2.478
				c0.77,0.091,1.373,0.589,1.483,1.225c0.914,0.626,1.522,1.66,1.522,2.845c0,0.136-0.026,0.266-0.04,0.396H11.763
				c-0.047-0.225-0.079-0.455-0.079-0.693C11.684,254.859,12.577,253.62,13.847,253.099z"/>
			<path style="fill:#0071A0;" d="M23.554,239.118c2.89-3.715,5.931-3.771,5.931-3.771c-3.797,1.537-7.321,5.919-8.029,6.836
				c-0.845-4.275-2.653-9.191-6.512-11.65c0,0,3.818,0.852,6.276,6.987c0,0,5.342-7.311-9.836-10.521c0,0,1.447,15.988,8.535,11.506
				l0.267,0.735c0.294,1.065,0.588,3.771,0.642,6.502c-0.806-0.525-3.449-2.159-5.644-2.481c0,0,1.824-0.587,4.337,1.338
				c0,0,0.514-4.324-6.693-1.919c0,0,4.192,5.9,6.124,2.312l1.884,1.518c0.001,1.135-0.043,2.249-0.151,3.223
				c0.218,0.033,0.431,0.085,0.631,0.171c0.28-0.121,0.575-0.213,0.874-0.284c0.002-0.908-0.048-3.415-0.543-6.388l3.107-3.981
				c3.967,4.463,7.863-5.618,7.863-5.618C21.597,232.841,23.554,239.118,23.554,239.118z"/>
		</g>
	</g>
</g>
<g id="Layer_12">
	<path style="fill:#0071A0;" d="M79.384,230.852H52.615c-0.745,0-1.349,0.549-1.349,1.226v16.925c0,0.678,0.604,1.229,1.349,1.229
		h26.769c0.746,0,1.351-0.551,1.351-1.229v-16.925C80.734,231.4,80.13,230.852,79.384,230.852z M79.103,248.266H52.898v-15.61
		h26.204V248.266z"/>
	<rect x="59.009" y="237.766" style="fill:#0071A0;" width="1.967" height="8.279"/>
	<rect x="61.962" y="236.576" style="fill:#0071A0;" width="1.967" height="9.469"/>
	<rect x="64.911" y="239.241" style="fill:#0071A0;" width="1.968" height="6.804"/>
	<rect x="67.863" y="241.619" style="fill:#0071A0;" width="1.968" height="4.426"/>
	<rect x="70.817" y="238.011" style="fill:#0071A0;" width="1.966" height="8.034"/>
	<rect x="58.357" y="246.435" style="fill:#0071A0;" width="15.078" height="0.573"/>
	<path style="fill:#0071A0;" d="M82.816,250.147H49.184c-0.661,0-0.88,0.432-0.49,0.958l0.58,0.781
		c0.39,0.525,1.25,0.958,1.91,0.958h-0.097c-0.07,0-0.128,0.067-0.128,0.15c0,0.085,0.058,0.153,0.128,0.153h0.847
		c0.071,0,0.127-0.068,0.127-0.153c0-0.083-0.056-0.15-0.127-0.15h28.125c-0.068,0-0.129,0.067-0.129,0.15
		c0,0.085,0.061,0.153,0.129,0.153h0.847c0.071,0,0.128-0.068,0.128-0.153c0-0.083-0.057-0.15-0.128-0.15h-0.088
		c0.66,0,1.521-0.433,1.91-0.958l0.579-0.781C83.697,250.579,83.479,250.147,82.816,250.147z"/>
</g>
<g id="Retail">
	<g>
		<path style="fill:#0071A0;" d="M17.231,276.218l6.226,0.364c0.001,0,0.001,0,0.001-0.001l0.002-0.018
			c0.014-0.107,0.028-0.218,0.043-0.326l-6.199-0.406C17.277,275.964,17.252,276.091,17.231,276.218z"/>
		<path style="fill:#0071A0;" d="M23.984,277.429c-0.04,0.338-0.068,0.668-0.079,0.977c0.069,0.04,0.125,0.097,0.156,0.164
			c0.087,0.19-0.039,0.402-0.281,0.479c-0.243,0.073-0.51-0.021-0.597-0.209c-0.06-0.129-0.019-0.27,0.088-0.37
			c0.01-0.336,0.038-0.692,0.082-1.067c-1.399-0.061-2.915-0.146-4.417-0.259l-0.9-0.077c-0.31-0.027-0.606-0.058-0.896-0.087
			c-0.027,0.314-0.044,0.643-0.062,1.017l-0.011,0.199c0.052,0.048,0.087,0.108,0.099,0.174c0.031,0.185-0.135,0.358-0.371,0.386
			c-0.238,0.027-0.455-0.101-0.487-0.286c-0.018-0.108,0.035-0.212,0.127-0.286l0.011-0.207c0.024-0.456,0.042-0.846,0.081-1.224
			l-1.265-0.648l1.337,0.078c0.021-0.128,0.044-0.257,0.072-0.391l-2.313-0.151l0.061,1.009c-0.911-0.127-1.456-0.222-1.456-0.222
			l-1.474,22.69L30.293,301l-0.947-23.438C29.346,277.562,27.173,277.554,23.984,277.429z"/>
		<path style="fill:#0071A0;" d="M16.548,278.308c-0.003,0.09,0.08,0.166,0.188,0.168c0.107,0.003,0.2-0.069,0.205-0.16l0.018-0.324
			c0.068-1.383,0.108-2.14,0.715-3.828c0.539-1.495,1.703-2.562,3.039-2.788c0.94-0.159,1.832,0.126,2.442,0.782
			c0.889,0.955,0.652,2.718,0.425,4.423c-0.1,0.751-0.195,1.459-0.19,2.085c0.001,0.089,0.088,0.161,0.197,0.159
			c0.11-0.004,0.195-0.08,0.195-0.17c-0.003-0.603,0.088-1.303,0.188-2.046c0.237-1.769,0.481-3.598-0.502-4.657
			c-0.706-0.757-1.736-1.084-2.826-0.901c-1.501,0.256-2.751,1.386-3.34,3.023c-0.624,1.729-0.663,2.503-0.732,3.908L16.548,278.308
			z"/>
		<path style="fill:#0071A0;" d="M19.963,272.834c0.719-0.582,1.697-0.847,2.679-0.726c0.121,0.015,0.239,0.037,0.356,0.063
			c-0.111-0.109-0.229-0.208-0.355-0.292c-1.077-0.113-2.137,0.182-2.922,0.816c-0.913,0.739-1.05,1.896-1.037,3.105l0.329,0.021
			C18.998,274.642,19.118,273.518,19.963,272.834z"/>
		<path style="fill:#0071A0;" d="M25.555,274.465c0.241,0.758,0.342,1.296,0.374,1.812l0.332,0.022
			c-0.029-0.54-0.131-1.101-0.385-1.902c-0.334-1.045-1.087-1.835-2.097-2.241c0.085,0.126,0.159,0.26,0.22,0.399
			C24.733,272.974,25.291,273.64,25.555,274.465z"/>
		<path style="fill:#0071A0;" d="M32.895,297.954l-1.186-21.18l-7.575-0.496c-0.013,0.115-0.028,0.228-0.043,0.343l6.162,0.36
			l-3.004,0.427c1.426,0.031,2.342,0.034,2.364,0.034h0.114l0.667,16.669l0.545,0.892C31.397,295.751,32.334,297.134,32.895,297.954
			z"/>
		<path style="fill:#0071A0;" d="M30.485,295.279l0.233,5.558l2.167-1.958l-0.086-0.125
			C32.363,298.123,31.057,296.215,30.485,295.279z"/>
	</g>
</g>
<g id="Professional_Services">
	<g>
		<path style="fill:#0071A0;" d="M65.878,294.006c0.611,0,1.129-0.33,1.129-0.72v-0.927h-2.256v0.927
			C64.751,293.676,65.267,294.006,65.878,294.006z"/>
		<path style="fill:#0071A0;" d="M82.575,276.121v8.235l-0.043,0.51c-0.551,2.241-6.752,5.567-14.648,6.063v0.2h-4.012v-0.203
			c-7.894-0.533-14.096-4.075-14.646-6.315l-0.045-0.255v-7.916c-0.281,0.437-0.445,0.95-0.445,1.504v18.325
			c0,1.534,1.254,2.79,2.789,2.79h28.949c1.537,0,2.791-1.256,2.791-2.79v-18.325C83.265,277.249,83.003,276.611,82.575,276.121z
			 M67.884,292.359h-0.213v0.927c0,0.704-0.803,1.277-1.793,1.277c-0.988,0-1.793-0.573-1.793-1.277v-0.927h-0.213v-0.351h4.012
			V292.359z M67.884,291.939h-4.012v-0.189h4.012V291.939z M67.884,291.681h-4.012v-0.212h4.012V291.681z M67.884,291.399h-4.012
			v-0.2h4.012V291.399z"/>
		<path style="fill:#0071A0;" d="M62.593,274.265H62.3v-0.068c0-0.192-0.121-0.362-0.32-0.498c0.678-1.247,2.22-2.149,3.984-2.149
			c1.778,0,3.334,0.916,4,2.181c-0.173,0.128-0.277,0.288-0.277,0.467v0.068H69.35v0.738h3.409v-0.738h-0.338v-0.068
			c0-0.227-0.164-0.424-0.43-0.565c-0.627-2.078-3.062-3.631-5.988-3.631c-2.918,0-5.354,1.546-5.982,3.621
			c-0.279,0.14-0.455,0.344-0.455,0.575v0.068h-0.381v0.738h3.408V274.265z M70.087,273.959h1.99
			c-0.002-0.006-0.002-0.011-0.004-0.019c0.075,0.078,0.119,0.164,0.119,0.256v0.068H71.94c-0.224,0.224-0.537,0.368-0.887,0.368
			c-0.352,0-0.664-0.145-0.887-0.368h-0.254v-0.068c0-0.103,0.057-0.199,0.15-0.283C70.069,273.93,70.08,273.943,70.087,273.959z
			 M62.071,274.265h-0.295c-0.226,0.224-0.539,0.368-0.887,0.368c-0.35,0-0.664-0.145-0.889-0.368h-0.209v-0.068
			c0-0.103,0.058-0.197,0.15-0.281c-0.004,0.015-0.01,0.029-0.012,0.044h1.908c0.012-0.027,0.029-0.053,0.043-0.081
			c0.119,0.092,0.189,0.2,0.189,0.318V274.265z"/>
		<rect x="52.667" y="299.313" style="fill:#0071A0;" width="1.882" height="0.687"/>
		<rect x="77.663" y="299.313" style="fill:#0071A0;" width="1.881" height="0.687"/>
		<path style="fill:#0071A0;" d="M64.091,290.386v-0.999c0-0.386,0.744-0.696,1.666-0.696h0.246c0.92,0,1.664,0.311,1.664,0.696
			v1.005c8.006-0.463,13.797-3.924,14.314-5.83l0.037-0.455v-8.47l-0.008-0.082c-0.043-0.312-0.334-0.546-0.684-0.546H50.43
			c-0.35,0-0.643,0.233-0.681,0.546l-0.012,0.066v8.462l0.033,0.193C50.28,286.299,56.347,289.889,64.091,290.386z M81.599,275.959
			c0,0.685-0.24,1.24-0.533,1.24h-30.26c-0.291,0-0.527-0.556-0.527-1.24H81.599z"/>
	</g>
</g>
</svg>
