<?xml version="1.0" encoding="utf-8"?>
<!-- Generator: Adobe Illustrator 18.1.1, SVG Export Plug-In . SVG Version: 6.00 Build 0)  -->
<svg version="1.1" id="Wasps" xmlns="http://www.w3.org/2000/svg" xmlns:xlink="http://www.w3.org/1999/xlink" x="0px" y="0px"
	 width="390px" height="150px" viewBox="0 0 390 150" enable-background="new 0 0 390 150" xml:space="preserve">
<g>
	<path fill="#FAB900" d="M140.6,65.4c2.2-13.9,26-21.6,53.2-17.3c27.2,4.3,47.4,19,45.2,32.9c-2.2,13.9-26,21.6-53.2,17.3
		C158.6,94,138.4,79.2,140.6,65.4"/>
	
		<ellipse transform="matrix(-0.9877 -0.1565 0.1565 -0.9877 365.7647 175.0937)" fill="none" stroke="#010202" stroke-width="4.9428" stroke-miterlimit="3.864" cx="189.8" cy="73.2" rx="49.8" ry="25.4"/>
	<path fill="#010202" d="M197.3,48.1c0,0,8.6-16.5,18.8-24.7c10.2-8.2,26.8-16.4,23.9-5.5c-1.9,7.2-1.5,10.5-1.5,10.5
		s10.9-4.9,12.1,3.7c0.8,5.9-3.8,5.2-2.5,13.4c0.7,4.7-1.8,8.6-6.2,8.6c-21.9,0-28.4,2.7-34.8,4.7c0,0,0.1,0.3,0.4,1.9
		c0,0,17,3.1,17,24.2c0,21.2-20.2,25.7-20.2,25.7s1.4-2.9-0.4-7.8c-1.8-4.8-5.2-10.4-4.4-14.9c1.7-9.5-4.4-10.4-0.1-22
		c0,0-6.1,0.3-8.6-0.7c-5.3-2.2-12.7-6.9-13.1-12.6c0,0-1.7,0.7-4.9,0.7c0,0-9.3-0.4-9.3-6.7c0,0-0.4-7.1,11.3-8.9
		c8,0,7.6,6.6,8.1,6.5C189.2,42.9,197.3,48.1,197.3,48.1"/>
	<path fill="#9A979C" d="M199.4,49.5c0,0,9-16.1,15.6-22.1c7.4-6.7,24.5-18.9,22.1-8c-2.6,11.6-0.4,12-0.4,12s12.9-5.9,11.6,0.8
		c-1,5.4-2.8,5.4-2.9,9.1c-0.1,5,2.7,10.5-8.4,10.2c-25-0.8-31.1,5.4-31.4,4.7C204.7,54.3,199.4,49.5,199.4,49.5"/>
</g>
<g>
	<defs>
		<path id="SVGID_1_" d="M235,15.1c-4.6,0-14.7,7.5-20,12.3c-6.6,6-15.6,22.1-15.6,22.1s5.4,4.8,6.2,6.7c0.2,0.4,1.7-1,6.3-2.4
			c4.7-1.4,12.5-2.8,25.1-2.4c11.1,0.4,8.3-5.1,8.4-10.2c0.1-3.7,1.9-3.7,2.9-9.1c1.3-6.7-11.6-0.8-11.6-0.8s-2.1-0.4,0.4-12
			C237.8,16.3,236.9,15.1,235,15.1C235,15.1,235,15.1,235,15.1"/>
	</defs>
	<clipPath id="SVGID_2_">
		<use xlink:href="#SVGID_1_"  overflow="visible"/>
	</clipPath>
	<path clip-path="url(#SVGID_2_)" fill-rule="evenodd" clip-rule="evenodd" fill="#010202" d="M201.4,52.1c0,0,8.2-13.4,9.9-16.7
		c1.7-3.2,3.2-4.4,3.2-4.4s-2.1,2.2-2.1,5.8c0,1.4,3.5-2.1,5-4.5c1.8-2.8,4.9-9.2,7-10.4c0,0-4.9,7.1-4.6,9.4
		c0.3,2.3,9.2-7.5,11.6-13.1c0,0-1.1,6.1-7.4,12.8c0,0,4.1-1.4,6.6-3c0,0-1.5,2.2-9.4,5.9c-4.5,2.1-4,2.1-6.8,4
		c-3.3,2.3-3.1,1.7-5.1,4.9c-1.8,2.9,13.6-10.1,27.2-13.9l0.2,2.6c0,0-16.9,4-34.3,21.3L201.4,52.1"/>
	<path clip-path="url(#SVGID_2_)" fill-rule="evenodd" clip-rule="evenodd" fill="#010202" d="M203.7,54.2c0,0,10.1-8.8,16.1-11.5
		c0,0,5-6.7,1.5-0.5c0,0,5-1,6.7-2.9c1.7-1.9,6.3-5.7,8-6.2c0,0-3.8,3.5-4.5,5.3c-0.7,1.9,9.5-2.4,14.3-7.3c0,0-3.4,5-6,6.4
		c-2.5,1.4,1.3,1.3,4-0.4c0,0-1.1,3.2-7.7,3.1c-6.6-0.1-15.7,3.8-19.5,5.9c0,0,9.3,2.4,12.6,0.4c2.6-1.6,4.3-3.6,4.3-3.6l-2.1,3.6
		c0,0,3.8,2.2,9.2-3.5c0,0-1.5,2.3-2.4,3.4c-1,1,4.3-0.5,5-3.3c0,0,1.2,2.5-2.6,4.1c-3.8,1.6-10.5,1.5-19,1.6
		c-7.4,0.1-4.7-1.6-10.2,1.6c-5.6,3.3-6.7,5.2-6.7,5.2L203.7,54.2"/>
</g>
<g>
	<path fill="#010202" d="M201.9,65.8c0,0-2.4,4.3-1.1,8.4c1.2,4.1,1.7,5.9,1.4,9.6c-0.3,3.8,0,9.6,1.8,12.7
		c1.8,3.1,4.1,9.3,3.1,10.8c-1,1.5,14.4-7.1,14.4-22.9c0-15.8-13.7-21.7-15.1-21.6C204.8,62.9,201.9,65.8,201.9,65.8"/>
</g>
<g>
	<defs>
		<path id="SVGID_3_" d="M206.2,62.7c-1.4,0.1-4.3,3.1-4.3,3.1s-2.4,4.3-1.1,8.4c1.2,4.1,1.7,5.9,1.4,9.6c-0.3,3.8,0,9.6,1.8,12.7
			c1.8,3.1,4.1,9.3,3.1,10.8c-1,1.5,14.4-7.1,14.4-22.9C221.3,68.6,207.8,62.7,206.2,62.7C206.2,62.7,206.2,62.7,206.2,62.7"/>
	</defs>
	<clipPath id="SVGID_4_">
		<use xlink:href="#SVGID_3_"  overflow="visible"/>
	</clipPath>
	<path clip-path="url(#SVGID_4_)" fill="#FAB900" d="M200.8,67.7c0,0,4,1.8,9.7-4.1c5.8-5.9-4.8-2.1-4.8-2.1l-4.5,2.6L200.8,67.7"/>
	<path clip-path="url(#SVGID_4_)" fill="#FAB900" d="M199.8,72.7c0,0,6.8,1.2,13.8-6.3l2.2,1.9c0,0-3.2,7.9-15.2,7.6L199.8,72.7"/>
	<path clip-path="url(#SVGID_4_)" fill="#FAB900" d="M201.5,79.7c0,0,10.6,0.5,17.4-7.8l1.6,3.5c0,0-9.4,10-19.2,6.4L201.5,79.7"/>
	<path clip-path="url(#SVGID_4_)" fill="#FAB900" d="M201.6,87.1c0,0,12.1,2,20-7l0.5,4.3c0,0-8.3,8.4-20.5,4.9V87.1"/>
	<path clip-path="url(#SVGID_4_)" fill="#FAB900" d="M202.2,94.1c0,0,7.9,2.9,18.8-2.6l-1.3,4.4c0,0-6.3,3.2-16.8,1.1L202.2,94.1"/>
	<path clip-path="url(#SVGID_4_)" fill="#FAB900" d="M206.2,101.9c0,0,5.5,2.4,8.8,0l-3.8,3.9l-4.5,2.3L206.2,101.9"/>
</g>
<g>
	<path fill="#FFFFFF" d="M171.1,43c0-0.5,0.6-1,1.4-1c0.8,0,1.4,0.4,1.4,1c0,0.5-0.6,1-1.4,1C171.7,44,171.1,43.5,171.1,43"/>
	<path fill="#010202" d="M170.6,39.3c0,0-2.2-4.1-7.2-4.1c-4.9,0-8.1,3.8-8.1,3.8s-0.8,1.4,0.9,0.9c2-0.6,6.7-5.9,12.4,0.5
		L170.6,39.3"/>
	<path fill="#010202" d="M168.4,40.3c0,0-1.4-1.5-3.7-1.5c-2.2,0-6.3,1.3-7.5,3.4c-0.5,0.9,0.2,1.6,1.4,1c0.9-0.4,4-3.6,8.7-1.2
		L168.4,40.3"/>
	<path fill="#010202" d="M181.2,58.1c0,0-2.4,4.2-4.2,4.5c-0.9,0.2-3.9,0-4.3-0.1c-0.4-0.1-1.1-1-2.5-1c-1.3,0-2.1,0.7-2.1,0.7
		s-2.8,0-4-0.3c-1.1-0.3-2.9-1.6-4.1-1.5c-1.1,0.1-2,0.5-2.4,0.9c-0.4,0.4-1.6,0.4-2.6,0.5c-1,0.1-6.1,1.7-2.8,2.4
		c3.3,0.7,4.3,0.6,5.1,0.5c0.8-0.1,1.5,0.4,2.6,0.4c1.1,0,1.9-0.7,3.6-0.5c1.7,0.2,3.3,0.2,3.3,0.2s1.2,1.1,2.4,1.2
		c1.1,0.1,3.1-0.1,3.5-0.5c0.4-0.4,2.9-0.2,3.6-0.2c0.7,0,2.6,0.7,3.3,0.4c1.6-0.8,4.3-4.5,4.3-4.5L181.2,58.1"/>
	<path fill="#010202" d="M186.1,61.8c0,0-4.3,5.6-6.1,6.5c-1.7,0.9-2.2,0.3-3.7,0.8c-1.5,0.5-2.3,0.9-2.8,1.9
		c-0.6,0.9-1.9,1.1-2.5,1.1c-0.6,0-1.8-0.7-2.9-0.3c-1.1,0.4-2.2,1.4-2.2,1.4s-2.7,0.3-3.8,0.3c-1,0-2.2-0.4-3.4-0.4
		c-1.2,0-2.1,0.2-5,1.9c-2.9,1.7,0.9,2.4,2.7,2.2c1.9-0.2,7.7-0.9,9-0.7c1.2,0.2,3,0,4.3-0.1c1.2-0.1,2.2-1,2.6-1.4
		c0.4-0.4,1.7-0.2,2.1-0.5c0.4-0.3,2.6-0.7,3.7-1c1-0.4,2-1.5,2.5-2.4c0.5-0.8,3.2-2.3,4.7-3.1c1.5-0.8,4.7-4.4,4.7-4.4L186.1,61.8"
		/>
	<path fill="#010202" d="M197.5,64.7c0,0-5.2,1.3-6.1,2.9c-0.4,0.8-1.1,3.7-1.1,4.1c0,0.4,0.8,1.3,0.5,2.6c-0.4,1.3-1.3,1.8-1.3,1.8
		s-0.8,2.7-0.8,3.9c0,1.2,1,3.2,0.5,4.2c-0.4,1.1-1.1,1.8-1.6,2.1c-0.5,0.3-0.9,1.4-1.2,2.4c-0.4,1-3.6,5.5-3.4,2.1
		c0.2-3.3,0.6-4.3,0.9-5c0.3-0.7,0-1.5,0.3-2.6c0.3-1.1,1.2-1.7,1.5-3.3c0.3-1.7,0.7-3.2,0.7-3.2s-0.9-1.4-0.7-2.6
		c0.2-1.1,1-3,1.5-3.2c0.5-0.3,1-2.8,1.2-3.4c0.2-0.6,0-2.7,0.5-3.3c1.3-1.4,6.2-3,6.2-3L197.5,64.7"/>
	<path fill="#010202" d="M149.9,116v0.6c-0.7,0-1.2,0.1-1.5,0.2c-0.5,0.2-0.8,0.5-0.8,1c0,0.2,0,0.4,0.1,0.6
		c0.1,0.2,0.2,0.5,0.3,0.8l5.2,12.6l3.8-9.4l-1.7-4c-0.3-0.7-0.8-1.2-1.4-1.5c-0.4-0.2-0.9-0.2-1.7-0.2V116h9.6v0.6
		c-0.9,0-1.5,0.1-1.9,0.2c-0.5,0.2-0.8,0.6-0.8,1.1c0,0.2,0,0.4,0.1,0.5c0,0.1,0.2,0.4,0.3,0.9l5.2,12.5l4.5-11.3
		c0.3-0.6,0.4-1.2,0.5-1.7c0.1-0.3,0.1-0.5,0.1-0.7c0-0.6-0.3-1.1-0.9-1.3c-0.3-0.1-0.9-0.2-1.6-0.2V116h7.1v0.6
		c-0.6,0.1-1.1,0.2-1.5,0.4c-0.6,0.3-1.1,0.9-1.4,1.6l-3.8,9.9l-1.5,3.8l-2.1,6.1h-0.5l-1.4-3.9l-4.3-10.3l-5.5,14.2h-0.5l-2.6-7
		l-3.1-7.8c-1.3-3.2-2.2-5.2-2.7-5.9c-0.5-0.7-1.3-1.1-2.3-1.2V116H149.9"/>
	<path fill="#010202" d="M187.1,135c1.4,1.6,3.8,2.3,5.9,2.3c1.1,0,2.1-0.3,2.9-1c0.8-0.7,1.3-1.6,1.3-2.8c0-1.1-0.4-2-1.3-2.8
		c-0.5-0.5-1.7-1.3-3.5-2.3l-3.1-1.8c-0.9-0.5-1.7-1.1-2.2-1.6c-1-1.1-1.5-2.2-1.5-3.5c0-1.7,0.6-3.1,1.8-4.2
		c1.2-1.1,2.8-1.7,4.8-1.7c0.8,0,1.8,0.2,2.9,0.6c1.2,0.4,1.8,0.6,2,0.6c0.4,0,0.7-0.1,0.9-0.3c0.2-0.2,0.3-0.5,0.4-0.8h0.7l0.8,7.1
		h-0.9c-0.6-2.1-1.5-3.6-2.8-4.5c-1.3-0.8-2.5-1.3-3.8-1.3c-1,0-1.8,0.3-2.6,0.8c-0.7,0.5-1.1,1.3-1.1,2.2c0,0.9,0.3,1.6,0.8,2.2
		c0.6,0.6,1.4,1.3,2.6,1.9l3.1,1.8c2,1.1,3.4,2.2,4.2,3.1c0.8,1,1.2,2.1,1.2,3.4c0,1.8-0.7,3.2-2.1,4.4c-1.4,1.2-3.2,1.8-5.4,1.8
		c-1.1,0-2.3-0.2-3.5-0.6c-1.2-0.4-1.9-0.6-2.1-0.6C187.3,137.4,186.3,134.1,187.1,135"/>
	<path fill="#010202" d="M219.9,131.4c0.6,1.5,1.3,2.7,2.1,3.6c1.4,1.6,3.2,2.3,5.3,2.3c1.1,0,2.1-0.3,3-1c0.8-0.7,1.3-1.6,1.3-2.8
		c0-1.1-0.4-2-1.3-2.8c-0.5-0.5-1.7-1.3-3.5-2.3l-3.1-1.8c-0.9-0.5-1.7-1.1-2.2-1.6c-1-1.1-1.5-2.2-1.5-3.5c0-1.7,0.6-3.1,1.8-4.2
		c1.2-1.1,2.8-1.7,4.8-1.7c0.8,0,1.8,0.2,2.9,0.6c1.2,0.4,1.8,0.6,2,0.6c0.4,0,0.7-0.1,0.9-0.3c0.2-0.2,0.3-0.5,0.4-0.8h0.7l0.8,7.1
		h-0.9c-0.6-2.1-1.5-3.6-2.8-4.5c-1.3-0.8-2.5-1.3-3.8-1.3c-1,0-1.8,0.3-2.6,0.8c-0.7,0.5-1.1,1.3-1.1,2.2c0,0.9,0.3,1.6,0.8,2.2
		c0.6,0.6,1.4,1.3,2.6,1.9l3.1,1.8c2,1.1,3.4,2.2,4.2,3.1c0.8,1,1.2,2.1,1.2,3.4c0,1.8-0.7,3.2-2.1,4.4c-1.4,1.2-3.2,1.8-5.4,1.8
		c-1.1,0-2.3-0.2-3.5-0.6c-1.2-0.4-1.9-0.6-2.1-0.6c-0.4,0-0.7,0.1-0.9,0.4c-0.1,0.2-0.2,0.5-0.3,0.8h-0.8l-1.1-7.1H219.9"/>
	<path fill-rule="evenodd" clip-rule="evenodd" fill="#010202" d="M165.9,138.2v-0.6c0.9-0.1,1.6-0.4,2.1-1c0.5-0.6,1.3-2.1,2.4-4.5
		l7.5-16.4h0.7l8.9,19c0.6,1.3,1.1,2,1.4,2.4c0.4,0.3,1,0.5,1.8,0.6v0.6h-9.1v-0.6c1-0.1,1.7-0.2,2-0.3c0.3-0.1,0.5-0.4,0.5-0.9
		c0-0.2-0.1-0.5-0.2-0.9c-0.1-0.4-0.3-0.8-0.5-1.3l-1.5-3.2h-9.4c-0.9,2.2-1.5,3.5-1.7,4c-0.2,0.5-0.3,0.9-0.3,1.1
		c0,0.6,0.2,1,0.7,1.2c0.3,0.1,0.9,0.2,1.7,0.3v0.6H165.9 M181.3,129.6l-4.1-9.2l-4.1,9.2H181.3z"/>
	<path fill-rule="evenodd" clip-rule="evenodd" fill="#010202" d="M200.4,137.6c1.4-0.1,2.2-0.4,2.5-0.8c0.3-0.4,0.5-1.3,0.5-2.7
		v-14.5c0-1.2-0.2-1.9-0.6-2.3c-0.4-0.4-1.2-0.6-2.5-0.7V116h9.4c3,0,5.3,0.5,6.9,1.6c1.6,1.1,2.4,2.5,2.4,4.3
		c0,2.3-0.9,3.9-2.7,4.9c-1.8,1-4,1.5-6.7,1.5c-0.4,0-0.9,0-1.5,0c-0.6,0-1,0-1.3,0v6.1c0,1.3,0.2,2.1,0.6,2.4
		c0.4,0.3,1.3,0.5,2.8,0.6v0.6h-10V137.6 M212.5,117.9c-1-0.4-2.3-0.6-3.8-0.6c-0.7,0-1.2,0.1-1.4,0.2c-0.2,0.1-0.2,0.4-0.2,0.9v8.7
		c0.6,0.1,1.1,0.1,1.3,0.1c0.2,0,0.4,0,0.6,0c1.6,0,2.9-0.2,3.9-0.7c1.7-0.8,2.6-2.3,2.6-4.5C215.3,120.1,214.3,118.7,212.5,117.9"
		/>
</g>
<g>
</g>
<g>
</g>
<g>
</g>
<g>
</g>
<g>
</g>
<g>
</g>
<g>
</g>
<g>
</g>
<g>
</g>
<g>
</g>
</svg>
