<?xml version="1.0" encoding="utf-8"?>
<!-- Generator: Adobe Illustrator 18.1.1, SVG Export Plug-In . SVG Version: 6.00 Build 0)  -->
<svg version="1.1" xmlns="http://www.w3.org/2000/svg" xmlns:xlink="http://www.w3.org/1999/xlink" x="0px" y="0px"
	 viewBox="0 0 390 150" enable-background="new 0 0 390 150" xml:space="preserve">
<g id="Guides">
</g>
<g id="ikea" display="none">
</g>
<g id="Wesleyan" display="none">
</g>
<g id="Investec" display="none">
</g>
<g id="JLR" display="none">
</g>
<g id="Birmingham_Airport" display="none">
</g>
<g id="Jerroms" display="none">
</g>
<g id="Bournville" display="none">
</g>
<g id="Mainline_-_Chiltern_Railways" display="none">
</g>
<g id="Innovation_Birmingham" display="none">
</g>
<g id="Hollywood_Monster" display="none">
</g>
<g id="Lloyds_Bank" display="none">
</g>
<g id="Entrepreneurial_Spark" display="none">
</g>
<g id="Fusion_Production_Group" display="none">
</g>
<g id="Sense" display="none">
</g>
<g id="Layer_16" display="none">
</g>
<g id="Coventry_City_Council" display="none">
</g>
<g id="CWLEP" display="none">
</g>
<g id="Layer_19">
	<g>
		<path fill="#231F20" d="M111.8,52c-3.1-3.6-7.1-5.7-12.3-6.2c3.8-0.7,7-2.7,9.5-5.9c2.5-3.2,3.7-6.9,3.7-10.9
			c0-4.6-1.6-8.5-4.7-11.7c-3.6-3.6-8.5-5.3-14.8-5.3h-36c3.5,0.6,5.2,4,5.2,10l0,46.8c-1.2-8.8-8.8-15.5-17.9-15.5l-11.7,0l0,11.8
			c0,10,8.1,18.1,18.1,18.1l11.5,0l0,19.8c-0.4-3.4-3.2-6-6.7-6l-4.4,0l0,4.4c0,3.7,3,6.8,6.7,6.8l4.3,0l0,29.8h2.9V108l4.4,0
			c3.7,0,6.8-3,6.8-6.8l0-4.4l-4.4,0c-3.5,0-6.4,2.7-6.7,6.1V83.1h30.7c6.3,0,11.4-1.9,15.1-5.8c3.3-3.5,5-7.7,5-12.7
			C116.3,59.8,114.8,55.6,111.8,52"/>
		<path fill="#F69F1A" d="M92.1,53.3l0,10.5c0,8.9-7.2,16.1-16.1,16.1H65.5l0-10.5c0-8.9,7.2-16.1,16.1-16.1L92.1,53.3z"/>
		<path fill="#231F20" d="M135.8,77.4c-0.1-0.3-0.2-0.5-0.3-0.7c-0.2-0.1-0.4-0.2-0.8-0.2h-1.1v4.9c0,0.5,0.2,0.8,0.5,0.9h-1.7
			c0.3,0,0.4-0.3,0.4-0.9v-4.9h-1.1c-0.3,0-0.6,0.1-0.7,0.2c-0.1,0.1-0.3,0.3-0.4,0.7l0.1-1.3h4.9"/>
		<path fill="#231F20" d="M140.5,82.3h-1.4c0.2,0,0.4-0.3,0.4-0.8v-2.1c0-0.7-0.3-1.1-0.8-1.1c-0.3,0-0.6,0.1-0.9,0.4
			c-0.3,0.2-0.4,0.5-0.4,0.8v2c0,0.5,0.1,0.7,0.4,0.8h-1.5c0.3,0,0.4-0.3,0.4-0.8v-4.3c0-0.4,0-0.6-0.1-0.7
			c-0.1-0.1-0.2-0.2-0.4-0.2h-0.1l1.2-0.5v2.8c0.1-0.2,0.4-0.4,0.7-0.6c0.3-0.2,0.6-0.2,0.9-0.2c0.4,0,0.7,0.1,0.9,0.4
			c0.2,0.2,0.3,0.6,0.3,1.1v2.3C140.1,82,140.3,82.2,140.5,82.3"/>
		<path fill="#231F20" d="M144.5,81c-0.3,0.9-0.8,1.4-1.7,1.4c-0.6,0-1.1-0.2-1.5-0.7c-0.3-0.4-0.5-0.9-0.5-1.6
			c0-0.7,0.2-1.3,0.5-1.7c0.4-0.5,0.8-0.7,1.4-0.7c0.5,0,1,0.2,1.3,0.7c0.3,0.4,0.4,0.9,0.4,1.6h-2.9c0,0.6,0.1,1,0.5,1.4
			c0.3,0.3,0.6,0.5,1.1,0.5C143.6,81.8,144.1,81.6,144.5,81 M143.7,79.6c0-0.4-0.1-0.7-0.2-1c-0.2-0.3-0.4-0.5-0.8-0.5
			c-0.3,0-0.6,0.2-0.8,0.5c-0.2,0.3-0.3,0.6-0.3,1"/>
		<path fill="#231F20" d="M152.4,76c-0.3,0.1-0.5,0.3-0.5,0.9v3.2c0,0.8-0.2,1.3-0.5,1.7c-0.4,0.4-1,0.6-1.8,0.6
			c-0.8,0-1.4-0.2-1.8-0.5c-0.4-0.4-0.5-0.9-0.5-1.7v-3.3c0-0.5-0.1-0.8-0.5-0.9h1.7c-0.3,0.1-0.4,0.3-0.4,0.9v3.3
			c0,0.6,0.1,1,0.4,1.3c0.3,0.3,0.7,0.4,1.3,0.4c0.6,0,1-0.2,1.3-0.5c0.2-0.3,0.3-0.7,0.3-1.2v-3.3c0-0.5-0.2-0.8-0.5-0.9"/>
		<path fill="#231F20" d="M154.4,82.3h-1.5c0.3,0,0.4-0.3,0.4-0.8v-4.3c0-0.3,0-0.6-0.1-0.7c-0.1-0.1-0.2-0.2-0.3-0.2h-0.1l1.2-0.5
			v5.7C154,82,154.1,82.2,154.4,82.3"/>
		<path fill="#231F20" d="M157.6,81.4c-0.2,0.7-0.5,1.1-1.1,1.1c-0.3,0-0.5-0.1-0.7-0.3c-0.2-0.2-0.3-0.5-0.3-0.9v-2.9h-0.6l1.3-1.5
			v1h1.3v0.5h-1.3V81c0,0.6,0.2,0.9,0.6,0.9C157.1,81.9,157.4,81.7,157.6,81.4"/>
		<path fill="#231F20" d="M159.6,82.3h-1.5c0.3,0,0.4-0.3,0.4-0.8V79c0-0.5-0.1-0.7-0.4-0.7H158l1.2-0.5v3.8
			C159.2,82,159.4,82.2,159.6,82.3 M159.3,76.5c0,0.1,0,0.3-0.1,0.4c-0.1,0.1-0.2,0.2-0.4,0.2c-0.2,0-0.3-0.1-0.4-0.2
			c-0.1-0.1-0.1-0.2-0.1-0.4c0-0.1,0-0.3,0.1-0.4c0.1-0.1,0.2-0.1,0.4-0.1c0.2,0,0.3,0.1,0.4,0.1C159.3,76.2,159.3,76.3,159.3,76.5"
			/>
		<path fill="#231F20" d="M166.8,82.3h-1.4c0.2,0,0.4-0.3,0.4-0.8v-2c0-0.8-0.3-1.2-0.7-1.2c-0.3,0-0.6,0.1-0.8,0.4
			c-0.2,0.2-0.4,0.5-0.4,0.8v2c0,0.5,0.1,0.8,0.4,0.8h-1.4c0.3,0,0.4-0.3,0.4-0.8v-2c0-0.8-0.3-1.2-0.8-1.2c-0.3,0-0.6,0.1-0.8,0.4
			c-0.2,0.2-0.4,0.5-0.4,0.8v2c0,0.5,0.1,0.8,0.4,0.8h-1.5c0.3,0,0.4-0.3,0.4-0.8v-2.4c0-0.3,0-0.6-0.1-0.7
			c-0.1-0.1-0.2-0.1-0.3-0.1h-0.1l1.3-0.5v0.9c0.2-0.3,0.4-0.5,0.7-0.6c0.3-0.1,0.6-0.2,0.8-0.2c0.3,0,0.5,0.1,0.7,0.2
			c0.2,0.2,0.3,0.4,0.3,0.6c0.1-0.2,0.4-0.4,0.6-0.6c0.3-0.2,0.6-0.3,0.9-0.3c0.4,0,0.7,0.1,0.9,0.4c0.2,0.3,0.3,0.6,0.3,1.1v2.2
			C166.4,82,166.6,82.2,166.8,82.3"/>
		<path fill="#231F20" d="M171.5,81.9l-0.7,0.5c-0.2,0-0.4-0.1-0.5-0.3c-0.1-0.1-0.2-0.3-0.3-0.4c-0.1,0.2-0.3,0.4-0.6,0.5
			c-0.3,0.1-0.5,0.2-0.8,0.2c-0.4,0-0.7-0.1-0.9-0.3c-0.2-0.2-0.4-0.4-0.4-0.8c0-0.8,0.9-1.3,2.6-1.7v-0.5c0-0.7-0.3-1.1-0.9-1.1
			c-0.3,0-0.5,0.1-0.7,0.2c-0.2,0.1-0.2,0.3-0.2,0.5c0,0.2,0.1,0.4,0.2,0.4l-0.8,0.3c-0.1-0.1-0.1-0.3-0.1-0.5
			c0-0.3,0.1-0.6,0.4-0.9c0.3-0.3,0.8-0.4,1.3-0.4c0.5,0,0.8,0.1,1.1,0.4c0.2,0.2,0.3,0.5,0.3,0.9v2c0,0.6,0.2,0.9,0.7,0.9
			C171.4,81.9,171.4,81.9,171.5,81.9 M170,81v-1c-1.2,0.3-1.9,0.7-1.9,1.2c0,0.2,0.1,0.4,0.2,0.5c0.1,0.1,0.3,0.2,0.6,0.2
			c0.3,0,0.5-0.1,0.8-0.3C169.9,81.5,170,81.3,170,81"/>
		<path fill="#231F20" d="M174.2,81.4c-0.2,0.7-0.5,1.1-1.1,1.1c-0.3,0-0.5-0.1-0.7-0.3c-0.2-0.2-0.3-0.5-0.3-0.9v-2.9h-0.6l1.3-1.5
			v1h1.3v0.5h-1.3V81c0,0.6,0.2,0.9,0.6,0.9C173.6,81.9,173.9,81.7,174.2,81.4"/>
		<path fill="#231F20" d="M178,81c-0.3,0.9-0.8,1.4-1.7,1.4c-0.6,0-1.1-0.2-1.5-0.7c-0.3-0.4-0.5-0.9-0.5-1.6c0-0.7,0.2-1.3,0.5-1.7
			c0.4-0.5,0.8-0.7,1.4-0.7c0.5,0,1,0.2,1.3,0.7c0.3,0.4,0.4,0.9,0.4,1.6H175c0,0.6,0.2,1,0.5,1.4c0.3,0.3,0.6,0.5,1.1,0.5
			C177.1,81.8,177.5,81.6,178,81 M177.1,79.6c0-0.4-0.1-0.7-0.2-1c-0.2-0.3-0.4-0.5-0.8-0.5c-0.3,0-0.6,0.2-0.8,0.5
			c-0.2,0.3-0.3,0.6-0.3,1"/>
		<path fill="#231F20" d="M184.6,80.7c0,0.4-0.1,0.8-0.4,1.1c-0.3,0.3-0.8,0.5-1.3,0.5h-2.6c0.3-0.1,0.4-0.4,0.4-0.9v-4.5
			c0-0.5-0.2-0.8-0.5-0.9h2.4c0.6,0,1,0.2,1.3,0.5c0.3,0.3,0.4,0.6,0.4,1c0,0.4-0.1,0.7-0.3,1c-0.2,0.3-0.5,0.5-0.8,0.5
			c0.5,0,0.8,0.2,1.1,0.5C184.4,79.9,184.6,80.2,184.6,80.7 M183.5,77.6c0-0.3-0.1-0.6-0.3-0.8c-0.2-0.2-0.5-0.3-0.8-0.3h-0.9v2.3h1
			c0.3,0,0.6-0.1,0.8-0.3C183.4,78.3,183.5,78,183.5,77.6 M183.8,80.6c0-0.4-0.1-0.7-0.4-1c-0.2-0.2-0.6-0.4-1-0.4h-1v2.5h1.1
			C183.4,81.8,183.8,81.4,183.8,80.6"/>
		<path fill="#231F20" d="M189.5,81.9l-1.2,0.5v-0.9c-0.2,0.3-0.4,0.5-0.7,0.7c-0.3,0.2-0.6,0.2-0.9,0.2c-0.8,0-1.2-0.5-1.2-1.5
			v-2.1c0-0.3-0.1-0.6-0.2-0.7c-0.1,0-0.1-0.1-0.3-0.1h1.2v2.9c0,0.4,0.1,0.6,0.2,0.8c0.1,0.2,0.3,0.3,0.6,0.3
			c0.3,0,0.6-0.1,0.9-0.4c0.3-0.3,0.4-0.6,0.4-0.9v-1.9c0-0.3-0.1-0.5-0.2-0.7c0-0.1-0.1-0.1-0.2-0.1h1.1v3.3c0,0.3,0,0.5,0.1,0.6
			C189.1,81.9,189.2,81.9,189.5,81.9"/>
		<path fill="#231F20" d="M192.7,81.1c0,0.4-0.1,0.7-0.4,0.9c-0.3,0.2-0.7,0.3-1.2,0.3c-0.5,0-0.9-0.1-1.2-0.4v-1.3
			c0.2,0.8,0.6,1.2,1.3,1.2c0.2,0,0.4-0.1,0.6-0.1c0.2-0.1,0.3-0.3,0.3-0.5c0-0.3-0.2-0.5-0.6-0.7c-0.3-0.2-0.7-0.4-1-0.6
			c-0.4-0.3-0.6-0.6-0.6-1c0-0.4,0.1-0.7,0.4-0.9c0.3-0.2,0.6-0.4,1.1-0.4c0.4,0,0.8,0.1,1.1,0.3v1.1c-0.1-0.3-0.2-0.6-0.4-0.8
			c-0.2-0.2-0.4-0.2-0.7-0.2c-0.2,0-0.4,0.1-0.6,0.2c-0.2,0.1-0.3,0.3-0.3,0.5s0.1,0.3,0.2,0.5c0.1,0.1,0.4,0.3,0.8,0.5
			c0.4,0.2,0.7,0.4,0.9,0.5C192.6,80.5,192.7,80.8,192.7,81.1"/>
		<path fill="#231F20" d="M194.7,82.3h-1.5c0.3,0,0.4-0.3,0.4-0.8V79c0-0.5-0.1-0.7-0.4-0.7H193l1.2-0.5v3.8
			C194.3,82,194.4,82.2,194.7,82.3 M194.4,76.5c0,0.1,0,0.3-0.1,0.4c-0.1,0.1-0.2,0.2-0.4,0.2c-0.2,0-0.3-0.1-0.4-0.2
			c-0.1-0.1-0.1-0.2-0.1-0.4c0-0.1,0-0.3,0.1-0.4c0.1-0.1,0.2-0.1,0.4-0.1c0.2,0,0.3,0.1,0.4,0.1C194.3,76.2,194.4,76.3,194.4,76.5"
			/>
		<path fill="#231F20" d="M199.4,82.3H198c0.2,0,0.4-0.3,0.4-0.8v-2.1c0-0.7-0.3-1.1-0.8-1.1c-0.3,0-0.6,0.1-0.9,0.4
			c-0.3,0.2-0.4,0.5-0.4,0.8v2c0,0.5,0.1,0.7,0.4,0.8h-1.5c0.3,0,0.4-0.3,0.4-0.8v-2.4c0-0.3,0-0.6-0.1-0.7
			c-0.1-0.1-0.2-0.1-0.3-0.1H195l1.2-0.5v0.9c0.2-0.2,0.4-0.4,0.7-0.6c0.3-0.2,0.6-0.2,0.9-0.2c0.3,0,0.6,0.1,0.8,0.3
			c0.3,0.3,0.4,0.6,0.4,1.1v2.3C199,82,199.1,82.2,199.4,82.3"/>
		<path fill="#231F20" d="M203.6,81c-0.3,0.9-0.8,1.4-1.7,1.4c-0.6,0-1.1-0.2-1.5-0.7c-0.3-0.4-0.5-0.9-0.5-1.6
			c0-0.7,0.2-1.3,0.5-1.7c0.4-0.5,0.8-0.7,1.4-0.7c0.5,0,1,0.2,1.3,0.7c0.3,0.4,0.4,0.9,0.4,1.6h-2.9c0,0.6,0.1,1,0.5,1.4
			c0.3,0.3,0.6,0.5,1.1,0.5C202.7,81.8,203.1,81.6,203.6,81 M202.7,79.6c0-0.4-0.1-0.7-0.2-1c-0.2-0.3-0.4-0.5-0.8-0.5
			c-0.3,0-0.6,0.2-0.8,0.5c-0.2,0.3-0.3,0.6-0.3,1"/>
		<path fill="#231F20" d="M207.1,81.1c0,0.4-0.1,0.7-0.4,0.9c-0.3,0.2-0.7,0.3-1.2,0.3c-0.5,0-0.9-0.1-1.2-0.4v-1.3
			c0.2,0.8,0.6,1.2,1.3,1.2c0.2,0,0.4-0.1,0.6-0.1c0.2-0.1,0.3-0.3,0.3-0.5c0-0.3-0.2-0.5-0.6-0.7c-0.3-0.2-0.7-0.4-1-0.6
			c-0.4-0.3-0.6-0.6-0.6-1c0-0.4,0.1-0.7,0.4-0.9c0.3-0.2,0.6-0.4,1.1-0.4c0.4,0,0.8,0.1,1.1,0.3v1.1c-0.1-0.3-0.2-0.6-0.4-0.8
			c-0.2-0.2-0.4-0.2-0.7-0.2c-0.2,0-0.4,0.1-0.6,0.2c-0.2,0.1-0.3,0.3-0.3,0.5s0.1,0.3,0.2,0.5c0.1,0.1,0.4,0.3,0.8,0.5
			c0.4,0.2,0.7,0.4,0.9,0.5C207,80.5,207.1,80.8,207.1,81.1"/>
		<path fill="#231F20" d="M210.6,81.1c0,0.4-0.1,0.7-0.4,0.9c-0.3,0.2-0.7,0.3-1.2,0.3c-0.5,0-0.9-0.1-1.2-0.4v-1.3
			c0.2,0.8,0.6,1.2,1.3,1.2c0.2,0,0.4-0.1,0.6-0.1c0.2-0.1,0.3-0.3,0.3-0.5c0-0.3-0.2-0.5-0.6-0.7c-0.3-0.2-0.7-0.4-1-0.6
			c-0.4-0.3-0.6-0.6-0.6-1c0-0.4,0.1-0.7,0.4-0.9c0.3-0.2,0.6-0.4,1.1-0.4c0.4,0,0.8,0.1,1.1,0.3v1.1c-0.1-0.3-0.2-0.6-0.4-0.8
			c-0.2-0.2-0.4-0.2-0.7-0.2c-0.2,0-0.4,0.1-0.6,0.2c-0.2,0.1-0.3,0.3-0.3,0.5s0.1,0.3,0.2,0.5c0.1,0.1,0.4,0.3,0.8,0.5
			c0.4,0.2,0.7,0.4,0.9,0.5C210.5,80.5,210.6,80.8,210.6,81.1"/>
		<path fill="#231F20" d="M218.7,76c-0.3,0.1-0.5,0.4-0.5,0.9v5.6l-4.3-5.3v4.1c0,0.5,0.2,0.8,0.5,0.9H213c0.3-0.1,0.5-0.3,0.5-0.9
			V77c0-0.5-0.2-0.8-0.7-1h1.2l3.8,4.7v-3.8c0-0.5-0.2-0.8-0.5-0.9"/>
		<path fill="#231F20" d="M222.6,81c-0.3,0.9-0.8,1.4-1.7,1.4c-0.6,0-1.1-0.2-1.5-0.7c-0.3-0.4-0.5-0.9-0.5-1.6
			c0-0.7,0.2-1.3,0.5-1.7c0.3-0.5,0.8-0.7,1.4-0.7c0.5,0,1,0.2,1.3,0.7c0.3,0.4,0.4,0.9,0.4,1.6h-2.9c0,0.6,0.2,1,0.5,1.4
			c0.3,0.3,0.6,0.5,1.1,0.5C221.7,81.8,222.2,81.6,222.6,81 M221.7,79.6c0-0.4-0.1-0.7-0.2-1c-0.2-0.3-0.4-0.5-0.8-0.5
			c-0.3,0-0.6,0.2-0.8,0.5c-0.2,0.3-0.3,0.6-0.3,1"/>
		<path fill="#231F20" d="M225.6,81.4c-0.2,0.7-0.5,1.1-1.1,1.1c-0.3,0-0.5-0.1-0.7-0.3c-0.2-0.2-0.3-0.5-0.3-0.9v-2.9h-0.6l1.3-1.5
			v1h1.3v0.5h-1.3V81c0,0.6,0.2,0.9,0.6,0.9C225.1,81.9,225.3,81.7,225.6,81.4"/>
		<path fill="#231F20" d="M232.4,77.9c-0.1,0-0.2,0-0.2,0.1c-0.2,0.1-0.3,0.4-0.5,0.7l-1.5,3.9l-1.2-3.2l-1.3,3.2l-1.5-4
			c-0.2-0.4-0.4-0.6-0.6-0.7h1.6c-0.2,0-0.3,0.2-0.3,0.4c0,0.1,0,0.2,0.1,0.4L228,81l0.9-2.2c0-0.1-0.1-0.1-0.1-0.2
			c-0.2-0.4-0.4-0.6-0.6-0.7h1.6c-0.2,0-0.3,0.1-0.3,0.4c0,0.1,0,0.2,0.1,0.3l0.9,2.4l0.8-2.3c0.1-0.2,0.1-0.3,0.1-0.4
			c0-0.3-0.1-0.4-0.4-0.4"/>
		<path fill="#231F20" d="M236.6,80c0,0.6-0.2,1.2-0.5,1.6c-0.4,0.5-1,0.8-1.7,0.8c-0.7,0-1.2-0.2-1.6-0.7c-0.3-0.4-0.5-0.9-0.5-1.5
			c0-0.6,0.2-1.2,0.5-1.6c0.4-0.5,1-0.8,1.6-0.8c0.7,0,1.2,0.2,1.6,0.7C236.4,78.9,236.6,79.4,236.6,80 M235.8,80.2
			c0-0.5-0.1-1-0.4-1.4c-0.3-0.4-0.7-0.7-1.1-0.7c-0.4,0-0.8,0.2-1,0.6c-0.2,0.3-0.3,0.7-0.3,1.2c0,0.5,0.1,1,0.4,1.4
			c0.3,0.4,0.7,0.7,1.1,0.7c0.4,0,0.7-0.2,1-0.6C235.7,81,235.8,80.6,235.8,80.2"/>
		<path fill="#231F20" d="M240,78.8c-0.2-0.3-0.4-0.4-0.7-0.4c-0.3,0-0.6,0.2-0.8,0.5c-0.2,0.3-0.3,0.7-0.3,1.3v1.3
			c0,0.5,0.1,0.8,0.4,0.8h-1.5c0.3,0,0.4-0.3,0.4-0.8v-2.5c0-0.2,0-0.4-0.1-0.5c-0.1-0.2-0.2-0.2-0.4-0.2H237l1.2-0.5v1.2
			c0.1-0.3,0.3-0.6,0.5-0.8c0.3-0.2,0.6-0.4,0.9-0.4c0.1,0,0.3,0,0.4,0.1"/>
		<path fill="#231F20" d="M244.7,82.1c-0.2,0.2-0.5,0.2-0.8,0.2c-0.4,0-0.8-0.3-1.2-0.8l-1.3-1.6v1.5c0,0.5,0.1,0.8,0.4,0.8h-1.5
			c0.3,0,0.4-0.3,0.4-0.8v-4.3c0-0.3,0-0.6-0.1-0.7c-0.1-0.1-0.2-0.2-0.4-0.2h-0.1l1.2-0.5v4.1l1.3-1.2c0.2-0.2,0.3-0.4,0.3-0.5
			s-0.1-0.2-0.3-0.2h1.8c-0.2,0.1-0.3,0.1-0.4,0.1c-0.3,0.1-0.5,0.3-0.9,0.6l-1.3,1.1l1.4,1.6c0.4,0.5,0.8,0.7,1.1,0.7
			C244.6,82.2,244.6,82.1,244.7,82.1"/>
		<path fill="#00788A" d="M138.2,28.6c-5.2,0-7.7-3.9-7.7-7.8c0-4.2,2.8-8.5,8.3-8.5c1.7,0,3.2,0.4,4.2,1v3.4
			c-0.7-2-2.2-3.1-4.6-3.1c-3.8,0-5.8,3.4-5.8,6.8c0,3.5,2,6.9,6,6.9c1.7,0,3.5-0.9,4.8-2.4v1.5C142.1,27.7,140.4,28.6,138.2,28.6"
			/>
		<path fill="#00788A" d="M149.4,18c-2.3,0-3.2,2.5-3.2,4.4c0,2.3,1.2,5,3.8,5c2.3,0,3.2-2.5,3.2-4.4C153.1,20.8,151.9,18,149.4,18
			 M149.5,28.6c-3.6,0-5.2-2.9-5.2-5.6c0-2.8,1.7-6.1,5.4-6.1c3.6,0,5.2,2.9,5.2,5.7C155,25.4,153.2,28.6,149.5,28.6"/>
		<path fill="#00788A" d="M164.2,19.2l-4.1,9.7L156,19c-0.7-1.7-1.6-1.7-1.6-1.7h4.2c0,0-0.8,0.1-0.8,0.9c0,0.2,0.1,0.5,0.2,0.9
			l2.5,6.1l2.4-5.8c0.2-0.4,0.3-0.7,0.3-1c0-1-1-1.1-1-1.1h3.9C166,17.3,165,17.4,164.2,19.2"/>
		<path fill="#00788A" d="M170,17.9c-1.8,0-2.8,2-2.9,3.7h5.3C172.4,20,171.8,17.9,170,17.9 M170.3,28.6c-3.2,0-4.9-2.7-4.9-5.7
			c0-3.3,1.9-6,4.8-6c2.9,0,4.1,2.8,4.2,5.7h-7.3c0,2.9,1.8,4.6,3.7,4.6c1.2,0,2.6-0.7,3.6-2.1C173.8,27.4,172.4,28.6,170.3,28.6"/>
		<path fill="#00788A" d="M182.3,28.2c0,0,0.9,0,0.9-2V21c0-1.9-0.9-2.7-2.1-2.7c-1.5,0-3.2,1.4-3.2,3v5c0,2,1,2,1,2h-3.7
			c0,0,1,0,1-2v-6c0-1.8-0.4-2.1-1.1-2.1h-0.3l3.1-1.3V19c0.8-1.2,2.6-2.1,4-2.1c1.5,0,3,0.9,3,3.6v5.7c0,2,1,2,1,2H182.3z"/>
		<path fill="#00788A" d="M190.1,28.6c-1.4,0-2.4-1.1-2.4-3v-7.2h-1.4l3.1-3.7v2.6h3.2v1.1h-3.2v6.7c0,1.5,0.6,2.1,1.4,2.1
			c0.7,0,1.6-0.5,2.2-1.3C192.5,27.8,191.4,28.6,190.1,28.6"/>
		<path fill="#00788A" d="M199,18.6c-1.4,0-2.8,1.8-2.8,4.4v3.3c0,2,1,2.1,1,2.1h-3.7c0,0,1,0,1-2.1v-6.2c0-1.6-0.4-1.8-1-1.8h-0.2
			l2.9-1.3v2.9c0.5-1.4,1.9-2.9,3.5-2.9c0.3,0,0.7,0.1,1,0.3v2.4C200.3,19,199.7,18.6,199,18.6"/>
		<path fill="#00788A" d="M210.8,19.2l-3,7.7c-1.2,3-2.6,5.2-4.2,5.8l-2.1-1.9c0.3,0.1,0.8,0.2,1.1,0.2c1.3,0,2.3-0.6,3.6-3.3
			l-3.4-8.7c-0.6-1.5-1.4-1.8-1.6-1.8h4c-0.2,0.1-0.7,0.3-0.7,1c0,0.3,0.1,0.7,0.3,1.1l2.3,6.1l2.3-5.8c0.2-0.6,0.3-1,0.3-1.3
			c0-1-0.8-1-0.8-1h3.5C212.2,17.3,211.5,17.6,210.8,19.2"/>
		<path fill="#00788A" d="M222.6,13.5c-1.3,0-2.2,0.9-2.2,2.2c0,1.1,1.1,2.5,1.9,3.6c1.8-1.1,2.8-2,2.8-3.4
			C225,14.5,224,13.5,222.6,13.5 M221.5,21c-1.3,0.9-2.3,1.8-2.3,3.2c0,1.7,1.6,3.1,3.4,3.1c1.4,0,2.6-0.7,3.6-1.6
			C224.5,24.3,222.9,22.7,221.5,21 M231.3,28.6c-1.1,0-2.9-1.2-4.1-2.1c-1.4,1.3-3.1,2.2-5.1,2.2c-2.8,0-4.8-1.5-4.8-4
			c0-2.1,1.6-3.4,3.4-4.5c-1-1.3-1.9-2.7-1.9-4.2c0-2.2,1.7-3.7,3.9-3.7c2,0,3.9,1.1,3.9,3.2c0,2.2-1.8,3.5-3.6,4.6
			c1.2,1.4,2.8,3,4.4,4.4c1.3-1.6,2.3-3.9,2.3-5.4c0-0.8-0.3-1.1-0.7-1.3h3.6c-0.6,0.3-1.1,1.2-1.5,2.5c-0.5,1.5-1.4,3.4-2.7,5
			c1,0.7,2.6,1.9,3.7,1.9c0.5,0,0.9-0.3,1.4-0.8C233,27.9,232.2,28.6,231.3,28.6"/>
		<path fill="#00788A" d="M256.4,15.2l-4.8,13.7l-4-11.3l-4.1,11.3l-4.7-13.8c-0.8-2.4-2-2.4-2-2.4h4.4c0,0-0.6,0.1-0.6,1.1
			c0,0.3,0.1,0.8,0.3,1.4l3.1,9.1l3.1-8.4l-0.2-0.7c-0.7-2.3-1.8-2.3-1.8-2.3h4.2c0,0-0.7,0.1-0.7,1.1c0,0.3,0.1,0.7,0.3,1.3l3.2,9
			l3.2-9.1c0.2-0.5,0.2-0.8,0.2-1.1c0-1.1-0.9-1.2-0.9-1.2h4C258.5,12.7,257.3,12.7,256.4,15.2"/>
		<path fill="#00788A" d="M262.6,22.7c-3.3,0.7-4.6,1.7-4.6,3c0,1.1,0.9,1.8,1.9,1.8c1.4,0,2.7-1,2.7-2.3V22.7z M264.6,28.7
			c-1-0.2-1.7-1-1.8-1.8c-0.6,1.1-2,1.7-3.5,1.7c-1.7,0-3.1-0.9-3.1-2.6c0-1.6,1.7-3.2,6.4-4.3v-1.2c0-1.8-0.9-2.6-2.2-2.6
			c-1.6,0-2.3,0.8-2.3,1.6c0,0.5,0.3,0.9,0.6,1.1l-1.9,0.8c-0.1-0.3-0.3-0.7-0.3-1.3c0-1.5,1.4-3.2,4.4-3.2c2.4,0,3.5,1.4,3.5,3.3
			v5.1c0,1.1,0.5,2.2,1.7,2.2c0.1,0,0.3,0,0.4,0L264.6,28.7z"/>
		<path fill="#00788A" d="M272.1,18.6c-1.4,0-2.8,1.8-2.8,4.4v3.3c0,2,1,2.1,1,2.1h-3.7c0,0,1,0,1-2.1v-6.2c0-1.6-0.4-1.8-1-1.8
			h-0.2l2.9-1.3v2.9c0.5-1.4,1.9-2.9,3.5-2.9c0.3,0,0.7,0.1,1,0.3v2.4C273.4,19,272.8,18.6,272.1,18.6"/>
		<path fill="#00788A" d="M289.4,19.2l-3.7,9.7l-3-7.9l-3.1,7.9l-3.8-9.9c-0.7-1.7-1.6-1.7-1.6-1.7h4.1c0,0-0.8,0.1-0.8,0.9
			c0,0.2,0.1,0.5,0.2,0.9l2.3,6l2.1-5.6c0-0.1-0.1-0.4-0.2-0.5c-0.6-1.6-1.5-1.7-1.5-1.7h3.9c0,0-0.8,0.1-0.8,0.9
			c0,0.2,0.1,0.5,0.2,0.9L286,25l2-5.7c0.1-0.4,0.2-0.7,0.2-1c0-1-0.9-1.1-0.9-1.1h3.8C291.1,17.3,290.1,17.3,289.4,19.2"/>
		<path fill="#00788A" d="M292.9,15c-0.8,0-1.3-0.6-1.3-1.3c0-0.7,0.5-1.3,1.3-1.3c0.8,0,1.3,0.6,1.3,1.3
			C294.2,14.4,293.8,15,292.9,15 M291.2,28.2c0,0,1.1,0,1.1-2V20c0-1.6-0.4-1.9-1.1-1.9h-0.3l3.1-1.3v9.4c0,2,1,2,1,2H291.2z"/>
		<path fill="#00788A" d="M300.5,28.6c-3.2,0-4.7-2.5-4.7-5.4c0-3.7,2.3-6.3,5.2-6.3c1.8,0,3.2,1.2,3.3,3.2l-1.8,0.8
			c0.1-0.2,0.1-0.5,0.1-0.7c0-1.3-0.9-2.1-2-2.1c-1.9,0-3.1,1.8-3.1,4.4c0,2.4,1.2,4.8,3.6,4.8c1.2,0,2.4-0.7,3.5-2.2
			C303.9,27.4,302.3,28.6,300.5,28.6"/>
		<path fill="#00788A" d="M314,28.5c-1.1,0-1.9-0.6-3-2c0,0-3.1-3.8-3.2-4v3.6c0,2,1,2,1,2H305c0,0,1,0,1-2V15.4
			c0-1.9-0.4-2.2-1.2-2.2h-0.2l3.1-1.2v10.2l3.3-3.1c0.6-0.6,0.8-1,0.8-1.2c0-0.5-0.7-0.6-0.7-0.6h4.6c-0.1,0-1.2,0.3-3,1.9
			l-3.2,2.9l3.5,4.1c1.3,1.5,2.1,1.8,2.7,1.8c0.1,0,0.2,0,0.3,0C315.5,28.3,314.8,28.5,314,28.5"/>
		<path fill="#00788A" d="M319.4,28.6c-1.2,0-2.4-0.4-3.1-0.9v-3.2c0.5,2.4,1.8,3,3.2,3c0.9,0,2.2-0.4,2.2-1.6
			c0-1.2-1.1-1.8-2.7-2.6c-1.5-0.8-2.6-1.6-2.6-3.2c0-1.9,1.5-3.2,3.7-3.2c0.9,0,1.9,0.3,2.6,0.7v2.9c-0.3-1.8-1.6-2.6-2.8-2.6
			c-1.1,0-2,0.6-2,1.6c0,1,0.4,1.4,2.4,2.4c1.8,0.9,3.1,1.6,3.1,3.4C323.3,27.4,321.9,28.6,319.4,28.6"/>
		<path fill="#00788A" d="M330.9,28.2c0,0,0.9,0,0.9-2V21c0-2-1-2.7-2.1-2.7c-1.5,0-3.1,1.4-3.1,3v5c0,2,1,2,1,2h-3.7c0,0,1,0,1-2
			V15.5c0-1.9-0.4-2.2-1.2-2.2h-0.2l3.1-1.3V19c0.7-1.2,2.5-2.1,3.9-2.1c1.8,0,3,1.2,3,3.6v5.7c0,2,1,2,1,2H330.9z"/>
		<path fill="#00788A" d="M336.7,15c-0.8,0-1.3-0.6-1.3-1.3c0-0.7,0.5-1.3,1.3-1.3s1.3,0.6,1.3,1.3C338,14.4,337.5,15,336.7,15
			 M335,28.2c0,0,1.1,0,1.1-2V20c0-1.6-0.4-1.9-1.1-1.9h-0.3l3.1-1.3v9.4c0,2,1.1,2,1.1,2H335z"/>
		<path fill="#00788A" d="M345,18.6c-1.4,0-2.8,1.8-2.8,4.4v3.3c0,2,1,2.1,1,2.1h-3.7c0,0,1,0,1-2.1v-6.2c0-1.6-0.4-1.8-1-1.8h-0.2
			l2.9-1.3v2.9c0.5-1.4,1.9-2.9,3.5-2.9c0.3,0,0.7,0.1,1,0.3v2.4C346.3,19,345.7,18.6,345,18.6"/>
		<path fill="#00788A" d="M351.8,17.9c-1.8,0-2.8,2-2.9,3.7h5.3C354.2,20,353.6,17.9,351.8,17.9 M352,28.6c-3.2,0-4.9-2.7-4.9-5.7
			c0-3.3,1.9-6,4.8-6c2.9,0,4.1,2.8,4.2,5.7h-7.3c0,2.9,1.8,4.6,3.7,4.6c1.2,0,2.6-0.7,3.6-2.1C355.6,27.4,354.1,28.6,352,28.6"/>
		<path fill="#00788A" d="M138.2,49.1c-5.2,0-7.7-3.9-7.7-7.8c0-4.2,2.8-8.5,8.3-8.5c1.7,0,3.2,0.4,4.2,1v3.4
			c-0.7-2-2.2-3.1-4.6-3.1c-3.8,0-5.8,3.4-5.8,6.8c0,3.5,2,6.9,6,6.9c1.7,0,3.5-0.9,4.8-2.4v1.5C142.1,48.2,140.4,49.1,138.2,49.1"
			/>
		<path fill="#00788A" d="M151.6,48.7c0,0,0.9,0,0.9-2v-5.3c0-2-1-2.7-2.1-2.7c-1.5,0-3.1,1.4-3.1,3v5c0,2,1,2,1,2h-3.7c0,0,1,0,1-2
			V35.9c0-1.9-0.4-2.2-1.2-2.2h-0.2l3.1-1.3v7.1c0.7-1.2,2.5-2.1,3.9-2.1c1.8,0,3,1.2,3,3.6v5.7c0,2,1,2,1,2H151.6z"/>
		<path fill="#00788A" d="M162.6,43.1c-3.3,0.7-4.6,1.7-4.6,3c0,1.1,0.9,1.8,1.9,1.8c1.4,0,2.7-1,2.7-2.3V43.1z M164.7,49.1
			c-1-0.2-1.7-1-1.8-1.8c-0.6,1.1-2,1.7-3.5,1.7c-1.7,0-3.1-0.9-3.1-2.6c0-1.6,1.7-3.2,6.4-4.3V41c0-1.8-0.9-2.6-2.2-2.6
			c-1.6,0-2.3,0.8-2.3,1.6c0,0.5,0.3,0.9,0.6,1.1l-1.9,0.8c-0.1-0.3-0.3-0.7-0.3-1.3c0-1.5,1.5-3.2,4.4-3.2c2.4,0,3.5,1.4,3.5,3.3
			v5.1c0,1.1,0.5,2.2,1.7,2.2c0.1,0,0.3,0,0.4,0L164.7,49.1z"/>
		<path fill="#00788A" d="M179.7,48.7c0,0,0.9,0,0.9-2v-5.1c0-2.1-0.8-2.9-1.9-2.9c-1.5,0-3,1.4-3,3v5c0,2,1,2,1,2h-3.6
			c0,0,0.9,0,0.9-2v-5.1c0-2.1-0.9-2.9-1.9-2.9c-1.5,0-3,1.4-3,3v5c0,2,0.9,2,0.9,2h-3.7c0,0,1,0,1-2v-6c0-1.8-0.4-2.1-1.1-2.1h-0.3
			l3.1-1.3l0,2.2c0.8-1.4,2.5-2.1,3.8-2.1c1.3,0,2.3,0.8,2.5,2.1c0.7-1.1,2.3-2.1,3.9-2.1c2,0,2.9,1.7,2.9,3.8v5.5c0,2,1,2,1,2
			H179.7z"/>
		<path fill="#00788A" d="M189.3,38.7c-1.6,0-3,1.6-3,3.2v4c0,1.3,0.9,2,2.5,2c2.1,0,3.3-2.3,3.3-4.7
			C192.2,40.9,191.3,38.7,189.3,38.7 M188.9,49c-2.4,0-2.5-0.7-3.3-0.7c-0.4,0-0.7,0.3-1,0.7V35.8c0-1.9-0.5-2.2-1.2-2.2h-0.2
			l3.2-1.2v7c0.8-1.2,2.2-2,3.6-2c2.3,0,4,2,4,5.4C194,45.9,192.2,49,188.9,49"/>
		<path fill="#00788A" d="M200,38.3c-1.8,0-2.8,2-2.9,3.7h5.3C202.4,40.4,201.8,38.3,200,38.3 M200.3,49c-3.2,0-4.9-2.7-4.9-5.7
			c0-3.3,1.9-6,4.8-6c2.9,0,4.1,2.8,4.2,5.7h-7.3c0,2.9,1.8,4.6,3.7,4.6c1.2,0,2.6-0.7,3.6-2.1C203.8,47.8,202.3,49,200.3,49"/>
		<path fill="#00788A" d="M211,39c-1.4,0-2.8,1.8-2.8,4.4v3.3c0,2,1,2.1,1,2.1h-3.7c0,0,1,0,1-2.1v-6.2c0-1.6-0.4-1.8-1-1.8h-0.2
			l2.9-1.3v2.9c0.5-1.4,1.9-2.9,3.5-2.9c0.3,0,0.7,0.1,1,0.3V40C212.3,39.5,211.7,39,211,39"/>
		<path fill="#00788A" d="M223.2,38.5c-2.3,0-3.2,2.5-3.2,4.4c0,2.3,1.2,5,3.8,5c2.3,0,3.2-2.5,3.2-4.4
			C227,41.2,225.7,38.5,223.2,38.5 M223.3,49c-3.6,0-5.2-2.9-5.2-5.6c0-2.8,1.7-6.1,5.4-6.1c3.6,0,5.2,2.9,5.2,5.7
			C228.8,45.8,227.1,49,223.3,49"/>
		<path fill="#00788A" d="M233.1,38.9v7.7c0,2.1,1,2.1,1,2.1h-3.7c0,0,1,0,1-2.1v-7.7h-1.9v-1.1h1.9v-0.5c0-2.9,1.3-4.7,3.4-4.7
			c0.5,0,0.9,0.1,1.1,0.1v2.1c-0.4-0.7-1.1-1-1.5-1c-0.8,0-1.2,0.7-1.2,2.4v1.5h2.8v1.1H233.1z"/>
		<path fill="#00788A" d="M138.2,69.5c-5.2,0-7.7-3.9-7.7-7.8c0-4.2,2.8-8.5,8.3-8.5c1.7,0,3.2,0.4,4.2,1v3.4
			c-0.7-2-2.2-3.1-4.6-3.1c-3.8,0-5.8,3.4-5.8,6.8c0,3.5,2,6.9,6,6.9c1.7,0,3.5-0.9,4.8-2.4v1.5C142.1,68.6,140.4,69.5,138.2,69.5"
			/>
		<path fill="#00788A" d="M149.4,58.9c-2.3,0-3.2,2.5-3.2,4.4c0,2.3,1.2,5,3.8,5c2.3,0,3.2-2.5,3.2-4.4
			C153.1,61.7,151.9,58.9,149.4,58.9 M149.5,69.5c-3.6,0-5.2-2.9-5.2-5.6c0-2.8,1.7-6.1,5.4-6.1c3.6,0,5.2,2.9,5.2,5.7
			C155,66.3,153.2,69.5,149.5,69.5"/>
		<path fill="#00788A" d="M169.1,69.1c0,0,0.9,0,0.9-2V62c0-2.1-0.8-2.9-1.9-2.9c-1.5,0-3,1.4-3,3v5c0,2,1,2,1,2h-3.6
			c0,0,0.9,0,0.9-2V62c0-2.1-0.9-2.9-1.9-2.9c-1.5,0-3,1.4-3,3v5c0,2,0.9,2,0.9,2h-3.7c0,0,1,0,1-2v-6c0-1.8-0.4-2.1-1.1-2.1h-0.3
			l3.1-1.3l0,2.2c0.8-1.4,2.5-2.1,3.8-2.1c1.3,0,2.3,0.8,2.5,2.1c0.7-1.1,2.3-2.1,3.9-2.1c2,0,2.9,1.7,2.9,3.8v5.5c0,2,1,2,1,2
			H169.1z"/>
		<path fill="#00788A" d="M186.8,69.1c0,0,0.9,0,0.9-2V62c0-2.1-0.8-2.9-1.9-2.9c-1.5,0-3,1.4-3,3v5c0,2,1,2,1,2h-3.6
			c0,0,0.9,0,0.9-2V62c0-2.1-0.9-2.9-1.9-2.9c-1.5,0-3,1.4-3,3v5c0,2,0.9,2,0.9,2h-3.7c0,0,1,0,1-2v-6c0-1.8-0.4-2.1-1.1-2.1h-0.3
			l3.1-1.3l0,2.2c0.8-1.4,2.5-2.1,3.8-2.1c1.3,0,2.3,0.8,2.5,2.1c0.7-1.1,2.3-2.1,3.9-2.1c2,0,2.9,1.7,2.9,3.8v5.5c0,2,1,2,1,2
			H186.8z"/>
		<path fill="#00788A" d="M195.8,58.8c-1.8,0-2.8,2-2.9,3.7h5.3C198.2,60.9,197.6,58.8,195.8,58.8 M196,69.5c-3.2,0-4.9-2.7-4.9-5.7
			c0-3.3,1.9-6,4.8-6c2.9,0,4.1,2.8,4.2,5.7h-7.3c0,2.9,1.8,4.6,3.7,4.6c1.2,0,2.6-0.7,3.6-2.1C199.6,68.3,198.1,69.5,196,69.5"/>
		<path fill="#00788A" d="M206.5,59.5c-1.4,0-2.8,1.8-2.8,4.4v3.3c0,2,1,2.1,1,2.1h-3.7c0,0,1,0,1-2.1v-6.2c0-1.6-0.4-1.8-1-1.8
			h-0.2l2.9-1.3v2.9c0.5-1.4,1.9-2.9,3.5-2.9c0.3,0,0.7,0.1,1,0.3v2.4C207.9,59.9,207.2,59.5,206.5,59.5"/>
		<path fill="#00788A" d="M213.5,69.5c-3.2,0-4.7-2.5-4.7-5.4c0-3.7,2.3-6.3,5.2-6.3c1.8,0,3.2,1.2,3.3,3.2l-1.8,0.8
			c0.1-0.2,0.1-0.5,0.1-0.7c0-1.3-0.9-2.1-2-2.1c-1.9,0-3.1,1.8-3.1,4.4c0,2.4,1.2,4.8,3.6,4.8c1.2,0,2.4-0.7,3.5-2.2
			C216.8,68.3,215.2,69.5,213.5,69.5"/>
		<path fill="#00788A" d="M223.2,58.8c-1.8,0-2.8,2-2.9,3.7h5.3C225.6,60.9,225,58.8,223.2,58.8 M223.4,69.5c-3.2,0-4.9-2.7-4.9-5.7
			c0-3.3,1.9-6,4.8-6c2.9,0,4.1,2.8,4.2,5.7h-7.3c0,2.9,1.8,4.6,3.7,4.6c1.2,0,2.6-0.7,3.6-2.1C227,68.3,225.5,69.5,223.4,69.5"/>
	</g>
</g>
</svg>
