<?xml version="1.0" encoding="utf-8"?>
<!-- Generator: Adobe Illustrator 18.1.1, SVG Export Plug-In . SVG Version: 6.00 Build 0)  -->
<svg version="1.1" id="Layer_24" xmlns="http://www.w3.org/2000/svg" xmlns:xlink="http://www.w3.org/1999/xlink" x="0px" y="0px"
	 viewBox="0 0 390 150" enable-background="new 0 0 390 150" xml:space="preserve">
<g>
	<g id="Grosvenor_Casinos_1_">
		<path fill="#03252C" d="M236.4,83.9c-1.1-0.3-2.3,0.4-2.6,1.5c-0.3,1.1,0.4,2.3,1.5,2.6c1.1,0.3,2.3-0.4,2.6-1.5
			C238.2,85.3,237.6,84.2,236.4,83.9z"/>
		<path fill="#03252C" d="M154,83.9c-1.1,0.3-1.8,1.5-1.5,2.6c0.3,1.1,1.5,1.8,2.6,1.5c1.1-0.3,1.8-1.5,1.5-2.6
			C156.4,84.3,155.2,83.6,154,83.9z"/>
		<path fill="#03252C" d="M155.3,71c2.8-0.1,5.1-2,5.8-5c0.4-1.6,0.5-3,0.2-4.7l0-0.1l-5.2-1.4l-1.1,4.3l1.9,0.5l0.6-2.2l2,0.5
			c0,0.7,0,1.5-0.2,2.4c-0.5,2.1-2.1,3.4-4,3.5c-0.4,0-0.9,0-1.3-0.2c-1.1-0.3-2.1-1-2.7-2c-0.6-1-0.7-2.2-0.4-3.3
			c0.4-1.3,1.1-2.6,2.2-3.7l0.2-0.3l-2.1-0.6l-0.1,0.1c-1.2,1.6-1.7,2.5-2.1,3.9c-1,3.6,1,7.1,4.5,8C154.1,70.9,154.7,71,155.3,71z"
			/>
		<path fill="#03252C" d="M164.6,57.5l-4.3-2.9l0.3-0.4c0.4-0.6,0.9-1.1,3.8-1l3,0.1l1.4-2.1l-1.4,0c-0.7,0-1.2,0-1.9,0l-0.1,0
			c-1.7-0.1-2.9-0.1-3.9,0.2c0.2-1.3-0.4-2.4-1.5-3.1c-0.7-0.4-1.3-0.6-2-0.6c-1.2,0-2.3,0.8-3.2,2.1l-1.8,2.7l10.2,6.9L164.6,57.5z
			 M159.2,52.8l-0.5,0.7l-2.7-1.8l0.5-0.7c0.8-1.2,1.6-1.5,2.5-0.9c0.4,0.3,0.7,0.6,0.7,1C159.8,51.6,159.6,52.2,159.2,52.8z"/>
		<path fill="#03252C" d="M169.8,49.1c1.4,0,2.7-0.6,3.9-1.5c3.5-2.7,3.3-6.6,1.4-9.1c-1.3-1.6-3.1-2.6-5.1-2.5
			c-1.4,0-2.8,0.6-4,1.5c-3,2.3-3.6,6.2-1.4,9C165.9,48.2,167.8,49.1,169.8,49.1z M167.3,39.1c0.8-0.6,1.7-0.9,2.6-1
			c1.4,0,2.6,0.6,3.5,1.7c0.7,1,1,2.1,0.9,3.2c-0.2,1.1-0.8,2.2-1.8,2.9c-0.8,0.6-1.7,0.9-2.6,1h0c-1.4,0-2.6-0.6-3.5-1.7
			C164.9,43.3,165.3,40.7,167.3,39.1z"/>
		<path fill="#03252C" d="M181.4,37.1c1.3,0.3,2.5,0.5,2.8,1.5c0.2,0.5,0,1.4-1.2,1.8c-1,0.4-2.2,0.1-3.3-0.6l-0.5-0.3l0.9,2.7
			l0.1,0c0.7,0.2,1.3,0.3,1.9,0.3c0.6,0,1.1-0.1,1.7-0.3c1.9-0.7,2.9-2.5,2.2-4.4c-0.7-2.1-2.7-2.5-4.3-2.8
			c-1.2-0.2-2.2-0.4-2.5-1.2c-0.2-0.7,0.3-1.4,1.2-1.7c0.9-0.3,1.9-0.2,2.9,0.2l0.4,0.2l-0.8-2.4l-0.1,0c-1-0.3-2-0.2-2.9,0.1
			c-2.2,0.8-3.2,2.5-2.5,4.4C178,36.4,179.8,36.8,181.4,37.1z"/>
		<polygon fill="#03252C" points="207.1,39.9 202,38.8 202.7,35.6 207.5,36.6 207.9,34.7 203.1,33.7 203.8,30.6 208.7,31.6 
			209.1,29.7 202.1,28.2 199.6,40.1 199.5,40.3 206.7,41.8 		"/>
		<polygon fill="#03252C" points="210.7,43.5 215.3,36 217.2,47.5 218.7,48.4 225.2,37.9 223.5,36.9 218.8,44.4 216.9,32.8 
			215.4,31.9 209,42.4 		"/>
		<path fill="#03252C" d="M222.4,49.7c-0.3,1.7,0.2,3.5,1.3,5c1.4,1.9,3.3,2.9,5.5,2.8c1.3,0,2.5-0.5,3.5-1.2c2.9-2.2,3.4-6,1.2-9.1
			c-1.4-1.8-3.3-2.9-5.5-2.8c-1.3,0-2.5,0.5-3.5,1.2C223.6,46.7,222.7,48.1,222.4,49.7z M226.2,47.4c0.7-0.5,1.6-0.8,2.5-0.9
			c1.4,0,2.7,0.6,3.6,1.9c1.5,2.1,1.2,4.6-0.9,6.1c-0.7,0.5-1.6,0.8-2.4,0.9c-1.4,0-2.7-0.6-3.7-1.9c-0.7-1-1-2.1-0.9-3.3
			C224.6,49.1,225.2,48.1,226.2,47.4z"/>
		<path fill="#03252C" d="M240.8,61.1l-0.9-3.1l-11.6,3.5l-0.2,0.1l0.6,2l4.9-1.5l0.1,0.5c0.2,0.7,0.2,1.4-1.7,3.6l-2,2.3l0.7,2.5
			l0.4-0.5c0.7-0.9,1-1.3,1.6-2l0,0c1.1-1.2,1.8-2.1,2.3-3.2c0.9,0.9,2.1,1.2,3.3,0.9C240.7,65.5,241.6,63.6,240.8,61.1z M238.1,64
			c-0.2,0.1-0.4,0.1-0.5,0.1c-0.8,0-1.4-0.5-1.7-1.6l-0.3-0.8l3.2-0.9l0.3,0.9C239.5,63.3,238.7,63.8,238.1,64z"/>
		<polygon fill="#03252C" points="192.8,40.3 193.5,40.3 197.9,27.6 195.8,27.7 192.9,35.9 188.9,28.1 186.8,28.3 192.8,40.2 		"/>
		<path fill="#03252C" d="M161.1,106.1c-0.9-1-1.3-2.2-1.3-3.3c0-1.1,0.6-2.2,1.5-3c0.8-0.7,1.9-1.1,2.9-1.1c1.2,0,2.4,0.6,3.3,1.7
			c0.9,1,1.4,2.2,1.7,3.8l0.1,0.4l1.8-1.5l0-0.1c-0.6-1.7-1.2-2.9-2-3.8c-1.3-1.5-3.1-2.4-4.9-2.5c-1.6-0.1-3.1,0.5-4.4,1.6
			c-1.8,1.6-3.5,5.4-0.3,9c1.4,1.6,2.6,2.2,3.7,2.6l0.1,0l1.8-1.6l-0.4-0.1C163.2,107.9,161.9,107.1,161.1,106.1z"/>
		<path fill="#03252C" d="M165.3,113l1.9,1.1l3.1-2.2l4.1,2.5l-0.4,3.8l1.9,1.1l1.6-13.3l0-0.1l-1.3-0.8L165.3,113z M174.6,112.3
			l-2.6-1.6l3.1-2.3L174.6,112.3z"/>
		<path fill="#03252C" d="M185.8,109.3c-0.4-0.1-0.8-0.2-1.2-0.2c-1.7-0.1-2.9,0.9-3.4,2.4c-0.5,1.8,0.7,3.1,1.8,4.3
			c0.9,1,1.8,1.9,1.5,2.9c-0.1,0.4-0.6,0.9-1.4,0.9c-0.2,0-0.4,0-0.6-0.1c-1.1-0.3-1.9-1.1-2.4-2.4l-0.2-0.6l-0.8,2.8l0.1,0.1
			c0.8,1,1.7,1.7,3,2c0.3,0.1,0.6,0.1,1,0.2c1.6,0.1,2.9-0.9,3.4-2.5c0.6-2.2-0.8-3.6-1.9-4.7c-0.9-0.9-1.6-1.6-1.4-2.5
			c0.1-0.5,0.6-0.8,1.3-0.8c0.2,0,0.4,0,0.6,0.1c0.9,0.3,1.6,0.9,2.2,1.9l0.3,0.4l0.7-2.4l-0.1-0.1
			C187.5,110.1,186.7,109.6,185.8,109.3z"/>
		<polygon fill="#03252C" points="190.1,122.5 190,122.8 192.2,122.9 193.2,110.9 193.2,110.7 191.1,110.5 		"/>
		<polygon fill="#03252C" points="205,109.6 206.6,118.3 197.5,110.9 197.4,110.9 195.8,111.2 197.9,123.3 199.9,122.9 198.4,114.3 
			207.3,121.6 207.4,121.6 209.1,121.3 207,109.2 		"/>
		<path fill="#03252C" d="M217.6,104.3c-1.3,0-2.6,0.3-3.8,1.1c-1.6,1-2.7,2.4-3.1,4.1c-0.4,1.6-0.1,3.3,0.8,4.7c1.1,1.8,3,3,5.1,3
			c1.3,0,2.6-0.3,3.8-1c1.7-1,2.8-2.5,3.2-4.2c0.4-1.6,0.1-3.2-0.8-4.7C221.6,105.5,219.7,104.4,217.6,104.3z M219.3,114.5
			c-0.8,0.5-1.7,0.7-2.5,0.7c-1.4,0-2.7-0.8-3.5-2.1c-1.3-2.1-0.7-4.7,1.5-6c0.8-0.5,1.7-0.7,2.6-0.7c1.4,0,2.7,0.8,3.5,2.1
			C222.1,110.6,221.5,113.1,219.3,114.5z"/>
		<path fill="#03252C" d="M229.1,100.8c-1,0-2,0.3-2.9,0.6c-0.7,0.3-1.4,0.5-2,0.5c-0.3,0-0.6-0.1-0.8-0.3c-0.5-0.5-0.5-1.3,0.2-2.1
			c0.6-0.7,1.5-1.1,2.6-1.2l0.5-0.1l-1.9-1.7l-0.1,0c-1,0.3-1.8,0.8-2.5,1.5c-0.7,0.8-1.1,1.8-1.1,2.7c0,0.9,0.4,1.8,1.2,2.4
			c0.5,0.5,1.2,0.7,1.9,0.7c0.9,0,1.9-0.3,2.8-0.6c0.8-0.3,1.6-0.5,2.2-0.5c0.4,0,0.7,0.1,1,0.4c0.2,0.2,0.4,0.5,0.4,0.9
			c0,0.3-0.1,0.8-0.5,1.3c-0.7,0.8-1.8,1.2-3,1.2l-0.8,0l2.2,1.9l0.1,0c1.3-0.3,2.3-0.9,3.1-1.8c1.3-1.5,1.2-3.6-0.3-4.9
			C230.7,101.1,230,100.8,229.1,100.8z"/>
	</g>
	<path id="Chip_2_" fill="#03252C" d="M195.3,12.7c-34.8,0-63.1,28.2-63.1,63.1s28.2,63.1,63.1,63.1s63.1-28.2,63.1-63.1
		C258.4,41,230.2,12.7,195.3,12.7z M140.1,75.8c0-30.5,24.7-55.2,55.2-55.2c30.5,0,55.2,24.7,55.2,55.2S225.8,131,195.3,131
		S140.1,106.3,140.1,75.8z M250.9,91.3c1.4-4.9,2.1-10.2,2.1-15.5c0-5.4-0.8-10.7-2.2-15.7l4.7,0c1.3,5,2,10.3,2,15.7
		c0,5.4-0.7,10.6-2,15.5l0,0.1h-4.7L250.9,91.3z M211,15.7l0,4.7c-5-1.4-10.3-2.2-15.7-2.2c-5.4,0-10.7,0.8-15.6,2.2l0-4.7
		c5-1.3,10.2-2,15.6-2C200.8,13.7,206,14.3,211,15.7z M135.2,60.1l4.7,0c-1.4,5-2.2,10.2-2.2,15.7c0,5.4,0.8,10.7,2.2,15.7l-4.7,0
		c-1.3-5-2-10.3-2-15.7C133.2,70.4,133.9,65.1,135.2,60.1z M179.7,136l0-4.7c5,1.4,10.2,2.2,15.6,2.2c5.4,0,10.7-0.8,15.7-2.2l0,4.7
		c-5,1.3-10.3,2-15.7,2C189.9,137.9,184.7,137.2,179.7,136z"/>
	<path id="G_2_" fill="#03252C" d="M213.7,64.6c1.6,0.7,2.2-0.5,2.7-1.3c0.4-0.7,3.2-6-2.3-11.5c-5.7-5.8-17-5.3-23.4-2.3
		c-5.6,2.6-11.4,6.7-16.9,15.5c-6.1,9.8-7.1,23-0.9,30.5c6.6,8,21.4,7.7,31.6,2.1c10.8-6,15-13.1,15.7-19.4c0.5-5.1-3.8-5.2-6.7-3.4
		c-5.4,3.3-8.7,5-15,6.4c-6.1,1.4-9.3,0.4-10,0.2c-1.6-0.3-2.5,1.7-1.1,2.3c1.4,0.6,5,2.2,12.9,1c6.2-1,10.4-2.5,11.2-2.8
		c0.6-0.2,1.3-0.2-0.4,2c-1.7,2.2-8.4,10.3-18.4,11.5c-10,1.2-14.8-4.6-16.8-10c-3.5-9.8,0.2-20.4,6.2-26.7c6.9-7.2,13-9.5,19.4-9.2
		c6,0.3,10.5,2.4,12,5.9c1.2,3,0.1,5.4-0.5,7.2C212.5,63.4,212.7,64.2,213.7,64.6z"/>
</g>
<g>
</g>
<g>
</g>
<g>
</g>
<g>
</g>
<g>
</g>
<g>
</g>
<g>
</g>
<g>
</g>
<g>
</g>
<g>
</g>
</svg>
