<?xml version="1.0" encoding="utf-8"?>
<!-- Generator: Adobe Illustrator 18.1.1, SVG Export Plug-In . SVG Version: 6.00 Build 0)  -->
<svg version="1.1" id="CWLEP" xmlns="http://www.w3.org/2000/svg" xmlns:xlink="http://www.w3.org/1999/xlink" x="0px" y="0px"
	 viewBox="0 0 390 150" style="enable-background:new 0 0 390 150;" xml:space="preserve">
<style type="text/css">
	.st0{fill:#2F83A3;}
	.st1{fill:#3C3C3B;}
</style>
<g>
	<path class="st0" d="M65.2,128.3c-29.4,0-53.3-23.9-53.3-53.3c0-29.4,23.9-53.3,53.3-53.3s53.3,23.9,53.3,53.3
		C118.4,104.4,94.5,128.3,65.2,128.3z M65.2,26c-27,0-49.1,22-49.1,49.1c0,27,22,49.1,49.1,49.1s49.1-22,49.1-49.1
		C114.2,48,92.2,26,65.2,26z"/>
	<path class="st0" d="M41.4,73.3v-5.7h-2.8v1.8c-0.7-0.8-1.6-1.3-2.5-1.7c-1-0.4-2-0.5-3-0.5c-1.3,0-2.5,0.2-3.6,0.7
		c-1.1,0.5-2.1,1.2-2.9,2c-0.8,0.9-1.5,1.8-2,3c-0.5,1.1-0.7,2.3-0.7,3.6c0,1.3,0.2,2.5,0.7,3.6c0.5,1.2,1.1,2.2,2,3.1
		c0.9,0.9,1.9,1.5,3,2c1.2,0.5,2.4,0.7,3.6,0.7c1,0,1.9-0.2,2.8-0.5c0.9-0.3,1.8-0.7,2.6-1.3c0.8-0.6,1.5-1.2,2-2
		c0.6-0.8,1-1.6,1.3-2.5h-3.7c-0.6,0.9-1.3,1.5-2.2,2c-0.9,0.5-1.9,0.7-2.9,0.7c-0.8,0-1.6-0.2-2.3-0.5c-0.7-0.3-1.3-0.7-1.9-1.3
		c-0.5-0.5-0.9-1.2-1.2-1.9c-0.3-0.7-0.5-1.5-0.5-2.3c0-0.8,0.1-1.6,0.4-2.4c0.3-0.7,0.7-1.4,1.2-1.9c0.5-0.5,1.2-0.9,1.9-1.2
		c0.7-0.3,1.5-0.5,2.4-0.5c0.5,0,1,0.1,1.4,0.2c0.5,0.1,0.9,0.3,1.4,0.5c0.4,0.2,0.8,0.5,1.2,0.9c0.4,0.3,0.7,0.7,0.9,1.1H41.4
		L41.4,73.3z M65.1,70.5h2v-2.9h-7.3v2.9h2l-2.4,9.4L56,67.6h-2.9l-3.3,12.3l-2.5-9.5h2v-2.9h-7.3v2.9h1.8L48,85.6h3.2l3.3-11.9
		l3.3,11.9h3.3L65.1,70.5L65.1,70.5z M77.3,80.9v3h-5.9V69.2h2.3v-1.7h-6.4v1.7h2.3v14.7h-2.3v1.7h11.8v-4.6H77.3L77.3,80.9z
		 M90.5,80.9v3h-6.8v-6.7h7v-1.5h-7v-6.5h6.8v3h1.8v-4.6H79.6v1.7h2.3v14.7h-2.3v1.7h12.7v-4.6H90.5L90.5,80.9z M97.1,76.8v-7.6h3.2
		c0.6,0,1.1,0.1,1.6,0.2c0.5,0.1,0.9,0.3,1.4,0.7c0.4,0.4,0.8,0.8,1,1.3c0.3,0.5,0.4,1.1,0.4,1.6c0,1.2-0.5,2.2-1.4,2.9
		c-0.5,0.4-0.9,0.6-1.4,0.7c-0.5,0.1-1,0.1-1.6,0.1H97.1L97.1,76.8z M97.1,78.5h3.4c0.9,0,1.6-0.1,2.3-0.3c0.7-0.2,1.4-0.6,2-1.2
		c1.2-1.1,1.7-2.5,1.7-4.1c0-0.8-0.2-1.6-0.5-2.4c-0.4-0.8-0.9-1.4-1.5-1.9c-0.6-0.5-1.3-0.8-2-0.9c-0.7-0.2-1.4-0.2-2.2-0.2H93v1.7
		h2.3v14.7H93v1.7h6.4v-1.7h-2.3V78.5L97.1,78.5z"/>
	<path class="st1" d="M142.5,68.7v-4.8h-2.4v1.5c-0.6-0.6-1.3-1.1-2.1-1.4c-0.8-0.3-1.6-0.5-2.5-0.5c-1.1,0-2.1,0.2-3,0.6
		c-0.9,0.4-1.7,1-2.4,1.7c-0.7,0.7-1.2,1.5-1.6,2.5c-0.4,0.9-0.6,1.9-0.6,3c0,1.1,0.2,2.1,0.6,3c0.4,1,0.9,1.8,1.7,2.6
		c0.7,0.7,1.6,1.3,2.5,1.7c1,0.4,2,0.6,3,0.6c0.8,0,1.6-0.1,2.4-0.4c0.8-0.3,1.5-0.6,2.1-1.1c0.7-0.5,1.2-1,1.7-1.6
		c0.5-0.6,0.9-1.3,1.1-2.1h-3.1c-0.5,0.7-1.1,1.3-1.8,1.7c-0.7,0.4-1.5,0.6-2.4,0.6c-0.7,0-1.3-0.1-1.9-0.4
		c-0.6-0.3-1.1-0.6-1.6-1.1c-0.4-0.5-0.8-1-1-1.6c-0.3-0.6-0.4-1.2-0.4-1.9c0-0.7,0.1-1.4,0.4-2c0.2-0.6,0.6-1.1,1-1.6
		c0.4-0.4,1-0.8,1.6-1c0.6-0.3,1.2-0.4,2-0.4c0.4,0,0.8,0.1,1.2,0.2c0.4,0.1,0.8,0.3,1.1,0.5c0.4,0.2,0.7,0.4,1,0.7
		c0.3,0.3,0.6,0.6,0.8,1H142.5L142.5,68.7z M147.6,76.4c-0.4-0.2-0.8-0.4-1.1-0.7c-0.3-0.3-0.5-0.7-0.7-1.1
		c-0.2-0.4-0.3-0.9-0.3-1.3c0-0.5,0.1-0.9,0.3-1.3c0.2-0.4,0.4-0.8,0.7-1.1c0.3-0.3,0.7-0.5,1.1-0.7c0.4-0.2,0.9-0.3,1.3-0.3
		c0.5,0,0.9,0.1,1.3,0.3c0.4,0.2,0.8,0.4,1.1,0.7c0.3,0.3,0.5,0.7,0.7,1.1c0.2,0.4,0.3,0.9,0.3,1.3c0,0.5-0.1,0.9-0.3,1.3
		c-0.2,0.4-0.4,0.8-0.7,1.1c-0.3,0.3-0.7,0.6-1.1,0.7c-0.4,0.2-0.9,0.3-1.3,0.3C148.4,76.7,148,76.6,147.6,76.4L147.6,76.4z
		 M151.2,78.8c0.7-0.3,1.3-0.7,1.9-1.3c0.5-0.5,1-1.2,1.3-1.9c0.3-0.7,0.5-1.5,0.5-2.3c0-0.8-0.2-1.6-0.5-2.3
		c-0.3-0.7-0.7-1.3-1.2-1.9c-0.5-0.5-1.1-1-1.8-1.3c-0.7-0.3-1.5-0.5-2.3-0.5c-0.8,0-1.6,0.2-2.3,0.5c-0.7,0.3-1.3,0.7-1.9,1.3
		c-0.5,0.5-1,1.2-1.3,1.9c-0.3,0.7-0.5,1.5-0.5,2.3c0,0.8,0.2,1.6,0.5,2.3c0.3,0.7,0.7,1.4,1.3,1.9c0.5,0.5,1.2,1,1.9,1.3
		c0.7,0.3,1.5,0.5,2.3,0.5C149.7,79.2,150.5,79.1,151.2,78.8L151.2,78.8z M165.5,70.1h1.3v-2.4h-5.2v2.4h1.2l-2.2,5.7h0l-2.1-5.7
		h1.1v-2.4h-5.2v2.4h1.4l3.4,8.8h2.7L165.5,70.1L165.5,70.1z M169,72.3c0.1-0.4,0.2-0.7,0.4-1c0.2-0.3,0.5-0.6,0.8-0.8
		c0.3-0.2,0.6-0.4,1-0.6c0.4-0.1,0.7-0.2,1.1-0.2c0.8,0,1.6,0.2,2.2,0.7c0.6,0.5,1.1,1.1,1.3,1.9H169L169,72.3z M175.1,75.6
		c-0.3,0.5-0.7,0.8-1.2,1c-0.5,0.2-1,0.3-1.5,0.3c-0.4,0-0.8-0.1-1.2-0.2c-0.4-0.1-0.7-0.3-1-0.6c-0.3-0.2-0.6-0.5-0.8-0.9
		c-0.2-0.3-0.4-0.7-0.4-1.1h9.1l0.1-0.9c0-0.8-0.1-1.6-0.4-2.3c-0.2-0.7-0.6-1.4-1.2-1.9c-0.5-0.6-1.2-1-1.9-1.3
		c-0.7-0.3-1.5-0.5-2.3-0.5c-0.8,0-1.6,0.2-2.3,0.5c-0.7,0.3-1.3,0.7-1.8,1.3c-0.5,0.5-0.9,1.2-1.2,1.9c-0.3,0.7-0.4,1.5-0.4,2.3
		c0,0.8,0.2,1.6,0.5,2.3c0.3,0.7,0.7,1.3,1.3,1.9c0.5,0.5,1.2,0.9,1.9,1.2c0.7,0.3,1.5,0.5,2.3,0.5c0.6,0,1.2-0.1,1.7-0.3
		c0.5-0.2,1-0.4,1.5-0.7c0.5-0.3,0.9-0.7,1.2-1.1c0.4-0.4,0.6-0.9,0.9-1.5H175.1L175.1,75.6z M179.7,76.5h-1.4v2.4h5.5v-2.4h-1.5
		v-3.3c0-0.4,0-0.8,0.1-1.2c0-0.4,0.2-0.8,0.4-1.1c0.2-0.3,0.5-0.6,0.9-0.7c0.4-0.2,0.7-0.2,1.1-0.2c0.4,0,0.7,0.1,1.1,0.2
		c0.3,0.1,0.6,0.4,0.9,0.7c0.2,0.3,0.4,0.6,0.4,1c0,0.3,0.1,0.7,0.1,1v3.6h-1.5v2.4h5.5v-2.4h-1.4v-4.4c0-0.3,0-0.6,0-0.9
		c0-0.3-0.1-0.6-0.1-0.8c-0.1-0.3-0.2-0.5-0.3-0.8c-0.1-0.3-0.3-0.5-0.5-0.8c-0.4-0.4-0.9-0.8-1.5-1c-0.6-0.2-1.2-0.4-1.8-0.4
		c-0.7,0-1.3,0.2-1.9,0.5c-0.6,0.3-1.1,0.8-1.4,1.4v-1.6h-4v2.4h1.4V76.5L179.7,76.5z M195.3,70.1h1.9v-2.4h-1.9v-3.8h-2.6v3.8h-1.8
		v2.4h1.8v8.8h4.6v-2.4h-2V70.1L195.3,70.1z M201.4,67.7h-3.8v2.4h1.5v6.4h-1.5v2.4h5.5v-2.4h-1.5v-2.8c0-0.5,0.1-1,0.2-1.5
		c0.1-0.4,0.4-0.8,0.8-1.2c0.3-0.3,0.7-0.5,1-0.6c0.4-0.1,0.8-0.2,1.2-0.2v-2.6c-0.7,0-1.4,0.2-2,0.5c-0.6,0.3-1.1,0.8-1.4,1.5V67.7
		L201.4,67.7z M215.7,70.1h1.4v-2.4h-5.2v2.4h1.1l-2.1,5.5l-2-5.5h1.1v-2.4h-5.3v2.4h1.5l3.4,8.7l-0.8,1.8h-1.4V83h5.5v-2.4h-1.5
		L215.7,70.1L215.7,70.1z M231.1,74.9c-0.2,0.4-0.4,0.8-0.6,1.2c-0.2,0.4-0.4,0.7-0.7,1c-0.3,0.3-0.6,0.5-1,0.7
		c-0.4,0.2-0.8,0.3-1.3,0.3c-0.4,0-0.8-0.1-1.2-0.3c-0.4-0.2-0.7-0.4-1-0.7c-0.3-0.3-0.5-0.6-0.7-1c-0.2-0.4-0.2-0.8-0.2-1.2
		c0-0.5,0.1-0.9,0.3-1.2c0.2-0.4,0.4-0.7,0.7-0.9c0.3-0.3,0.6-0.5,1-0.7c0.4-0.2,0.7-0.4,1.1-0.6L231.1,74.9L231.1,74.9z
		 M227.3,69.3c-0.2-0.2-0.4-0.4-0.5-0.5c-0.2-0.2-0.3-0.3-0.5-0.5c-0.1-0.2-0.2-0.4-0.3-0.6c-0.1-0.2-0.1-0.5-0.1-0.8
		c0-0.3,0.1-0.6,0.2-0.9c0.1-0.3,0.3-0.5,0.5-0.7c0.2-0.2,0.4-0.3,0.7-0.4c0.3-0.1,0.5-0.2,0.8-0.2c0.3,0,0.6,0.1,0.9,0.2
		c0.3,0.1,0.5,0.3,0.7,0.5c0.2,0.2,0.3,0.4,0.5,0.7c0.1,0.3,0.2,0.6,0.2,0.9c0,0.3-0.1,0.7-0.2,0.9c-0.2,0.3-0.4,0.5-0.6,0.7
		c-0.2,0.2-0.5,0.4-0.8,0.6c-0.3,0.2-0.6,0.3-0.8,0.4L227.3,69.3L227.3,69.3z M236.4,78.2l-3.6-3.5l1.9-3.9h1.8v-1.3h-2.7l-2,4.3
		l-3.3-3.2c0.4-0.2,0.7-0.4,1.1-0.6c0.3-0.2,0.7-0.5,0.9-0.8c0.3-0.3,0.5-0.6,0.7-1c0.2-0.4,0.2-0.8,0.2-1.2c0-0.5-0.1-0.9-0.3-1.3
		c-0.2-0.4-0.4-0.8-0.8-1.1c-0.3-0.3-0.7-0.5-1.1-0.7c-0.4-0.2-0.9-0.3-1.3-0.3c-0.5,0-0.9,0.1-1.4,0.3c-0.4,0.2-0.8,0.4-1.1,0.7
		c-0.3,0.3-0.6,0.7-0.8,1.1c-0.2,0.4-0.3,0.9-0.3,1.4c0,0.4,0,0.7,0.1,1c0.1,0.3,0.2,0.6,0.4,0.8c0.2,0.3,0.3,0.5,0.5,0.7
		c0.2,0.2,0.4,0.4,0.7,0.7l0.3,0.3c-0.4,0.2-0.9,0.5-1.3,0.8c-0.4,0.3-0.8,0.6-1.1,1c-0.3,0.4-0.6,0.8-0.8,1.2
		c-0.2,0.4-0.3,0.9-0.3,1.5c0,0.6,0.1,1.2,0.4,1.7c0.2,0.5,0.6,1,1,1.4c0.4,0.4,0.9,0.7,1.4,0.9c0.5,0.2,1.1,0.3,1.7,0.3
		c0.6,0,1.1-0.1,1.6-0.3c0.5-0.2,0.9-0.4,1.3-0.7c0.4-0.3,0.7-0.7,1-1.1c0.3-0.4,0.6-0.9,0.8-1.4l3.4,3.3L236.4,78.2L236.4,78.2z
		 M261.8,66.3h1.7v-2.4h-6.1v2.4h1.7l-2,7.8l-2.9-10.2h-2.4l-2.7,10.3l-2.1-7.9h1.6v-2.4h-6.1v2.4h1.5l3.6,12.6h2.7L253,69l2.8,9.9
		h2.7L261.8,66.3L261.8,66.3z M268.1,76.5c-0.4-0.2-0.8-0.4-1.1-0.7c-0.3-0.3-0.5-0.7-0.7-1.1c-0.2-0.4-0.3-0.8-0.3-1.3
		c0-0.5,0.1-0.9,0.3-1.3c0.2-0.4,0.4-0.8,0.7-1.1c0.3-0.3,0.7-0.6,1.1-0.7c0.4-0.2,0.9-0.3,1.3-0.3c0.5,0,0.9,0.1,1.3,0.3
		c0.4,0.2,0.8,0.4,1.1,0.7s0.5,0.7,0.7,1.1c0.2,0.4,0.3,0.8,0.3,1.3c0,0.5-0.1,0.9-0.3,1.3c-0.2,0.4-0.4,0.8-0.7,1.1
		c-0.3,0.3-0.7,0.6-1.1,0.7c-0.4,0.2-0.9,0.3-1.3,0.3C268.9,76.7,268.5,76.7,268.1,76.5L268.1,76.5z M272.8,78.9h4v-2.4h-1.4v-6.4
		h1.4v-2.4h-4v1.6c-0.4-0.6-0.9-1.1-1.5-1.4c-0.6-0.3-1.3-0.5-2-0.5c-0.8,0-1.6,0.2-2.3,0.5c-0.7,0.3-1.3,0.7-1.9,1.3
		c-0.5,0.5-0.9,1.2-1.3,1.9c-0.3,0.7-0.5,1.5-0.5,2.3c0,0.8,0.2,1.6,0.5,2.3c0.3,0.7,0.7,1.3,1.2,1.9c0.5,0.5,1.1,1,1.8,1.3
		c0.7,0.3,1.4,0.5,2.2,0.5c0.7,0,1.4-0.1,2.1-0.4c0.6-0.3,1.1-0.7,1.6-1.4V78.9L272.8,78.9z M280.6,67.7h-3.8v2.4h1.4v6.4h-1.4v2.4
		h5.5v-2.4h-1.4v-2.8c0-0.5,0.1-1,0.2-1.5c0.1-0.4,0.4-0.8,0.8-1.2c0.3-0.3,0.7-0.5,1-0.6c0.4-0.1,0.8-0.2,1.2-0.2v-2.6
		c-0.7,0-1.4,0.2-2,0.5c-0.6,0.3-1.1,0.8-1.4,1.5V67.7L280.6,67.7z M300.4,70.1h1.5v-2.4h-5.3v2.4h1.3l-1.7,5.3h0l-2.2-7.2h-2.1
		l-2.4,7.2h0l-1.6-5.3h1.2v-2.4h-5.2v2.4h1.4l2.7,8.8h2.4l2.4-6.6l2,6.6h2.5L300.4,70.1L300.4,70.1z M306,63.9h-2.6v2.7h2.6V63.9
		L306,63.9z M306,67.7h-4v2.4h1.4v6.4H302v2.4h5.5v-2.4H306V67.7L306,67.7z M316.1,75.2c-0.2,0.5-0.6,0.9-1.1,1.1
		c-0.5,0.3-1,0.4-1.6,0.4c-0.5,0-0.9-0.1-1.3-0.3c-0.4-0.2-0.8-0.4-1.1-0.7c-0.3-0.3-0.6-0.7-0.7-1.1c-0.2-0.4-0.3-0.9-0.3-1.3
		c0-0.5,0.1-0.9,0.3-1.3c0.2-0.4,0.4-0.8,0.7-1.1c0.3-0.3,0.6-0.6,1-0.7c0.4-0.2,0.8-0.3,1.3-0.3c0.6,0,1.1,0.1,1.6,0.4
		c0.5,0.3,0.9,0.7,1.2,1.1h2.4v-3.7h-2.2v1.1c-0.4-0.4-0.9-0.8-1.4-1c-0.5-0.2-1.1-0.4-1.8-0.4c-0.8,0-1.5,0.2-2.2,0.5
		c-0.7,0.3-1.3,0.8-1.8,1.3c-0.5,0.5-0.9,1.2-1.2,1.9c-0.3,0.7-0.4,1.5-0.4,2.2c0,0.8,0.2,1.6,0.5,2.3c0.3,0.7,0.7,1.3,1.3,1.9
		c0.5,0.5,1.2,1,1.9,1.3c0.7,0.3,1.5,0.5,2.3,0.5c0.6,0,1.2-0.1,1.8-0.3c0.6-0.2,1.1-0.5,1.6-0.8c0.5-0.4,0.9-0.8,1.3-1.3
		c0.4-0.5,0.6-1,0.8-1.6H316.1L316.1,75.2z M323.2,72.7v-8.8h-4v2.4h1.5v10.2h-1.5v2.4h5v-2.4h-1v-2.9l2.7,2.9h-0.9v2.4h6.1v-2.4
		h-1.8l-3.3-3.4l3.1-3h1.4v-2.4h-5.5v2.1h1.2L323.2,72.7L323.2,72.7z M331.3,75.7v3.3h2V78c0.4,0.4,0.8,0.7,1.3,0.9
		c0.5,0.2,1,0.3,1.6,0.3c0.5,0,1-0.1,1.5-0.2c0.5-0.2,0.9-0.4,1.3-0.7c0.4-0.3,0.7-0.7,0.9-1.1c0.2-0.4,0.3-0.9,0.3-1.5
		c0-0.6-0.1-1.2-0.4-1.6c-0.2-0.4-0.6-0.8-1-1c-0.4-0.3-0.8-0.5-1.3-0.6c-0.5-0.2-1-0.3-1.5-0.4c-0.2,0-0.4-0.1-0.6-0.2
		c-0.2-0.1-0.4-0.1-0.6-0.3c-0.2-0.1-0.3-0.2-0.4-0.4c-0.1-0.2-0.2-0.4-0.2-0.7c0-0.4,0.2-0.7,0.5-0.9c0.3-0.2,0.6-0.3,1-0.3
		c0.4,0,0.7,0.1,1,0.4c0.3,0.2,0.4,0.6,0.4,1h2.5v-3h-1.9v0.8c-0.3-0.4-0.7-0.7-1.1-0.8c-0.4-0.1-0.9-0.2-1.4-0.2
		c-0.5,0-1,0.1-1.4,0.2c-0.5,0.2-0.9,0.4-1.2,0.7c-0.3,0.3-0.6,0.6-0.8,1.1c-0.2,0.4-0.3,0.9-0.3,1.4c0,0.6,0.1,1.1,0.4,1.5
		c0.2,0.4,0.6,0.7,0.9,1c0.4,0.3,0.8,0.5,1.3,0.6c0.5,0.2,1,0.3,1.5,0.4c0.2,0.1,0.4,0.1,0.7,0.2c0.2,0.1,0.4,0.1,0.6,0.3
		c0.2,0.1,0.3,0.2,0.5,0.4c0.1,0.2,0.2,0.4,0.2,0.7c0,0.4-0.2,0.8-0.5,1c-0.3,0.3-0.7,0.4-1.1,0.4c-0.5,0-1-0.2-1.3-0.5
		c-0.3-0.3-0.5-0.7-0.5-1.2H331.3L331.3,75.7z M344.2,63.9h-4v2.4h1.4v10.2h-1.4v2.4h5.5v-2.4h-1.4v-3.4c0-0.4,0-0.8,0.1-1.2
		c0-0.4,0.2-0.7,0.5-1.1c0.2-0.3,0.5-0.5,0.9-0.7c0.3-0.2,0.7-0.2,1.1-0.2c0.4,0,0.8,0.1,1.1,0.2c0.4,0.2,0.7,0.4,0.9,0.8
		c0.2,0.4,0.3,0.7,0.4,1.1c0,0.4,0,0.8,0,1.2v3.2h-1.4v2.4h5.5v-2.4h-1.5v-3.9c0-0.7,0-1.3-0.1-1.9c-0.1-0.6-0.4-1.1-0.8-1.7
		c-0.4-0.5-0.8-0.9-1.4-1.2c-0.5-0.3-1.1-0.4-1.8-0.4c-0.7,0-1.4,0.2-2,0.5c-0.6,0.3-1,0.8-1.4,1.4V63.9L344.2,63.9z M357.1,63.9
		h-2.6v2.7h2.6V63.9L357.1,63.9z M357.1,67.7h-4v2.4h1.5v6.4H353v2.4h5.5v-2.4h-1.4V67.7L357.1,67.7z M362.5,67.7h-3.8v2.4h1.4v6.4
		h-1.4v2.4h5.5v-2.4h-1.5v-2.8c0-0.5,0.1-1,0.2-1.5c0.1-0.4,0.4-0.8,0.8-1.2c0.3-0.3,0.7-0.5,1-0.6c0.4-0.1,0.8-0.2,1.2-0.2v-2.6
		c-0.7,0-1.4,0.2-2,0.5c-0.6,0.3-1.1,0.8-1.4,1.5V67.7L362.5,67.7z M368.4,72.3c0.1-0.4,0.2-0.7,0.4-1c0.2-0.3,0.5-0.6,0.8-0.8
		c0.3-0.2,0.6-0.4,1-0.6c0.4-0.1,0.7-0.2,1.1-0.2c0.8,0,1.6,0.2,2.2,0.7c0.6,0.5,1.1,1.1,1.3,1.9H368.4L368.4,72.3z M374.5,75.6
		c-0.3,0.5-0.7,0.8-1.2,1c-0.5,0.2-1,0.3-1.5,0.3c-0.4,0-0.8-0.1-1.2-0.2c-0.4-0.1-0.7-0.3-1-0.6c-0.3-0.2-0.6-0.5-0.8-0.9
		c-0.2-0.3-0.4-0.7-0.4-1.1h9.1l0.1-0.9c0-0.8-0.1-1.6-0.4-2.3c-0.2-0.7-0.6-1.4-1.2-1.9c-0.5-0.6-1.2-1-1.9-1.3
		c-0.7-0.3-1.5-0.5-2.3-0.5c-0.8,0-1.6,0.2-2.3,0.5c-0.7,0.3-1.3,0.7-1.8,1.3c-0.5,0.5-0.9,1.2-1.2,1.9c-0.3,0.7-0.4,1.5-0.4,2.3
		c0,0.8,0.2,1.6,0.5,2.3c0.3,0.7,0.7,1.3,1.3,1.9c0.5,0.5,1.2,0.9,1.9,1.2c0.7,0.3,1.5,0.5,2.3,0.5c0.6,0,1.2-0.1,1.7-0.3
		c0.5-0.2,1-0.4,1.5-0.7c0.5-0.3,0.9-0.7,1.2-1.1c0.4-0.4,0.6-0.9,0.9-1.5H374.5L374.5,75.6z"/>
	<path class="st1" d="M133.7,90.6v1.2h-2.4v-5.9h0.9v-0.7h-2.6v0.7h0.9v5.9h-0.9v0.7h4.7v-1.9H133.7L133.7,90.6z M136.8,91.7
		c-0.3-0.1-0.5-0.3-0.7-0.5c-0.2-0.2-0.3-0.4-0.4-0.7c-0.1-0.3-0.2-0.5-0.2-0.8c0-0.3,0.1-0.6,0.2-0.8c0.1-0.3,0.3-0.5,0.5-0.7
		c0.2-0.2,0.4-0.3,0.7-0.4c0.3-0.1,0.5-0.2,0.8-0.2c0.3,0,0.6,0.1,0.8,0.2c0.3,0.1,0.5,0.3,0.7,0.5c0.2,0.2,0.3,0.4,0.4,0.7
		c0.1,0.3,0.2,0.5,0.2,0.8c0,0.3-0.1,0.6-0.2,0.8c-0.1,0.3-0.3,0.5-0.4,0.7c-0.2,0.2-0.4,0.3-0.7,0.5c-0.3,0.1-0.5,0.2-0.8,0.2
		C137.3,91.9,137,91.8,136.8,91.7L136.8,91.7z M138.7,92.3c0.3-0.1,0.6-0.3,0.9-0.6c0.2-0.3,0.4-0.5,0.6-0.9
		c0.1-0.3,0.2-0.7,0.2-1.1c0-0.4-0.1-0.7-0.2-1.1c-0.1-0.3-0.3-0.6-0.6-0.9c-0.3-0.2-0.5-0.4-0.9-0.6c-0.3-0.1-0.7-0.2-1.1-0.2
		c-0.4,0-0.7,0.1-1.1,0.2c-0.3,0.1-0.6,0.3-0.9,0.6c-0.3,0.2-0.5,0.5-0.6,0.9c-0.1,0.3-0.2,0.7-0.2,1.1c0,0.4,0.1,0.7,0.2,1.1
		c0.1,0.3,0.3,0.6,0.6,0.9c0.3,0.2,0.5,0.4,0.9,0.6c0.3,0.1,0.7,0.2,1.1,0.2C138,92.6,138.3,92.5,138.7,92.3L138.7,92.3z
		 M145.9,87.1h-0.6v0.8c-0.2-0.3-0.5-0.5-0.8-0.6c-0.3-0.1-0.7-0.2-1-0.2c-0.4,0-0.7,0.1-1.1,0.2c-0.3,0.2-0.6,0.4-0.9,0.6
		c-0.2,0.2-0.4,0.5-0.6,0.9c-0.1,0.3-0.2,0.7-0.2,1.1c0,0.4,0.1,0.7,0.2,1.1c0.1,0.3,0.3,0.6,0.6,0.9c0.2,0.2,0.5,0.4,0.9,0.6
		c0.3,0.1,0.7,0.2,1.1,0.2c0.3,0,0.6,0,0.8-0.1c0.3-0.1,0.5-0.2,0.8-0.4c0.2-0.2,0.4-0.3,0.6-0.6c0.2-0.2,0.3-0.5,0.4-0.7h-0.7
		c-0.1,0.2-0.2,0.3-0.3,0.5c-0.1,0.1-0.3,0.3-0.4,0.4c-0.2,0.1-0.3,0.2-0.5,0.2c-0.2,0.1-0.4,0.1-0.6,0.1c-0.3,0-0.6-0.1-0.8-0.2
		c-0.3-0.1-0.5-0.3-0.7-0.4c-0.2-0.2-0.3-0.4-0.5-0.7c-0.1-0.3-0.2-0.5-0.2-0.8c0-0.3,0.1-0.6,0.2-0.8c0.1-0.3,0.3-0.5,0.4-0.7
		c0.2-0.2,0.4-0.3,0.7-0.5c0.3-0.1,0.5-0.2,0.8-0.2c0.4,0,0.7,0.1,1,0.3c0.3,0.2,0.6,0.4,0.8,0.7h0.6V87.1L145.9,87.1z M149.9,87.9
		c0.3,0.1,0.5,0.3,0.7,0.4c0.2,0.2,0.3,0.4,0.5,0.7c0.1,0.3,0.2,0.5,0.2,0.8c0,0.3-0.1,0.6-0.2,0.8c-0.1,0.3-0.3,0.5-0.5,0.7
		c-0.2,0.2-0.4,0.3-0.7,0.5c-0.3,0.1-0.5,0.2-0.8,0.2c-0.3,0-0.6-0.1-0.8-0.2c-0.3-0.1-0.5-0.3-0.7-0.5c-0.2-0.2-0.3-0.4-0.5-0.7
		c-0.1-0.3-0.2-0.5-0.2-0.8c0-0.3,0.1-0.6,0.2-0.8c0.1-0.3,0.3-0.5,0.5-0.7c0.2-0.2,0.4-0.3,0.7-0.5c0.3-0.1,0.5-0.2,0.8-0.2
		C149.4,87.7,149.7,87.7,149.9,87.9L149.9,87.9z M151.2,92.4h1.5v-0.6h-0.9v-4h0.9v-0.6h-1.5v1.2c-0.2-0.4-0.5-0.7-0.9-0.9
		c-0.4-0.2-0.8-0.3-1.3-0.3c-0.2,0-0.5,0-0.7,0.1c-0.2,0.1-0.4,0.1-0.6,0.3c-0.2,0.1-0.4,0.2-0.5,0.4c-0.2,0.2-0.3,0.3-0.4,0.5
		c-0.1,0.1-0.1,0.2-0.2,0.3c-0.1,0.1-0.1,0.2-0.1,0.3c0,0.1-0.1,0.2-0.1,0.4c0,0.1,0,0.3,0,0.5c0,0.3,0,0.6,0.1,0.8
		c0.1,0.3,0.2,0.5,0.3,0.7c0.2,0.4,0.6,0.7,1,0.9c0.4,0.2,0.9,0.3,1.3,0.3c0.5,0,0.9-0.1,1.2-0.3c0.4-0.2,0.7-0.5,0.9-0.9V92.4
		L151.2,92.4z M154.6,85.2H153v0.6h0.9v5.9H153v0.6h2.5v-0.6h-0.9V85.2L154.6,85.2z M158.9,92.4h5.3v-2.2h-1.4v1h-1.8v-1.9h2.1v-1.1
		h-2.1v-1.8h1.8v0.9h1.4v-2.2h-5.3v1.1h0.8v4.9h-0.8V92.4L158.9,92.4z M165.4,91.3h-0.7v1.2h2.6v-1.2h-0.7v-1.6c0-0.2,0-0.4,0-0.6
		c0-0.2,0.1-0.4,0.2-0.5c0.1-0.2,0.3-0.3,0.4-0.3c0.2-0.1,0.4-0.1,0.5-0.1c0.2,0,0.4,0,0.5,0.1c0.2,0.1,0.3,0.2,0.4,0.3
		c0.1,0.1,0.2,0.3,0.2,0.5c0,0.2,0,0.3,0,0.5v1.7h-0.7v1.2h2.6v-1.2h-0.7v-2.1c0-0.2,0-0.3,0-0.4c0-0.1,0-0.3,0-0.4
		c0-0.1-0.1-0.3-0.1-0.4c-0.1-0.1-0.2-0.2-0.3-0.4c-0.2-0.2-0.4-0.4-0.7-0.5c-0.3-0.1-0.6-0.2-0.9-0.2c-0.3,0-0.6,0.1-0.9,0.2
		c-0.3,0.1-0.5,0.4-0.7,0.7V87h-1.9v1.1h0.7V91.3L165.4,91.3z M173.2,88.2h0.9V87h-0.9v-1.8h-1.2V87h-0.8v1.1h0.8v4.2h2.2v-1.2h-1
		V88.2L173.2,88.2z M175.7,89.2c0-0.2,0.1-0.3,0.2-0.5c0.1-0.2,0.2-0.3,0.4-0.4c0.1-0.1,0.3-0.2,0.5-0.3c0.2-0.1,0.3-0.1,0.5-0.1
		c0.4,0,0.8,0.1,1.1,0.3c0.3,0.2,0.5,0.5,0.6,0.9H175.7L175.7,89.2z M178.6,90.8c-0.2,0.2-0.3,0.4-0.6,0.5c-0.2,0.1-0.5,0.2-0.7,0.2
		c-0.2,0-0.4,0-0.6-0.1c-0.2-0.1-0.3-0.2-0.5-0.3c-0.1-0.1-0.3-0.3-0.4-0.4c-0.1-0.2-0.2-0.3-0.2-0.5h4.4l0-0.4
		c0-0.4-0.1-0.7-0.2-1.1c-0.1-0.3-0.3-0.7-0.6-0.9c-0.3-0.3-0.6-0.5-0.9-0.6c-0.4-0.2-0.7-0.2-1.1-0.2c-0.4,0-0.8,0.1-1.1,0.2
		c-0.3,0.1-0.6,0.4-0.9,0.6c-0.3,0.3-0.4,0.6-0.6,0.9c-0.1,0.3-0.2,0.7-0.2,1.1c0,0.4,0.1,0.8,0.2,1.1c0.1,0.3,0.4,0.6,0.6,0.9
		c0.3,0.3,0.6,0.5,0.9,0.6c0.3,0.1,0.7,0.2,1.1,0.2c0.3,0,0.6,0,0.8-0.1c0.3-0.1,0.5-0.2,0.7-0.4c0.2-0.2,0.4-0.3,0.6-0.5
		c0.2-0.2,0.3-0.4,0.4-0.7H178.6L178.6,90.8z M182.3,87h-1.8v1.1h0.7v3.1h-0.7v1.2h2.6v-1.2h-0.7v-1.4c0-0.3,0-0.5,0.1-0.7
		c0.1-0.2,0.2-0.4,0.4-0.6c0.2-0.1,0.3-0.2,0.5-0.3c0.2-0.1,0.4-0.1,0.6-0.1V87c-0.4,0-0.7,0.1-1,0.3c-0.3,0.2-0.5,0.4-0.7,0.7V87
		L182.3,87z M187.2,91.2c-0.2-0.1-0.4-0.2-0.5-0.3c-0.1-0.1-0.3-0.3-0.3-0.5c-0.1-0.2-0.1-0.4-0.1-0.6c0-0.2,0-0.4,0.1-0.6
		c0.1-0.2,0.2-0.4,0.4-0.5c0.2-0.1,0.3-0.3,0.5-0.3c0.2-0.1,0.4-0.1,0.6-0.1c0.2,0,0.4,0,0.6,0.1c0.2,0.1,0.4,0.2,0.5,0.4
		c0.1,0.2,0.3,0.3,0.3,0.5c0.1,0.2,0.1,0.4,0.1,0.6c0,0.2,0,0.4-0.1,0.6c-0.1,0.2-0.2,0.4-0.3,0.5c-0.1,0.1-0.3,0.3-0.5,0.3
		c-0.2,0.1-0.4,0.1-0.6,0.1C187.6,91.4,187.4,91.3,187.2,91.2L187.2,91.2z M184.9,93.2h-0.7v1.1h2.6v-1.1h-0.7v-1.6
		c0.2,0.3,0.5,0.5,0.8,0.6c0.3,0.1,0.7,0.2,1,0.2c0.4,0,0.7-0.1,1-0.2c0.3-0.1,0.6-0.3,0.9-0.6c0.2-0.3,0.4-0.5,0.6-0.9
		c0.1-0.3,0.2-0.7,0.2-1.1c0-0.4-0.1-0.7-0.2-1.1c-0.1-0.3-0.3-0.6-0.6-0.9c-0.2-0.3-0.5-0.5-0.9-0.6c-0.3-0.1-0.7-0.2-1.1-0.2
		c-0.4,0-0.7,0.1-1,0.2c-0.3,0.1-0.6,0.4-0.8,0.7V87h-1.9v1.1h0.7V93.2L184.9,93.2z M192.7,87h-1.8v1.1h0.7v3.1h-0.7v1.2h2.6v-1.2
		h-0.7v-1.4c0-0.3,0-0.5,0.1-0.7c0.1-0.2,0.2-0.4,0.4-0.6c0.2-0.1,0.3-0.2,0.5-0.3c0.2-0.1,0.4-0.1,0.6-0.1V87c-0.3,0-0.7,0.1-1,0.3
		c-0.3,0.2-0.5,0.4-0.7,0.7V87L192.7,87z M196.7,85.2h-1.2v1.3h1.2V85.2L196.7,85.2z M196.7,87h-1.9v1.1h0.7v3.1h-0.7v1.2h2.6v-1.2
		h-0.7V87L196.7,87z M197.8,90.9v1.6h0.9V92c0.2,0.2,0.4,0.4,0.6,0.4c0.2,0.1,0.5,0.1,0.8,0.1c0.2,0,0.5,0,0.7-0.1
		c0.2-0.1,0.4-0.2,0.6-0.3c0.2-0.1,0.3-0.3,0.4-0.5c0.1-0.2,0.2-0.4,0.2-0.7c0-0.3-0.1-0.6-0.2-0.8c-0.1-0.2-0.3-0.4-0.5-0.5
		c-0.2-0.1-0.4-0.2-0.6-0.3c-0.2-0.1-0.5-0.1-0.7-0.2c-0.1,0-0.2,0-0.3-0.1c-0.1,0-0.2-0.1-0.3-0.1c-0.1,0-0.2-0.1-0.2-0.2
		c-0.1-0.1-0.1-0.2-0.1-0.3c0-0.2,0.1-0.3,0.2-0.4c0.1-0.1,0.3-0.1,0.5-0.1c0.2,0,0.4,0.1,0.5,0.2c0.1,0.1,0.2,0.3,0.2,0.5h1.2V87
		h-0.9v0.4c-0.2-0.2-0.3-0.3-0.5-0.4c-0.2-0.1-0.4-0.1-0.7-0.1c-0.2,0-0.5,0-0.7,0.1c-0.2,0.1-0.4,0.2-0.6,0.3
		c-0.2,0.1-0.3,0.3-0.4,0.5c-0.1,0.2-0.2,0.4-0.2,0.7c0,0.3,0.1,0.5,0.2,0.7c0.1,0.2,0.3,0.4,0.5,0.5c0.2,0.1,0.4,0.2,0.6,0.3
		c0.2,0.1,0.5,0.1,0.7,0.2c0.1,0,0.2,0.1,0.3,0.1c0.1,0,0.2,0.1,0.3,0.1c0.1,0.1,0.2,0.1,0.2,0.2c0.1,0.1,0.1,0.2,0.1,0.3
		c0,0.2-0.1,0.4-0.2,0.5c-0.2,0.1-0.3,0.2-0.5,0.2c-0.3,0-0.5-0.1-0.6-0.2c-0.2-0.1-0.2-0.3-0.3-0.6H197.8L197.8,90.9z M203.5,89.2
		c0-0.2,0.1-0.3,0.2-0.5c0.1-0.2,0.2-0.3,0.4-0.4c0.1-0.1,0.3-0.2,0.5-0.3c0.2-0.1,0.3-0.1,0.5-0.1c0.4,0,0.8,0.1,1.1,0.3
		c0.3,0.2,0.5,0.5,0.6,0.9H203.5L203.5,89.2z M206.5,90.8c-0.2,0.2-0.3,0.4-0.6,0.5c-0.2,0.1-0.5,0.2-0.7,0.2c-0.2,0-0.4,0-0.6-0.1
		c-0.2-0.1-0.3-0.2-0.5-0.3c-0.1-0.1-0.3-0.3-0.4-0.4c-0.1-0.2-0.2-0.3-0.2-0.5h4.4l0-0.4c0-0.4-0.1-0.7-0.2-1.1
		c-0.1-0.3-0.3-0.7-0.6-0.9c-0.3-0.3-0.6-0.5-0.9-0.6c-0.4-0.2-0.7-0.2-1.1-0.2c-0.4,0-0.8,0.1-1.1,0.2c-0.3,0.1-0.6,0.4-0.9,0.6
		c-0.3,0.3-0.4,0.6-0.6,0.9c-0.1,0.3-0.2,0.7-0.2,1.1c0,0.4,0.1,0.8,0.2,1.1c0.1,0.3,0.3,0.6,0.6,0.9c0.3,0.3,0.6,0.5,0.9,0.6
		c0.3,0.1,0.7,0.2,1.1,0.2c0.3,0,0.6,0,0.8-0.1c0.3-0.1,0.5-0.2,0.7-0.4c0.2-0.2,0.4-0.3,0.6-0.5c0.2-0.2,0.3-0.4,0.4-0.7H206.5
		L206.5,90.8z M213,88.9v-3h1.3c0.2,0,0.4,0,0.6,0.1c0.2,0,0.4,0.1,0.6,0.3c0.2,0.1,0.3,0.3,0.4,0.5c0.1,0.2,0.2,0.4,0.2,0.7
		c0,0.5-0.2,0.9-0.6,1.2c-0.2,0.2-0.4,0.2-0.6,0.3c-0.2,0-0.4,0-0.6,0H213L213,88.9z M213,89.6h1.4c0.3,0,0.7,0,0.9-0.1
		c0.3-0.1,0.5-0.2,0.8-0.5c0.5-0.4,0.7-1,0.7-1.6c0-0.3-0.1-0.6-0.2-0.9c-0.1-0.3-0.3-0.6-0.6-0.7c-0.2-0.2-0.5-0.3-0.8-0.4
		c-0.3-0.1-0.6-0.1-0.9-0.1h-2.9v0.7h0.9v5.9h-0.9v0.7h2.6v-0.7H213V89.6L213,89.6z M220.7,87.9c0.3,0.1,0.5,0.3,0.7,0.4
		c0.2,0.2,0.3,0.4,0.5,0.7c0.1,0.3,0.2,0.5,0.2,0.8c0,0.3-0.1,0.6-0.2,0.8c-0.1,0.3-0.3,0.5-0.5,0.7c-0.2,0.2-0.4,0.3-0.7,0.5
		c-0.3,0.1-0.5,0.2-0.8,0.2c-0.3,0-0.6-0.1-0.8-0.2c-0.3-0.1-0.5-0.3-0.7-0.5c-0.2-0.2-0.3-0.4-0.5-0.7c-0.1-0.3-0.2-0.5-0.2-0.8
		c0-0.3,0.1-0.6,0.2-0.8c0.1-0.3,0.3-0.5,0.5-0.7c0.2-0.2,0.4-0.3,0.7-0.5c0.3-0.1,0.5-0.2,0.8-0.2
		C220.2,87.7,220.5,87.7,220.7,87.9L220.7,87.9z M222,92.4h1.5v-0.6h-0.9v-4h0.9v-0.6H222v1.2c-0.2-0.4-0.5-0.7-0.9-0.9
		c-0.4-0.2-0.8-0.3-1.3-0.3c-0.2,0-0.5,0-0.7,0.1c-0.2,0.1-0.4,0.1-0.6,0.3c-0.2,0.1-0.4,0.2-0.5,0.4c-0.2,0.2-0.3,0.3-0.4,0.5
		c-0.1,0.1-0.1,0.2-0.2,0.3c-0.1,0.1-0.1,0.2-0.1,0.3c0,0.1-0.1,0.2-0.1,0.4c0,0.1,0,0.3,0,0.5c0,0.3,0,0.6,0.1,0.8
		c0.1,0.3,0.2,0.5,0.3,0.7c0.2,0.4,0.6,0.7,1,0.9c0.4,0.2,0.9,0.3,1.3,0.3c0.5,0,0.9-0.1,1.3-0.3c0.4-0.2,0.7-0.5,0.9-0.9V92.4
		L222,92.4z M225.3,87.1h-1.6v0.6h0.9v4h-0.9v0.6h2.4v-0.6h-0.9v-2.1c0-0.6,0.1-1,0.4-1.3c0.3-0.3,0.7-0.5,1.3-0.6v-0.6
		c-0.2,0-0.4,0-0.5,0.1c-0.2,0-0.3,0.1-0.5,0.2c-0.1,0.1-0.3,0.2-0.4,0.3c-0.1,0.1-0.2,0.3-0.3,0.5V87.1L225.3,87.1z M229.1,87.8
		h1.2v-0.6h-1.2v-1.9h-0.7v1.9h-1v0.6h1v4.7h1.9v-0.6h-1.3V87.8L229.1,87.8z M232.2,87.1h-1.6v0.6h0.9v4h-0.9v0.6h2.4v-0.6h-0.9
		v-2.2c0-0.2,0-0.5,0-0.7c0-0.2,0.1-0.4,0.3-0.6c0.2-0.2,0.3-0.3,0.6-0.4c0.2-0.1,0.4-0.1,0.7-0.1c0.1,0,0.3,0,0.4,0
		c0.1,0,0.3,0.1,0.4,0.1c0.1,0,0.2,0.1,0.3,0.2c0.1,0.1,0.2,0.2,0.3,0.3c0.1,0.2,0.2,0.4,0.2,0.7c0,0.2,0,0.5,0,0.7v2.1h-0.9v0.6
		h2.4v-0.6h-0.9v-2.4c0-0.3,0-0.6-0.1-0.8c-0.1-0.2-0.1-0.4-0.2-0.5c-0.1-0.2-0.2-0.3-0.3-0.5c-0.1-0.1-0.3-0.2-0.5-0.3
		c-0.2-0.1-0.3-0.1-0.5-0.2c-0.2,0-0.3-0.1-0.5-0.1c-0.4,0-0.7,0.1-1,0.3c-0.3,0.2-0.6,0.4-0.7,0.8V87.1L232.2,87.1z M237.9,89.5
		c0-0.2,0.1-0.5,0.2-0.7c0.1-0.2,0.3-0.4,0.5-0.6c0.2-0.2,0.4-0.3,0.6-0.4c0.2-0.1,0.5-0.1,0.7-0.1c0.3,0,0.5,0,0.8,0.1
		c0.2,0.1,0.5,0.2,0.7,0.4c0.2,0.2,0.4,0.4,0.5,0.6c0.1,0.2,0.2,0.5,0.3,0.7H237.9L237.9,89.5z M241.8,90.9
		c-0.2,0.3-0.5,0.6-0.8,0.8c-0.3,0.2-0.7,0.3-1.1,0.3c-0.3,0-0.5-0.1-0.8-0.2c-0.2-0.1-0.5-0.2-0.6-0.4c-0.2-0.2-0.3-0.4-0.5-0.6
		c-0.1-0.2-0.2-0.5-0.2-0.8h4.8v-0.2c0-0.4-0.1-0.8-0.2-1.1c-0.1-0.3-0.3-0.6-0.6-0.9c-0.3-0.2-0.5-0.4-0.9-0.6
		c-0.3-0.1-0.7-0.2-1.1-0.2c-0.4,0-0.7,0.1-1.1,0.2c-0.3,0.2-0.6,0.4-0.9,0.6c-0.2,0.3-0.4,0.6-0.6,0.9c-0.1,0.3-0.2,0.7-0.2,1.1
		c0,0.4,0.1,0.7,0.2,1.1c0.1,0.3,0.3,0.6,0.6,0.9c0.3,0.2,0.5,0.4,0.9,0.6s0.7,0.2,1.1,0.2c0.3,0,0.5,0,0.8-0.1
		c0.3-0.1,0.5-0.2,0.7-0.3c0.2-0.1,0.4-0.3,0.6-0.5c0.2-0.2,0.3-0.4,0.4-0.7H241.8L241.8,90.9z M244.7,87.1h-1.6v0.6h0.9v4h-0.9v0.6
		h2.4v-0.6h-0.9v-2.1c0-0.6,0.1-1,0.4-1.3c0.3-0.3,0.7-0.5,1.3-0.6v-0.6c-0.2,0-0.4,0-0.6,0.1c-0.2,0-0.3,0.1-0.5,0.2
		c-0.1,0.1-0.3,0.2-0.4,0.3c-0.1,0.1-0.2,0.3-0.3,0.5V87.1L244.7,87.1z M250.3,88.5v-1.3h-0.5v0.5c-0.1-0.2-0.3-0.4-0.5-0.4
		c-0.2-0.1-0.4-0.1-0.7-0.1c-0.1,0-0.2,0-0.4,0c-0.1,0-0.3,0.1-0.4,0.1c-0.1,0-0.2,0.1-0.3,0.2c-0.1,0.1-0.2,0.2-0.3,0.3
		c-0.1,0.1-0.2,0.3-0.2,0.4c0,0.1-0.1,0.3-0.1,0.5c0,0.2,0.1,0.4,0.2,0.6c0.1,0.2,0.3,0.4,0.5,0.5c0.2,0.1,0.4,0.2,0.6,0.2
		c0.2,0.1,0.4,0.1,0.6,0.1c0.1,0,0.3,0.1,0.4,0.1c0.1,0,0.3,0.1,0.4,0.2c0.1,0.1,0.2,0.2,0.3,0.3c0.1,0.1,0.1,0.3,0.1,0.4
		c0,0.2,0,0.3-0.1,0.4c-0.1,0.1-0.1,0.2-0.3,0.3c-0.1,0.1-0.2,0.2-0.4,0.2c-0.1,0-0.3,0.1-0.4,0.1c-0.4,0-0.7-0.1-0.9-0.3
		c-0.3-0.2-0.4-0.5-0.4-0.8h-0.5v1.5h0.5v-0.6c0.2,0.3,0.4,0.5,0.6,0.6c0.2,0.1,0.5,0.2,0.9,0.2c0.3,0,0.6-0.1,0.9-0.2
		c0.3-0.1,0.5-0.3,0.6-0.6c0.1-0.1,0.1-0.2,0.2-0.4c0-0.1,0.1-0.3,0.1-0.5c0-0.2-0.1-0.5-0.2-0.7c-0.1-0.2-0.3-0.4-0.5-0.5
		c-0.2-0.1-0.4-0.2-0.6-0.3c-0.2-0.1-0.4-0.1-0.6-0.1c-0.1,0-0.3-0.1-0.4-0.1c-0.1,0-0.3-0.1-0.4-0.2c-0.1-0.1-0.2-0.2-0.3-0.3
		c-0.1-0.1-0.1-0.2-0.1-0.4c0-0.1,0-0.3,0.1-0.4c0.1-0.1,0.1-0.2,0.2-0.3c0.1-0.1,0.2-0.1,0.3-0.2c0.1,0,0.3-0.1,0.4-0.1
		c0.3,0,0.5,0.1,0.7,0.2c0.1,0.1,0.2,0.2,0.2,0.3c0.1,0.1,0.1,0.2,0.1,0.4H250.3L250.3,88.5z M252.5,85.2H251v0.6h0.9v5.9H251v0.6
		h2.4v-0.6h-0.9v-2.1c0-0.1,0-0.3,0-0.4c0-0.1,0-0.3,0-0.4c0-0.1,0.1-0.2,0.1-0.4c0.1-0.1,0.1-0.2,0.2-0.3c0.2-0.2,0.3-0.3,0.5-0.4
		c0.2-0.1,0.4-0.1,0.7-0.1c0.3,0,0.5,0.1,0.8,0.2c0.2,0.1,0.4,0.3,0.6,0.6c0.1,0.2,0.2,0.4,0.2,0.7c0,0.2,0,0.5,0,0.7v1.9h-0.9v0.6
		h2.4v-0.6h-0.9v-2.2c0-0.3,0-0.7-0.1-1c0-0.3-0.2-0.6-0.4-0.9c-0.4-0.5-1-0.7-1.6-0.7c-0.4,0-0.7,0.1-1,0.3
		c-0.3,0.2-0.5,0.5-0.7,0.8V85.2L252.5,85.2z M259,85.2h-0.7v1h0.7V85.2L259,85.2z M259,87.1h-1.6v0.6h0.9v4h-0.9v0.6h2.5v-0.6H259
		V87.1L259,87.1z M262.9,91.8c-0.3-0.1-0.5-0.3-0.7-0.5c-0.2-0.2-0.3-0.4-0.5-0.7c-0.1-0.3-0.2-0.5-0.2-0.8c0-0.3,0.1-0.6,0.2-0.9
		c0.1-0.3,0.3-0.5,0.5-0.7c0.2-0.2,0.4-0.3,0.7-0.4c0.3-0.1,0.5-0.2,0.8-0.2c0.3,0,0.5,0,0.8,0.1c0.3,0.1,0.5,0.2,0.7,0.4
		c0.2,0.2,0.3,0.4,0.5,0.7c0.1,0.3,0.2,0.6,0.2,0.9c0,0.3-0.1,0.6-0.2,0.8c-0.1,0.3-0.3,0.5-0.5,0.7c-0.2,0.2-0.4,0.3-0.7,0.5
		c-0.3,0.1-0.5,0.2-0.8,0.2C263.4,91.9,263.1,91.9,262.9,91.8L262.9,91.8z M261.6,87.1h-1.6v0.6h0.9v6h-0.9v0.6h2.4v-0.6h-0.9v-2.5
		c0.2,0.4,0.5,0.7,0.9,0.9c0.4,0.2,0.8,0.3,1.3,0.3c0.4,0,0.7-0.1,1.1-0.2c0.3-0.1,0.6-0.3,0.9-0.6c0.2-0.3,0.4-0.5,0.6-0.9
		c0.1-0.3,0.2-0.7,0.2-1.1c0-0.3,0-0.6-0.1-0.9c-0.1-0.2-0.2-0.5-0.3-0.6c-0.1-0.2-0.3-0.4-0.4-0.6c-0.2-0.2-0.4-0.3-0.6-0.4
		c-0.2-0.1-0.4-0.2-0.6-0.2c-0.2-0.1-0.4-0.1-0.6-0.1c-0.5,0-0.9,0.1-1.3,0.3c-0.4,0.2-0.7,0.5-0.9,0.9V87.1L261.6,87.1z"/>
</g>
</svg>
