<?xml version="1.0" encoding="utf-8"?>
<!-- Generator: Adobe Illustrator 18.1.1, SVG Export Plug-In . SVG Version: 6.00 Build 0)  -->
<svg version="1.1" id="Layer_17" xmlns="http://www.w3.org/2000/svg" xmlns:xlink="http://www.w3.org/1999/xlink" x="0px" y="0px"
	 viewBox="0 0 390 150" style="enable-background:new 0 0 390 150;" xml:space="preserve">
<style type="text/css">
	.st0{fill:#0072BB;}
</style>
<g>
	<g>
		<path class="st0" d="M132,88c-7.4,2.3-10.4,8.4-12.3,13.5c-2.2,6.2-5.8,8.6-10.6,7.1l-0.2,0.8c5.4,2.1,9.8-0.5,12.5-7.5
			c2.5-6.5,5.4-11.2,11-13L132,88L132,88z"/>
		<path class="st0" d="M131.8,100.1c1.2-3.2,2.9-6.5,5.2-9.8c4.3-6.3,10.2-9.9,15.8-10c3.6,0,6.2,1.1,8,3.3l0.7-0.6
			c-0.6-1-3.1-4.4-8.7-4.4c-5.9,0-12.2,3.7-17.1,10.9c-2,2.9-3.8,6.7-4.9,10.4L131.8,100.1L131.8,100.1z"/>
		<path class="st0" d="M160.3,54.2c11.6-3,14-8.3,14.6-13c0.9-6.4,2.7-8.9,6.7-11.1c1.5-0.8,2.9-1.8,3.2-3.4c0.1-0.4,0.1-0.8,0-1.1
			l-0.8,0.1c0,0.4,0,0.8-0.1,1.1c-0.3,0.9-1.2,1.5-2.6,2.2c-4.7,2.4-7,4.8-8.1,12c-0.7,4.5-2.4,9.4-13.1,12.5L160.3,54.2L160.3,54.2
			z"/>
		<path class="st0" d="M95.3,106c0,0-0.1-0.2-0.1-0.2l-0.2-0.5c4-1.2,4.5-5,4.5-8.1l0-1.6c0,0,0-0.6,0-0.6c0-11.3,9-13.2,13.3-14.1
			l1.8-0.4c4.2-0.8,7.8-1.6,10.5-4.2c2.5-2.4,3.9-5.6,5.8-11.2c3.1-9,9.9-10.7,19.2-12.2c7.2-1.1,7.5-3.2,8.2-8.1l0.3-2.1
			c0.6-4.5,2-7.5,4.7-10.1c1.9-1.9,4.5-3.2,7.8-4.2c0,0,0,0,0,0c0,0,0.3,0.8,0.3,0.8c-3.1,1.1-5.4,2.5-7.2,4.3
			c-2.9,3.1-3.7,7-4.2,10.4c-0.8,6.4-1.5,9.3-10.4,10.7c-5.1,0.8-9.2,1.6-12.3,3.9c-2.3,1.7-3.8,3.9-4.9,7.2
			c-1.9,5.6-3.3,8.8-6.2,11.7c-2.9,2.9-7.5,3.8-12,4.7c-6.2,1.3-13.3,2.7-13.3,13.3v0.3C101,98.9,101,104.6,95.3,106
			C95.3,106,95.3,106,95.3,106L95.3,106z"/>
		<path class="st0" d="M105.5,131.9c-4.8,0-7.6-3.3-7.6-7.7c0-4.4,3.2-8,8.1-8c1.7,0,3.1,0.4,3.9,0.9v2.3c-1.2-0.7-2.4-1.1-3.9-1.1
			c-3.5,0-5.5,2.6-5.5,5.7c0,3.3,2,5.7,5.3,5.7c1.3,0,2.6-0.4,3.7-1l0.7,1.8C108.6,131.5,107.1,131.9,105.5,131.9L105.5,131.9z"/>
		<path class="st0" d="M116.6,122.3c1.8,0,2.9,1.5,2.9,3.8c0,2.2-1,3.8-2.9,3.8c-1.8,0-2.9-1.5-2.9-3.8
			C113.7,123.9,114.7,122.3,116.6,122.3L116.6,122.3z M116.6,120.4c-1.5,0-2.8,0.6-3.7,1.5c-1,1-1.6,2.5-1.6,4.3
			c0,1.8,0.6,3.3,1.6,4.3c0.9,0.9,2.2,1.4,3.7,1.4c1.6,0,2.9-0.6,3.8-1.5c1-1,1.6-2.5,1.6-4.2c0-1.7-0.5-3.2-1.5-4.2
			C119.5,120.9,118.2,120.4,116.6,120.4L116.6,120.4z"/>
		<polygon class="st0" points="128.8,131.7 126.9,131.7 122.4,120.7 124.9,120.7 127.8,128.5 127.9,128.5 130.8,120.7 133.2,120.7 
			128.8,131.7 		"/>
		<path class="st0" d="M140.8,124.9h-4.6c0-1.4,0.9-2.7,2.3-2.7C140,122.3,140.8,123.7,140.8,124.9L140.8,124.9z M143.3,126.7
			c0-0.3,0-0.5,0-0.7c0-3.4-1.8-5.7-4.7-5.7c-3,0-4.8,2.6-4.8,5.7c0,3,1.7,5.8,5.3,5.8c1.3,0,2.7-0.4,3.8-1.2l-0.6-1.6
			c-0.9,0.5-1.8,0.8-2.8,0.8c-2,0-3.3-1.3-3.3-3.2H143.3L143.3,126.7z"/>
		<path class="st0" d="M152.5,131.6v-6.6c0-1.2-0.2-2.5-1.7-2.5c-1.1,0-2.1,0.7-3,1.3v7.8h-2.4v-11h2l0.3,1.2
			c1.2-0.9,2.4-1.5,3.9-1.5c1.6,0,3.3,1.1,3.3,3.9v7.3H152.5L152.5,131.6z"/>
		<path class="st0" d="M161,131.9c-1.8,0-2.6-1-2.6-2.5v-6.9h-1.9v-1.9h1.9v-2.5l2.4-0.7v3.2h3.4l-0.8,1.9h-2.6v6
			c0,0.9,0.3,1.3,1.1,1.3c0.7,0,1.4-0.4,1.9-0.7l0.7,1.6C163.4,131.5,162,131.9,161,131.9L161,131.9z"/>
		<path class="st0" d="M172.2,122.9c-0.4-0.2-0.8-0.3-1.2-0.3c-0.7,0-1.5,0.4-2.2,1.1v7.9h-2.4v-11h2l0.3,1.2
			c1.2-1.1,2.1-1.5,3.1-1.5c0.5,0,1,0.2,1.4,0.4L172.2,122.9L172.2,122.9z"/>
		<path class="st0" d="M180.5,132.3c-1.7,4.2-3.5,4.8-5.4,4.8c-1,0-1.7-0.2-2.4-0.5l0.7-1.9c0.5,0.3,1,0.4,1.7,0.4
			c1.2,0,2.3-0.9,3.2-3.5l-4.6-11h2.6l3.3,8.2h0.1l3-8.2h2.4L180.5,132.3L180.5,132.3z"/>
		<path class="st0" d="M198.2,131.9c-4.5,0-7.3-3.3-7.3-7.7c0-4.4,3.1-7.9,7.6-7.9c1.8,0,3.2,0.5,3.9,0.9v1.8
			c-1.1-0.7-2.2-1.2-4-1.2c-3.4,0-5.7,2.7-5.7,6.3c0,3.6,2.1,6.3,5.7,6.3c1.3,0,2.6-0.4,3.6-1l0.5,1.4
			C201.1,131.5,199.7,131.9,198.2,131.9L198.2,131.9z"/>
		<path class="st0" d="M205.8,118.4c-0.7,0-1.2-0.5-1.2-1.2c0-0.6,0.5-1.2,1.2-1.2c0.7,0,1.2,0.5,1.2,1.2
			C207,117.8,206.5,118.4,205.8,118.4L205.8,118.4z M205,131.6v-11h1.7v11H205L205,131.6z"/>
		<path class="st0" d="M212.7,131.9c-1.6,0-2.3-0.9-2.3-2.3v-7.4h-1.8v-1.4h1.8v-2.4l1.7-0.6v3h3.4l-0.6,1.4H212v6.9
			c0,0.9,0.3,1.3,1.1,1.3c0.8,0,1.5-0.4,2-0.8l0.5,1.2C214.8,131.4,213.7,131.9,212.7,131.9L212.7,131.9z"/>
		<path class="st0" d="M222.3,132.7c-1.4,3.8-3.2,4.7-5,4.7c-0.9,0-1.5-0.2-2-0.4l0.5-1.3c0.4,0.2,0.9,0.3,1.6,0.3
			c1.4,0,2.7-1.4,3.6-4.3l-4.6-11.1h1.8l3.6,9h0.1l3.3-9h1.7L222.3,132.7L222.3,132.7z"/>
		<path class="st0" d="M240,131.9c-4.5,0-7.3-3.3-7.3-7.7c0-4.4,3.1-7.9,7.6-7.9c1.8,0,3.2,0.5,3.9,0.9v1.8c-1.1-0.7-2.2-1.2-4-1.2
			c-3.4,0-5.7,2.7-5.7,6.3c0,3.6,2.1,6.3,5.7,6.3c1.3,0,2.6-0.4,3.6-1l0.5,1.4C242.9,131.5,241.4,131.9,240,131.9L240,131.9z"/>
		<path class="st0" d="M253.6,126.1c0,2.6-1.2,4.3-3.3,4.3c-2,0-3.3-1.7-3.3-4.3c0-2.6,1.2-4.3,3.3-4.3
			C252.4,121.8,253.6,123.5,253.6,126.1L253.6,126.1z M255.3,126.2c0-1.8-0.6-3.3-1.5-4.3c-0.9-0.9-2.1-1.4-3.5-1.4
			c-1.4,0-2.6,0.5-3.4,1.4c-1,1-1.5,2.5-1.5,4.3s0.5,3.4,1.5,4.4c0.9,0.9,2,1.4,3.4,1.4c1.4,0,2.6-0.5,3.5-1.4
			C254.8,129.5,255.3,128,255.3,126.2L255.3,126.2z"/>
		<path class="st0" d="M264.8,131.6l-0.4-1.1c-0.8,0.7-2.1,1.4-3.6,1.4c-1.5,0-3.3-0.8-3.3-3.9v-7.4h1.7v7.2c0,1.8,0.8,2.6,2.1,2.6
			c1.4,0,2.5-0.9,2.9-1.5v-8.3h1.7v7.3c0,2.2,0.1,3.1,0.2,3.7H264.8L264.8,131.6z"/>
		<path class="st0" d="M275.9,131.6v-6.8c0-1.4-0.2-2.9-1.9-2.9c-1.3,0-2.6,1-3.4,1.7v7.9h-1.7v-11h1.4l0.2,1.3
			c1.3-1,2.4-1.6,3.9-1.6c1.6,0,3.2,1.1,3.2,3.9v7.4H275.9L275.9,131.6z"/>
		<path class="st0" d="M284.8,131.9c-3.4,0-5.1-2.6-5.1-5.6c0-3,1.8-5.9,5.4-5.9c1,0,2,0.3,2.8,0.7v1.6c-0.7-0.4-1.6-0.8-2.9-0.8
			c-2.3,0-3.6,1.8-3.6,4.3c0,2.4,1.3,4.2,3.6,4.2c1.2,0,2.1-0.4,2.7-0.8l0.5,1.2C287.4,131.4,286.2,131.9,284.8,131.9L284.8,131.9z"
			/>
		<path class="st0" d="M291.2,118.4c-0.6,0-1.2-0.5-1.2-1.2c0-0.6,0.5-1.2,1.2-1.2c0.7,0,1.2,0.5,1.2,1.2
			C292.4,117.8,291.9,118.4,291.2,118.4L291.2,118.4z M290.4,131.6v-11h1.7v11H290.4L290.4,131.6z"/>
		<path class="st0" d="M296.9,131.9c-1.3,0-1.9-0.9-1.9-2v-14.7h1.7v13.9c0,1,0.3,1.3,0.9,1.3c0.1,0,0.3,0,0.6-0.1l0.2,1.2
			C297.8,131.8,297.4,131.9,296.9,131.9L296.9,131.9z"/>
		<path class="st0" d="M198.6,29.1l0.8-2.8l1.2-0.4l0.3-1.1l-8.4,2.9l0.4,1l4,0.7C197.5,29.5,198.1,29.5,198.6,29.1L198.6,29.1z"/>
		<path class="st0" d="M203.9,46.4c0.9-0.2,1.7-0.6,2-1c0.2-0.2,0.2-0.5,0-0.9c-0.2-0.5-0.6-2.1-0.3-2.9c0.3-0.7,1-0.9,1.9-1.1
			c0.7-0.2,1.4-0.5,1.5-1.4c0.1-0.8-0.3-1.8-0.8-2.7c-1.6-2.8-4-7.8-4.8-10c-0.8-2.2-0.6-4.2,3.1-5.6c0.8-0.3,1.8-0.6,2.6-0.8
			c2.8-3.7,6-6.7,7.9-7.8c0.8-0.5,1.4-0.6,2-0.5c0.6,0,0.5,0.3,0.4,0.6c-1.1,2.7-2.8,6.9-3.7,9.8c1.4-1.5,3.2-2.9,4.8-3.9
			c0.8-0.5,1.3-0.6,2-0.6c0.5,0,0.6,0.3,0.4,0.5c-0.3,0.5-2.5,4.5-3.3,6.5c1.2,1.1,2.7,2.8,3.6,3.9c0.7,0.8,1.6,1.9,2.1,2.5
			c1.4,1.6,4.1,4.7,7.5,8.1c3.6,3.7,7.2,7.6,9.1,9.4c1.1,1.1,1.5,1.5,3,2.9c1,1,5,4.9,5.5,5.4c0.5,0.5,1.2,1.4,1.5,1.7
			c1.2,1.4,2.2,3.2,2.7,5.3c0.4,1.9,0.2,3.8,0.2,4.5c-0.1,0.9-0.2,1.3-0.3,1.9c-0.2,1-1,3.6-2.9,4.7c-2,1.2-6.7,2.2-9,1.5
			c-1-0.3-1.5-0.9-2.1-1.8c-0.4-0.6-1-1.3-2-1.9c-3.8-2.3-8.7-4.6-16.3-6.2c-2.9,1.1-8.4,1-15.3-2.1c-3.1,3.4-5.5,9.1-7.1,13.7
			c-2,5.9-3.9,14.3-6.9,22.2c-1.9-7.3-6.7-14.4-9-17.7c-2.9-4.2-3.9-5.3-2.5-9.8c1.4-4.5,4.8-10.2,8.2-13.7
			c-3.1-1.6-5.5-3.7-7.1-5.6l0.4-0.7c3.1,2.8,6,4.1,9.5,4.9c3.4,0.7,8.3,1.1,11.6-0.6c1.7-0.9,1.8-2.3,1.2-4.3
			c-0.4-1.3-0.8-2.5,0.1-4C205.7,47.8,205,46.8,203.9,46.4L203.9,46.4z"/>
		<path class="st0" d="M91.4,107c2.2,4.3,6.4,4.7,8.1,4.7c4.7-0.1,7-2.8,8-4.3c0.9-1.5,1.7-3.8,2.4-7.2c1.3-6.2,2.6-13.1,15.4-16.6
			c3.5-1,6.9-1.8,9.2-2.8c6.3-2.5,9.5-5.9,11.4-11.5c1.8-5.5,2.7-7.7,4.7-10c1.8-2.1,4.1-2.8,5.7-3.1l-0.2-0.8
			c-2.6,0.5-4.8,1.4-6.6,3.1c-2.2,2-3.5,4.7-5.5,10.5c-1.2,3.5-3.1,7.3-10.1,10.2c-2.4,1-5.8,1.9-9.3,2.9
			c-13.7,3.8-15.3,11.6-16.5,17.7c-0.5,2.9-1,5-2.1,6.8c-1.4,2.3-3.9,3.8-6.6,3.8c-2.2,0.1-5.3-0.6-7.4-3.9L91.4,107L91.4,107z"/>
		<path class="st0" d="M145,78.1c2.6-2.8,6-4.4,11.1-6.7c6.7-3,13.1-6.9,12.6-17.8l-0.9,0.1c0,10.4-6.3,13.3-12.5,16.2
			c-3.9,1.8-8,3.6-10.9,7.6L145,78.1L145,78.1z"/>
	</g>
</g>
<g>
</g>
<g>
</g>
<g>
</g>
<g>
</g>
<g>
</g>
<g>
</g>
<g>
</g>
<g>
</g>
<g>
</g>
<g>
</g>
</svg>
