<?xml version="1.0" encoding="utf-8"?>
<!-- Generator: Adobe Illustrator 18.1.1, SVG Export Plug-In . SVG Version: 6.00 Build 0)  -->
<svg version="1.1" id="Hollywood_Monster" xmlns="http://www.w3.org/2000/svg" xmlns:xlink="http://www.w3.org/1999/xlink" x="0px"
	 y="0px" viewBox="0 0 390 150" enable-background="new 0 0 390 150" xml:space="preserve">
<polygon fill="#532C7F" points="57,103.8 59.1,103.8 59.1,110.7 68.6,110.7 68.6,103.8 70.7,103.8 70.7,121.6 68.6,121.6 
	68.6,112.7 59.1,112.7 59.1,121.6 57,121.6 "/>
<g>
	<path fill="#532C7F" d="M90.4,119.3c-1.8,1.8-4.2,2.7-6.7,2.7c-2.5,0-4.9-1-6.7-2.7c-1.8-1.8-2.8-4.1-2.8-6.6c0-2.5,1-4.8,2.8-6.6
		c1.8-1.7,4.2-2.7,6.7-2.7c2.5,0,5,1,6.7,2.7c1.8,1.8,2.8,4.1,2.8,6.6C93.1,115.3,92.2,117.6,90.4,119.3 M88.8,117.9
		c1.4-1.4,2.1-3.2,2.1-5.2c0-2-0.7-3.8-2.1-5.2c-1.4-1.4-3.2-2.1-5.2-2.1c-2,0-3.8,0.7-5.1,2.1c-1.4,1.4-2.1,3.2-2.1,5.2
		c0,2,0.7,3.8,2.1,5.2c1.4,1.4,3.2,2.2,5.1,2.2C85.6,120.1,87.4,119.3,88.8,117.9"/>
	<polygon fill="#532C7F" points="96.6,103.8 98.7,103.8 98.7,119.6 105.4,119.6 105.4,121.6 96.6,121.6 	"/>
	<polygon fill="#532C7F" points="107.9,103.8 110,103.8 110,119.6 116.8,119.6 116.8,121.6 107.9,121.6 	"/>
	<polygon fill="#532C7F" points="121.3,113.5 115.3,103.8 117.7,103.8 122.4,111.5 127,103.8 129.5,103.8 123.4,113.5 123.4,121.6 
		121.3,121.6 	"/>
	<polygon fill="#532C7F" points="131.6,103.8 136.1,116.9 140.8,103.1 145.6,116.9 150.1,103.8 152.4,103.8 145.5,122.3 
		140.8,108.5 136.2,122.3 129.3,103.8 	"/>
	<path fill="#532C7F" d="M169.8,119.3c-1.8,1.8-4.2,2.7-6.7,2.7c-2.5,0-4.9-1-6.7-2.7c-1.8-1.8-2.8-4.1-2.8-6.6c0-2.5,1-4.8,2.8-6.6
		c1.8-1.7,4.2-2.7,6.7-2.7c2.5,0,5,1,6.7,2.7c1.8,1.8,2.8,4.1,2.8,6.6C172.5,115.3,171.6,117.6,169.8,119.3 M168.2,117.9
		c1.4-1.4,2.1-3.2,2.1-5.2c0-2-0.7-3.8-2.1-5.2c-1.4-1.4-3.2-2.1-5.2-2.1c-2,0-3.8,0.7-5.1,2.1c-1.4,1.4-2.1,3.2-2.1,5.2
		c0,2,0.7,3.8,2.1,5.2c1.4,1.4,3.2,2.2,5.1,2.2C165,120.1,166.8,119.3,168.2,117.9"/>
	<path fill="#532C7F" d="M191.4,119.3c-1.8,1.8-4.3,2.7-6.7,2.7c-2.5,0-4.9-1-6.7-2.7c-1.8-1.8-2.8-4.1-2.8-6.6c0-2.5,1-4.8,2.8-6.6
		c1.8-1.7,4.2-2.7,6.7-2.7c2.5,0,5,1,6.7,2.7c1.8,1.8,2.8,4.1,2.8,6.6C194.2,115.3,193.2,117.6,191.4,119.3 M189.8,117.9
		c1.4-1.4,2.1-3.2,2.1-5.2c0-2-0.7-3.8-2.1-5.2c-1.4-1.4-3.2-2.1-5.1-2.1c-2,0-3.8,0.7-5.1,2.1c-1.4,1.4-2.1,3.2-2.1,5.2
		c0,2,0.7,3.8,2.1,5.2c1.4,1.4,3.2,2.2,5.1,2.2C186.6,120.1,188.4,119.3,189.8,117.9"/>
	<path fill="#532C7F" d="M197.6,103.8h3.4c3.3,0,5.9,0,8.1,1.7c2,1.6,3.1,4.1,3.1,7.2c0,3.2-1.1,5.6-3.1,7.2
		c-2.1,1.6-4.4,1.7-7.3,1.7H201h-3.4V103.8z M201.1,119.6c3,0,5.1,0,6.6-1.3c1.4-1.2,2.2-3.1,2.2-5.6c0-2.5-0.8-4.4-2.2-5.6
		c-1.5-1.2-3.6-1.3-6.6-1.3h-1.3v13.8H201.1z"/>
	<polygon fill="#532C7F" points="225.7,109.5 223.5,121.6 221.4,121.6 225.1,103.1 231.3,117.8 237.5,103.1 241.1,121.6 239,121.6 
		236.8,109.5 231.3,122.3 	"/>
	<path fill="#532C7F" d="M259.2,119.3c-1.8,1.8-4.3,2.7-6.7,2.7c-2.5,0-4.9-1-6.7-2.7c-1.8-1.8-2.8-4.1-2.8-6.6c0-2.5,1-4.8,2.8-6.6
		c1.8-1.7,4.2-2.7,6.7-2.7c2.5,0,5,1,6.7,2.7c1.8,1.8,2.8,4.1,2.8,6.6C262,115.3,261,117.6,259.2,119.3 M257.7,117.9
		c1.4-1.4,2.1-3.2,2.1-5.2c0-2-0.7-3.8-2.1-5.2c-1.4-1.4-3.2-2.1-5.2-2.1c-2,0-3.8,0.7-5.1,2.1c-1.4,1.4-2.1,3.2-2.1,5.2
		c0,2,0.8,3.8,2.1,5.2c1.4,1.4,3.2,2.2,5.1,2.2C254.4,120.1,256.2,119.3,257.7,117.9"/>
	<polygon fill="#532C7F" points="265.5,103.1 278.5,117.3 278.5,103.8 280.5,103.8 280.5,122.3 267.5,108.2 267.5,121.6 
		265.5,121.6 	"/>
	<path fill="#532C7F" d="M294.7,116.6c0,3.3-2.3,5.4-5.7,5.4c-2.8,0-4.8-1.5-5.5-4.1l1.9-0.9c0.5,2.2,1.7,3.3,3.5,3.3
		c2.1,0,3.6-1.4,3.6-3.3c0-1.6-0.9-2.8-2.8-3.6l-2.2-0.9c-2.4-1-3.5-2.5-3.5-4.7c0-2.5,2-4.4,5-4.4c2.1,0,3.7,0.9,4.6,2.7l-1.7,1.1
		c-0.8-1.3-1.7-2-3-2c-1.6,0-2.7,1.1-2.7,2.6c0,1.3,0.8,2.2,2.4,2.9l2.5,1.1C293.5,112.7,294.7,114.4,294.7,116.6"/>
	<polygon fill="#532C7F" points="300.6,105.8 295.6,105.8 295.6,103.8 307.7,103.8 307.7,105.8 302.8,105.8 302.8,121.6 
		300.6,121.6 	"/>
	<polygon fill="#532C7F" points="310.1,103.8 319.5,103.8 319.5,105.8 312.2,105.8 312.2,110.8 319.5,110.8 319.5,112.8 
		312.2,112.8 312.2,119.6 319.5,119.6 319.5,121.6 310.1,121.6 	"/>
	<path fill="#532C7F" d="M323.1,103.8h3.6h0.6c1.7,0,3,0,4.1,0.9c1,0.8,1.7,2.2,1.7,3.9c0,2.9-1.7,4.5-4.8,4.5h-0.4l6.8,8.5h-2.7
		l-6.5-8.5h-0.3v8.5h-2.1V103.8z M325.1,111.5h1.6c2.8,0,4.1-0.4,4.1-2.9c0-2.6-1.3-3.1-4.1-3.1h-1.6V111.5z"/>
	<polygon fill="#E22B85" points="115.7,128.9 119.9,128.9 119.9,129.7 116.4,129.7 116.4,132.3 119.9,132.3 119.9,133.1 
		116.4,133.1 116.4,136.7 119.9,136.7 119.9,137.4 115.7,137.4 	"/>
	<path fill="#E22B85" d="M121.8,128.9h1.3h0.4c0.8,0,1.4,0,2,0.4c0.5,0.4,0.8,1.1,0.8,1.9c0,1.7-1,2.3-2.8,2.3h-0.9v3.8h-0.8V128.9z
		 M123.1,132.9c1.5,0,2.4-0.2,2.4-1.6c0-0.6-0.2-1.1-0.6-1.4c-0.4-0.3-1-0.3-1.8-0.3h-0.5v3.3H123.1z"/>
	<rect x="127.7" y="128.9" fill="#E22B85" width="0.8" height="8.5"/>
	<path fill="#E22B85" d="M134.7,129.4c-2.2,0-3.7,1.6-3.7,3.8c0,2.3,1.6,3.8,3.6,3.8c1,0,1.9-0.3,2.7-1l0,0.9
		c-0.8,0.5-1.8,0.8-2.7,0.8c-2.6,0-4.5-1.8-4.5-4.5c0-2.6,2-4.5,4.5-4.5c1.1,0,2,0.3,2.8,0.9l0,0.9
		C136.6,129.8,135.7,129.4,134.7,129.4"/>
	<path fill="#E22B85" d="M142.6,135.7c0.2,0.8,0.9,1.3,1.7,1.3c1.1,0,1.7-0.7,1.7-1.8c0-1-0.6-1.4-1.6-2c-1.3-0.7-2.1-1.3-2.1-2.4
		c0-1.2,0.9-2,2.2-2c0.9,0,1.5,0.4,1.9,1.1l-0.6,0.4c-0.2-0.5-0.7-0.7-1.3-0.7c-0.8,0-1.4,0.5-1.4,1.4c0,1,0.8,1.3,1.9,1.9
		c1.2,0.7,1.8,1.2,1.8,2.5c0,1.5-1,2.5-2.5,2.5c-1.1,0-1.9-0.6-2.4-1.7L142.6,135.7z"/>
	<rect x="148.5" y="128.9" fill="#E22B85" width="0.8" height="8.5"/>
	<path fill="#E22B85" d="M155.4,129.5c-2.1,0-3.6,1.6-3.6,3.8c0,2.1,1.5,3.7,3.6,3.7c1.9,0,3.2-1.2,3.2-3.1h-2.9v-0.7h3.8v0.1
		c0,2.7-1.6,4.3-4.2,4.3c-2.6,0-4.3-1.8-4.3-4.5c0-2.6,1.8-4.5,4.3-4.5c1.7,0,3,0.6,3.6,1.8l-0.6,0.5
		C157.6,130,156.6,129.5,155.4,129.5"/>
	<polygon fill="#E22B85" points="161.1,128.6 167.1,135.7 167.1,128.9 167.8,128.9 167.8,137.7 161.8,130.6 161.8,137.4 
		161.1,137.4 	"/>
	<path fill="#E22B85" d="M172.5,128.6l3.6,8.8h-0.8l-1.1-2.9h-3.5l-1.1,2.9h-0.8L172.5,128.6z M173.9,133.9l-1.4-3.7l-1.5,3.7H173.9
		z"/>
	<path fill="#E22B85" d="M180.8,129.5c-2.1,0-3.6,1.6-3.6,3.8c0,2.1,1.5,3.7,3.6,3.7c1.9,0,3.2-1.2,3.3-3.1h-2.9v-0.7h3.8v0.1
		c0,2.7-1.6,4.3-4.2,4.3c-2.6,0-4.3-1.8-4.3-4.5c0-2.6,1.8-4.5,4.3-4.5c1.7,0,3,0.6,3.6,1.8l-0.6,0.5
		C183.1,130,182.1,129.5,180.8,129.5"/>
	<polygon fill="#E22B85" points="186.6,128.9 190.8,128.9 190.8,129.7 187.3,129.7 187.3,132.3 190.8,132.3 190.8,133.1 
		187.3,133.1 187.3,136.7 190.8,136.7 190.8,137.4 186.6,137.4 	"/>
	<path fill="#E22B85" d="M198.7,128.6l3.6,8.8h-0.8l-1.1-2.9h-3.5l-1.1,2.9h-0.8L198.7,128.6z M200.1,133.9l-1.4-3.7l-1.5,3.7H200.1
		z"/>
	<polygon fill="#E22B85" points="203.2,128.6 209.2,135.7 209.2,128.9 209.9,128.9 209.9,137.7 203.9,130.6 203.9,137.4 
		203.2,137.4 	"/>
	<path fill="#E22B85" d="M212.1,128.9h1.3c1.5,0,2.6,0,3.5,0.6c1.1,0.7,1.7,2,1.7,3.7c0,1.5-0.5,2.8-1.4,3.5c-1,0.8-2.1,0.8-3.5,0.8
		h-0.3h-1.3V128.9z M213.5,136.8h0.4c1.1,0,1.9,0,2.6-0.5c0.8-0.6,1.3-1.7,1.3-3.1c0-1.2-0.3-2.1-0.9-2.7c-0.8-0.9-1.8-0.9-3.2-0.9
		h-0.2h-0.7v7.2H213.5z"/>
	<path fill="#E22B85" d="M227.8,129.5c-2.1,0-3.6,1.6-3.6,3.8c0,2.1,1.5,3.7,3.6,3.7c1.9,0,3.2-1.2,3.2-3.1h-2.9v-0.7h3.8v0.1
		c0,2.7-1.6,4.3-4.2,4.3c-2.6,0-4.3-1.8-4.3-4.5c0-2.6,1.8-4.5,4.3-4.5c1.7,0,3,0.6,3.6,1.8l-0.6,0.5
		C230.1,130,229,129.5,227.8,129.5"/>
	<path fill="#E22B85" d="M237.7,137.4l-3-4.1h-0.5v4.1h-0.8v-8.5h1.6c1.8,0,2.8,0.8,2.8,2.3c0,1.3-0.8,2.1-2.2,2.1l3.1,4.1H237.7z
		 M234.3,132.8h0.8c1.3,0,1.9-0.3,1.9-1.5c0-1.2-0.6-1.6-1.9-1.6h-0.8V132.8z"/>
	<path fill="#E22B85" d="M242.4,128.6l3.6,8.8h-0.8l-1.1-2.9h-3.5l-1.1,2.9h-0.8L242.4,128.6z M243.8,133.9l-1.4-3.7l-1.5,3.7H243.8
		z"/>
	<path fill="#E22B85" d="M246.9,128.9h1.3h0.4c0.8,0,1.4,0,2,0.4c0.5,0.4,0.8,1.1,0.8,1.9c0,1.7-0.9,2.3-2.8,2.3h-0.9v3.8h-0.8
		V128.9z M248.2,132.9c1.5,0,2.4-0.2,2.4-1.6c0-0.6-0.2-1.1-0.6-1.4c-0.4-0.3-1-0.3-1.8-0.3h-0.5v3.3H248.2z"/>
	<polygon fill="#E22B85" points="252.8,128.9 253.6,128.9 253.6,132.4 258.2,132.4 258.2,128.9 259,128.9 259,137.4 258.2,137.4 
		258.2,133.1 253.6,133.1 253.6,137.4 252.8,137.4 	"/>
	<rect x="261.1" y="128.9" fill="#E22B85" width="0.8" height="8.5"/>
	<path fill="#E22B85" d="M268.2,129.4c-2.2,0-3.7,1.6-3.7,3.8c0,2.3,1.6,3.8,3.6,3.8c1,0,1.9-0.3,2.7-1l0,0.9
		c-0.8,0.5-1.8,0.8-2.7,0.8c-2.6,0-4.5-1.8-4.5-4.5c0-2.6,1.9-4.5,4.5-4.5c1.1,0,2,0.3,2.8,0.9l0,0.9
		C270,129.8,269.2,129.4,268.2,129.4"/>
	<path fill="#E22B85" d="M272.5,135.7c0.2,0.8,0.9,1.3,1.7,1.3c1.1,0,1.7-0.7,1.7-1.8c0-1-0.6-1.4-1.6-2c-1.4-0.7-2.1-1.3-2.1-2.4
		c0-1.2,0.9-2,2.2-2c0.9,0,1.5,0.4,1.9,1.1l-0.6,0.4c-0.2-0.5-0.7-0.7-1.3-0.7c-0.8,0-1.4,0.5-1.4,1.4c0,1,0.8,1.3,1.9,1.9
		c1.2,0.7,1.8,1.2,1.8,2.5c0,1.5-0.9,2.5-2.5,2.5c-1.1,0-1.9-0.6-2.4-1.7L272.5,135.7z"/>
	<path fill="none" stroke="#E76099" stroke-width="2.202" stroke-linecap="round" stroke-linejoin="round" d="M263.5,97.3
		c-2.7,0-5.4-0.8-7.6-2.4c0,0-0.1,0-0.1-0.1c-0.2-0.1-0.4-0.3-0.6-0.4c-1.8-1.3-3.1-3-3.9-5.1h0c-0.1-0.2-0.1-0.3-0.2-0.4h0
		c-0.1-0.2-0.1-0.3-0.1-0.4c-0.3-0.8-0.5-1.6-0.6-2.5c0-0.2-0.1-0.4-0.1-0.6c-0.1-0.7-0.1-1.4-0.1-2.2V65.5c0-2.5-0.4-4.2-0.9-5
		c-0.3-0.3-0.5-0.5-1-0.7c-0.4-0.1-1.2-0.2-1.3-0.2c-0.2,0-0.3,0-0.6,0c-1.9,0-2.4,0.6-2.8,1.1c0,0,0,0,0,0l0,0.1
		c-0.6,0.9-1,2.6-1,4.9v17.7c0,0.1,0,0.2,0,0.4c0,1.3-0.2,2.4-0.4,3.4c-0.7,2.8-2.3,5.3-4.6,7.1c-0.7,0.6-1.6,1.1-2.5,1.6
		c-1.8,0.9-3.8,1.3-5.8,1.3c-2.2,0-4.4-0.6-6.4-1.6c-2.6-1.5-4.7-3.8-5.8-6.5c-0.1-0.1-0.1-0.3-0.2-0.4c-0.1-0.2-0.1-0.3-0.1-0.5
		l-0.1-0.2c0-0.1-0.1-0.2-0.1-0.3c0-0.1-0.1-0.2-0.1-0.3c0,0,0-0.1,0-0.1v0l0-0.1l0-0.1c-0.1-0.4-0.1-0.7-0.2-1l0-0.3l0-0.3
		c0,0,0,0,0-0.1v0l0-0.1l0-0.1c-0.1-0.8-0.1-1.5-0.1-2.1v-17c0-0.1,0-0.3,0-0.5l0-0.3c0-2-0.3-3.5-0.8-4.4c-0.1-0.3-0.3-0.5-0.4-0.7
		c-0.3-0.3-0.7-0.7-2.7-0.8c-0.3,0-0.6,0-0.9,0.1c0,0-0.1,0-0.1,0c-0.1,0-0.1,0-0.1,0c-0.9,0.2-1.3,0.6-1.8,1.5
		c-0.1,0.2-0.2,0.3-0.3,0.5c0,0.9-0.2,1.7-0.5,2.4c0,0.1,0,0.1,0,0.2c0,0.1,0,0.2,0,0.2c0,0.3,0,0.6,0,0.9v15.4c0,0.4-0.1,0.7-0.2,1
		c0.1,0.6,0.1,1.2,0.2,1.9c0,0,0,0.1,0,0.2c0,1.2-0.2,2.4-0.5,3.6c0,0.1,0,0,0,0.1c0,0,0,0.1,0,0.1c0,0,0,0,0,0.1l-0.1,0.2
		c-1.2,3.5-3.7,6.4-6.9,7.9c-1.8,0.9-3.7,1.3-5.7,1.3c-1.4,0-2.8-0.2-4.2-0.7c-2.9-1-5.5-3-7.1-5.6c-0.5-0.8-1-1.7-1.3-2.7l0,0l0,0
		c0,0,0,0,0,0c-0.5-1.4-0.7-2.8-0.7-4.2c0,0,0-0.1,0-0.2c0-0.2,0-0.3,0-0.5V72.5l0-5c0-0.1,0-0.1,0-0.2v-7l0-9.6
		c0-0.5,0.1-0.9,0.3-1.3c0-0.4-0.1-0.8-0.1-1.1c0-0.2,0-0.4,0-0.6c0.2-4.2,3.1-8,7.2-9.3c1.1-0.3,2.2-0.5,3.2-0.5
		c0.7,0,1.5,0.1,2.2,0.2c0.1,0,0.1-0.1,0.2-0.1c0.9-0.4,1.9-0.6,2.9-0.6c3.4,0,6.4,2.4,7,5.8c0,0.1,0,0.2,0,0.2
		c0.1,0.4,0.1,0.8,0.1,1.2c0,0.3,0,0.5,0,0.8c0.1,0,0.1,0,0.2,0.1c0.4,0.1,0.9,0.3,1.3,0.5c0.1-0.2,0.2-0.3,0.3-0.5
		c-0.1-0.3-0.1-0.6-0.1-0.9c0-1.7,0.8-3.3,2.2-4.3c0.1-0.1,0.2-0.1,0.3-0.2c0.2-0.1,0.4-0.2,0.6-0.3c0.7-0.3,1.4-0.4,2.1-0.4
		c0.2,0,0.4,0,0.6,0c0.9-0.9,2.1-1.5,3.5-1.5c0.4,0,0.8,0.1,1.2,0.2c0.1-0.1,0.3-0.2,0.4-0.3c0.7-0.4,1.5-0.6,2.3-0.6
		c0.7,0,1.3,0.1,2,0.4c0.6,0.3,1.1,0.7,1.5,1.2c0.3-0.1,0.6-0.1,0.9-0.1c1,0,1.9,0.3,2.7,0.9c0.6-0.2,1.3-0.3,2-0.3
		c0.5,0,0.9,0.1,1.4,0.2c1.2,0.3,2.3,1,3.2,1.9c0.7,0.8,1.2,1.7,1.4,2.8c0.6,0.2,1.1,0.4,1.7,0.7c0.7-1.5,2.2-2.6,3.9-2.6
		c0.5-1,1.2-1.8,2.2-2.3c0.1,0,0.2-0.1,0.3-0.1l0.3-0.1l0.1-0.1c0.1-0.1,0.2-0.1,0.4-0.1c0.6-0.2,1.2-0.3,1.8-0.3
		c1.1,0,2.2,0.3,3.1,0.9c0.9-0.4,1.8-0.6,2.9-0.6c0.1,0,0.2,0,0.3,0c1-1.3,2.5-2.1,4.3-2.1c2.2,0,4,1.3,4.9,3.1
		c0.9,0.1,1.7,0.4,2.5,0.7c0.8-0.4,1.6-0.7,2.6-0.7c0.7,0,1.4,0.1,2.1,0.4c0.7,0.3,1.4,0.8,1.9,1.4c0.4,0.5,0.8,1.1,1,1.7
		c2,0.9,3.3,2.9,3.3,5.2c0,0.3,0,0.5-0.1,0.8c1.4,2.3,2.2,4.8,2.4,7.5l0,0l0,0l0,0l0.1,0.1l0,0.2c0,0.2,0,0.4,0,0.6v25.5
		c0,0.1,0,0.3,0,0.4l0,0.4c0,0.3,0,0.7-0.1,1c0,0.2-0.1,0.5-0.1,0.7c0,0.2-0.1,0.4-0.1,0.6c0,0.1-0.1,0.3-0.1,0.4l0,0l0,0l0,0
		c0,0,0,0.1,0,0.1c-0.8,3.4-2.9,6.3-5.8,8.2C268.4,96.6,266,97.3,263.5,97.3L263.5,97.3z M129.7,97.3c-2.3,0-4.5-0.6-6.5-1.7
		c-3-1.6-5.2-4.3-6.2-7.6c-0.1-0.2-0.1-0.4-0.2-0.5c0-0.1,0-0.1-0.1-0.2c-0.2-0.8-0.4-1.7-0.4-2.7c0-0.3,0-0.6,0-0.8
		c0-1.9,0.4-3.7,1.1-5.3c-0.7-0.6-1.1-1.5-1.1-2.5V55.8c0-1,0.4-1.8,1.1-2.4c-0.7-1-1.1-2.2-1.1-3.5c0-1.2,0.3-2.3,0.9-3.2
		c-0.5-0.8-0.9-1.8-0.9-2.8h0c0,0,0,0,0-0.1c0-0.1,0-0.1,0-0.2c0-0.2,0-0.4,0-0.6c0.1-0.9,0.4-1.7,0.8-2.4c-0.5-1.1-0.8-2.3-0.8-3.6
		c0-2.5,1.1-4.7,2.8-6.2c-1.6-1.1-2.7-2.9-2.8-5c0,0,0-0.2,0-0.2c0-0.6,0.1-1.3,0.3-1.9c0.5-1.6,1.6-2.8,2.9-3.6
		c0.9-3.2,3.5-5.7,6.9-6.5v0c0,0,0,0,0.1,0c0,0,0.1,0,0.1,0c0.2,0,0.3-0.1,0.4-0.1l0.3,0c0,0,0.2,0,0.2,0c0.3,0,0.6,0,0.9,0
		c0.9,0,1.8,0.1,2.6,0.4c0.4-0.1,0.7-0.1,1.1-0.2c0.1,0,0.1,0,0.2,0c0.9,0,1.9,0.2,2.7,0.7c0.2,0.1,0.3,0.2,0.4,0.2
		c1.3,0.9,2.1,2.2,2.4,3.6c2.5,1,4.5,3.2,5.1,6c0.1,0.4,0.1,0.7,0.1,1c0,0.2,0,0.4,0,0.7c0,1.2-0.3,2.5-0.8,3.5
		c0.4,0.7,0.7,1.5,0.8,2.3c0,0.2,0.1,0.5,0.1,0.7c0,0.2,0,0.4,0,0.6c0,0.3-0.1,0.6-0.2,1c0.1,0.4,0.2,0.7,0.2,1.1
		c0,0.3,0.1,0.6,0.1,0.9c0,0.3,0,0.6-0.1,0.9c0,0.3-0.1,0.7-0.2,1c0.1,0.6,0.2,1.1,0.2,1.7c0,0.2,0,0.5,0,0.7
		c0.4-0.2,0.8-0.3,1.2-0.4c0.5-2.9,3-5.1,6.1-5.1c1.4,0,2.7,0.5,3.8,1.3c0.6-0.1,1.2-0.2,1.8-0.2c1.9,0,3.7,0.5,5.2,1.4
		c0.6,0.1,1.3,0.2,1.8,0.5c0,0,0.1,0,0.1,0c5.6,1.6,9.9,5.1,12.3,10c0.2,0.5,0.4,1,0.6,1.5c0.4,0.7,0.6,1.5,0.8,2.3
		c0.1,0.6,0.1,1,0.1,1.5c0,0.6-0.1,1.2-0.2,1.8c0.1,0.1,0.1,0.2,0.2,0.2c0.5,0.5,0.7,1.2,0.8,1.9c0.2,1.8,0.3,3.9,0.3,6.4
		c0,0.3,0,0.7,0,1v0.7v16.9c0,0.6,0,1.2-0.1,1.7c0,0.1,0,0.2,0,0.3c0,1.3-0.3,2.5-0.6,3.6c0,0.1-0.1,0.2-0.1,0.2
		c-1.3,3.7-4,6.6-7.6,8c-1.6,0.7-3.3,1-5.1,1c-2.2,0-4.4-0.5-6.3-1.6c-1.3-0.7-2.5-1.7-3.6-2.8c-1-1.1-1.8-2.4-2.4-3.7
		c-0.7-1.5-1-3.2-1.1-4.9c0-0.1,0-0.2,0-0.2c0-0.6-0.1-1.1-0.1-1.7v-15c0-0.3,0-0.5,0-0.8c0-0.2,0-0.4,0-0.7c0-2.8-0.3-4.3-0.7-5.2
		c-0.4-0.8-0.7-0.9-1.1-1.1c-0.1,0-0.2-0.1-0.3-0.1c-0.1,0-0.3,0-0.4,0c-0.4,0-0.7-0.1-1.1-0.1c-2.1,0-2.7,0.6-3.2,1.3
		c-0.2,0.5-0.4,1.1-0.7,1.6c-0.3,1.1-0.5,2.5-0.5,4.1v17c0,0.1,0,0.2,0,0.3v0.1c0,1.5-0.3,3-0.8,4.4C140.4,94.7,136,97.4,129.7,97.3
		L129.7,97.3z"/>
	<path fill="#F395BA" d="M127.7,17.2c0.1,0,0.2,0,0.3,0C127.9,17.2,127.8,17.2,127.7,17.2"/>
	<path fill="#F395BA" d="M127.2,17.3c0,0,0.1,0,0.1,0C127.3,17.3,127.3,17.3,127.2,17.3"/>
	<path fill="#EF689E" d="M129.6,93.7c-1.9,0-3.5-0.4-4.9-1c1.5,0.8,3.1,1.3,4.9,1.3c2.2,0,4.3-0.7,6-1.9
		C134,93.1,132,93.7,129.6,93.7"/>
	<path fill="#EF689E" d="M192.2,93.3c1,0.3,2,0.5,3.1,0.5c1.5,0,3-0.4,4.3-1c-1.3,0.5-2.8,0.9-4.4,0.9
		C194.2,93.7,193.2,93.6,192.2,93.3"/>
	<path fill="#74509F" d="M224.6,92.7c1.4,0.8,3.1,1.3,4.8,1.3c1.6,0,3-0.4,4.4-1c-1.3,0.5-2.8,0.8-4.4,0.8
		C227.6,93.7,226,93.4,224.6,92.7"/>
	<path fill="#EF689E" d="M257.8,92.2c1.6,1.1,3.6,1.8,5.7,1.8c2,0,3.8-0.6,5.3-1.6c-1.5,0.8-3.3,1.3-5.3,1.3
		C261.3,93.7,259.4,93.2,257.8,92.2"/>
	<path fill="#937BB3" d="M135.6,92L135.6,92C135.6,92,135.6,92,135.6,92C135.6,92,135.6,92,135.6,92"/>
	<path fill="#74509F" d="M159.8,92.8c1.4,0.8,3,1.2,4.7,1.2c1.3,0,2.6-0.3,3.8-0.8c-1.1,0.3-2.3,0.5-3.7,0.5
		C162.8,93.7,161.2,93.4,159.8,92.8"/>
	<path fill="#EF689E" d="M119.9,86.4c-0.2-0.6-0.3-1.3-0.3-2C119.6,85.1,119.7,85.8,119.9,86.4"/>
	<path fill="#EF689E" d="M120,87c0-0.1-0.1-0.2-0.1-0.3C120,86.8,120,86.9,120,87"/>
	<path fill="#EF689E" d="M173,50.9c0.2,0.5,0.4,1,0.5,1.6C173.4,51.9,173.2,51.4,173,50.9"/>
	<path fill="#F395BA" d="M139.9,36c0-0.2,0-0.4,0-0.5v1.1C139.8,36.4,139.9,36.2,139.9,36"/>
	<path fill="#937BB3" d="M139.7,25c0,0.2,0.1,0.5,0.1,0.7C139.7,25.4,139.7,25.2,139.7,25"/>
	<path fill="#EF689E" d="M119.6,25.7c0,0,0,0.1,0,0.1c0-0.3,0.1-0.7,0.1-1C119.6,25.1,119.6,25.4,119.6,25.7"/>
	<polygon fill="#74509F" points="139.8,39.7 139.8,39.7 139.8,39.7 	"/>
	<path fill="#74509F" d="M153,40c-0.4-1.1-1.5-1.8-2.7-1.8c-1.6,0-2.9,1.3-2.9,2.9c0,0.2,0,0.5,0.1,0.7c1.3-0.5,2.8-0.9,4.3-1.1
		C152.2,40.4,152.6,40.2,153,40"/>
	<path fill="#B0A0C6" d="M119.5,43.6c0,0.1,0,0.1,0,0.1v-0.3C119.5,43.5,119.5,43.5,119.5,43.6"/>
	<path fill="#937BB3" d="M139.9,46c0-0.1,0-0.3,0-0.4v0.8C139.8,46.3,139.9,46.1,139.9,46"/>
	<path fill="#937BB3" d="M204.5,48.4c-0.1,0-0.3-0.1-0.4-0.1c-0.1,0-0.2,0-0.3,0c0,0.3,0.1,0.6,0.1,0.9
		C204,48.9,204.3,48.6,204.5,48.4"/>
	<path fill="#EF689E" d="M235.8,48.1c0.1,0.1,0.2,0.3,0.2,0.4C236,48.4,235.9,48.2,235.8,48.1"/>
	<path fill="#EF689E" d="M229.8,42.4c0.5,0.3,1,0.6,1.5,0.9C230.9,42.8,230.4,42.5,229.8,42.4"/>
	<path fill="#937BB3" d="M201.8,43.6c-0.3-1.8-1.9-3.1-3.8-3.1c-0.6,0-1.1,0.1-1.6,0.3C198.8,41.2,200.6,42.1,201.8,43.6"/>
	<path fill="#74509F" d="M205.9,61.4v-0.1c-0.2,0.6-0.3,1.2-0.4,1.8C205.7,62.6,205.9,62.1,205.9,61.4"/>
	<path fill="#F395BA" d="M190.5,41.4c-2.8,0.9-4.8,3.4-5,6.5C186.1,44.6,187.8,42.4,190.5,41.4"/>
	<path fill="#937BB3" d="M210.9,42.8c0.1-0.1,0.2-0.1,0.3-0.2C211.1,42.6,211,42.7,210.9,42.8"/>
	<path fill="#937BB3" d="M220.1,40.2c-0.2,0-0.4,0.1-0.6,0.2c0.4,0,0.8,0,1.2,0C220.5,40.3,220.3,40.2,220.1,40.2"/>
	<path fill="#EF689E" d="M237.1,48.4c0.1-0.1,0.2-0.2,0.3-0.3C237.2,48.2,237.1,48.3,237.1,48.4"/>
	<path fill="#937BB3" d="M266.9,43.6c0.2,0.2,0.5,0.3,0.7,0.5C267.4,43.9,267.2,43.7,266.9,43.6"/>
	<path fill="#EF689E" d="M244.5,42.4c0.1-0.1,0.3-0.1,0.4-0.2C244.8,42.3,244.7,42.3,244.5,42.4"/>
	<path fill="#EF689E" d="M132.4,17L132.4,17c0.4,0.1,0.8,0.2,1.2,0.3C133.2,17.2,132.8,17,132.4,17"/>
	<path fill="#B0A0C6" d="M139.8,32.5c0-0.1,0-0.2,0-0.2v0.5C139.8,32.7,139.8,32.6,139.8,32.5"/>
	<path fill="#F395BA" d="M156.1,40.3c1.4,0,2.7,0.1,3.9,0.3c-1.2-0.8-2.6-1.3-4.1-1.3c-1,0-2,0.2-2.9,0.6c0.1,0.2,0.1,0.3,0.2,0.5
		C154.1,40.4,155.1,40.3,156.1,40.3"/>
	<path fill="#ED408E" d="M153.1,40.5c0-0.2-0.1-0.3-0.2-0.5c-0.4,0.2-0.8,0.4-1.2,0.7C152.2,40.6,152.7,40.5,153.1,40.5"/>
	<path fill="#EF689E" d="M204.9,86.7c0,0.1-0.1,0.2-0.1,0.3C204.9,86.9,204.9,86.8,204.9,86.7"/>
	<path fill="#EF689E" d="M205.4,83.8c0,0,0-0.1,0-0.1c0,1-0.2,2-0.4,2.9C205.2,85.7,205.4,84.8,205.4,83.8"/>
	<path fill="#EF689E" d="M185.3,83.8c0,1.1,0.2,2.2,0.5,3.2c-0.3-1-0.5-2.2-0.5-3.4C185.3,83.7,185.3,83.8,185.3,83.8"/>
	<path fill="#74509F" d="M219.8,86.4c-0.1-0.3-0.1-0.5-0.2-0.8C219.7,85.9,219.7,86.2,219.8,86.4"/>
	<path fill="#74509F" d="M220,87.1c0-0.1-0.1-0.3-0.1-0.4C219.9,86.9,220,87,220,87.1"/>
	<path fill="#74509F" d="M219.6,85.3c0-0.1,0-0.2,0-0.4C219.6,85,219.6,85.2,219.6,85.3"/>
	<path fill="#EF689E" d="M273.3,85.8c0,0.2-0.1,0.3-0.1,0.5C273.3,86.1,273.3,86,273.3,85.8"/>
	<path fill="#EF689E" d="M273.4,84.9c0,0.2,0,0.3-0.1,0.5C273.4,85.2,273.4,85.1,273.4,84.9"/>
	<path fill="#937BB3" d="M139.8,83.8v-0.1c0,1.2-0.2,2.4-0.6,3.5C139.6,86.1,139.8,85,139.8,83.8"/>
	<path fill="#937BB3" d="M253.7,85.4c0-0.2-0.1-0.4-0.1-0.6C253.6,85.1,253.6,85.2,253.7,85.4"/>
	<path fill="#937BB3" d="M254.1,87.4c-0.2-0.6-0.4-1.2-0.5-1.9C253.8,86.2,253.9,86.8,254.1,87.4"/>
	<path fill="#937BB3" d="M254.4,88c0-0.1-0.1-0.2-0.1-0.3C254.3,87.8,254.3,87.9,254.4,88"/>
	<path fill="#74509F" d="M141.2,59.4c-0.3,0.5-0.5,1-0.7,1.7C140.8,60.5,141,60,141.2,59.4"/>
	<path fill="#EF689E" d="M154.4,66c0,0.2,0,0.4,0,0.6c0,0.2,0,0.4,0,0.6v-0.9C154.4,66.2,154.4,66.1,154.4,66"/>
	<path fill="#74509F" d="M174.6,84.2c-0.1,1-0.2,2-0.5,2.9C174.5,86.1,174.6,85.2,174.6,84.2"/>
	<path fill="#74509F" d="M155.3,87.9c-0.4-1.1-0.7-2.3-0.8-3.7C154.5,85.5,154.8,86.8,155.3,87.9"/>
	<path fill="#EF689E" d="M142.8,44.4C142.8,44.4,142.8,44.4,142.8,44.4C142.8,44.4,142.8,44.4,142.8,44.4"/>
	<path fill="#EF689E" d="M143.3,44C143.3,44,143.3,44,143.3,44C143.3,44,143.3,44,143.3,44"/>
	<path fill="#EF689E" d="M160.4,40.7c0.5,0.1,0.9,0.2,1.3,0.3C161.3,40.8,160.9,40.7,160.4,40.7"/>
	<path fill="#B0A0C6" d="M174.7,66.3c0-0.5,0-1,0-1.5c-1,1.4-2.7,2.3-4.5,2.3c-0.3,0-0.7,0-1-0.1c-0.1,2.9-2,5.4-4.5,6.5
		c0,0.1,0,0.2,0,0.4c5.5,0.1,10,4.6,10,10.1v0l0,0c0-0.5,0.1-1,0.1-1.5V66.3z"/>
	<path fill="#EF689E" d="M135.6,92c-5.8-3.4-9.7-9.6-9.7-16.8c0-0.3,0-0.6,0-0.9c-0.6,0.4-1.3,0.7-2,1c-2.7,1.8-4.5,4.9-4.5,8.4
		c0,0.2,0,0.4,0,0.6c0.1,0.7,0.2,1.4,0.3,2c0,0.1,0,0.1,0.1,0.2c0,0.1,0.1,0.2,0.1,0.3c0.8,2.5,2.5,4.5,4.7,5.7c1.4,0.7,3,1,4.9,1
		C132,93.7,134,93.1,135.6,92"/>
	<path fill="#EF689E" d="M124,75.4c0.6-0.4,1.3-0.8,2-1c0.2-4.1,1.6-7.8,4-10.9c-1.8-1.2-3.1-3.3-3.3-5.6c-1.7-1.3-3.9-2.1-6.2-2.1
		c-0.3,0-0.7,0-1,0V76c0.3,0,0.6,0,1,0C121.7,76.1,122.9,75.8,124,75.4"/>
	<path fill="#EF689E" d="M124,75.4c0.7-0.3,1.4-0.6,2-1v0C125.3,74.7,124.6,75,124,75.4"/>
	<path fill="#EF689E" d="M133.3,50c-0.2-1.8-1.5-3.2-3.2-3.5c-0.6,2-2.5,3.5-4.7,3.5c0,0,0,0-0.1,0c0,0.1,0,0.3,0,0.4
		c0,1.6,0.9,2.9,2.2,3.6C128.6,51.8,130.8,50.2,133.3,50"/>
	<path fill="#F395BA" d="M129.3,46.4c0.3,0,0.5,0,0.8,0.1c0.1-0.4,0.2-0.9,0.2-1.3c0-1.9-1.1-3.6-2.7-4.4c-0.8,0.7-1.9,1.1-3.1,1.1
		c-0.8,0-1.5-0.2-2.1-0.5c0,0,0,0,0,0c1,0.2,1.7,1.1,1.7,2.2c0,1.2-1,2.2-2.2,2.2c-0.4,0-0.8-0.1-1.2-0.3c0,0.7,0.2,1.3,0.5,1.9
		c0.4-0.2,0.9-0.4,1.4-0.4c1.6,0,2.9,1.3,2.9,2.9c0,0.1,0,0.1,0,0.2h0C125.5,48,127.2,46.4,129.3,46.4"/>
	<path fill="#F395BA" d="M130.1,46.5c-0.2-0.1-0.5-0.1-0.8-0.1c-2.1,0-3.8,1.6-4,3.6c0,0,0,0,0.1,0C127.6,50,129.5,48.5,130.1,46.5"
		/>
	<path fill="#937BB3" d="M172.8,56.4c-1,1.6-2.8,2.7-4.8,2.7c-0.9,0-1.8-0.2-2.6-0.6c-0.3,0.4-0.5,0.9-0.6,1.3
		c1.5,0.7,2.8,1.8,3.6,3.3c0.7-0.1,1.4-0.2,2.1-0.2c1.5,0,3,0.3,4.3,0.9c0-2.2-0.1-4.2-0.3-6.1C174,57.1,173.4,56.7,172.8,56.4"/>
	<path fill="#937BB3" d="M170.4,62.9c-0.7,0-1.4,0.1-2.1,0.2c0.6,1,0.9,2.2,0.9,3.5c0,0.1,0,0.2,0,0.4c0.3,0.1,0.7,0.1,1,0.1
		c1.9,0,3.5-0.9,4.5-2.3c0-0.3,0-0.7,0-1C173.4,63.2,171.9,62.9,170.4,62.9"/>
	<path fill="#EF689E" d="M168.2,52.5c-1.2,0-2.4-0.3-3.4-0.8c0.3,0.5,0.4,1.1,0.4,1.7c0,1.4-0.7,2.6-1.8,3.3
		c0.5,0.7,1.2,1.3,1.9,1.6c1-1.6,2.8-2.7,4.8-2.7c0.9,0,1.8,0.2,2.6,0.6c0.5-0.9,0.8-1.9,0.8-2.9c0-0.3,0-0.6-0.1-1
		c-0.2-0.5-0.3-1.1-0.5-1.6c0,0,0,0,0-0.1C171.7,51.9,170,52.5,168.2,52.5"/>
	<path fill="#ED408E" d="M172.8,56.4c-0.8-0.4-1.7-0.6-2.6-0.6c-2,0-3.8,1.1-4.8,2.7c0.8,0.4,1.7,0.6,2.6,0.6
		C170,59.1,171.8,58,172.8,56.4"/>
	<path fill="#937BB3" d="M127.6,40.8c1.1-0.9,1.7-2.2,1.7-3.7c0-0.5-0.1-1-0.2-1.4c-0.3,0.1-0.7,0.2-1.1,0.2c-1.6,0-2.9-1.3-2.9-2.9
		c0-0.3,0-0.5,0.1-0.8c-0.2,0-0.5-0.1-0.7-0.1c-2.7,0-4.9,2.2-4.9,4.9c0,1.9,1.1,3.6,2.7,4.4c0.8-0.7,1.9-1.1,3.1-1.1
		C126.2,40.3,126.9,40.4,127.6,40.8"/>
	<path fill="#74509F" d="M127.6,40.8c-0.7-0.3-1.4-0.5-2.2-0.5c-1.2,0-2.3,0.4-3.1,1.1c0.7,0.3,1.4,0.5,2.1,0.5
		C125.6,41.9,126.7,41.5,127.6,40.8"/>
	<path fill="#F395BA" d="M122.4,22.8L122.4,22.8c1.6,0,2.9,1.3,2.9,2.9c0,0.7-0.2,1.3-0.7,1.8c1,0.8,2.3,1.3,3.7,1.3
		c0.8,0,1.5-0.2,2.2-0.4c-0.4-0.7-0.7-1.5-0.7-2.4c0-2.5,1.8-4.5,4.2-4.8c0-0.1-0.1-0.3-0.1-0.4c-0.4,0.5-1,0.8-1.7,0.8
		c-1.2,0-2.2-1-2.2-2.2c0-0.7,0.4-1.4,0.9-1.8c-0.8-0.4-1.7-0.6-2.7-0.6c-0.2,0-0.4,0-0.6,0c-0.1,0-0.2,0-0.3,0
		c-0.1,0-0.2,0-0.3,0.1c0,0-0.1,0-0.1,0C124.5,17.6,122.5,19.9,122.4,22.8"/>
	<path fill="#F395BA" d="M137.6,34.7c-1.2,0-2.2-1-2.2-2.2c0-0.4,0.1-0.9,0.4-1.2c-0.2,0-0.5-0.1-0.7-0.1c-2.7,0-4.8,2.2-4.8,4.8
		c0,1.4,0.6,2.7,1.6,3.6c0-2.2,1.8-3.9,4-3.9c1.6,0,3,0.9,3.6,2.3c0.2-0.4,0.3-0.9,0.4-1.4v-1.1c-0.1-0.6-0.2-1.1-0.5-1.6
		C138.9,34.4,138.3,34.7,137.6,34.7"/>
	<path fill="#937BB3" d="M134.9,21.1c-0.2,0-0.5,0-0.7,0.1c0.2,0.5,0.2,1.1,0.2,1.7c0,2.5-1.6,4.7-3.8,5.6c0.8,1.5,2.4,2.5,4.2,2.5
		c0.6,0,1.2-0.1,1.7-0.3c0.1-0.1,0.2-0.1,0.3-0.1c1.7-0.8,2.8-2.5,2.8-4.4c0-0.1,0-0.2,0-0.3c0-0.2-0.1-0.5-0.1-0.7
		C139.2,22.7,137.2,21.1,134.9,21.1"/>
	<path fill="#74509F" d="M134.4,22.8c0-0.6-0.1-1.2-0.2-1.7c-2.4,0.3-4.2,2.4-4.2,4.8c0,0.9,0.2,1.7,0.7,2.4
		C132.9,27.5,134.4,25.4,134.4,22.8"/>
	<path fill="#EF689E" d="M121,47.3c-0.9,0.5-1.5,1.5-1.5,2.5c0,1.6,1.3,2.9,2.9,2.9c1.6,0,2.8-1.2,2.9-2.8
		C123.4,50,121.8,48.9,121,47.3"/>
	<path fill="#ED408E" d="M122.4,47c-0.5,0-1,0.1-1.4,0.4c0.8,1.6,2.4,2.7,4.3,2.7c0-0.1,0-0.1,0-0.2C125.3,48.3,124,47,122.4,47"/>
	<path fill="#EF689E" d="M122.5,28.6c0.9,0,1.7-0.4,2.2-1.1c-1.4-1.1-2.3-2.8-2.3-4.7c0,0,0,0,0,0c-1.3,0-2.4,0.9-2.7,2
		c-0.1,0.3-0.1,0.7-0.1,1C119.6,27.3,120.9,28.6,122.5,28.6"/>
	<path fill="#ED408E" d="M122.5,22.8L122.5,22.8C122.4,22.8,122.4,22.8,122.5,22.8c0,2,0.9,3.6,2.2,4.7c0.4-0.5,0.7-1.1,0.7-1.8
		C125.4,24.1,124.1,22.8,122.5,22.8"/>
	<path fill="#74509F" d="M135,40.9c-1.2,0-2.3-0.5-3.2-1.2c0,0,0,0,0,0c0,2.2,1.8,4,4,4c2.2,0,4-1.8,4-4v0c0-0.6-0.1-1.2-0.4-1.7
		C138.7,39.7,137,40.9,135,40.9"/>
	<path fill="#5E318D" d="M139.4,38c-0.6-1.4-2-2.3-3.6-2.3c-2.2,0-4,1.8-4,3.9c0.9,0.7,2,1.2,3.2,1.2C137,40.9,138.7,39.7,139.4,38"
		/>
	<path fill="#74509F" d="M157.9,54.7c1.8,0,3.3,1.1,4,2.7c0.6-0.1,1.1-0.3,1.6-0.6c-0.7-0.9-1.1-2.1-1.1-3.4c0-1.1,0.3-2.1,0.8-2.9
		c-0.3-0.3-0.5-0.6-0.8-0.9c0,0,0,0,0,0c-1,2-2.8,3.4-5.1,3.9c0,0.4,0.1,0.9,0.2,1.3C157.6,54.7,157.7,54.7,157.9,54.7"/>
	<path fill="#5E318D" d="M162.3,53.4c0,1.3,0.4,2.4,1.1,3.4c1.1-0.7,1.8-1.9,1.8-3.3c0-0.6-0.1-1.2-0.4-1.7
		c-0.6-0.3-1.2-0.7-1.7-1.2C162.6,51.3,162.3,52.3,162.3,53.4"/>
	<path fill="#937BB3" d="M161.8,59.2c0.1,0,0.3,0,0.4,0c0-0.1,0-0.1,0-0.2c0-0.6-0.1-1.1-0.3-1.6c-0.2,0-0.4,0.1-0.6,0.1
		c-1.8,0-3.2-1.1-3.8-2.7c-1.8,0.2-3.2,1.4-3.7,3.1c1.4,0.7,2.8,1.6,4,2.6C158.9,59.6,160.3,59.2,161.8,59.2"/>
	<path fill="#937BB3" d="M161.2,57.4c0.2,0,0.4,0,0.6-0.1c-0.6-1.6-2.2-2.7-4-2.7c-0.1,0-0.3,0-0.4,0
		C158,56.3,159.5,57.4,161.2,57.4"/>
	<path fill="#EF689E" d="M129.1,35.6c1-0.4,1.8-1.5,1.8-2.7c0-1.6-1.3-2.9-2.9-2.9c-1.3,0-2.5,0.9-2.8,2.2
		C127,32.5,128.6,33.8,129.1,35.6"/>
	<path fill="#ED408E" d="M127.9,35.8c0.4,0,0.8-0.1,1.1-0.2c-0.5-1.8-2.1-3.1-3.9-3.4c-0.1,0.2-0.1,0.5-0.1,0.8
		C125,34.5,126.3,35.8,127.9,35.8"/>
	<path fill="#74509F" d="M149.5,43.4c0.5-1.1,1.3-2,2.3-2.7c-1.5,0.2-3,0.6-4.3,1.1c0.1,0.4,0.3,0.9,0.6,1.2
		C148.6,43,149,43.2,149.5,43.4"/>
	<path fill="#B0A0C6" d="M120.5,45.5c0-0.1,0-0.2,0-0.3c0-1.5,0.7-2.8,1.7-3.7c-0.2,0-0.3-0.1-0.5-0.1c-1.2,0-2.1,0.9-2.2,2.1v0.3
		C119.5,44.5,119.9,45.1,120.5,45.5"/>
	<path fill="#937BB3" d="M123.9,43.6c0-1-0.7-1.9-1.7-2.2c-1,0.9-1.7,2.2-1.7,3.7c0,0.1,0,0.2,0,0.3c0.3,0.2,0.7,0.3,1.2,0.3
		C122.9,45.8,123.9,44.8,123.9,43.6"/>
	<path fill="#937BB3" d="M137.4,43.5c-1.4,0-2.5,1.1-2.5,2.5c0,1.4,1.1,2.5,2.5,2.5c1.2,0,2.3-0.9,2.4-2.1v-0.8
		C139.6,44.4,138.6,43.5,137.4,43.5"/>
	<path fill="#EF689E" d="M134,20.7c0.3-0.4,0.5-0.9,0.5-1.4c0-0.8-0.4-1.5-1.1-1.9c-0.4-0.1-0.8-0.2-1.2-0.3c-0.5,0-0.9,0.2-1.3,0.4
		C132.5,18.1,133.5,19.3,134,20.7"/>
	<path fill="#ED408E" d="M131.1,17.5c-0.6,0.4-0.9,1.1-0.9,1.8c0,1.2,1,2.2,2.2,2.2c0.7,0,1.3-0.3,1.7-0.8
		C133.5,19.3,132.5,18.1,131.1,17.5"/>
	<path fill="#B0A0C6" d="M137.6,30.3c-0.2,0-0.5,0-0.7,0.1c-0.1,0-0.2,0.1-0.3,0.1c-0.3,0.2-0.6,0.4-0.8,0.7
		c1.6,0.2,2.9,1.2,3.6,2.6c0.3-0.3,0.4-0.7,0.5-1.2v-0.5C139.7,31.2,138.8,30.3,137.6,30.3"/>
	<path fill="#937BB3" d="M137.6,34.7c0.7,0,1.3-0.3,1.7-0.8c-0.7-1.4-2-2.4-3.6-2.6c-0.2,0.4-0.4,0.8-0.4,1.2
		C135.4,33.7,136.4,34.7,137.6,34.7"/>
	<path fill="#B0A0C6" d="M136.6,30.5c0.1,0,0.2-0.1,0.3-0.1C136.8,30.4,136.7,30.5,136.6,30.5"/>
	<path fill="#EF689E" d="M164.2,44.7c0,1.2-0.5,2.2-1.3,2.9c-0.1,0.7-0.3,1.4-0.6,2c0,0,0,0,0,0c0.4,0.1,0.7,0.3,1.1,0.5
		c1-1.4,2.7-2.3,4.6-2.3c2.2,0,4.1,1.2,5,3.1c0,0,0,0,0,0c-0.2-0.5-0.3-0.9-0.6-1.3c-2-4.2-5.7-7.1-10.4-8.4c0,0,0,0,0,0
		C163.3,41.8,164.2,43.1,164.2,44.7"/>
	<path fill="#ED408E" d="M164.8,51.7c1,0.5,2.2,0.8,3.4,0.8c1.8,0,3.5-0.6,4.7-1.7c-0.9-1.8-2.8-3.1-5-3.1c-1.9,0-3.5,0.9-4.6,2.3
		C164,50.5,164.5,51,164.8,51.7"/>
	<path fill="#EF689E" d="M163.1,50.5c0.1-0.1,0.2-0.3,0.3-0.4c-0.3-0.2-0.7-0.4-1.1-0.5C162.6,49.9,162.8,50.2,163.1,50.5"/>
	<path fill="#ED408E" d="M164.8,51.7c-0.3-0.7-0.8-1.2-1.5-1.6c-0.1,0.1-0.2,0.3-0.3,0.4C163.6,51,164.2,51.4,164.8,51.7"/>
	<path fill="#F395BA" d="M153.1,40.5c0,0.2,0.1,0.4,0.1,0.6c0,1.5-1.1,2.7-2.5,2.9c1.8,1.2,3,3.2,3,5.5c0,1.2-0.3,2.4-0.9,3.4
		c1,0.5,2,0.8,3.2,0.8c0.5,0,0.9,0,1.4-0.1c0,0,0,0,0,0c0-2.2,1.8-4,4-4c0.4,0,0.7,0.1,1.1,0.1l0,0c-0.3-0.4-0.5-0.7-0.7-1.1
		c-0.4,0.2-0.9,0.2-1.4,0.2c-2.2,0-4-1.8-4-4c0-2.2,1.7-3.9,3.9-4c0,0-0.1,0-0.1-0.1c-1.2-0.2-2.5-0.3-3.9-0.3
		C155.1,40.3,154.1,40.4,153.1,40.5"/>
	<path fill="#EF689E" d="M162.3,49.6c-0.3-0.1-0.7-0.1-1.1-0.1c-2.2,0-4,1.8-4,4v0C159.5,53,161.3,51.6,162.3,49.6"/>
	<path fill="#ED408E" d="M153.2,41.1c0-0.2,0-0.4-0.1-0.6c-0.5,0-0.9,0.1-1.4,0.2c-1,0.7-1.8,1.6-2.3,2.7c0.4,0.2,0.8,0.4,1.2,0.6
		C152.1,43.8,153.2,42.6,153.2,41.1"/>
	<path fill="#EF689E" d="M161.6,48.4c0.2,0.4,0.4,0.8,0.7,1.1c0.3-0.6,0.5-1.3,0.6-2C162.5,48,162.1,48.3,161.6,48.4"/>
	<path fill="#937BB3" d="M135.7,92c1.7-1.1,2.9-2.8,3.6-4.8C138.6,89.1,137.3,90.8,135.7,92"/>
	<path fill="#937BB3" d="M147,56.1c-0.6,0-1.1-0.1-1.6-0.2h-0.1c-1.3,0-2.7,0.1-3.9,0.4c0,0.3,0.1,0.7,0.1,1.1c0,0.7-0.1,1.4-0.3,2
		c1.2-2.2,3.2-3.2,6.2-3.2c0.6,0,1.1,0,1.6,0.1c-0.4-0.1-0.9-0.2-1.3-0.2C147.5,56.1,147.3,56.1,147,56.1"/>
	<path fill="#937BB3" d="M134.1,64.8c-1.3,0-2.6-0.4-3.7-1c0.1,0.7,0.2,1.4,0.2,2.1c0,3.5-1.8,6.6-4.5,8.4c1.1-0.4,2.3-0.6,3.5-0.6
		c5.6,0,10.1,4.5,10.1,10c0-0.1,0-0.2,0-0.3v-17c0-2.1,0.2-3.9,0.7-5.4C139.2,63.3,136.8,64.8,134.1,64.8"/>
	<path fill="#B0A0C6" d="M153.6,59c0-0.4,0.1-0.8,0.2-1.2c-1.1-0.5-2.2-0.9-3.4-1.2c3.1,1,4,4.1,4,9.5c0.1-1.2,0.5-2.4,1.1-3.4
		C154.3,61.9,153.6,60.5,153.6,59"/>
	<path fill="#937BB3" d="M159.5,75.1c-0.1-0.4-0.1-0.9-0.1-1.3c0-0.1,0-0.1,0-0.2c-2.8-0.9-4.8-3.4-5.1-6.4v15.1
		c0,0.6,0,1.2,0.1,1.8c0-0.1,0-0.2,0-0.3C154.5,80.1,156.5,76.9,159.5,75.1"/>
	<path fill="#937BB3" d="M159.5,73.6c0,0.1,0,0.1,0,0.2c0,0.4,0,0.9,0.1,1.3c1.5-0.8,3.2-1.3,5-1.3c0,0,0.1,0,0.1,0
		c0-0.1,0-0.2,0-0.4c-0.9,0.4-1.9,0.6-2.9,0.6C161,74,160.2,73.9,159.5,73.6"/>
	<path fill="#ED408E" d="M129.7,73.7c-1.2,0-2.4,0.2-3.5,0.6c-0.1,0-0.1,0.1-0.2,0.1c0,0.3,0,0.6,0,0.9c0,7.2,3.9,13.4,9.7,16.8
		c0,0,0,0,0,0c1.6-1.2,2.9-2.9,3.6-4.8c0.4-1.1,0.5-2.2,0.6-3.5C139.8,78.2,135.2,73.7,129.7,73.7"/>
	<path fill="#ED408E" d="M130.6,65.9c0-0.7-0.1-1.4-0.2-2.1c-0.2-0.1-0.3-0.2-0.5-0.3c-2.3,3-3.8,6.8-4,10.9c0.1,0,0.1,0,0.2-0.1
		C128.9,72.5,130.6,69.4,130.6,65.9"/>
	<path fill="#ED408E" d="M126,74.4L126,74.4c0.1,0,0.1,0,0.2-0.1C126.1,74.3,126,74.4,126,74.4"/>
	<path fill="#937BB3" d="M157.7,60.4c-1.2-1-2.6-1.9-4-2.6c-0.1,0.4-0.2,0.8-0.2,1.2c0,1.5,0.8,2.8,1.9,3.6
		C156.1,61.7,156.8,61,157.7,60.4"/>
	<path fill="#74509F" d="M130.2,63.1c2.8-3.4,6.7-5.9,11.2-6.8c-0.5-3.6-3.6-6.4-7.3-6.4c-0.3,0-0.5,0-0.8,0c0,0.1,0,0.3,0,0.5
		c0,2.2-1.8,4-4,4c-0.7,0-1.3-0.2-1.9-0.5c-0.5,1-0.8,2.1-0.8,3.4c0,0.2,0,0.4,0,0.5C128.4,59.2,129.6,61,130.2,63.1"/>
	<path fill="#74509F" d="M126.7,57.9c0.2,2.4,1.4,4.4,3.3,5.6c0.1-0.1,0.2-0.2,0.3-0.4C129.6,61,128.4,59.2,126.7,57.9"/>
	<path fill="#ED408E" d="M133.4,50.4c0-0.2,0-0.3,0-0.5c-2.6,0.3-4.7,1.8-5.9,4c0.6,0.3,1.2,0.5,1.9,0.5
		C131.6,54.5,133.4,52.7,133.4,50.4"/>
	<path fill="#5E318D" d="M141.4,56.3c-4.5,0.9-8.4,3.4-11.2,6.8c0.1,0.2,0.1,0.4,0.2,0.7c1.1,0.6,2.3,1,3.7,1c2.8,0,5.2-1.5,6.4-3.7
		c0.2-0.6,0.4-1.2,0.7-1.7c0.2-0.6,0.3-1.3,0.3-2C141.5,57,141.5,56.6,141.4,56.3"/>
	<path fill="#74509F" d="M130.2,63.1c-0.1,0.1-0.2,0.2-0.3,0.4c0.1,0.1,0.3,0.2,0.5,0.3C130.4,63.6,130.3,63.4,130.2,63.1"/>
	<path fill="#EF689E" d="M160.1,62.7c0.9,1.1,1.7,2.3,2.4,3.5c0.8-0.8,1.7-1.5,2.8-2.1c-0.5-0.8-0.7-1.8-0.7-2.8
		c0-0.5,0.1-1.1,0.2-1.6c-0.8-0.3-1.7-0.6-2.6-0.6C162.1,60.7,161.3,62,160.1,62.7"/>
	<path fill="#EF689E" d="M165.3,64.2c-1,0.5-2,1.3-2.7,2.1c1.1,2.2,1.9,4.6,2.1,7.2c2.6-1.1,4.4-3.6,4.5-6.5
		C167.5,66.6,166.1,65.6,165.3,64.2"/>
	<path fill="#ED408E" d="M165.3,64.2c0.9-0.5,2-0.9,3-1.1c-0.8-1.4-2-2.6-3.6-3.3c-0.1,0.5-0.2,1-0.2,1.6
		C164.5,62.4,164.8,63.3,165.3,64.2"/>
	<path fill="#ED408E" d="M168.3,63.1c-1.1,0.2-2.1,0.6-3,1.1c0.8,1.4,2.2,2.5,3.9,2.8c0-0.1,0-0.2,0-0.4
		C169.2,65.3,168.9,64.1,168.3,63.1"/>
	<path fill="#74509F" d="M162.2,59.2c-0.1,0-0.3,0-0.4,0c-1.5,0-2.9,0.4-4,1.2c0.9,0.7,1.6,1.5,2.4,2.3
		C161.3,62,162.1,60.7,162.2,59.2"/>
	<path fill="#ED408E" d="M159.5,73.6c0.1-2.9,1.2-5.5,3-7.4c-0.7-1.3-1.5-2.5-2.4-3.5c-0.7,0.4-1.4,0.6-2.2,0.6
		c-0.9,0-1.7-0.3-2.4-0.7c-0.6,1-1,2.1-1.1,3.4c0,0.1,0,0.2,0,0.3v0.9C154.6,70.2,156.7,72.7,159.5,73.6"/>
	<path fill="#ED408E" d="M159.5,73.6c0.7,0.2,1.5,0.4,2.3,0.4c1,0,2-0.2,2.9-0.6c-0.2-2.6-1-5-2.1-7.2
		C160.7,68.2,159.5,70.8,159.5,73.6"/>
	<path fill="#74509F" d="M157.7,60.4c-0.9,0.6-1.7,1.4-2.2,2.3c0.7,0.4,1.5,0.7,2.4,0.7c0.8,0,1.6-0.2,2.2-0.6
		C159.4,61.9,158.6,61.1,157.7,60.4"/>
	<path fill="#74509F" d="M170.4,84.8c-2.6,0-5.1-0.9-7-2.5c-1.3,3.4-3.5,6.3-6.3,8.4c0.8,0.8,1.7,1.6,2.7,2.1c1.4,0.6,3,0.9,4.9,0.9
		c1.4,0,2.6-0.2,3.7-0.5c2.7-1.1,4.9-3.4,5.8-6.2c0.2-0.9,0.4-1.8,0.5-2.9c0-0.1,0-0.2,0-0.3C173.3,84.5,171.9,84.8,170.4,84.8"/>
	<path fill="#74509F" d="M163.4,82.3c1.9,1.6,4.3,2.5,7,2.5c1.5,0,2.9-0.3,4.3-0.9v0c0-5.5-4.5-10-10-10.1c0,0.5,0.1,1,0.1,1.5
		C164.7,77.7,164.3,80.1,163.4,82.3"/>
	<path fill="#5E318D" d="M159.5,75.1c-3,1.7-5.1,5-5.1,8.8c0,0.1,0,0.2,0,0.3c0.1,1.4,0.4,2.6,0.8,3.7c0.5,1,1.1,2,1.8,2.8
		c2.8-2.2,5-5.1,6.3-8.4C161.3,80.5,159.9,78,159.5,75.1"/>
	<path fill="#5E318D" d="M159.5,75.1c0.3,2.9,1.8,5.4,3.9,7.1c0.8-2.2,1.3-4.5,1.3-7c0-0.5,0-1-0.1-1.5c0,0-0.1,0-0.1,0
		C162.7,73.8,161,74.3,159.5,75.1"/>
	<path fill="#EF689E" d="M140.4,49.5c0,3.1,2.1,5.7,5,6.4c0.8,0,1.6,0.1,2.3,0.2c2.1-0.2,3.9-1.5,4.9-3.2c-2.3-1.2-3.9-3.6-3.9-6.4
		c0-0.9,0.2-1.8,0.5-2.7c-0.5-0.2-0.9-0.5-1.2-0.9c-0.4-0.1-0.7-0.1-1.1-0.1c-1.4,0-2.6,0.4-3.7,1.1l0,0c-0.2,0.1-0.3,0.2-0.5,0.4
		c0,0,0,0,0,0C141.3,45.6,140.4,47.4,140.4,49.5"/>
	<path fill="#EF689E" d="M148.1,43c0.3,0.4,0.7,0.7,1.2,0.9c0.1-0.2,0.1-0.3,0.2-0.5C149,43.2,148.6,43,148.1,43"/>
	<path fill="#ED408E" d="M150.7,44c-0.1,0-0.2,0-0.4,0c-0.4,0-0.7-0.1-1-0.2c-0.3,0.8-0.5,1.7-0.5,2.7c0,2.8,1.6,5.2,3.9,6.4
		c0.6-1,0.9-2.1,0.9-3.4C153.6,47.2,152.5,45.2,150.7,44"/>
	<path fill="#ED408E" d="M150.7,44c-0.4-0.2-0.8-0.5-1.2-0.6c-0.1,0.2-0.2,0.3-0.2,0.5c0.3,0.1,0.7,0.2,1,0.2
		C150.4,44,150.6,44,150.7,44"/>
	<path fill="#EF689E" d="M147.8,56.1c-0.8-0.1-1.5-0.1-2.3-0.2c0.5,0.1,1,0.2,1.6,0.2C147.3,56.1,147.5,56.1,147.8,56.1"/>
	<path fill="#EF689E" d="M160.1,40.7c0.5,0.4,1,0.8,1.4,1.3c0.1-0.3,0.3-0.6,0.5-0.9c-0.1,0-0.1-0.1-0.2-0.1
		c-0.4-0.1-0.9-0.2-1.3-0.3c-0.1,0-0.1,0-0.2,0C160.2,40.7,160.1,40.7,160.1,40.7"/>
	<path fill="#ED408E" d="M162.9,47.6c0.8-0.7,1.3-1.8,1.3-2.9c0-1.6-0.9-2.9-2.2-3.6c-0.2,0.3-0.3,0.6-0.5,0.9
		c1,1.2,1.6,2.8,1.6,4.4C163,46.9,163,47.2,162.9,47.6"/>
	<path fill="#EF689E" d="M161.5,42c-0.4-0.5-0.9-0.9-1.4-1.3c-2.1,0.1-3.9,1.8-3.9,4c0,2.2,1.8,4,4,4c0.5,0,0.9-0.1,1.4-0.2
		c-0.5-1-0.8-2.1-0.8-3.3C160.8,44,161,43,161.5,42"/>
	<path fill="#ED408E" d="M163,46.5c0-1.7-0.6-3.2-1.6-4.4c-0.4,0.9-0.7,2-0.7,3.1c0,1.2,0.3,2.3,0.8,3.3c0.5-0.2,1-0.5,1.3-0.8
		C163,47.2,163,46.9,163,46.5"/>
	<path fill="#F6B6CD" d="M224.5,62.9c2.2,0,4.1,1.1,5.4,2.7c1.3-2.2,3-4,5-5.6c-1.1-0.8-1.9-2.1-1.9-3.5c0-0.3,0-0.6,0.1-0.8
		c-1.8-1.6-4.2-2.7-6.9-2.7c-1.1,0-2,0.2-3,0.5c0.2,0.4,0.3,0.8,0.3,1.3c0,1.5-1.2,2.8-2.8,2.8c-0.8,0-1.5-0.3-2-0.9
		c0,0.3,0.1,0.5,0.1,0.8c0,0.8-0.2,1.5-0.5,2.1c0.7,1.4,1,3.3,1.1,5.7C220.7,63.9,222.5,62.9,224.5,62.9"/>
	<path fill="#B0A0C6" d="M192.6,74.2c-1.6-0.4-2.9-1.3-3.8-2.6c-1,0.6-2.2,0.9-3.5,0.9v10.6c0,0.2,0,0.3,0,0.5
		C185.4,79.2,188.5,75.4,192.6,74.2"/>
	<path fill="#937BB3" d="M202.4,50c0,0.9,0.8,1.7,1.7,1.7c0.9,0,1.7-0.8,1.7-1.7c0-0.8-0.5-1.4-1.3-1.6c-0.2,0.3-0.4,0.6-0.7,0.8
		c0-0.3,0-0.6-0.1-0.9C203,48.5,202.4,49.2,202.4,50"/>
	<path fill="#ED408E" d="M211.7,51.8c1.5,0,2.8-1.2,2.8-2.8c0-1.5-1.2-2.8-2.8-2.8c-1.5,0-2.8,1.2-2.8,2.8
		C208.9,50.5,210.1,51.8,211.7,51.8"/>
	<path fill="#EF689E" d="M223.3,53.5c-0.5-0.9-1.4-1.5-2.5-1.5c-1.5,0-2.8,1.2-2.8,2.8c0,0.1,0,0.1,0,0.2c0.3,0.4,0.5,0.9,0.7,1.4
		C219.9,55.1,221.5,54.1,223.3,53.5"/>
	<path fill="#EF689E" d="M218.7,56.4c0,0.1,0.1,0.2,0.1,0.4c0.5,0.5,1.2,0.9,2,0.9c1.5,0,2.8-1.2,2.8-2.8c0-0.5-0.1-0.9-0.3-1.3
		C221.5,54.1,219.9,55.1,218.7,56.4"/>
	<path fill="#EF689E" d="M197.1,58.6c1.5,0,2.8-1.2,2.8-2.8c0-0.9-0.5-1.8-1.2-2.3c-0.2-0.1-0.4-0.2-0.6-0.3c0,0-0.1,0-0.1,0
		c-0.9,1-2.2,1.7-3.6,2.1c0,0.2-0.1,0.4-0.1,0.6C194.3,57.3,195.6,58.6,197.1,58.6"/>
	<path fill="#ED408E" d="M233.5,46.9c-1.5,0-2.8,1.2-2.8,2.8c0,1.5,1.2,2.8,2.8,2.8c1.5,0,2.8-1.2,2.8-2.8c0-0.4-0.1-0.8-0.2-1.1
		c-0.1-0.1-0.2-0.3-0.2-0.4C235.3,47.4,234.5,46.9,233.5,46.9"/>
	<path fill="#EF689E" d="M226.4,45.1c0,1.5,1.2,2.8,2.8,2.8c1.5,0,2.8-1.2,2.8-2.8c0-0.7-0.3-1.3-0.7-1.8c-0.5-0.3-0.9-0.6-1.5-0.9
		c-0.2,0-0.4-0.1-0.6-0.1C227.7,42.3,226.4,43.5,226.4,45.1"/>
	<path fill="#EF689E" d="M198.7,53.5c0.3,0.1,0.6,0.2,1,0.2c1.5,0,2.8-1.2,2.8-2.8c0-1.4-1.1-2.6-2.5-2.8v0c0,1.9-0.7,3.6-1.9,4.9
		c0,0,0.1,0.1,0.1,0.1C198.3,53.3,198.5,53.4,198.7,53.5"/>
	<path fill="#EF689E" d="M198.7,53.5c-0.2-0.1-0.4-0.2-0.6-0.3C198.3,53.3,198.5,53.5,198.7,53.5"/>
	<path fill="#937BB3" d="M199.9,47.7c1.2-0.7,2-1.9,2-3.4c0-0.2,0-0.5-0.1-0.7c-1.2-1.5-3-2.5-5.4-2.8c-0.4,0.2-0.7,0.4-1,0.7
		C197.9,42.6,199.7,44.9,199.9,47.7"/>
	<path fill="#937BB3" d="M218,55c-0.8-1.1-2-1.8-3.4-1.8c-1.6,0-2.9,0.8-3.7,2.1c0,0,0,0,0,0.1c0,0.4,0,0.7-0.1,1
		c0.5-0.1,1-0.1,1.5-0.1c2.3,0,3.9,0.6,5.1,1.8c0.3-0.6,0.8-1.1,1.2-1.6C218.3,56.1,218.1,55.6,218,55"/>
	<path fill="#937BB3" d="M218.8,56.7c-0.1-0.1-0.1-0.2-0.2-0.2c-0.5,0.5-0.9,1.1-1.2,1.6c0.4,0.4,0.7,0.9,1,1.5
		c0.3-0.6,0.5-1.3,0.5-2.1C218.9,57.3,218.9,57,218.8,56.7"/>
	<path fill="#937BB3" d="M218.7,56.4c-0.1-0.5-0.4-1-0.7-1.4c0,0.6,0.2,1.1,0.6,1.5C218.6,56.5,218.7,56.4,218.7,56.4"/>
	<path fill="#937BB3" d="M218.6,56.5c0.1,0.1,0.1,0.2,0.2,0.2c0-0.1,0-0.2-0.1-0.4C218.7,56.4,218.6,56.5,218.6,56.5"/>
	<path fill="#EF689E" d="M210.4,56.6c0.1-0.4,0.3-0.8,0.5-1.2c0-2.3-1.9-4.2-4.3-4.2c-2.4,0-4.3,1.9-4.3,4.3c0,0.7,0.2,1.3,0.5,1.9
		c1.2,0.3,2.1,1.1,2.6,2.2c0.3,0.1,0.7,0.2,1.1,0.2C207.3,58,208.7,57,210.4,56.6"/>
	<path fill="#EF689E" d="M210.9,55.4c-0.2,0.4-0.4,0.8-0.5,1.2c0.1,0,0.2-0.1,0.4-0.1C210.9,56.1,210.9,55.8,210.9,55.4
		C210.9,55.4,210.9,55.4,210.9,55.4"/>
	<path fill="#EF689E" d="M264.2,45.6c-0.9-1.4-2.4-2.3-4.1-2.3c-1.8,0-3.3,1-4.2,2.4c1.3-0.5,2.8-0.7,4.3-0.7
		C261.7,45,263,45.2,264.2,45.6"/>
	<path fill="#937BB3" d="M188.7,59c0.9-0.9,1.5-2.1,1.5-3.5c0-0.2,0-0.3,0-0.5c-2-0.7-3.5-2.3-4.2-4.3c-0.2,0-0.4,0-0.6,0
		c0,0,0,0-0.1,0v7.5C186.5,58.1,187.7,58.4,188.7,59"/>
	<path fill="#EF689E" d="M191.6,61.9c0.6,1,0.9,2.2,0.9,3.5c0,1.1-0.3,2.2-0.7,3.2c0.9,0.5,1.7,1.1,2.4,1.7c0.7-2.5,2.4-4.5,4.6-5.6
		c-0.7-0.6-1.2-1.5-1.4-2.5c-0.9-0.5-2-0.8-3.2-0.8C193.2,61.3,192.4,61.5,191.6,61.9"/>
	<path fill="#EF689E" d="M188.8,71.6c0.9,1.3,2.2,2.2,3.8,2.6c0.4-0.1,0.9-0.2,1.3-0.3c-0.1-0.5-0.1-0.9-0.1-1.4
		c0-0.8,0.1-1.5,0.3-2.3c-0.7-0.7-1.5-1.3-2.4-1.7C191.1,69.8,190.1,70.9,188.8,71.6"/>
	<path fill="#74509F" d="M202.8,57.3c-0.4-0.1-0.8-0.2-1.2-0.2c-2.4,0-4.3,1.9-4.3,4.3c0,0.2,0,0.4,0.1,0.7c0.9,0.5,1.7,1.3,2.3,2.2
		c0.9-0.3,1.9-0.5,2.9-0.5c0.8,0,1.6,0.1,2.4,0.3c0.2-0.3,0.4-0.6,0.6-1c0.1-0.6,0.2-1.2,0.4-1.8c0-0.7-0.2-1.3-0.4-1.8
		C204.3,59.2,203.3,58.4,202.8,57.3"/>
	<path fill="#74509F" d="M205.4,59.5c-0.5-1.1-1.5-1.9-2.6-2.2C203.3,58.4,204.3,59.2,205.4,59.5"/>
	<path fill="#74509F" d="M198.7,64.7c0.3-0.1,0.6-0.3,0.9-0.4c-0.6-0.9-1.4-1.6-2.3-2.2C197.5,63.1,198,64,198.7,64.7"/>
	<path fill="#F395BA" d="M186,50.7c2.2,0.3,4,2.1,4.2,4.3c0.8,0.3,1.6,0.5,2.5,0.5c0.6,0,1.1-0.1,1.6-0.2c0.3-1.3,1.4-2.2,2.7-2.2
		c0.3,0,0.6,0,0.9,0.1c0,0,0,0,0,0c-0.7-0.5-1.1-1.3-1.1-2.2c0-1.5,1.2-2.8,2.8-2.8c0.1,0,0.2,0,0.3,0c0-0.2,0-0.3,0-0.5
		c-0.5,0.3-1.2,0.5-1.8,0.5c-2.1,0-3.8-1.7-3.8-3.8c0-1.1,0.5-2.1,1.2-2.8c-0.8-0.3-1.7-0.5-2.7-0.5c-0.8,0-1.5,0.1-2.2,0.4
		c-2.7,1-4.4,3.2-5,6.5c0,0.1,0,0.3,0,0.4C185.5,49.1,185.7,49.9,186,50.7"/>
	<path fill="#ED408E" d="M198,53.2c-0.3-0.1-0.6-0.1-0.9-0.1c-1.3,0-2.5,0.9-2.7,2.2C195.8,54.9,197,54.2,198,53.2"/>
	<path fill="#ED408E" d="M199.9,48.2c-0.1,0-0.2,0-0.3,0c-1.5,0-2.8,1.2-2.8,2.8c0,0.9,0.4,1.7,1.1,2.2
		C199.2,51.9,199.9,50.1,199.9,48.2L199.9,48.2"/>
	<path fill="#74509F" d="M195.5,41.5c-0.7,0.7-1.2,1.7-1.2,2.8c0,2.1,1.7,3.8,3.8,3.8c0.7,0,1.3-0.2,1.9-0.5
		C199.7,44.9,197.9,42.6,195.5,41.5"/>
	<path fill="#5E318D" d="M186,50.7c0.7,2,2.3,3.6,4.2,4.3C190,52.7,188.2,50.9,186,50.7"/>
	<path fill="#937BB3" d="M273.5,58c0-0.2,0-0.4,0-0.5h-0.1c0,0.2,0,0.5,0,0.7c0,5.6-3.5,10.3-8.3,12.2c0.4,1.3,0.6,2.6,0.7,3.9
		c4.3,1,7.5,4.8,7.7,9.4h0c0-0.1,0-0.2,0-0.3V58z"/>
	<path fill="#F395BA" d="M264.3,45.6C264.3,45.6,264.3,45.6,264.3,45.6l0,0.1C264.3,45.7,264.3,45.7,264.3,45.6"/>
	<path fill="#F395BA" d="M268.7,51.3c-1.3,0-2.4-1.1-2.4-2.4c0-0.7,0.3-1.4,0.9-1.8c-0.3,0.1-0.6,0.2-0.9,0.2
		c-0.6,0-1.1-0.3-1.5-0.7c0.2,0.5,0.3,1.1,0.3,1.7c0,2.7-2.2,4.8-4.8,4.8c-2.7,0-4.8-2.2-4.8-4.8c0-0.2,0-0.5,0.1-0.7
		c-0.5,1.6-2,2.7-3.7,2.7c-0.6,0-1.1-0.1-1.6-0.3c-0.1,0.1-0.1,0.2-0.2,0.3c0.3,0.2,0.6,0.4,0.8,0.7c0.6-0.4,1.4-0.6,2.1-0.6
		c2.4,0,4.3,1.9,4.3,4.3c0,1.6-0.9,3.1-2.3,3.8c2.9,1.4,5.3,3.5,7.2,6c2.2-4,6.5-6.7,11.3-6.8c-0.1-2.7-1.1-5.2-2.7-7.3
		C270.3,50.8,269.6,51.3,268.7,51.3"/>
	<path fill="#F395BA" d="M255.5,46.8c0.1-0.4,0.3-0.7,0.5-1c-0.2,0-0.3,0.1-0.4,0.2c0,0.1,0,0.2,0,0.4
		C255.6,46.4,255.6,46.6,255.5,46.8"/>
	<path fill="#ED408E" d="M255.4,47.5c0,0.2-0.1,0.5-0.1,0.7c0,2.7,2.2,4.8,4.8,4.8s4.8-2.2,4.8-4.8c0-0.6-0.1-1.1-0.3-1.7
		c-0.2-0.2-0.3-0.5-0.4-0.8l-0.1-0.1c-1.2-0.4-2.6-0.6-3.9-0.6c-1.5,0-3,0.3-4.3,0.7c-0.2,0.3-0.3,0.7-0.5,1
		C255.5,47,255.5,47.2,255.4,47.5"/>
	<path fill="#F395BA" d="M262.1,64.2c1.3,1.8,2.4,3.9,3,6.2c4.9-1.9,8.3-6.7,8.3-12.2c0-0.2,0-0.5,0-0.7
		C268.6,57.5,264.3,60.2,262.1,64.2"/>
	<path fill="#74509F" d="M187.7,67.3c0.2-2.4,1.7-4.5,3.9-5.4c-0.7-1.2-1.7-2.2-2.9-2.9c-0.9,0.8-2,1.3-3.3,1.3c0,0,0,0-0.1,0v7
		c0.4-0.1,0.8-0.1,1.2-0.1C186.9,67.2,187.3,67.3,187.7,67.3"/>
	<path fill="#74509F" d="M187.6,67.9c0-0.2,0-0.4,0-0.6c-0.4,0-0.7-0.1-1.1-0.1c-0.4,0-0.8,0-1.2,0.1v5.2c1.3,0,2.4-0.4,3.5-0.9
		C188.1,70.5,187.6,69.2,187.6,67.9"/>
	<path fill="#5E318D" d="M188.7,59c-1-0.5-2.1-0.9-3.4-0.9v2.2c0,0,0,0,0.1,0C186.7,60.3,187.8,59.8,188.7,59"/>
	<path fill="#5E318D" d="M187.7,67.3c1.5,0.1,2.8,0.6,4,1.2c0.5-1,0.7-2,0.7-3.2c0-1.3-0.3-2.4-0.9-3.5
		C189.4,62.8,187.9,64.9,187.7,67.3"/>
	<path fill="#5E318D" d="M187.6,67.9c0,1.4,0.4,2.7,1.2,3.7c1.2-0.7,2.3-1.8,2.9-3.1c-1.2-0.7-2.6-1.1-4-1.2
		C187.6,67.5,187.6,67.7,187.6,67.9"/>
	<path fill="#B0A0C6" d="M201.6,65.7c-0.4,0-0.9-0.1-1.3-0.2c0.3,0.7,0.4,1.5,0.4,2.3c0,2.7-1.7,5.1-4.1,6.1c3.9,0.5,7.1,3.3,8.3,7
		c0.1,0,0.3-0.1,0.4-0.1V65.4c0-0.4,0-0.8,0-1.1c-0.2-0.1-0.3-0.1-0.5-0.2C204.1,65.1,202.9,65.7,201.6,65.7"/>
	<path fill="#937BB3" d="M194.1,70.3c1.1,1,1.9,2.3,2.5,3.7c0,0,0,0,0.1,0c2.4-1,4.1-3.3,4.1-6.1c0-0.8-0.2-1.6-0.4-2.3
		c-0.6-0.2-1.1-0.5-1.6-0.9C196.5,65.8,194.8,67.8,194.1,70.3"/>
	<path fill="#937BB3" d="M193.9,73.9c0.5-0.1,0.9-0.1,1.4-0.1c0.4,0,0.9,0,1.3,0.1c-0.6-1.4-1.5-2.6-2.5-3.7
		c-0.2,0.7-0.3,1.5-0.3,2.3C193.8,73,193.8,73.5,193.9,73.9"/>
	<path fill="#5E318D" d="M201.6,65.7c1.4,0,2.6-0.6,3.4-1.6c-0.8-0.2-1.6-0.3-2.4-0.3c-1,0-2,0.2-2.9,0.5c0.3,0.4,0.5,0.8,0.6,1.3
		C200.7,65.7,201.1,65.7,201.6,65.7"/>
	<path fill="#5E318D" d="M200.3,65.5c-0.2-0.4-0.4-0.9-0.6-1.3c-0.3,0.1-0.6,0.2-0.9,0.4C199.2,65.1,199.7,65.4,200.3,65.5"/>
	<path fill="#B0A0C6" d="M219.9,86.7c0-0.1-0.1-0.2-0.1-0.3C219.8,86.5,219.9,86.6,219.9,86.7"/>
	<path fill="#B0A0C6" d="M223.4,76.2c-1.6-0.3-2.9-1.1-3.9-2.2v9.2c0,0.6,0,1.2,0.1,1.8c0-0.3,0-0.6,0-0.9
		C219.5,80.8,221,78,223.4,76.2"/>
	<path fill="#B0A0C6" d="M220,87.1c0,0.1,0.1,0.3,0.1,0.4h0C220.1,87.4,220.1,87.3,220,87.1"/>
	<path fill="#B0A0C6" d="M219.7,85.6c0-0.1,0-0.2,0-0.3C219.6,85.4,219.6,85.5,219.7,85.6"/>
	<path fill="#74509F" d="M248.7,55.3c0.1,0.4,0.2,0.8,0.4,1.2c2.1,0.3,4,0.9,5.8,1.8c1.3-0.7,2.3-2.1,2.3-3.8c0-2.4-1.9-4.3-4.3-4.3
		c-0.8,0-1.5,0.2-2.1,0.6c0.4,0.5,0.6,1.1,0.6,1.8C251.4,54,250.2,55.2,248.7,55.3"/>
	<path fill="#937BB3" d="M255.6,45.9c-0.2-2-1.8-3.5-3.8-3.5c-2.1,0-3.9,1.7-3.9,3.9c0,1.6,0.9,2.9,2.3,3.5
		C251.6,48.1,253.4,46.7,255.6,45.9"/>
	<path fill="#74509F" d="M255.4,47.5c0-0.2,0.1-0.5,0.2-0.7c0-0.2,0-0.3,0-0.5c0-0.1,0-0.3,0-0.4c-2.1,0.8-4,2.2-5.4,3.9
		c0.5,0.2,1,0.3,1.6,0.3C253.4,50.1,254.9,49,255.4,47.5"/>
	<path fill="#937BB3" d="M255.4,47.5c0.1-0.2,0.1-0.5,0.2-0.7C255.5,47,255.4,47.2,255.4,47.5"/>
	<path fill="#937BB3" d="M235.8,59.5c1.8-1.2,3.7-2.1,5.8-2.6c0-0.1,0-0.2,0-0.3c0-2.4-1.9-4.3-4.3-4.3c-2.1,0-3.8,1.5-4.2,3.4
		C234.3,56.8,235.2,58.1,235.8,59.5"/>
	<path fill="#937BB3" d="M234.9,60.1c0.3-0.2,0.6-0.4,0.9-0.6c-0.6-1.4-1.5-2.7-2.7-3.8c-0.1,0.3-0.1,0.6-0.1,0.8
		C233,58.1,233.8,59.3,234.9,60.1"/>
	<path fill="#937BB3" d="M210.1,44.3c0,1.1,0.9,1.9,1.9,1.9c1.1,0,1.9-0.9,1.9-1.9c0-1-0.8-1.9-1.9-1.9c-0.3,0-0.5,0.1-0.8,0.2
		c-0.1,0-0.2,0.1-0.3,0.2C210.5,43.1,210.1,43.7,210.1,44.3"/>
	<path fill="#5E318D" d="M216,49.8c0,1,0.9,1.9,1.9,1.9c1.1,0,1.9-0.9,1.9-1.9c0-1.1-0.8-1.9-1.9-1.9C216.9,47.9,216,48.7,216,49.8"
		/>
	<path fill="#74509F" d="M241.1,51.9c0,1,0.9,1.9,1.9,1.9s1.9-0.9,1.9-1.9c0-1-0.9-1.9-1.9-1.9S241.1,50.9,241.1,51.9"/>
	<path fill="#5E318D" d="M242.2,46.5c0-0.7-0.6-1.3-1.3-1.3c-0.7,0-1.3,0.6-1.3,1.3c0,0.7,0.6,1.3,1.3,1.3
		C241.6,47.7,242.2,47.2,242.2,46.5"/>
	<path fill="#937BB3" d="M218.8,41.5c0,0.7,0.6,1.3,1.3,1.3c0.7,0,1.3-0.6,1.3-1.3c0-0.5-0.3-0.9-0.7-1.1c-0.4,0-0.8,0-1.2,0
		C219.1,40.6,218.8,41,218.8,41.5"/>
	<path fill="#EF689E" d="M238.7,51.4c1.1,0,1.9-0.8,1.9-1.9c0-1-0.9-1.9-1.9-1.9c-0.5,0-1,0.2-1.3,0.5c-0.1,0.1-0.2,0.2-0.3,0.3
		c-0.2,0.3-0.3,0.7-0.3,1C236.8,50.5,237.6,51.4,238.7,51.4"/>
	<path fill="#937BB3" d="M264.3,45.4c0,0.1,0,0.2,0,0.3c1,0.3,2,0.8,2.9,1.3c0.1-0.1,0.2-0.1,0.3-0.2c0.4-0.3,0.6-0.8,0.6-1.4
		c0-0.5-0.2-0.9-0.5-1.2c-0.2-0.2-0.5-0.4-0.7-0.5c-0.2-0.1-0.5-0.2-0.7-0.2C265.1,43.4,264.3,44.3,264.3,45.4"/>
	<path fill="#74509F" d="M264.7,46.5c0.3,0.4,0.9,0.7,1.5,0.7c0.3,0,0.6-0.1,0.9-0.2c0,0,0.1-0.1,0.1-0.1c-0.9-0.5-1.9-1-2.9-1.3
		c0,0,0,0.1,0,0.1C264.5,46,264.6,46.2,264.7,46.5"/>
	<path fill="#937BB3" d="M264.7,46.5c-0.1-0.3-0.2-0.5-0.4-0.8C264.4,46,264.5,46.3,264.7,46.5"/>
	<path fill="#EF689E" d="M270.7,50.2c0.2-0.4,0.4-0.8,0.4-1.3c0-1.3-1.1-2.4-2.4-2.4c-0.4,0-0.9,0.1-1.2,0.3
		c-0.1,0.1-0.2,0.2-0.3,0.2C268.6,47.8,269.8,48.9,270.7,50.2"/>
	<path fill="#ED408E" d="M267.2,47c0,0-0.1,0-0.1,0.1c-0.5,0.4-0.9,1.1-0.9,1.8c0,1.3,1.1,2.4,2.4,2.4c0.9,0,1.6-0.5,2.1-1.1
		C269.8,48.9,268.6,47.8,267.2,47"/>
	<path fill="#EF689E" d="M267.5,46.8c-0.1,0.1-0.2,0.1-0.3,0.2c0,0,0,0,0,0C267.3,46.9,267.4,46.8,267.5,46.8"/>
	<path fill="#EF689E" d="M267.2,47C267.2,47,267.2,47,267.2,47c-0.1,0-0.1,0-0.1,0.1C267.1,47,267.2,47,267.2,47"/>
	<path fill="#ED408E" d="M243.4,44.5c0,1.3,1.1,2.4,2.4,2.4c1.3,0,2.4-1.1,2.4-2.4c0-1.3-1.1-2.4-2.4-2.4c-0.3,0-0.5,0.1-0.8,0.1
		c-0.2,0.1-0.3,0.1-0.4,0.2C243.8,42.8,243.4,43.6,243.4,44.5"/>
	<path fill="#937BB3" d="M256.3,44.5c1.2,0,2.1-0.9,2.1-2.1c0-1.2-1-2.1-2.1-2.1c-1.2,0-2.1,0.9-2.1,2.1
		C254.2,43.6,255.1,44.5,256.3,44.5"/>
	<path fill="#EF689E" d="M216.1,43.9c0.8,0,1.5-0.7,1.5-1.5c0-0.8-0.7-1.5-1.5-1.5c-0.8,0-1.5,0.7-1.5,1.5
		C214.7,43.2,215.3,43.9,216.1,43.9"/>
	<path fill="#EF689E" d="M220,47.6c0.8,0,1.5-0.7,1.5-1.5c0-0.8-0.7-1.5-1.5-1.5c-0.8,0-1.5,0.7-1.5,1.5
		C218.6,46.9,219.2,47.6,220,47.6"/>
	<path fill="#EF689E" d="M224.5,44.7c0.8,0,1.5-0.7,1.5-1.5c0-0.8-0.7-1.5-1.5-1.5c-0.8,0-1.5,0.7-1.5,1.5
		C223,44,223.7,44.7,224.5,44.7"/>
	<path fill="#EF689E" d="M202.5,81.3c-1.9,0-3.7-0.6-5.1-1.7c-0.7,5.3-5.1,9.4-10.6,9.5c1.2,2,3.1,3.5,5.4,4.2
		c0.9,0.3,1.9,0.4,3,0.4c1.6,0,3.1-0.3,4.4-0.9c2.4-1.2,4.3-3.3,5.2-5.9c0-0.1,0.1-0.2,0.1-0.3c0,0,0-0.1,0-0.1
		c0.2-0.9,0.4-1.8,0.4-2.9c0-1-0.2-1.9-0.4-2.8C204.2,81.1,203.4,81.3,202.5,81.3"/>
	<path fill="#EF689E" d="M194,74.4c-0.5,0-1-0.1-1.4-0.2c-4.1,1.2-7.2,4.9-7.3,9.4c0,1.3,0.2,2.4,0.5,3.4c0.2,0.7,0.6,1.4,1,2
		c5.4-0.1,9.9-4.2,10.6-9.5C195.7,78.3,194.5,76.5,194,74.4"/>
	<path fill="#EF689E" d="M192.6,74.2c0.5,0.1,0.9,0.2,1.4,0.2c0-0.2-0.1-0.3-0.1-0.5C193.5,74,193,74.1,192.6,74.2"/>
	<path fill="#ED408E" d="M197.5,78.2c0,0.5,0,0.9-0.1,1.4c1.4,1.1,3.2,1.7,5.1,1.7c0.8,0,1.6-0.1,2.4-0.3c-1.1-3.7-4.3-6.5-8.3-7
		c0,0,0,0,0,0C197.2,75.2,197.5,76.7,197.5,78.2"/>
	<path fill="#ED408E" d="M196.6,73.9c-0.8,0.3-1.6,0.5-2.5,0.5c-0.1,0-0.1,0-0.2,0c0.5,2.1,1.7,3.9,3.4,5.2c0.1-0.5,0.1-0.9,0.1-1.4
		C197.5,76.7,197.2,75.2,196.6,73.9"/>
	<path fill="#EF689E" d="M196.6,73.9C196.7,73.9,196.7,73.9,196.6,73.9C196.7,73.9,196.7,73.9,196.6,73.9
		C196.6,73.9,196.6,73.9,196.6,73.9"/>
	<path fill="#ED408E" d="M193.9,73.9c0,0.2,0,0.3,0.1,0.5c0.1,0,0.1,0,0.2,0c0.9,0,1.7-0.2,2.5-0.5c0,0,0,0,0,0
		c-0.4-0.1-0.8-0.1-1.3-0.1C194.9,73.8,194.4,73.9,193.9,73.9"/>
	<path fill="#74509F" d="M228.4,82.6c-1.4,2.9-4.4,5-7.9,5c-0.1,0-0.2,0-0.3,0c0.8,2.2,2.4,4,4.5,5.2c1.4,0.7,3,1,4.8,1
		c1.7,0,3.2-0.3,4.4-0.8c0.7-0.3,1.3-0.7,1.8-1.2C232.4,89.6,229.8,86.4,228.4,82.6"/>
	<path fill="#74509F" d="M224.5,76.3c-0.4,0-0.8,0-1.1-0.1c-2.4,1.8-3.9,4.7-3.9,7.9c0,0.3,0,0.6,0,0.9c0,0.1,0,0.2,0.1,0.4
		c0,0.1,0,0.2,0,0.3c0,0.3,0.1,0.5,0.2,0.8c0,0.1,0,0.2,0.1,0.3c0,0.2,0.1,0.3,0.1,0.4c0,0.1,0.1,0.3,0.2,0.4c0.1,0,0.2,0,0.3,0
		c3.5,0,6.5-2,7.9-5c-0.8-2.1-1.3-4.4-1.3-6.8C226.3,76.1,225.4,76.3,224.5,76.3"/>
	<path fill="#ED408E" d="M273.5,83.7c-3.1,0-6-1.2-8.3-3c-1.2,4.6-4.1,8.5-7.9,11.1c0.2,0.1,0.4,0.3,0.6,0.4c1.6,1,3.5,1.5,5.7,1.5
		c2.1,0,3.9-0.5,5.3-1.3c2.2-1.4,3.8-3.6,4.4-6.1c0-0.2,0.1-0.3,0.1-0.5c0-0.1,0-0.3,0.1-0.5c0-0.2,0-0.3,0.1-0.5c0-0.3,0-0.6,0-0.9
		C273.5,83.9,273.5,83.8,273.5,83.7"/>
	<path fill="#ED408E" d="M265.2,80.7c2.3,1.9,5.1,3,8.3,3c-0.1-4.6-3.4-8.4-7.7-9.4c0,0.4,0,0.9,0,1.3
		C265.8,77.4,265.6,79.1,265.2,80.7"/>
	<path fill="#937BB3" d="M253.7,85.5C253.7,85.5,253.7,85.5,253.7,85.5C253.7,85.5,253.7,85.5,253.7,85.5"/>
	<path fill="#937BB3" d="M254.4,88c0.6,1.6,1.6,2.8,2.9,3.8c0,0,0,0,0,0C256,90.8,255,89.5,254.4,88"/>
	<path fill="#74509F" d="M261,74.4c-0.3-1-0.5-2-0.5-3.1c0,0-0.1,0-0.2,0c-2.5,0-4.8-0.7-6.8-1.9v13.7c0,0.6,0,1.2,0.1,1.7
		c0-0.3,0-0.6,0-0.8C253.5,79.4,256.7,75.5,261,74.4"/>
	<path fill="#937BB3" d="M246.5,56.3c-1.7,0-3.3,0.2-4.9,0.6c-0.2,2.2-2,4-4.3,4c-0.4,0-0.8-0.1-1.2-0.2c0.2,0.9,0.4,1.8,0.4,2.7
		c0,4.2-2.6,7.9-6.2,9.5c-0.3,0.4-0.6,0.9-0.9,1.2h0c5.4,0,9.8,4.3,9.9,9.7c0-0.1,0-0.3,0-0.4V65.7
		C239.4,59.4,241.6,56.3,246.5,56.3c0.3,0.1,0.6,0.1,0.8,0.1c0,0,0,0,0-0.1C247,56.3,246.8,56.3,246.5,56.3"/>
	<path fill="#937BB3" d="M254.3,87.7c0-0.1-0.1-0.2-0.1-0.3C254.2,87.5,254.2,87.6,254.3,87.7"/>
	<path fill="#5E318D" d="M229.9,65.7c0.8,1.1,1.3,2.5,1.3,3.9c0,1.2-0.3,2.3-0.8,3.2c3.7-1.6,6.2-5.2,6.2-9.5c0-0.9-0.1-1.8-0.4-2.7
		c-0.5-0.1-0.9-0.3-1.3-0.6C232.9,61.6,231.2,63.5,229.9,65.7"/>
	<path fill="#74509F" d="M261,74.4c0.8-0.2,1.6-0.3,2.5-0.3c0.8,0,1.5,0.1,2.3,0.3c-0.1-1.4-0.3-2.7-0.7-3.9c-1.4,0.6-3,0.9-4.6,0.9
		C260.5,72.4,260.7,73.4,261,74.4"/>
	<path fill="#5E318D" d="M260.5,71.3c0-0.2,0-0.5,0-0.7c0-2.3,0.6-4.5,1.7-6.4c-1.9-2.5-4.3-4.6-7.2-6c-0.6,0.3-1.3,0.5-2,0.5
		c-0.3,0-0.6,0-0.9-0.1c1.1,1.5,1.5,3.8,1.5,6.9v3.9c2,1.2,4.3,1.9,6.8,1.9C260.4,71.3,260.4,71.3,260.5,71.3"/>
	<path fill="#5E318D" d="M260.5,70.6c0,0.2,0,0.5,0,0.7c1.6,0,3.2-0.3,4.6-0.9c-0.6-2.3-1.7-4.3-3-6.2
		C261.1,66.1,260.5,68.3,260.5,70.6"/>
	<path fill="#5E318D" d="M249.3,56.7c1.1,0.4,2,1,2.7,1.9c0.3,0.1,0.6,0.1,0.9,0.1c0.7,0,1.4-0.2,2-0.5c-1.8-0.9-3.8-1.5-5.8-1.7
		C249.1,56.6,249.2,56.6,249.3,56.7"/>
	<path fill="#74509F" d="M236.2,60.7c0.4,0.1,0.8,0.2,1.2,0.2c2.3,0,4.1-1.7,4.3-4c-2.1,0.5-4.1,1.4-5.8,2.6
		C235.9,59.9,236.1,60.3,236.2,60.7"/>
	<path fill="#74509F" d="M234.9,60.1c0.4,0.3,0.8,0.5,1.3,0.6c-0.1-0.4-0.2-0.8-0.4-1.2C235.5,59.7,235.2,59.9,234.9,60.1"/>
	<path fill="#5E318D" d="M229.5,74.1L229.5,74.1c-0.3,0.4-0.7,0.7-1.1,1c0.5,1.1,0.9,2.4,0.9,3.8c0,1.4-0.3,2.6-0.9,3.8
		c1.4,3.8,4,7,7.3,9.2c1.7-1.3,2.9-3.2,3.4-5.3c0.2-0.8,0.3-1.7,0.3-2.7C239.3,78.4,234.9,74.1,229.5,74.1"/>
	<path fill="#5E318D" d="M228.3,75c-0.4,0.3-0.8,0.5-1.3,0.7c0,2.4,0.5,4.7,1.3,6.8c0.6-1.1,0.9-2.4,0.9-3.8
		C229.2,77.5,228.9,76.2,228.3,75"/>
	<path fill="#5E318D" d="M261,74.4c-4.3,1.1-7.5,5-7.5,9.6c0,0.3,0,0.5,0,0.8c0,0.2,0,0.4,0.1,0.6c0,0,0,0,0,0.1
		c0.1,0.7,0.3,1.3,0.5,1.9c0,0.1,0.1,0.2,0.1,0.3c0,0.1,0.1,0.2,0.1,0.3c0.7,1.5,1.6,2.8,2.9,3.8c3.8-2.6,6.7-6.5,7.9-11.1
		C263.2,79.1,261.8,76.9,261,74.4"/>
	<path fill="#5E318D" d="M261,74.4c0.8,2.5,2.2,4.7,4.2,6.3c0.4-1.6,0.7-3.3,0.7-5c0-0.5,0-0.9,0-1.4c-0.7-0.2-1.5-0.3-2.3-0.3
		C262.6,74,261.8,74.2,261,74.4"/>
	<path fill="#EF689E" d="M227.2,73.3c0.3-2.8,1.3-5.3,2.6-7.6c-1.2-1.6-3.2-2.7-5.4-2.7c-2,0-3.9,0.9-5.1,2.4c0,0.3,0,0.6,0,0.9v4
		c0.3,0,0.7-0.1,1-0.1C223.2,70.1,225.6,71.3,227.2,73.3"/>
	<path fill="#EF689E" d="M223.4,76.2c1.1-0.8,2.4-1.5,3.8-1.8c0-0.2,0-0.5,0.1-0.7c-0.3,0-0.6,0-0.9,0c-2.6,0-5-1-6.8-2.6v2.8
		C220.4,75.1,221.8,75.9,223.4,76.2"/>
	<path fill="#EF689E" d="M227.2,73.6c0-0.1,0-0.2,0-0.4c-1.6-2-4-3.2-6.8-3.2c-0.3,0-0.7,0-1,0.1v1c1.8,1.6,4.2,2.6,6.8,2.6
		C226.6,73.7,226.9,73.7,227.2,73.6"/>
	<path fill="#EF689E" d="M227.1,74.4c-1.4,0.3-2.7,1-3.8,1.8c0.4,0.1,0.7,0.1,1.1,0.1c0.9,0,1.8-0.2,2.6-0.5c0,0,0-0.1,0-0.1
		C227.1,75.2,227.1,74.8,227.1,74.4"/>
	<path fill="#ED408E" d="M227.9,74.2c0.5-0.1,1-0.1,1.5-0.1c0.3-0.4,0.6-0.8,0.9-1.2c-0.9,0.4-1.9,0.6-2.8,0.8
		C227.6,73.8,227.8,74,227.9,74.2"/>
	<path fill="#ED408E" d="M229.9,65.7c-1.4,2.3-2.3,4.9-2.6,7.6c0.1,0.1,0.2,0.2,0.2,0.3c1-0.1,2-0.4,2.9-0.8c0.5-1,0.8-2.1,0.8-3.2
		C231.2,68.1,230.7,66.8,229.9,65.7"/>
	<path fill="#ED408E" d="M227.5,73.6c-0.1,0-0.2,0-0.3,0c0,0.2,0,0.5-0.1,0.7c0.3-0.1,0.5-0.1,0.8-0.1
		C227.8,74,227.6,73.8,227.5,73.6"/>
	<path fill="#ED408E" d="M227.2,73.3c0,0.1,0,0.2,0,0.4c0.1,0,0.2,0,0.3,0C227.4,73.5,227.3,73.4,227.2,73.3"/>
	<path fill="#ED408E" d="M228.3,75c0.4-0.3,0.8-0.6,1.1-1c-0.5,0-1,0.1-1.5,0.1C228.1,74.5,228.2,74.8,228.3,75"/>
	<path fill="#ED408E" d="M227.1,74.4c0,0.4,0,0.9,0,1.3c0,0,0,0.1,0,0.1c0.5-0.2,0.9-0.4,1.3-0.7c-0.1-0.3-0.3-0.6-0.4-0.8
		C227.6,74.3,227.4,74.3,227.1,74.4"/>
	<path fill="#EF689E" d="M248.6,49.7c-1.5,0-2.8,1.2-2.8,2.8c0,1.2,0.7,2.1,1.7,2.6c0.5-1.8,1.3-3.5,2.4-5
		C249.6,49.9,249.1,49.7,248.6,49.7"/>
	<path fill="#EF689E" d="M248.7,55.3c-0.1-0.3-0.1-0.5-0.1-0.8c0-1.6,0.9-3,2.1-3.7c-0.2-0.3-0.5-0.5-0.8-0.7c-1.1,1.5-2,3.1-2.4,5
		C247.9,55.2,248.2,55.3,248.7,55.3L248.7,55.3"/>
	<path fill="#ED408E" d="M248.6,54.4c0,0.3,0,0.6,0.1,0.8c1.5,0,2.7-1.3,2.7-2.8c0-0.7-0.2-1.3-0.6-1.8
		C249.5,51.5,248.6,52.9,248.6,54.4"/>
</g>
<g>
</g>
<g>
</g>
<g>
</g>
<g>
</g>
<g>
</g>
<g>
</g>
<g>
</g>
<g>
</g>
<g>
</g>
<g>
</g>
</svg>
