<?xml version="1.0" encoding="utf-8"?>
<!-- Generator: Adobe Illustrator 18.1.1, SVG Export Plug-In . SVG Version: 6.00 Build 0)  -->
<svg version="1.1" id="Jerroms" xmlns="http://www.w3.org/2000/svg" xmlns:xlink="http://www.w3.org/1999/xlink" x="0px" y="0px"
	 viewBox="0 0 390 150" enable-background="new 0 0 390 150" xml:space="preserve">
<g>
	<path fill="#405052" d="M33.8,88.8c7.6-4.2,9.1-9.3,9.1-17.4V36.7h5.2v34.6c0,9.5-1.7,16.6-12.1,21.3L33.8,88.8z"/>
	<path fill="#405052" d="M58.1,36.7h24.8v4.2H63.2v15.7h18.3v4.3H63.2v15.8h21.1v4.3H58.1V36.7z"/>
	<path fill="#405052" d="M113.2,72.2l-6.6-9.2c-1.1,0.2-2.8,0.3-4.1,0.3h-6.1v17.6h-5.1V36.7h14.4c8.4,0,14.3,4,14.3,12.9
		c0,5.2-2.4,9.9-8.3,12.1l5.9,8.1c2.9,3.8,5.5,6.6,9.7,7.8l-1.1,3.9C120.9,81,117.2,77.6,113.2,72.2z M102.9,59
		c6.8,0,11.8-2.1,11.8-9c0-6.8-3.6-9.1-10.3-9.1h-7.9V59H102.9z"/>
	<path fill="#405052" d="M153.3,72.2l-6.6-9.2c-1.1,0.2-2.8,0.3-4.1,0.3h-6.1v17.6h-5.1V36.7h14.4c8.4,0,14.3,4,14.3,12.9
		c0,5.2-2.4,9.9-8.3,12.1l5.9,8.1c2.9,3.8,5.5,6.6,9.7,7.8l-1.1,3.9C161,81,157.2,77.6,153.3,72.2z M143,59c6.8,0,11.8-2.1,11.8-9
		c0-6.8-3.6-9.1-10.3-9.1h-7.9V59H143z"/>
	<path fill="#405052" d="M168.2,58.7c0-13.8,8.9-22.6,22.5-22.6c14.3,0,21.8,9.9,21.8,22.8c0,13.5-8.5,22.8-22.6,22.8
		C176.1,81.7,168.2,72.2,168.2,58.7z M207.3,58.8c0-10.5-6-18.4-16.8-18.4c-11.4,0-17.1,7.9-17.1,18.3c0,10.1,5.6,18.8,16.7,18.8
		C201.8,77.4,207.3,69.3,207.3,58.8z"/>
	<path fill="#405052" d="M219.8,36.7h6.9l15.1,41.1l17-41.1h6.6v44.2h-5.2V51.2l0.2-6.8h-0.2l-14.9,36.5H238l-13.2-36.6h-0.2
		l0.3,6.1v30.5h-5.1V36.7z"/>
	<path fill="#405052" d="M272,78.6l1.6-4.3c3.3,1.6,6.6,2.8,10.8,2.8c4.9,0,10.4-1.9,10.4-7.6c0-11.1-21.7-8.1-21.7-22.6
		c0-7.1,6.1-10.9,13.2-10.9c5,0,8.2,1,10.9,2.4l-1.6,4c-2.9-1.3-5.7-2.1-9.2-2.1c-4.6,0-8.4,2-8.4,6.5c0,9.9,21.9,8.3,21.9,22.3
		c0,8.4-7.1,12.4-15.6,12.4C278.8,81.7,274.5,80.2,272,78.6z"/>
</g>
<g>
	<path fill="#929497" d="M183.1,96.1h1.1l2.1,5.8h-0.9l-0.7-2h-2.2l-0.8,2h-0.9L183.1,96.1z M184.5,99.2l-0.8-2.5l-0.9,2.5H184.5z"
		/>
	<path fill="#929497" d="M186.9,99c0-1.8,1.1-3,3.1-3c0.9,0,1.4,0.2,1.7,0.3l-0.3,0.7c-0.5-0.1-0.8-0.3-1.5-0.3
		c-1.2,0-2.2,0.6-2.2,2.2c0,1.6,1,2.3,2.3,2.3c0.6,0,1-0.1,1.4-0.2l0.2,0.7c-0.4,0.2-0.9,0.3-1.7,0.3C188,102,186.9,100.8,186.9,99z
		"/>
	<path fill="#929497" d="M192.4,99c0-1.8,1.1-3,3.1-3c0.9,0,1.4,0.2,1.7,0.3l-0.3,0.7c-0.5-0.1-0.8-0.3-1.5-0.3
		c-1.2,0-2.2,0.6-2.2,2.2c0,1.6,1,2.3,2.3,2.3c0.6,0,1-0.1,1.4-0.2l0.2,0.7c-0.4,0.2-0.9,0.3-1.7,0.3
		C193.5,102,192.4,100.8,192.4,99z"/>
	<path fill="#929497" d="M197.9,99c0-1.8,1.2-3,3-3c1.9,0,2.9,1.3,2.9,3c0,1.8-1.1,3-3.1,3C198.9,102,197.9,100.8,197.9,99z M203,99
		c0-1.3-0.7-2.3-2.1-2.3c-1.4,0-2.1,1-2.1,2.3c0,1.2,0.7,2.3,2,2.3C202.3,101.3,203,100.3,203,99z"/>
	<path fill="#929497" d="M205,99.8v-3.7h0.9v3.6c0,1.2,0.7,1.5,1.5,1.5c0.9,0,1.6-0.4,1.6-1.7v-3.5h0.9v3.5c0,1.9-1.3,2.4-2.4,2.4
		C206.3,102,205,101.5,205,99.8z"/>
	<path fill="#929497" d="M211.5,96.1h1.1l2.8,4.8h0l0-0.7v-4h0.9v5.8h-1.1l-2.8-4.7h0l0,0.7v4h-0.9V96.1z"/>
	<path fill="#929497" d="M219.1,96.8h-1.9v-0.7h4.8v0.7H220v5.1h-0.9V96.8z"/>
	<path fill="#929497" d="M223.9,96.1h1.1l2.1,5.8h-0.9l-0.7-2h-2.2l-0.8,2h-0.9L223.9,96.1z M225.3,99.2l-0.8-2.5l-0.9,2.5H225.3z"
		/>
	<path fill="#929497" d="M228.1,96.1h1.1l2.8,4.8h0l0-0.7v-4h0.9v5.8h-1.1l-2.8-4.7h0l0,0.7v4h-0.9V96.1z"/>
	<path fill="#929497" d="M234.1,99c0-1.8,1.1-3,3.1-3c0.9,0,1.4,0.2,1.7,0.3l-0.3,0.7c-0.5-0.1-0.8-0.3-1.5-0.3
		c-1.2,0-2.2,0.6-2.2,2.2c0,1.6,1,2.3,2.3,2.3c0.6,0,1-0.1,1.4-0.2l0.2,0.7c-0.4,0.2-0.9,0.3-1.7,0.3
		C235.2,102,234.1,100.8,234.1,99z"/>
	<path fill="#929497" d="M241.4,99.8l-2-3.7h1l1.4,3l1.5-3h1l-2.1,3.7v2.1h-0.9V99.8z"/>
	<path fill="#929497" d="M186.1,107.6h-1.9v-0.7h4.8v0.7H187v5.1h-0.9V107.6z"/>
	<path fill="#929497" d="M191,106.9h1.1l2.1,5.8h-0.9l-0.7-2h-2.2l-0.8,2h-0.9L191,106.9z M192.4,110l-0.8-2.5l-0.9,2.5H192.4z"/>
	<path fill="#929497" d="M196.4,109.7l-1.7-2.8h1l1.2,2.1l1.3-2.1h1l-1.8,2.8l1.9,3.1h-1l-1.4-2.4l-1.5,2.4h-1L196.4,109.7z"/>
	<path fill="#929497" d="M202.4,106.9h2c1.2,0,2,0.7,2,1.9c0,1.1-0.8,2-2.4,2h-0.4v-0.7h0.4c0.9,0,1.5-0.4,1.5-1.2
		c0-0.8-0.4-1.2-1.3-1.2h-0.9v5.1h-0.9V106.9z"/>
	<path fill="#929497" d="M207.5,106.9h0.9v5.1h2.5v0.7h-3.4V106.9z"/>
	<path fill="#929497" d="M213.5,106.9h1.1l2.1,5.8h-0.9l-0.7-2h-2.2l-0.8,2h-0.9L213.5,106.9z M214.8,110l-0.8-2.5l-0.9,2.5H214.8z"
		/>
	<path fill="#929497" d="M217.6,106.9h1.1l2.8,4.8h0l0-0.7v-4h0.9v5.8h-1.1l-2.8-4.7h0l0,0.7v4h-0.9V106.9z"/>
	<path fill="#929497" d="M224.1,106.9h1.1l2.8,4.8h0l0-0.7v-4h0.9v5.8h-1.1l-2.8-4.7h0l0,0.7v4h-0.9V106.9z"/>
	<path fill="#929497" d="M230.5,106.9h0.9v5.8h-0.9V106.9z"/>
	<path fill="#929497" d="M233,106.9h1.1l2.8,4.8h0l0-0.7v-4h0.9v5.8h-1.1l-2.8-4.7h0l0,0.7v4H233V106.9z"/>
	<path fill="#929497" d="M239.1,109.9c0-1.9,1.1-3,3.1-3c0.9,0,1.3,0.1,1.7,0.3l-0.2,0.7c-0.4-0.1-0.8-0.3-1.5-0.3
		c-1.2,0-2.2,0.6-2.2,2.2c0,1.6,1,2.3,2.3,2.3c0.3,0,0.6,0,0.8-0.1v-2.1h0.9v2.7c-0.5,0.2-1.1,0.3-1.8,0.3
		C240.2,112.8,239.1,111.7,239.1,109.9z"/>
	<path fill="#929497" d="M161.8,117.7h1.7c1.3,0,2,0.6,2,1.5c0,0.6-0.3,1-0.8,1.2v0c0.5,0.1,1.2,0.6,1.2,1.4c0,1-0.6,1.7-2.1,1.7h-2
		V117.7z M163.5,120.2c0.7,0,1-0.3,1-0.9c0-0.7-0.4-0.9-1.3-0.9h-0.6v1.8H163.5z M163.6,122.8c0.8,0,1.4-0.2,1.4-1
		c0-0.7-0.5-1-1.5-1h-0.8v1.9H163.6z"/>
	<path fill="#929497" d="M167,121.4v-3.7h0.9v3.6c0,1.2,0.7,1.5,1.5,1.5c0.9,0,1.6-0.4,1.6-1.7v-3.5h0.9v3.5c0,1.9-1.3,2.4-2.4,2.4
		C168.3,123.7,167,123.2,167,121.4z"/>
	<path fill="#929497" d="M173,123.2l0.3-0.7c0.5,0.2,0.9,0.4,1.5,0.4c0.7,0,1.3-0.3,1.3-0.9c0-1.3-2.8-0.9-2.8-2.9
		c0-1,0.9-1.5,1.8-1.5c0.7,0,1.2,0.1,1.5,0.4l-0.3,0.7c-0.4-0.2-0.8-0.3-1.3-0.3c-0.6,0-1,0.3-1,0.8c0,1.2,2.9,1,2.9,2.8
		c0,1.2-1,1.7-2.2,1.7C173.9,123.7,173.3,123.5,173,123.2z"/>
	<path fill="#929497" d="M178,117.7h0.9v5.8H178V117.7z"/>
	<path fill="#929497" d="M180.5,117.7h1.1l2.8,4.8h0l0-0.7v-4h0.9v5.8h-1.1l-2.8-4.7h0l0,0.7v4h-0.9V117.7z"/>
	<path fill="#929497" d="M187,117.7h3.4v0.7h-2.5v1.8h2.4v0.7h-2.4v1.9h2.7v0.7H187V117.7z"/>
	<path fill="#929497" d="M191.4,123.2l0.3-0.7c0.5,0.2,0.9,0.4,1.5,0.4c0.7,0,1.3-0.3,1.3-0.9c0-1.3-2.8-0.9-2.8-2.9
		c0-1,0.9-1.5,1.8-1.5c0.7,0,1.2,0.1,1.5,0.4l-0.3,0.7c-0.4-0.2-0.8-0.3-1.3-0.3c-0.6,0-1,0.3-1,0.8c0,1.2,2.9,1,2.9,2.8
		c0,1.2-1,1.7-2.2,1.7C192.3,123.7,191.7,123.5,191.4,123.2z"/>
	<path fill="#929497" d="M195.9,123.2l0.3-0.7c0.5,0.2,0.9,0.4,1.5,0.4c0.7,0,1.3-0.3,1.3-0.9c0-1.3-2.8-0.9-2.8-2.9
		c0-1,0.9-1.5,1.8-1.5c0.7,0,1.2,0.1,1.5,0.4l-0.3,0.7c-0.4-0.2-0.8-0.3-1.3-0.3c-0.6,0-1,0.3-1,0.8c0,1.2,2.9,1,2.9,2.8
		c0,1.2-1,1.7-2.2,1.7C196.9,123.7,196.3,123.5,195.9,123.2z"/>
	<path fill="#929497" d="M204.5,117.7h1.1l2.1,5.8h-0.9l-0.7-2h-2.2l-0.8,2h-0.9L204.5,117.7z M205.9,120.8l-0.8-2.5l-0.9,2.5H205.9
		z"/>
	<path fill="#929497" d="M208.6,117.7h1.7c1.9,0,3.3,0.9,3.3,2.9c0,2-1.3,2.9-3.3,2.9h-1.8V117.7z M210.5,122.8
		c1.5,0,2.3-0.7,2.3-2.1c0-1.5-0.9-2.3-2.4-2.3h-0.8v4.4H210.5z"/>
	<path fill="#929497" d="M214.2,117.7h1l1.7,5.1l2-5.1h0.9l-2.3,5.8h-1.2L214.2,117.7z"/>
	<path fill="#929497" d="M220.6,117.7h0.9v5.8h-0.9V117.7z"/>
	<path fill="#929497" d="M222.6,123.2l0.3-0.7c0.5,0.2,0.9,0.4,1.5,0.4c0.7,0,1.3-0.3,1.3-0.9c0-1.3-2.8-0.9-2.8-2.9
		c0-1,0.9-1.5,1.8-1.5c0.7,0,1.2,0.1,1.5,0.4l-0.3,0.7c-0.4-0.2-0.8-0.3-1.3-0.3c-0.6,0-1,0.3-1,0.8c0,1.2,2.9,1,2.9,2.8
		c0,1.2-1,1.7-2.2,1.7C223.5,123.7,223,123.5,222.6,123.2z"/>
	<path fill="#929497" d="M227.3,120.6c0-1.8,1.2-3,3-3c1.9,0,2.9,1.3,2.9,3c0,1.8-1.1,3-3.1,3C228.3,123.7,227.3,122.4,227.3,120.6z
		 M232.3,120.6c0-1.3-0.7-2.3-2.1-2.3c-1.4,0-2.1,1-2.1,2.3c0,1.2,0.7,2.3,2,2.3C231.7,122.9,232.3,121.9,232.3,120.6z"/>
	<path fill="#929497" d="M237.4,122.4l-0.8-1.1c-0.1,0-0.3,0-0.5,0h-0.7v2.2h-0.9v-5.8h2c1.2,0,2,0.6,2,1.8c0,0.7-0.3,1.3-1.1,1.6
		l0.7,0.9c0.4,0.5,0.7,0.8,1.3,0.9l-0.2,0.7C238.4,123.6,237.9,123.1,237.4,122.4z M236.1,120.6c0.9,0,1.4-0.3,1.4-1.1
		c0-0.8-0.4-1.1-1.2-1.1h-0.9v2.2H236.1z"/>
	<path fill="#929497" d="M241.4,121.4l-2-3.7h1l1.4,3l1.5-3h1l-2.1,3.7v2.1h-0.9V121.4z"/>
	<path fill="#929497" d="M155.6,131.5c0-1.8,1.1-3,3.1-3c0.9,0,1.4,0.2,1.7,0.3l-0.3,0.7c-0.5-0.1-0.8-0.3-1.5-0.3
		c-1.2,0-2.2,0.6-2.2,2.2c0,1.6,1,2.3,2.3,2.3c0.6,0,1-0.1,1.4-0.2l0.2,0.7c-0.4,0.2-0.9,0.3-1.7,0.3
		C156.7,134.5,155.6,133.3,155.6,131.5z"/>
	<path fill="#929497" d="M161.1,131.4c0-1.8,1.2-3,3-3c1.9,0,2.9,1.3,2.9,3c0,1.8-1.1,3-3.1,3C162.1,134.5,161.1,133.3,161.1,131.4z
		 M166.2,131.5c0-1.3-0.7-2.3-2.1-2.3c-1.4,0-2.1,1-2.1,2.3c0,1.2,0.7,2.3,2,2.3C165.5,133.8,166.2,132.8,166.2,131.5z"/>
	<path fill="#929497" d="M171.2,133.2l-0.8-1.1c-0.1,0-0.3,0-0.5,0h-0.7v2.2h-0.9v-5.8h2c1.2,0,2,0.6,2,1.8c0,0.7-0.3,1.3-1.1,1.6
		l0.7,0.9c0.4,0.5,0.7,0.8,1.3,0.9l-0.2,0.7C172.3,134.4,171.7,133.9,171.2,133.2z M170,131.5c0.9,0,1.4-0.3,1.4-1.1
		c0-0.8-0.4-1.1-1.2-1.1h-0.9v2.2H170z"/>
	<path fill="#929497" d="M174.2,128.5h2c1.2,0,2,0.7,2,1.9c0,1.1-0.8,2-2.4,2h-0.4v-0.7h0.4c0.9,0,1.5-0.4,1.5-1.2
		c0-0.8-0.4-1.2-1.3-1.2h-0.9v5.1h-0.9V128.5z"/>
	<path fill="#929497" d="M178.9,131.4c0-1.8,1.2-3,3-3c1.9,0,2.9,1.3,2.9,3c0,1.8-1.1,3-3.1,3C179.9,134.5,178.9,133.3,178.9,131.4z
		 M183.9,131.5c0-1.3-0.7-2.3-2.1-2.3c-1.4,0-2.1,1-2.1,2.3c0,1.2,0.7,2.3,2,2.3C183.3,133.8,183.9,132.8,183.9,131.5z"/>
	<path fill="#929497" d="M188.9,133.2l-0.8-1.1c-0.1,0-0.3,0-0.5,0H187v2.2h-0.9v-5.8h2c1.2,0,2,0.6,2,1.8c0,0.7-0.3,1.3-1.1,1.6
		l0.7,0.9c0.4,0.5,0.7,0.8,1.3,0.9l-0.2,0.7C190,134.4,189.5,133.9,188.9,133.2z M187.7,131.5c0.9,0,1.4-0.3,1.4-1.1
		c0-0.8-0.4-1.1-1.2-1.1H187v2.2H187.7z"/>
	<path fill="#929497" d="M193.4,128.5h1.1l2.1,5.8h-0.9l-0.7-2h-2.2l-0.8,2h-0.9L193.4,128.5z M194.8,131.7l-0.8-2.5l-0.9,2.5H194.8
		z"/>
	<path fill="#929497" d="M198.4,129.3h-1.9v-0.7h4.8v0.7h-1.9v5.1h-0.9V129.3z"/>
	<path fill="#929497" d="M202.1,128.5h3.4v0.7H203v1.8h2.4v0.7H203v1.9h2.7v0.7h-3.6V128.5z"/>
	<path fill="#929497" d="M209,128.5h3.6v0.7h-2.7v2h2.5v0.7h-2.5v2.4H209V128.5z"/>
	<path fill="#929497" d="M213.8,128.5h0.9v5.8h-0.9V128.5z"/>
	<path fill="#929497" d="M216.3,128.5h1.1l2.8,4.8h0l0-0.7v-4h0.9v5.8H220l-2.8-4.7h0l0,0.7v4h-0.9V128.5z"/>
	<path fill="#929497" d="M224.3,128.5h1.1l2.1,5.8h-0.9l-0.7-2h-2.2l-0.8,2h-0.9L224.3,128.5z M225.6,131.7l-0.8-2.5l-0.9,2.5H225.6
		z"/>
	<path fill="#929497" d="M228.4,128.5h1.1l2.8,4.8h0l0-0.7v-4h0.9v5.8h-1.1l-2.8-4.7h0l0,0.7v4h-0.9V128.5z"/>
	<path fill="#929497" d="M234.5,131.5c0-1.8,1.1-3,3.1-3c0.9,0,1.4,0.2,1.7,0.3l-0.3,0.7c-0.5-0.1-0.8-0.3-1.5-0.3
		c-1.2,0-2.2,0.6-2.2,2.2c0,1.6,1,2.3,2.3,2.3c0.6,0,1-0.1,1.4-0.2l0.2,0.7c-0.4,0.2-0.9,0.3-1.7,0.3
		C235.6,134.5,234.5,133.3,234.5,131.5z"/>
	<path fill="#929497" d="M240.4,128.5h3.4v0.7h-2.5v1.8h2.4v0.7h-2.4v1.9h2.7v0.7h-3.6V128.5z"/>
</g>
<linearGradient id="SVGID_1_" gradientUnits="userSpaceOnUse" x1="-565.1373" y1="-172.554" x2="-579.1085" y2="-208.7149" gradientTransform="matrix(-1 -4.000000e-04 4.000000e-04 -1 -245.7468 -123.7277)">
	<stop  offset="0" style="stop-color:#695DA9"/>
	<stop  offset="1" style="stop-color:#482E87"/>
</linearGradient>
<path fill="url(#SVGID_1_)" d="M341,84.8L341,84.8c9.9-8.1,16.1-20.5,16.1-34.2l0-14.9l-44.3,0l0,59.2c0,9.9-3.2,19-8.7,26.4
	L341,84.8z"/>
<linearGradient id="SVGID_2_" gradientUnits="userSpaceOnUse" x1="694.4191" y1="-507.7914" x2="665.5831" y2="-552.4858" gradientTransform="matrix(0.9699 -0.2436 0.2436 0.9699 -243.1806 780.7131)">
	<stop  offset="0" style="stop-color:#002A41"/>
	<stop  offset="0.1008" style="stop-color:#1B4358"/>
	<stop  offset="0.2256" style="stop-color:#365A6E"/>
	<stop  offset="0.3628" style="stop-color:#4A6D7F"/>
	<stop  offset="0.517" style="stop-color:#597A8B"/>
	<stop  offset="0.7021" style="stop-color:#618292"/>
	<stop  offset="1" style="stop-color:#648494"/>
</linearGradient>
<path fill="url(#SVGID_2_)" d="M304.5,121.5L304.5,121.5c-8.1,9.9-20.5,16.1-34.2,16.1l-14.9,0l0-44.3l59.2,0c9.9,0,19-3.2,26.4-8.7
	L304.5,121.5z"/>
<g>
</g>
<g>
</g>
<g>
</g>
<g>
</g>
<g>
</g>
<g>
</g>
<g>
</g>
<g>
</g>
<g>
</g>
<g>
</g>
</svg>
