<?xml version="1.0" encoding="utf-8"?>
<!-- Generator: Adobe Illustrator 18.1.1, SVG Export Plug-In . SVG Version: 6.00 Build 0)  -->
<svg version="1.1" id="Layer_27" xmlns="http://www.w3.org/2000/svg" xmlns:xlink="http://www.w3.org/1999/xlink" x="0px" y="0px"
	 viewBox="0 0 390 150" enable-background="new 0 0 390 150" xml:space="preserve">
<path fill="#B1953A" d="M83.7,40.2h0.8c0,5.9,0,11.8,0,17.7c0,17.4,0,34.8,0,52.2c-0.3,0-0.5,0-0.8,0C83.6,86.8,83.7,63.5,83.7,40.2
	z"/>
<path fill="none" stroke="#B1953A" stroke-width="9.375000e-02" d="M83.7,40.2h0.8c0,5.9,0,11.8,0,17.7c0,17.4,0,34.8,0,52.2
	c-0.3,0-0.5,0-0.8,0C83.6,86.8,83.7,63.5,83.7,40.2z"/>
<path fill="#002B5D" d="M199.7,57.7c0.2-1.2,1.3-2,2.5-2.1c0.6,0,1.2,0,1.9,0.1c0,0.9,0,1.8,0,2.6c-0.5,0-1.1,0-1.3,0.6
	c-0.1,1.1-0.1,2.2,0,3.4c0.4,0,0.9,0,1.3,0c0,0.8,0,1.6,0,2.4c-0.4,0-0.9,0-1.3,0c0,2.9,0.1,5.9,0,8.8c-1,0-2.1,0-3.1,0
	c0-3,0-5.9,0-8.8c-0.4,0-0.8,0-1.1,0c0-0.8,0-1.6,0-2.4c0.4,0,0.8,0,1.1,0C199.6,60.8,199.4,59.2,199.7,57.7z"/>
<path fill="none" stroke="#002B5D" stroke-width="9.375000e-02" d="M199.7,57.7c0.2-1.2,1.3-2,2.5-2.1c0.6,0,1.2,0,1.9,0.1
	c0,0.9,0,1.8,0,2.6c-0.5,0-1.1,0-1.3,0.6c-0.1,1.1-0.1,2.2,0,3.4c0.4,0,0.9,0,1.3,0c0,0.8,0,1.6,0,2.4c-0.4,0-0.9,0-1.3,0
	c0,2.9,0.1,5.9,0,8.8c-1,0-2.1,0-3.1,0c0-3,0-5.9,0-8.8c-0.4,0-0.8,0-1.1,0c0-0.8,0-1.6,0-2.4c0.4,0,0.8,0,1.1,0
	C199.6,60.8,199.4,59.2,199.7,57.7z"/>
<path fill="#002B5D" d="M120,64.7c0.4,0,0.9,0.2,1,0.6c0.5,1,0.4,2.1,0.4,3.1c0,0.7-0.1,1.5-0.5,2.2c-0.4,0.5-1.3,0.4-1.6-0.2
	c-0.6-1.1-0.5-2.5-0.5-3.8c0.1-0.7,0.2-1.6,0.9-1.9C119.8,64.8,119.9,64.8,120,64.7z M122.2,55.8c-0.3,0-0.5,0-0.8,0
	c0,2.6,0,5.3,0,7.9c-0.5-0.5-0.9-1.1-1.6-1.4c-1.1-0.4-2.3,0-3,0.9c-0.9,1.2-1.1,2.8-1.2,4.3c0,1.6,0.1,3.4,0.9,4.9
	c0.6,1,1.9,1.7,3.1,1.3c0.8-0.2,1.3-0.9,1.8-1.6c0,0.5,0,0.9,0,1.4c1,0,2,0,3,0c0-5.9,0-11.9,0-17.8
	C123.7,55.8,122.9,55.8,122.2,55.8z"/>
<path fill="#002B5D" d="M249.7,55.8c1,0,2,0,3.1,0c0,5.9,0,11.9,0,17.8c-1,0-2.1,0-3.1,0C249.7,67.6,249.7,61.7,249.7,55.8z"/>
<path fill="none" stroke="#002B5D" stroke-width="9.375000e-02" d="M249.7,55.8c1,0,2,0,3.1,0c0,5.9,0,11.9,0,17.8c-1,0-2.1,0-3.1,0
	C249.7,67.6,249.7,61.7,249.7,55.8z"/>
<path fill="#002B5D" d="M244.5,55.8c1,0,2.1,0,3.1,0c0,5.9,0,11.8,0,17.8c-1,0-2.1,0-3.1,0C244.5,67.6,244.5,61.7,244.5,55.8z"/>
<path fill="none" stroke="#002B5D" stroke-width="9.375000e-02" d="M244.5,55.8c1,0,2.1,0,3.1,0c0,5.9,0,11.8,0,17.8
	c-1,0-2.1,0-3.1,0C244.5,67.6,244.5,61.7,244.5,55.8z"/>
<path fill="#002B5D" d="M210.5,58.7c0.5-1,1.6-1.7,2.7-2c1.2-0.3,2.5,0,3.5,0.5c0.2,0.1,0.4,0.2,0.4,0.4c0,0.9,0,1.8,0,2.8
	c-0.7-0.3-1.4-0.7-2.1-0.8c-0.7-0.1-1.5,0.4-1.7,1.1c-0.2,0.8,0.1,1.6,0.6,2.1c1.1,1.3,2.8,2.1,3.5,3.8c0.6,1.4,0.5,3,0,4.4
	c-0.6,1.7-2.4,2.8-4.2,2.7c-1.1,0.1-2.2-0.2-3.1-0.8c0-1.1,0-2.3,0-3.5c0.7,0.4,1.3,1,2.1,1c0.5,0,1.1,0.1,1.6-0.3
	c0.7-0.5,0.8-1.7,0.2-2.4c-0.5-0.6-1.1-1-1.7-1.6c-1.1-1-2.1-2.2-2.4-3.7C209.7,61.3,209.8,59.9,210.5,58.7z"/>
<path fill="none" stroke="#002B5D" stroke-width="9.375000e-02" d="M210.5,58.7c0.5-1,1.6-1.7,2.7-2c1.2-0.3,2.5,0,3.5,0.5
	c0.2,0.1,0.4,0.2,0.4,0.4c0,0.9,0,1.8,0,2.8c-0.7-0.3-1.4-0.7-2.1-0.8c-0.7-0.1-1.5,0.4-1.7,1.1c-0.2,0.8,0.1,1.6,0.6,2.1
	c1.1,1.3,2.8,2.1,3.5,3.8c0.6,1.4,0.5,3,0,4.4c-0.6,1.7-2.4,2.8-4.2,2.7c-1.1,0.1-2.2-0.2-3.1-0.8c0-1.1,0-2.3,0-3.5
	c0.7,0.4,1.3,1,2.1,1c0.5,0,1.1,0.1,1.6-0.3c0.7-0.5,0.8-1.7,0.2-2.4c-0.5-0.6-1.1-1-1.7-1.6c-1.1-1-2.1-2.2-2.4-3.7
	C209.7,61.3,209.8,59.9,210.5,58.7z"/>
<path fill="#002B5D" d="M97.8,56.8c2.4,0,4.8,0,7.2,0c0,1,0,2.1,0,3.1c-1.3,0-2.7,0-4,0c0,1.1,0,2.3,0,3.4c1.2,0,2.4,0,3.7,0
	c0,1,0,2,0,3.1c-1.2,0-2.4,0-3.6,0c0,2.4,0,4.7,0,7c-1.1,0.1-2.2,0-3.3,0C97.8,68,97.8,62.4,97.8,56.8z"/>
<path fill="none" stroke="#002B5D" stroke-width="9.375000e-02" d="M97.8,56.8c2.4,0,4.8,0,7.2,0c0,1,0,2.1,0,3.1c-1.3,0-2.7,0-4,0
	c0,1.1,0,2.3,0,3.4c1.2,0,2.4,0,3.7,0c0,1,0,2,0,3.1c-1.2,0-2.4,0-3.6,0c0,2.4,0,4.7,0,7c-1.1,0.1-2.2,0-3.3,0
	C97.8,68,97.8,62.4,97.8,56.8z"/>
<path fill="#002B5D" d="M263.6,66.3c0.7,0,1.5,0,2.2,0.4c0.6,0.4,0.7,1.3,0.7,2c0,0.6-0.3,1.3-0.9,1.6c-0.6,0.4-1.3,0.3-2,0.3
	C263.6,69.1,263.6,67.7,263.6,66.3z M263.6,59.6c0.9,0,1.9,0,2.5,0.8c0.5,0.8,0.5,2-0.1,2.7c-0.6,0.6-1.5,0.6-2.3,0.6
	C263.6,62.4,263.6,61,263.6,59.6z M262.8,56.9c-0.8,0-1.6,0-2.5,0c0,5.6,0,11.1,0,16.7c1.5,0,2.9,0,4.4,0c1.4,0,2.9-0.4,3.9-1.4
	c1.3-1.4,1.5-3.5,1-5.2c-0.3-1-1.1-1.6-2-2c1-0.6,1.8-1.5,1.9-2.7c0.1-1.3,0.1-2.7-0.6-3.7c-0.8-1.1-2.3-1.5-3.6-1.6
	C264.4,56.9,263.6,56.9,262.8,56.9z"/>
<path fill="#002B5D" d="M159.5,57.6c0.6-0.1,1.2-0.1,1.7,0.3c0.7,0.5,1,1.6,0.5,2.4c-0.5,0.9-1.7,1.1-2.5,0.6
	C157.9,60.2,158.2,58,159.5,57.6z"/>
<path fill="none" stroke="#002B5D" stroke-width="9.375000e-02" d="M159.5,57.6c0.6-0.1,1.2-0.1,1.7,0.3c0.7,0.5,1,1.6,0.5,2.4
	c-0.5,0.9-1.7,1.1-2.5,0.6C157.9,60.2,158.2,58,159.5,57.6z"/>
<path fill="#002B5D" d="M289.8,57.6c0.6-0.1,1.3-0.1,1.8,0.3c0.8,0.6,0.9,2,0.1,2.7c-0.8,0.8-2.2,0.6-2.8-0.3
	C288.3,59.4,288.8,58,289.8,57.6z"/>
<path fill="none" stroke="#002B5D" stroke-width="9.375000e-02" d="M289.8,57.6c0.6-0.1,1.3-0.1,1.8,0.3c0.8,0.6,0.9,2,0.1,2.7
	c-0.8,0.8-2.2,0.6-2.8-0.3C288.3,59.4,288.8,58,289.8,57.6z"/>
<path fill="#002B5D" d="M153.1,59.2L153.1,59.2c1.1-0.1,2.1-0.1,3.2-0.1c0,1.1,0,2.1,0,3.2c0.4,0,0.8,0,1.2,0c0,0.8,0,1.6,0,2.4
	c-0.4,0-0.8,0-1.2,0c0,2.9,0.1,5.9,0,8.8c-1,0-2.1,0-3.1,0c0-2.9,0-5.9,0-8.8c-0.4,0-0.8,0-1.2,0c0-0.8,0-1.6,0.1-2.4
	c0.4,0,0.8,0,1.2,0C153.1,61.3,153.1,60.2,153.1,59.2z"/>
<path fill="none" stroke="#002B5D" stroke-width="9.375000e-02" d="M153.1,59.2L153.1,59.2c1.1-0.1,2.1-0.1,3.2-0.1
	c0,1.1,0,2.1,0,3.2c0.4,0,0.8,0,1.2,0c0,0.8,0,1.6,0,2.4c-0.4,0-0.8,0-1.2,0c0,2.9,0.1,5.9,0,8.8c-1,0-2.1,0-3.1,0
	c0-2.9,0-5.9,0-8.8c-0.4,0-0.8,0-1.2,0c0-0.8,0-1.6,0.1-2.4c0.4,0,0.8,0,1.2,0C153.1,61.3,153.1,60.2,153.1,59.2z"/>
<path fill="#002B5D" d="M140.2,62.5c0.4-0.3,0.9-0.4,1.4-0.5c0,1,0,2,0,3c-0.6,0.1-1.3,0-1.8,0.5c-0.5,0.5-0.5,1.3-0.5,2
	c0,2,0,4,0,6.1c-1,0-2.1,0-3.1,0c0-3.8,0-7.5,0-11.3c1,0,1.9,0,2.9,0c0,0.5,0,1.1,0,1.7C139.4,63.5,139.6,62.9,140.2,62.5z"/>
<path fill="none" stroke="#002B5D" stroke-width="9.375000e-02" d="M140.2,62.5c0.4-0.3,0.9-0.4,1.4-0.5c0,1,0,2,0,3
	c-0.6,0.1-1.3,0-1.8,0.5c-0.5,0.5-0.5,1.3-0.5,2c0,2,0,4,0,6.1c-1,0-2.1,0-3.1,0c0-3.8,0-7.5,0-11.3c1,0,1.9,0,2.9,0
	c0,0.5,0,1.1,0,1.7C139.4,63.5,139.6,62.9,140.2,62.5z"/>
<path fill="#002B5D" d="M110.5,64.6c0.4,0,0.8,0.2,1.1,0.5c0.4,0.5,0.5,1.2,0.5,1.9c-1.1,0-2.2,0-3.3,0c0-0.6,0-1.1,0.3-1.6
	C109.5,64.8,110,64.6,110.5,64.6z M110.3,62.1c-0.8,0-1.7,0.3-2.3,0.7c-1.6,1.1-2.2,3.2-2.2,5c0,1.4,0.2,2.9,1,4.1
	c0.7,1.1,2,1.9,3.3,1.8c0.8,0,1.6,0,2.3-0.4c1.2-0.6,2-1.8,2.3-3.1c-0.8,0-1.6,0-2.4,0c-0.5-0.1-0.6,0.6-0.9,0.8
	c-0.5,0.7-1.7,0.5-2.2-0.2c-0.4-0.6-0.5-1.3-0.5-2c2,0,4,0,6,0c0.1-1.7-0.1-3.5-1-5C113.1,62.6,111.7,62,110.3,62.1z"/>
<path fill="#002B5D" d="M130.5,64.6c0.5,0,0.9,0.2,1.2,0.6c0.4,0.5,0.4,1.2,0.5,1.8c-1.1,0-2.2,0-3.3,0c0-0.6,0-1.2,0.4-1.8
	C129.6,64.8,130,64.6,130.5,64.6z M130.3,62.1c-0.6,0-1.2,0.1-1.8,0.4c-1.5,0.7-2.3,2.2-2.5,3.7c-0.2,1.5-0.2,3.2,0.3,4.6
	c0.5,1.4,1.6,2.6,3.1,2.8c1.1,0.1,2.3,0.1,3.2-0.5c1.1-0.6,1.8-1.8,2.1-3c-0.9,0-1.7,0-2.6,0c-0.3,0.3-0.5,0.9-1,1.1
	c-0.6,0.4-1.5,0.1-1.9-0.5c-0.4-0.6-0.4-1.3-0.4-1.9c2,0,4,0,6,0c0-1.2,0-2.5-0.4-3.6c-0.3-1-0.9-2.1-1.9-2.6
	C131.9,62.2,131.1,62.1,130.3,62.1z"/>
<path fill="#002B5D" d="M146.5,64.8c0.5,0,0.9,0.4,1.1,0.8c0.4,0.9,0.4,1.9,0.3,2.9c-0.1,0.7-0.1,1.5-0.5,2.1
	c-0.3,0.5-1.1,0.6-1.5,0.1c-0.5-0.6-0.6-1.4-0.6-2.2c0-0.9,0-1.7,0.1-2.5c0.1-0.5,0.3-1,0.8-1.1C146.3,64.8,146.4,64.8,146.5,64.8z
	 M145.3,62.2c-1.1,0-2,0.8-2.4,1.7c-0.8,1.7-0.8,3.6-0.7,5.5c0.1,1.4,0.5,3,1.7,3.9c0.6,0.5,1.5,0.5,2.2,0.4
	c0.8-0.2,1.3-0.9,1.8-1.6c0,0.5,0,1,0,1.5c1,0,2,0,3,0c0-3.8,0-7.5,0-11.3c-1,0-2,0-3,0c0,0.5,0,1.1,0,1.6c-0.5-0.9-1.3-1.8-2.5-1.7
	C145.4,62.2,145.3,62.2,145.3,62.2z"/>
<path fill="#002B5D" d="M167.8,64.8c0.4,0,0.7,0.2,1,0.5c0.6,0.7,0.7,1.7,0.7,2.6c0,0.9-0.1,1.9-0.6,2.6c-0.5,0.7-1.6,0.7-2.1,0.1
	c-0.7-0.9-0.7-2.2-0.6-3.4c0.1-0.9,0.3-2,1.3-2.4C167.6,64.8,167.7,64.8,167.8,64.8z M167.6,62.1c-0.4,0-0.8,0.1-1.1,0.2
	c-1.4,0.4-2.5,1.5-2.9,2.9c-0.5,1.6-0.6,3.3-0.2,4.9c0.3,1.4,1.2,2.7,2.5,3.3c0.9,0.5,1.9,0.4,2.8,0.4c1.3-0.2,2.4-1.1,3-2.2
	c0.8-1.4,0.9-3.1,0.8-4.7c-0.2-1.3-0.6-2.6-1.6-3.5C170,62.4,168.8,62.1,167.6,62.1z"/>
<path fill="#002B5D" d="M178.9,62.3c0.8-0.1,1.8-0.2,2.5,0.4c0.6,0.6,0.6,1.5,0.7,2.2c0,2.9,0,5.7,0,8.6c-1.1,0.1-2.1,0-3.2,0
	c0-2.5,0-5,0-7.5c0.1-0.7-0.7-1.2-1.3-0.9c-0.7,0.2-0.6,1.1-0.7,1.7c0,2.2,0,4.5,0,6.7c-1,0-2,0-3,0c-0.1-3.7,0-7.5,0-11.3
	c1,0,1.9,0,2.9,0c0,0.5,0,1,0,1.5C177.3,63.2,178,62.5,178.9,62.3z"/>
<path fill="none" stroke="#002B5D" stroke-width="9.375000e-02" d="M178.9,62.3c0.8-0.1,1.8-0.2,2.5,0.4c0.6,0.6,0.6,1.5,0.7,2.2
	c0,2.9,0,5.7,0,8.6c-1.1,0.1-2.1,0-3.2,0c0-2.5,0-5,0-7.5c0.1-0.7-0.7-1.2-1.3-0.9c-0.7,0.2-0.6,1.1-0.7,1.7c0,2.2,0,4.5,0,6.7
	c-1,0-2,0-3,0c-0.1-3.7,0-7.5,0-11.3c1,0,1.9,0,2.9,0c0,0.5,0,1,0,1.5C177.3,63.2,178,62.5,178.9,62.3z"/>
<path fill="#002B5D" d="M193.3,64.8c0.5,0,1,0.2,1.2,0.6c0.6,1,0.6,2.1,0.5,3.2c-0.1,0.8-0.2,1.6-0.9,2.1c-0.4,0.3-0.9,0.3-1.3,0.2
	c-0.7-0.4-1-1.2-1.1-2c-0.1-1-0.1-2.1,0.2-3c0.2-0.5,0.5-0.9,1-1.1C193,64.8,193.1,64.8,193.3,64.8z M193.3,62.1
	c-0.4,0-0.9,0.1-1.3,0.2c-0.9,0.3-1.7,0.9-2.3,1.7c-0.8,1.1-1,2.5-1,3.8c0,1.4,0.2,2.8,1,4c0.7,1.2,2.1,2,3.5,1.9
	c1.1,0.1,2.2-0.2,3-1c1.2-1,1.8-2.6,1.8-4.1c0-0.9,0.1-1.9-0.2-2.8c-0.3-1.1-0.9-2.2-1.8-2.9C195.2,62.4,194.2,62.1,193.3,62.1z"/>
<path fill="#002B5D" d="M223.4,62.6c0.8-0.4,1.7-0.5,2.5-0.2c0.7,0.3,1,0.9,1.3,1.6c0.6-0.9,1.6-1.7,2.8-1.7c0.7,0,1.5,0.2,1.9,0.9
	c0.4,0.9,0.5,2,0.5,3c0,2.5,0,5,0,7.5c-1,0-2,0-3.1,0c0-2.4,0-4.7,0-7c0-0.4-0.1-0.8-0.2-1.1c-0.3-0.5-1-0.4-1.4-0.1
	c-0.4,0.4-0.4,0.9-0.4,1.4c0,2.3,0,4.6,0,6.9c-1,0-2,0-3.1,0c0-2.3,0-4.6,0-6.9c-0.1-0.5,0-1.1-0.5-1.5c-0.3-0.1-0.8-0.2-1.1,0
	c-0.5,0.4-0.5,1.1-0.5,1.6c0,2.2,0,4.5,0,6.7c-1,0-2,0-3,0c0-3.8,0-7.5,0-11.3c1,0,1.9,0,2.9,0c0,0.5,0,1,0,1.5
	C222.4,63.4,222.8,62.9,223.4,62.6z"/>
<path fill="none" stroke="#002B5D" stroke-width="9.375000e-02" d="M223.4,62.6c0.8-0.4,1.7-0.5,2.5-0.2c0.7,0.3,1,0.9,1.3,1.6
	c0.6-0.9,1.6-1.7,2.8-1.7c0.7,0,1.5,0.2,1.9,0.9c0.4,0.9,0.5,2,0.5,3c0,2.5,0,5,0,7.5c-1,0-2,0-3.1,0c0-2.4,0-4.7,0-7
	c0-0.4-0.1-0.8-0.2-1.1c-0.3-0.5-1-0.4-1.4-0.1c-0.4,0.4-0.4,0.9-0.4,1.4c0,2.3,0,4.6,0,6.9c-1,0-2,0-3.1,0c0-2.3,0-4.6,0-6.9
	c-0.1-0.5,0-1.1-0.5-1.5c-0.3-0.1-0.8-0.2-1.1,0c-0.5,0.4-0.5,1.1-0.5,1.6c0,2.2,0,4.5,0,6.7c-1,0-2,0-3,0c0-3.8,0-7.5,0-11.3
	c1,0,1.9,0,2.9,0c0,0.5,0,1,0,1.5C222.4,63.4,222.8,62.9,223.4,62.6z"/>
<path fill="#002B5D" d="M238,64.8c0.4,0,0.9,0.3,1.1,0.7c0.4,0.8,0.4,1.7,0.4,2.6c0,0.8,0,1.7-0.5,2.5c-0.3,0.5-1.2,0.7-1.6,0.2
	c-0.5-0.5-0.6-1.3-0.6-2c0-1-0.1-2,0.2-3c0.1-0.4,0.3-0.7,0.7-0.9C237.8,64.8,237.9,64.8,238,64.8z M236.8,62.2
	c-0.9,0-1.7,0.6-2.2,1.3c-0.8,1.2-0.9,2.7-1,4.2c0,1.5,0.1,3.1,0.8,4.5c0.5,1,1.5,1.7,2.6,1.6c1.1,0.1,1.9-0.9,2.5-1.7
	c0,0.5,0,1,0,1.6c1,0,2,0,2.9,0c0-3.8,0-7.5,0-11.3c-1,0-2,0-2.9,0c0,0.5,0,1.1,0,1.6c-0.5-0.8-1.3-1.7-2.4-1.8
	C237.1,62.2,236.9,62.2,236.8,62.2z"/>
<path fill="#002B5D" d="M282.4,62.6c1.6-0.8,3.6-0.5,5.1,0.5c-0.4,0.8-0.9,1.5-1.3,2.3c-0.5-0.3-0.9-0.6-1.4-0.7
	c-0.4-0.1-1,0.2-1,0.7c0,0.5,0.4,0.7,0.7,1c1,0.7,2.2,1.4,2.8,2.5c0.5,1.3,0.2,3-0.8,4c-0.8,0.8-1.9,1.1-3,1c-1.1,0.1-2.2-0.5-3-1.1
	c0.4-0.8,0.9-1.5,1.3-2.3c0.7,0.3,1.4,0.9,2.2,0.6c0.5-0.2,0.5-0.9,0.2-1.3c-0.5-0.5-1.1-0.7-1.6-1.1c-0.8-0.5-1.5-1.3-1.7-2.3
	C280.5,64.8,281.1,63.2,282.4,62.6z"/>
<path fill="none" stroke="#002B5D" stroke-width="9.375000e-02" d="M282.4,62.6c1.6-0.8,3.6-0.5,5.1,0.5c-0.4,0.8-0.9,1.5-1.3,2.3
	c-0.5-0.3-0.9-0.6-1.4-0.7c-0.4-0.1-1,0.2-1,0.7c0,0.5,0.4,0.7,0.7,1c1,0.7,2.2,1.4,2.8,2.5c0.5,1.3,0.2,3-0.8,4
	c-0.8,0.8-1.9,1.1-3,1c-1.1,0.1-2.2-0.5-3-1.1c0.4-0.8,0.9-1.5,1.3-2.3c0.7,0.3,1.4,0.9,2.2,0.6c0.5-0.2,0.5-0.9,0.2-1.3
	c-0.5-0.5-1.1-0.7-1.6-1.1c-0.8-0.5-1.5-1.3-1.7-2.3C280.5,64.8,281.1,63.2,282.4,62.6z"/>
<path fill="#002B5D" d="M299.4,62.2c0.8-0.1,1.9-0.1,2.4,0.7c0.6,0.9,0.4,2.1,0.6,3.1c0,1.7,0,3.3,0,5c0,0.8,0,1.7-0.1,2.5
	c-1,0-2.1,0-3.1,0c0-2.2,0-4.5,0-6.7c0-0.5,0-1-0.2-1.4c-0.4-0.5-1.3-0.4-1.6,0.1c-0.2,0.5-0.3,1-0.3,1.5c0,2.2,0,4.4,0,6.5
	c-1,0-2.1,0-3.1,0c0-3.8,0-7.5,0-11.3c1,0,1.9,0,2.9,0c0,0.5,0,1,0,1.5C297.6,63.1,298.3,62.4,299.4,62.2z"/>
<path fill="none" stroke="#002B5D" stroke-width="9.375000e-02" d="M299.4,62.2c0.8-0.1,1.9-0.1,2.4,0.7c0.6,0.9,0.4,2.1,0.6,3.1
	c0,1.7,0,3.3,0,5c0,0.8,0,1.7-0.1,2.5c-1,0-2.1,0-3.1,0c0-2.2,0-4.5,0-6.7c0-0.5,0-1-0.2-1.4c-0.4-0.5-1.3-0.4-1.6,0.1
	c-0.2,0.5-0.3,1-0.3,1.5c0,2.2,0,4.4,0,6.5c-1,0-2.1,0-3.1,0c0-3.8,0-7.5,0-11.3c1,0,1.9,0,2.9,0c0,0.5,0,1,0,1.5
	C297.6,63.1,298.3,62.4,299.4,62.2z"/>
<path fill="#002B5D" d="M308.3,64.6c0.4,0,0.9,0.2,1.1,0.5c0.4,0.5,0.5,1.2,0.5,1.8c-1.1,0-2.2,0-3.3,0c0.1-0.6,0.1-1.4,0.6-1.9
	C307.4,64.8,307.9,64.6,308.3,64.6z M308.3,62.1c-1,0-2.1,0.3-2.8,0.9c-1.1,0.9-1.6,2.3-1.8,3.7c-0.2,1.6-0.1,3.2,0.6,4.7
	c0.6,1.2,1.7,2.2,3.1,2.4c0.9,0,1.8,0.1,2.7-0.3c1.3-0.5,2.2-1.9,2.5-3.2c-0.9,0-1.8,0-2.7,0c-0.3,0.4-0.5,1-1,1.2
	c-0.5,0.3-1.3,0.1-1.6-0.3c-0.5-0.6-0.6-1.4-0.6-2.2c2,0,4,0,6,0c0-1.5,0-3.2-0.7-4.6c-0.5-0.9-1.3-1.6-2.2-1.9
	C309.2,62.2,308.7,62.1,308.3,62.1z"/>
<path fill="#002B5D" d="M314.8,62.7c1.6-1,3.8-0.7,5.3,0.4c-0.4,0.8-0.9,1.5-1.3,2.2c-0.6-0.3-1.3-0.9-2-0.6c-0.5,0.2-0.5,1,0,1.3
	c1,0.8,2.3,1.3,2.9,2.5c0.4,0.7,0.3,1.5,0.3,2.2c-0.1,1.5-1.3,2.6-2.7,2.9c-1.2,0.2-2.4,0.1-3.5-0.5c-0.3-0.2-0.7-0.3-0.7-0.6
	c0.4-0.8,0.8-1.5,1.2-2.2c0.7,0.3,1.4,0.9,2.1,0.6c0.3-0.2,0.6-0.5,0.5-0.9c-0.1-0.6-0.7-0.9-1.2-1.2c-0.9-0.6-1.9-1.3-2.3-2.4
	C313.1,65.2,313.5,63.5,314.8,62.7z"/>
<path fill="none" stroke="#002B5D" stroke-width="9.375000e-02" d="M314.8,62.7c1.6-1,3.8-0.7,5.3,0.4c-0.4,0.8-0.9,1.5-1.3,2.2
	c-0.6-0.3-1.3-0.9-2-0.6c-0.5,0.2-0.5,1,0,1.3c1,0.8,2.3,1.3,2.9,2.5c0.4,0.7,0.3,1.5,0.3,2.2c-0.1,1.5-1.3,2.6-2.7,2.9
	c-1.2,0.2-2.4,0.1-3.5-0.5c-0.3-0.2-0.7-0.3-0.7-0.6c0.4-0.8,0.8-1.5,1.2-2.2c0.7,0.3,1.4,0.9,2.1,0.6c0.3-0.2,0.6-0.5,0.5-0.9
	c-0.1-0.6-0.7-0.9-1.2-1.2c-0.9-0.6-1.9-1.3-2.3-2.4C313.1,65.2,313.5,63.5,314.8,62.7z"/>
<path fill="#002B5D" d="M322.5,62.5c1.6-0.8,3.6-0.5,5,0.5c-0.4,0.8-0.8,1.5-1.3,2.3c-0.5-0.3-1-0.7-1.6-0.7c-0.5,0-0.9,0.5-0.7,1
	c0.3,0.6,1,0.8,1.5,1.2c0.9,0.6,1.8,1.3,2.1,2.4c0.3,1.2,0.1,2.5-0.7,3.4c-0.8,0.9-2,1.3-3.1,1.2c-1.1,0.1-2.2-0.4-3-1.1
	c0.4-0.8,0.8-1.5,1.3-2.3c0.7,0.3,1.3,0.9,2.1,0.7c0.5-0.2,0.6-0.8,0.3-1.2c-0.5-0.6-1.2-0.9-1.8-1.3c-0.6-0.5-1.3-1.1-1.5-2
	C320.5,65.1,321.1,63.2,322.5,62.5z"/>
<path fill="none" stroke="#002B5D" stroke-width="9.375000e-02" d="M322.5,62.5c1.6-0.8,3.6-0.5,5,0.5c-0.4,0.8-0.8,1.5-1.3,2.3
	c-0.5-0.3-1-0.7-1.6-0.7c-0.5,0-0.9,0.5-0.7,1c0.3,0.6,1,0.8,1.5,1.2c0.9,0.6,1.8,1.3,2.1,2.4c0.3,1.2,0.1,2.5-0.7,3.4
	c-0.8,0.9-2,1.3-3.1,1.2c-1.1,0.1-2.2-0.4-3-1.1c0.4-0.8,0.8-1.5,1.3-2.3c0.7,0.3,1.3,0.9,2.1,0.7c0.5-0.2,0.6-0.8,0.3-1.2
	c-0.5-0.6-1.2-0.9-1.8-1.3c-0.6-0.5-1.3-1.1-1.5-2C320.5,65.1,321.1,63.2,322.5,62.5z"/>
<path fill="#002B5D" d="M333,64.6c0.5,0,0.9,0.2,1.2,0.6c0.4,0.5,0.4,1.2,0.5,1.8c-1.1,0-2.2,0-3.3,0c0-0.6,0.1-1.2,0.4-1.7
	C332.1,64.8,332.5,64.6,333,64.6z M332.9,62.1c-1,0-2,0.3-2.8,1c-1,0.9-1.6,2.3-1.7,3.6c-0.2,1.6-0.1,3.3,0.7,4.7
	c0.6,1.2,1.8,2.2,3.1,2.3c0.9,0,1.7,0.1,2.5-0.3c1.4-0.5,2.3-1.9,2.6-3.3c-0.9,0-1.8,0-2.7,0c-0.2,0.4-0.5,0.9-0.9,1.1
	c-0.6,0.3-1.4,0.1-1.8-0.5c-0.4-0.6-0.5-1.3-0.5-2c2,0,4,0,6,0c0-1.3,0-2.7-0.5-4c-0.4-1.1-1.1-2-2.2-2.5
	C334.1,62.2,333.5,62.1,332.9,62.1z"/>
<path fill="#002B5D" d="M339.9,62.5c1.6-0.7,3.5-0.4,5,0.5c-0.4,0.8-0.8,1.5-1.3,2.3c-0.5-0.3-0.9-0.7-1.5-0.7
	c-0.4,0-0.9,0.2-0.9,0.7c0,0.5,0.4,0.7,0.7,1c1,0.6,2.1,1.3,2.6,2.3c0.7,1.4,0.3,3.3-0.9,4.3c-0.7,0.7-1.8,1-2.8,0.9
	c-1.1,0.1-2.2-0.4-3-1.1c0.4-0.8,0.8-1.5,1.3-2.3c0.6,0.3,1.4,0.9,2.1,0.6c0.5-0.3,0.5-1.1,0-1.5c-0.7-0.6-1.7-1-2.3-1.7
	C337.5,66.3,337.9,63.4,339.9,62.5z"/>
<path fill="none" stroke="#002B5D" stroke-width="9.375000e-02" d="M339.9,62.5c1.6-0.7,3.5-0.4,5,0.5c-0.4,0.8-0.8,1.5-1.3,2.3
	c-0.5-0.3-0.9-0.7-1.5-0.7c-0.4,0-0.9,0.2-0.9,0.7c0,0.5,0.4,0.7,0.7,1c1,0.6,2.1,1.3,2.6,2.3c0.7,1.4,0.3,3.3-0.9,4.3
	c-0.7,0.7-1.8,1-2.8,0.9c-1.1,0.1-2.2-0.4-3-1.1c0.4-0.8,0.8-1.5,1.3-2.3c0.6,0.3,1.4,0.9,2.1,0.6c0.5-0.3,0.5-1.1,0-1.5
	c-0.7-0.6-1.7-1-2.3-1.7C337.5,66.3,337.9,63.4,339.9,62.5z"/>
<path fill="#002B5D" d="M158.6,62.3c1,0,2.1,0,3.1,0c0,3.8,0,7.5,0,11.3c-1,0-2.1,0-3.1,0C158.6,69.8,158.6,66.1,158.6,62.3z"/>
<path fill="none" stroke="#002B5D" stroke-width="9.375000e-02" d="M158.6,62.3c1,0,2.1,0,3.1,0c0,3.8,0,7.5,0,11.3
	c-1,0-2.1,0-3.1,0C158.6,69.8,158.6,66.1,158.6,62.3z"/>
<path fill="#002B5D" d="M271.2,62.3c1,0,2,0,3,0c0,2.4,0,4.9,0,7.3c0,0.5,0.1,1,0.5,1.3c0.6,0.2,1.5,0.1,1.6-0.7
	c0.1-2.6,0-5.2,0-7.9c1-0.1,2,0,3.1-0.1c0.1,1,0,2,0.1,2.9c0,1.3,0,2.6-0.1,3.9c0,1.3-0.1,2.7-1,3.7c-0.8,0.9-2.2,1-3.3,1
	c-1.1,0-2.3-0.2-3-1.1c-0.8-1.1-0.8-2.4-0.9-3.7C271.2,66.8,271.2,64.6,271.2,62.3z"/>
<path fill="none" stroke="#002B5D" stroke-width="9.375000e-02" d="M271.2,62.3c1,0,2,0,3,0c0,2.4,0,4.9,0,7.3c0,0.5,0.1,1,0.5,1.3
	c0.6,0.2,1.5,0.1,1.6-0.7c0.1-2.6,0-5.2,0-7.9c1-0.1,2,0,3.1-0.1c0.1,1,0,2,0.1,2.9c0,1.3,0,2.6-0.1,3.9c0,1.3-0.1,2.7-1,3.7
	c-0.8,0.9-2.2,1-3.3,1c-1.1,0-2.3-0.2-3-1.1c-0.8-1.1-0.8-2.4-0.9-3.7C271.2,66.8,271.2,64.6,271.2,62.3z"/>
<path fill="#002B5D" d="M288.9,62.3c1,0,2,0,3.1,0c0,3.8,0,7.5,0,11.3c-1,0-2,0-3.1,0C288.9,69.8,288.9,66.1,288.9,62.3z"/>
<path fill="none" stroke="#002B5D" stroke-width="9.375000e-02" d="M288.9,62.3c1,0,2,0,3.1,0c0,3.8,0,7.5,0,11.3c-1,0-2,0-3.1,0
	C288.9,69.8,288.9,66.1,288.9,62.3z"/>
<path fill="#808084" d="M106,84.3c0.8,0,1.6,0,2.5,0c-0.1,1.6-0.5,3.1-0.7,4.6c0.6-0.4,1.2-1,1.9-1c1-0.1,2.2,0.3,2.6,1.3
	c0.2,0.9,0,1.9-0.1,2.8c-0.2,1-0.3,2.1-0.5,3.2c-0.8,0-1.7,0-2.5,0c0-1.5,0.5-3,0.6-4.5c0-0.7-1-0.9-1.5-0.6c-0.6,0.3-0.8,1-0.9,1.6
	c-0.2,1.1-0.3,2.3-0.5,3.5c-0.8,0-1.7,0-2.5,0C104.8,91.6,105.5,88,106,84.3z"/>
<path fill="none" stroke="#808084" stroke-width="9.375000e-02" d="M106,84.3c0.8,0,1.6,0,2.5,0c-0.1,1.6-0.5,3.1-0.7,4.6
	c0.6-0.4,1.2-1,1.9-1c1-0.1,2.2,0.3,2.6,1.3c0.2,0.9,0,1.9-0.1,2.8c-0.2,1-0.3,2.1-0.5,3.2c-0.8,0-1.7,0-2.5,0c0-1.5,0.5-3,0.6-4.5
	c0-0.7-1-0.9-1.5-0.6c-0.6,0.3-0.8,1-0.9,1.6c-0.2,1.1-0.3,2.3-0.5,3.5c-0.8,0-1.7,0-2.5,0C104.8,91.6,105.5,88,106,84.3z"/>
<path fill="#808084" d="M192,89.9c0.5,0,1,0.2,1.3,0.6c0.6,1,0,2.6-1.2,2.9c-0.6,0.1-1.3-0.1-1.6-0.7c-0.5-1,0-2.3,1-2.6
	C191.6,90,191.8,89.9,192,89.9z M195.1,84.3c-0.2,0-0.4,0-0.6,0c-0.3,1.6-0.6,3.2-0.7,4.8c-0.5-0.4-0.9-0.9-1.6-1.1
	c-0.9-0.2-1.9,0-2.7,0.5c-1.6,1.1-2.2,3.3-1.6,5.1c0.4,1.1,1.5,2,2.7,1.9c0.8,0,1.6-0.5,2.2-0.9c0,0.2,0.1,0.4,0.1,0.6
	c0.8,0,1.5,0,2.3,0c0.6-3.6,1.2-7.2,1.7-10.9C196.3,84.3,195.7,84.3,195.1,84.3z"/>
<path fill="#808084" d="M199.2,84.7c0.9-0.3,1.9,0.5,1.8,1.5c-0.1,1-1.5,1.5-2.2,0.9C197.9,86.5,198.2,84.9,199.2,84.7z"/>
<path fill="none" stroke="#808084" stroke-width="9.375000e-02" d="M199.2,84.7c0.9-0.3,1.9,0.5,1.8,1.5c-0.1,1-1.5,1.5-2.2,0.9
	C197.9,86.5,198.2,84.9,199.2,84.7z"/>
<path fill="#808084" d="M250.2,84.7c1-0.3,2.1,0.8,1.7,1.8c-0.3,0.9-1.6,1.2-2.2,0.5C248.8,86.4,249.2,84.9,250.2,84.7z"/>
<path fill="none" stroke="#808084" stroke-width="9.375000e-02" d="M250.2,84.7c1-0.3,2.1,0.8,1.7,1.8c-0.3,0.9-1.6,1.2-2.2,0.5
	C248.8,86.4,249.2,84.9,250.2,84.7z"/>
<path fill="#808084" d="M334.8,84.7c0.4-0.1,0.9,0,1.2,0.3c0.7,0.5,0.6,1.7,0,2.2c-0.6,0.5-1.6,0.3-2-0.4
	C333.5,86,333.9,84.9,334.8,84.7z"/>
<path fill="none" stroke="#808084" stroke-width="9.375000e-02" d="M334.8,84.7c0.4-0.1,0.9,0,1.2,0.3c0.7,0.5,0.6,1.7,0,2.2
	c-0.6,0.5-1.6,0.3-2-0.4C333.5,86,333.9,84.9,334.8,84.7z"/>
<path fill="#808084" d="M359.7,84.7c0.8-0.3,1.9,0.4,1.8,1.4c0,1.1-1.4,1.8-2.2,1C358.3,86.5,358.6,85,359.7,84.7z"/>
<path fill="none" stroke="#808084" stroke-width="9.375000e-02" d="M359.7,84.7c0.8-0.3,1.9,0.4,1.8,1.4c0,1.1-1.4,1.8-2.2,1
	C358.3,86.5,358.6,85,359.7,84.7z"/>
<path fill="#808084" d="M293.2,87.2c0.8,0,1.7,0.4,2.1,1.2c0.9,1.5,0,3.8-1.7,4.4c-1,0.4-2.3,0.1-2.9-0.8c-1.2-1.7-0.2-4.4,1.9-4.7
	C292.8,87.3,293,87.2,293.2,87.2z M293.2,84.7c-0.5,0-1,0.1-1.4,0.2c-0.9,0.2-1.8,0.7-2.5,1.3c-1.7,1.5-2.3,4-1.6,6.1
	c0.4,1.5,1.7,2.6,3.1,3c1.7,0.5,3.7,0.3,5.2-0.8c2.1-1.4,3.1-4.3,2.3-6.8c-0.3-1-1.1-1.9-2-2.4C295.3,84.9,294.2,84.7,293.2,84.7z"
	/>
<path fill="#808084" d="M97.6,84.9c2.4-0.1,4.9,0,7.3,0c-0.1,0.8-0.2,1.6-0.4,2.4c-0.7,0-1.5,0-2.2,0c-0.4,2.6-0.8,5.2-1.2,7.8
	c-0.9,0-1.9,0-2.8,0c0.4-2.6,0.8-5.2,1.2-7.8c-0.8,0-1.5,0-2.3,0C97.3,86.5,97.4,85.7,97.6,84.9z"/>
<path fill="none" stroke="#808084" stroke-width="9.375000e-02" d="M97.6,84.9c2.4-0.1,4.9,0,7.3,0c-0.1,0.8-0.2,1.6-0.4,2.4
	c-0.7,0-1.5,0-2.2,0c-0.4,2.6-0.8,5.2-1.2,7.8c-0.9,0-1.9,0-2.8,0c0.4-2.6,0.8-5.2,1.2-7.8c-0.8,0-1.5,0-2.3,0
	C97.3,86.5,97.4,85.7,97.6,84.9z"/>
<path fill="#808084" d="M127.9,84.9c0.9-0.1,1.8-0.1,2.8,0c-0.2,2-0.6,3.9-0.9,5.9c0,0.6-0.2,1.2,0.2,1.7c0.4,0.5,1.2,0.5,1.8,0.4
	c0.7-0.4,1-1.2,1.1-1.9c0.4-2,0.6-4,1-6c0.9-0.1,1.8-0.1,2.8,0c-0.2,1.9-0.6,3.8-0.9,5.7c-0.2,1.4-0.4,2.9-1.5,3.8
	c-1.2,1.1-3,1.3-4.6,1c-1-0.2-2.1-0.8-2.6-1.8c-0.5-0.9-0.3-2-0.2-3C127.3,88.8,127.6,86.9,127.9,84.9z"/>
<path fill="none" stroke="#808084" stroke-width="9.375000e-02" d="M127.9,84.9c0.9-0.1,1.8-0.1,2.8,0c-0.2,2-0.6,3.9-0.9,5.9
	c0,0.6-0.2,1.2,0.2,1.7c0.4,0.5,1.2,0.5,1.8,0.4c0.7-0.4,1-1.2,1.1-1.9c0.4-2,0.6-4,1-6c0.9-0.1,1.8-0.1,2.8,0
	c-0.2,1.9-0.6,3.8-0.9,5.7c-0.2,1.4-0.4,2.9-1.5,3.8c-1.2,1.1-3,1.3-4.6,1c-1-0.2-2.1-0.8-2.6-1.8c-0.5-0.9-0.3-2-0.2-3
	C127.3,88.8,127.6,86.9,127.9,84.9z"/>
<path fill="#808084" d="M138.6,84.9c0.9-0.1,1.8-0.1,2.8,0c-0.1,1.4-0.5,2.7-0.6,4.1c1.1-1.1,2.1-2.3,3.2-3.5
	c0.3-0.2,0.5-0.6,0.9-0.6c1.1,0,2.2,0,3.3,0c-1.6,1.8-3.4,3.4-5,5.1c1.1,1.7,2.3,3.4,3.4,5.1c-1.1,0-2.2,0-3.3,0
	c-1-1.4-1.8-2.9-2.8-4.3c-0.3,1.4-0.5,2.9-0.7,4.3c-0.9,0-1.8,0-2.8,0C137.5,91.8,138,88.4,138.6,84.9z"/>
<path fill="none" stroke="#808084" stroke-width="9.375000e-02" d="M138.6,84.9c0.9-0.1,1.8-0.1,2.8,0c-0.1,1.4-0.5,2.7-0.6,4.1
	c1.1-1.1,2.1-2.3,3.2-3.5c0.3-0.2,0.5-0.6,0.9-0.6c1.1,0,2.2,0,3.3,0c-1.6,1.8-3.4,3.4-5,5.1c1.1,1.7,2.3,3.4,3.4,5.1
	c-1.1,0-2.2,0-3.3,0c-1-1.4-1.8-2.9-2.8-4.3c-0.3,1.4-0.5,2.9-0.7,4.3c-0.9,0-1.8,0-2.8,0C137.5,91.8,138,88.4,138.6,84.9z"/>
<path fill="#808084" d="M146.6,89.3c0.9-1.5,1.7-2.9,2.6-4.4c1,0,2,0,2.9,0c-0.6,0.9-1.3,1.7-2,2.6c-0.5,0.5-0.9,1.2-1.4,1.7
	C148.1,89.4,147.3,89.3,146.6,89.3z"/>
<path fill="none" stroke="#808084" stroke-width="9.375000e-02" d="M146.6,89.3c0.9-1.5,1.7-2.9,2.6-4.4c1,0,2,0,2.9,0
	c-0.6,0.9-1.3,1.7-2,2.6c-0.5,0.5-0.9,1.2-1.4,1.7C148.1,89.4,147.3,89.3,146.6,89.3z"/>
<path fill="#808084" d="M164.3,84.9c0.9,0,1.8,0,2.7,0c-0.4,2.6-0.8,5.2-1.2,7.9c1.1,0,2.2,0,3.4,0c-0.1,0.8-0.2,1.6-0.4,2.4
	c-2,0-4.1,0-6.1,0c0-1.3,0.4-2.6,0.5-4C163.6,89.1,163.9,87,164.3,84.9z"/>
<path fill="none" stroke="#808084" stroke-width="9.375000e-02" d="M164.3,84.9c0.9,0,1.8,0,2.7,0c-0.4,2.6-0.8,5.2-1.2,7.9
	c1.1,0,2.2,0,3.4,0c-0.1,0.8-0.2,1.6-0.4,2.4c-2,0-4.1,0-6.1,0c0-1.3,0.4-2.6,0.5-4C163.6,89.1,163.9,87,164.3,84.9z"/>
<path fill="#808084" d="M228.2,90.8c0.4,0,0.8,0.1,1.1,0.3c0.6,0.5,0.3,1.7-0.5,1.9c-0.5,0.2-1,0.1-1.5,0.1c0-0.8,0.2-1.5,0.2-2.3
	C227.7,90.9,227.9,90.8,228.2,90.8z M228.1,86.9c0.5,0,1.3,0,1.6,0.5c0.1,0.4,0.1,0.9-0.3,1.2c-0.4,0.3-1,0.3-1.5,0.3
	C227.9,88.3,228,87.6,228.1,86.9z M227,84.9c-0.4,0-0.8,0-1.2,0.1c-0.5,3.4-1.1,6.8-1.6,10.3c1.7,0,3.3,0,5,0c0.9,0,1.8-0.3,2.4-1
	c0.8-0.9,1-2.3,0.4-3.4c-0.3-0.5-0.9-0.8-1.4-1c0.5-0.2,0.9-0.4,1.3-0.7c0.9-1,0.9-2.7-0.2-3.6c-0.7-0.6-1.7-0.6-2.6-0.6
	C228.3,84.9,227.6,84.9,227,84.9z"/>
<path fill="#808084" d="M354.3,86.1c0.9,0,1.7,0,2.5,0c-0.1,0.7-0.2,1.3-0.3,2c0.4,0,0.8,0,1.2,0c0,0.6-0.1,1.2-0.3,1.8
	c-0.4,0-0.8,0.1-1.3,0.1c-0.3,1.7-0.5,3.5-0.8,5.2c-0.9,0-1.7,0-2.5,0c0.2-1.7,0.6-3.5,0.8-5.2c-0.4,0-0.7,0-1.1-0.1
	c0-0.6,0.1-1.2,0.3-1.8c0.4,0,0.8,0,1.2,0C354,87.4,354.2,86.7,354.3,86.1z"/>
<path fill="none" stroke="#808084" stroke-width="9.375000e-02" d="M354.3,86.1c0.9,0,1.7,0,2.5,0c-0.1,0.7-0.2,1.3-0.3,2
	c0.4,0,0.8,0,1.2,0c0,0.6-0.1,1.2-0.3,1.8c-0.4,0-0.8,0.1-1.3,0.1c-0.3,1.7-0.5,3.5-0.8,5.2c-0.9,0-1.7,0-2.5,0
	c0.2-1.7,0.6-3.5,0.8-5.2c-0.4,0-0.7,0-1.1-0.1c0-0.6,0.1-1.2,0.3-1.8c0.4,0,0.8,0,1.2,0C354,87.4,354.2,86.7,354.3,86.1z"/>
<path fill="#808084" d="M117.5,89.6c0.2,0,0.3,0,0.5,0.1c0.5,0.2,0.6,0.7,0.8,1.1c-0.9,0-1.9,0-2.8,0
	C116.1,90.1,116.7,89.6,117.5,89.6z M117.3,87.9c-0.9,0-1.8,0.3-2.5,0.9c-1.4,1-1.8,3-1.3,4.6c0.3,1,1.2,1.8,2.3,2
	c1.5,0.3,3.2,0.1,4.4-1c-0.4-0.5-0.8-1-1.3-1.4c-0.6,0.4-1.3,0.9-2,0.8c-0.8,0-1.2-0.8-1.1-1.5c1.8,0,3.5,0,5.3,0
	c0.2-1.2,0-2.5-0.9-3.4C119.3,88.2,118.3,87.8,117.3,87.9z"/>
<path fill="#808084" d="M153.7,88c1.2-0.3,2.6-0.1,3.7,0.6c-0.2,0.5-0.5,1.1-0.8,1.6c-0.6-0.3-1.3-0.8-2-0.5c-0.4,0-0.5,0.7-0.1,0.8
	c0.8,0.4,1.8,0.6,2.4,1.3c0.5,0.5,0.4,1.3,0.3,1.9c-0.3,1-1.3,1.6-2.2,1.7c-1.3,0.2-2.8,0-3.9-0.8c0.2-0.6,0.5-1.1,0.8-1.7
	c0.9,0.4,2,1.2,2.9,0.5c0-0.2,0-0.4,0-0.5c-0.8-0.6-1.8-0.7-2.5-1.4c-0.5-0.5-0.5-1.3-0.4-2C152.2,88.8,152.9,88.2,153.7,88z"/>
<path fill="none" stroke="#808084" stroke-width="9.375000e-02" d="M153.7,88c1.2-0.3,2.6-0.1,3.7,0.6c-0.2,0.5-0.5,1.1-0.8,1.6
	c-0.6-0.3-1.3-0.8-2-0.5c-0.4,0-0.5,0.7-0.1,0.8c0.8,0.4,1.8,0.6,2.4,1.3c0.5,0.5,0.4,1.3,0.3,1.9c-0.3,1-1.3,1.6-2.2,1.7
	c-1.3,0.2-2.8,0-3.9-0.8c0.2-0.6,0.5-1.1,0.8-1.7c0.9,0.4,2,1.2,2.9,0.5c0-0.2,0-0.4,0-0.5c-0.8-0.6-1.8-0.7-2.5-1.4
	c-0.5-0.5-0.5-1.3-0.4-2C152.2,88.8,152.9,88.2,153.7,88z"/>
<path fill="#808084" d="M173.8,89.6c0.1,0,0.2,0,0.3,0c0.6,0.1,1,0.6,1,1.2c-0.9,0-1.9,0-2.8,0C172.6,90.2,173.1,89.6,173.8,89.6z
	 M173.9,87.9c-1.5,0-2.9,0.7-3.6,2c-0.6,1.3-0.7,2.9,0,4.1c0.6,1.1,1.9,1.6,3.1,1.5c1.2,0.1,2.4-0.3,3.2-1.1c-0.4-0.5-0.8-1-1.3-1.4
	c-0.7,0.4-1.4,0.9-2.2,0.7c-0.7-0.1-0.9-0.9-0.9-1.4c1.8-0.1,3.6,0,5.3,0c0.1-1.1,0-2.2-0.7-3.1C176.1,88.3,175,87.9,173.9,87.9z"/>
<path fill="#808084" d="M182.5,90c0.5,0,1,0.2,1.3,0.6c0.5,0.7,0.2,1.7-0.4,2.3c-0.6,0.7-1.8,0.7-2.4-0.1c-0.6-1-0.1-2.7,1.2-2.9
	C182.4,90,182.4,90,182.5,90z M182,87.9c-1.1,0-2.1,0.5-2.8,1.3c-1,1.2-1.2,3-0.7,4.4c0.4,1.1,1.4,1.9,2.6,1.9
	c0.9,0,1.6-0.4,2.3-0.9c0,0.2,0.1,0.4,0.1,0.6c0.8,0,1.5,0,2.3,0c0.1-0.4,0.2-0.9,0.3-1.3c0.3-1.9,0.6-3.8,0.9-5.8
	c-0.7,0-1.5-0.1-2.2,0c-0.2,0.2-0.2,0.5-0.4,0.8c-0.5-0.4-0.9-0.8-1.5-1C182.5,87.9,182.3,87.9,182,87.9z"/>
<path fill="#808084" d="M204.7,88.9c0.5-0.4,1.1-0.9,1.8-1c0.8-0.1,1.8,0,2.4,0.8c0.5,0.7,0.5,1.6,0.4,2.4c-0.2,1.4-0.5,2.8-0.6,4.1
	c-0.9,0.1-1.7,0-2.6,0c0.2-1.5,0.5-2.9,0.6-4.3c0.1-0.6-0.6-1-1.1-0.9c-0.7,0-1.1,0.7-1.2,1.4c-0.3,1.3-0.3,2.6-0.6,3.9
	c-0.8,0-1.7,0-2.5,0c0.4-2.4,0.7-4.7,1.1-7c0.8-0.1,1.6-0.1,2.4,0C204.6,88.4,204.7,88.7,204.7,88.9z"/>
<path fill="none" stroke="#808084" stroke-width="9.375000e-02" d="M204.7,88.9c0.5-0.4,1.1-0.9,1.8-1c0.8-0.1,1.8,0,2.4,0.8
	c0.5,0.7,0.5,1.6,0.4,2.4c-0.2,1.4-0.5,2.8-0.6,4.1c-0.9,0.1-1.7,0-2.6,0c0.2-1.5,0.5-2.9,0.6-4.3c0.1-0.6-0.6-1-1.1-0.9
	c-0.7,0-1.1,0.7-1.2,1.4c-0.3,1.3-0.3,2.6-0.6,3.9c-0.8,0-1.7,0-2.5,0c0.4-2.4,0.7-4.7,1.1-7c0.8-0.1,1.6-0.1,2.4,0
	C204.6,88.4,204.7,88.7,204.7,88.9z"/>
<path fill="#808084" d="M214.6,89.9c0.8,0,1.5,0.6,1.4,1.4c0.1,1.2-1,2.4-2.3,2c-1.5-0.5-1.1-2.9,0.3-3.3
	C214.2,90,214.4,89.9,214.6,89.9z M213.9,87.9c-0.6,0-1.3,0.2-1.8,0.5c-1.6,1-2.2,3.1-1.7,4.8c0.3,1.2,1.5,2.3,2.8,2.1
	c0.9,0,1.6-0.5,2.3-1c-0.1,0.6-0.2,1.2-0.5,1.7c-0.4,0.5-1.2,0.7-1.9,0.5c-0.3-0.1-0.5-0.5-0.7-0.8c-0.9,0-1.7,0-2.6,0
	c0.1,0.6,0.3,1.2,0.7,1.6c0.7,0.8,1.8,1.1,2.9,1.1c1.3,0,2.7-0.3,3.6-1.3c0.7-0.7,0.8-1.8,1-2.7c0.3-2.1,0.7-4.1,1-6.2
	c-0.8,0-1.6-0.1-2.4,0c0,0.3-0.1,0.5-0.1,0.8c-0.5-0.4-1-0.8-1.5-1C214.5,87.9,214.2,87.9,213.9,87.9z"/>
<path fill="#808084" d="M243.4,88.1c1.3-0.4,2.7-0.2,3.9,0.5c-0.2,0.5-0.5,1.1-0.8,1.6c-0.6-0.3-1.2-0.7-1.9-0.6
	c-0.3,0-0.5,0.3-0.6,0.5c0.4,0.6,1,0.7,1.6,1c0.6,0.3,1.3,0.7,1.5,1.4c0.1,0.6,0.1,1.4-0.3,1.9c-0.6,0.8-1.7,1.2-2.6,1.2
	c-1.1,0-2.2-0.2-3.1-0.9c0.2-0.6,0.5-1.1,0.8-1.7c0.8,0.4,1.6,0.9,2.5,0.7c0.4-0.1,0.6-0.7,0.3-0.9c-0.8-0.5-1.8-0.6-2.4-1.3
	c-0.5-0.5-0.5-1.2-0.3-1.8C242,88.9,242.7,88.3,243.4,88.1z"/>
<path fill="none" stroke="#808084" stroke-width="9.375000e-02" d="M243.4,88.1c1.3-0.4,2.7-0.2,3.9,0.5c-0.2,0.5-0.5,1.1-0.8,1.6
	c-0.6-0.3-1.2-0.7-1.9-0.6c-0.3,0-0.5,0.3-0.6,0.5c0.4,0.6,1,0.7,1.6,1c0.6,0.3,1.3,0.7,1.5,1.4c0.1,0.6,0.1,1.4-0.3,1.9
	c-0.6,0.8-1.7,1.2-2.6,1.2c-1.1,0-2.2-0.2-3.1-0.9c0.2-0.6,0.5-1.1,0.8-1.7c0.8,0.4,1.6,0.9,2.5,0.7c0.4-0.1,0.6-0.7,0.3-0.9
	c-0.8-0.5-1.8-0.6-2.4-1.3c-0.5-0.5-0.5-1.2-0.3-1.8C242,88.9,242.7,88.3,243.4,88.1z"/>
<path fill="#808084" d="M255.5,89.1c0.5-0.5,1.1-1.1,1.9-1.2c0.9-0.1,1.9,0.1,2.4,0.9c0.5,0.8,0.4,1.7,0.2,2.6
	c-0.2,1.3-0.4,2.5-0.6,3.8c-0.8,0-1.7,0-2.5,0c0.1-1.5,0.5-3,0.6-4.4c0-0.9-1.2-1-1.8-0.5c-0.6,0.6-0.6,1.5-0.8,2.3
	c-0.1,0.9-0.3,1.8-0.4,2.7c-0.8,0-1.7,0-2.5,0c0.3-2.4,0.7-4.7,1.1-7c0.8-0.1,1.6-0.1,2.4,0C255.5,88.4,255.5,88.8,255.5,89.1z"/>
<path fill="none" stroke="#808084" stroke-width="9.375000e-02" d="M255.5,89.1c0.5-0.5,1.1-1.1,1.9-1.2c0.9-0.1,1.9,0.1,2.4,0.9
	c0.5,0.8,0.4,1.7,0.2,2.6c-0.2,1.3-0.4,2.5-0.6,3.8c-0.8,0-1.7,0-2.5,0c0.1-1.5,0.5-3,0.6-4.4c0-0.9-1.2-1-1.8-0.5
	c-0.6,0.6-0.6,1.5-0.8,2.3c-0.1,0.9-0.3,1.8-0.4,2.7c-0.8,0-1.7,0-2.5,0c0.3-2.4,0.7-4.7,1.1-7c0.8-0.1,1.6-0.1,2.4,0
	C255.5,88.4,255.5,88.8,255.5,89.1z"/>
<path fill="#808084" d="M265.1,89.6c0.1,0,0.2,0,0.3,0c0.6,0,1,0.6,1.1,1.1c-1,0.1-1.9,0.1-2.9,0.1
	C263.9,90.2,264.4,89.6,265.1,89.6z M265.1,87.9c-1.3,0-2.6,0.6-3.4,1.8c-0.8,1.2-0.9,2.9-0.2,4.2c0.5,1.1,1.8,1.7,3,1.7
	c1.2,0.1,2.6-0.2,3.5-1.2c-0.4-0.5-0.9-0.9-1.3-1.3c-0.7,0.5-1.6,1-2.5,0.6c-0.5-0.2-0.6-0.8-0.7-1.4c1.8,0,3.5,0,5.3,0
	c0.3-1.4-0.2-3-1.4-3.8C266.7,88.1,265.9,87.9,265.1,87.9z"/>
<path fill="#808084" d="M270.7,88.4c1.4-0.9,3.2-0.7,4.5,0.1c-0.1,0.6-0.4,1.1-0.7,1.7c-0.6-0.3-1.3-0.7-2-0.6
	c-0.3,0-0.4,0.4-0.5,0.6c0.8,0.6,1.9,0.7,2.6,1.4c0.6,0.5,0.7,1.5,0.4,2.2c-0.3,0.8-1.1,1.3-1.9,1.5c-1.4,0.3-2.9,0-4.1-0.7
	c0.2-0.6,0.5-1.2,0.8-1.7c0.7,0.3,1.4,0.8,2.2,0.8c0.4,0,0.6-0.3,0.8-0.6c-0.6-0.9-1.9-0.9-2.6-1.7C269.3,90.6,269.7,89,270.7,88.4z
	"/>
<path fill="none" stroke="#808084" stroke-width="9.375000e-02" d="M270.7,88.4c1.4-0.9,3.2-0.7,4.5,0.1c-0.1,0.6-0.4,1.1-0.7,1.7
	c-0.6-0.3-1.3-0.7-2-0.6c-0.3,0-0.4,0.4-0.5,0.6c0.8,0.6,1.9,0.7,2.6,1.4c0.6,0.5,0.7,1.5,0.4,2.2c-0.3,0.8-1.1,1.3-1.9,1.5
	c-1.4,0.3-2.9,0-4.1-0.7c0.2-0.6,0.5-1.2,0.8-1.7c0.7,0.3,1.4,0.8,2.2,0.8c0.4,0,0.6-0.3,0.8-0.6c-0.6-0.9-1.9-0.9-2.6-1.7
	C269.3,90.6,269.7,89,270.7,88.4z"/>
<path fill="#808084" d="M277.1,88.4c1.4-0.9,3.2-0.7,4.6,0.2c-0.2,0.5-0.5,1.1-0.7,1.6c-0.8-0.4-1.7-1-2.5-0.3c0,0.1,0,0.3,0,0.4
	c0.8,0.5,1.8,0.7,2.5,1.4c0.6,0.6,0.6,1.6,0.3,2.4c-0.4,0.7-1.1,1.2-1.9,1.4c-1.4,0.3-2.8,0-4-0.7c0.1-0.6,0.4-1.2,0.7-1.7
	c0.9,0.2,1.7,1,2.6,0.6c0.4-0.1,0.5-0.7,0.1-0.9c-0.8-0.5-1.9-0.7-2.5-1.5C275.8,90.3,276.2,89,277.1,88.4z"/>
<path fill="none" stroke="#808084" stroke-width="9.375000e-02" d="M277.1,88.4c1.4-0.9,3.2-0.7,4.6,0.2c-0.2,0.5-0.5,1.1-0.7,1.6
	c-0.8-0.4-1.7-1-2.5-0.3c0,0.1,0,0.3,0,0.4c0.8,0.5,1.8,0.7,2.5,1.4c0.6,0.6,0.6,1.6,0.3,2.4c-0.4,0.7-1.1,1.2-1.9,1.4
	c-1.4,0.3-2.8,0-4-0.7c0.1-0.6,0.4-1.2,0.7-1.7c0.9,0.2,1.7,1,2.6,0.6c0.4-0.1,0.5-0.7,0.1-0.9c-0.8-0.5-1.9-0.7-2.5-1.5
	C275.8,90.3,276.2,89,277.1,88.4z"/>
<path fill="#808084" d="M309.4,90c0.5,0,1,0.3,1.3,0.7c0.4,0.9,0,2.1-0.8,2.6c-0.6,0.4-1.5,0.3-1.9-0.3c-0.7-1-0.2-2.5,1-2.9
	C309,90,309.2,90,309.4,90z M308.6,87.9c-0.2,0-0.4,0-0.7,0.1c-2.5,0.5-3.6,3.9-2.4,6c0.5,0.9,1.5,1.4,2.5,1.4c0.9,0,1.6-0.5,2.3-1
	c-0.1,0.6-0.2,1.4-0.7,1.8c-0.4,0.4-1,0.5-1.6,0.4c-0.4-0.1-0.6-0.6-1-0.9c-0.8-0.1-1.6,0-2.4,0c0.1,1.1,1,2.1,2.1,2.4
	c1.6,0.5,3.6,0.3,4.9-0.9c0.9-0.8,1-2.1,1.2-3.2c0.3-2,0.7-3.9,0.9-5.9c-0.7,0-1.5,0-2.3,0c-0.1,0.3-0.2,0.5-0.2,0.8
	C310.4,88.3,309.5,87.8,308.6,87.9z"/>
<path fill="#808084" d="M318.6,90c0.5,0,1,0.2,1.3,0.6c0.5,0.8,0.3,1.9-0.4,2.5c-0.6,0.6-1.9,0.5-2.3-0.3c-0.5-1,0-2.6,1.3-2.8
	C318.4,90,318.5,90,318.6,90z M318,87.9c-1.3,0-2.5,0.8-3.1,1.9c-0.7,1.3-0.8,2.9-0.2,4.2c0.4,0.9,1.4,1.6,2.4,1.5
	c0.8,0,1.5-0.4,2.2-0.8c0,0.1,0.1,0.4,0.2,0.5c0.8,0,1.5,0,2.3,0c0.3-2.4,0.8-4.7,1.1-7c-0.8,0-1.6,0-2.4,0
	c-0.1,0.3-0.1,0.5-0.2,0.8c-0.5-0.4-1.1-0.9-1.8-1C318.4,87.9,318.2,87.9,318,87.9z"/>
<path fill="#808084" d="M328.7,87.9c0.9-0.2,1.9,0,2.5,0.7c0.5,0.7,0.5,1.7,0.3,2.5c-0.2,1.3-0.4,2.7-0.7,4c-0.8,0-1.7,0-2.5,0
	c0.2-1.5,0.6-3,0.6-4.5c0-0.8-1.1-1-1.7-0.5c-0.6,0.5-0.7,1.2-0.8,1.9c-0.2,1-0.3,2-0.5,3.1c-0.8,0-1.7,0-2.5,0
	c0.4-2.3,0.7-4.7,1.1-7c0.8,0,1.6,0,2.4,0c0,0.3-0.1,0.6-0.1,0.9C327.4,88.6,328,88.1,328.7,87.9z"/>
<path fill="none" stroke="#808084" stroke-width="9.375000e-02" d="M328.7,87.9c0.9-0.2,1.9,0,2.5,0.7c0.5,0.7,0.5,1.7,0.3,2.5
	c-0.2,1.3-0.4,2.7-0.7,4c-0.8,0-1.7,0-2.5,0c0.2-1.5,0.6-3,0.6-4.5c0-0.8-1.1-1-1.7-0.5c-0.6,0.5-0.7,1.2-0.8,1.9
	c-0.2,1-0.3,2-0.5,3.1c-0.8,0-1.7,0-2.5,0c0.4-2.3,0.7-4.7,1.1-7c0.8,0,1.6,0,2.4,0c0,0.3-0.1,0.6-0.1,0.9
	C327.4,88.6,328,88.1,328.7,87.9z"/>
<path fill="#808084" d="M339.1,88c1.2-0.3,2.5,0,3.5,0.6c-0.2,0.5-0.4,1.1-0.7,1.6c-0.7-0.3-1.4-0.8-2.1-0.5
	c-0.3,0.1-0.3,0.4-0.4,0.7c0.9,0.5,1.9,0.7,2.6,1.5c0.5,0.5,0.4,1.2,0.3,1.8c-0.2,0.9-1,1.6-1.9,1.8c-1.4,0.3-2.9,0.1-4.2-0.7
	c0.1-0.6,0.5-1.2,0.8-1.7c0.9,0.4,1.9,1.1,2.8,0.6c0-0.2,0-0.4,0-0.6c-0.7-0.6-1.7-0.7-2.4-1.3c-0.6-0.5-0.7-1.5-0.4-2.2
	C337.6,88.7,338.3,88.2,339.1,88z"/>
<path fill="none" stroke="#808084" stroke-width="9.375000e-02" d="M339.1,88c1.2-0.3,2.5,0,3.5,0.6c-0.2,0.5-0.4,1.1-0.7,1.6
	c-0.7-0.3-1.4-0.8-2.1-0.5c-0.3,0.1-0.3,0.4-0.4,0.7c0.9,0.5,1.9,0.7,2.6,1.5c0.5,0.5,0.4,1.2,0.3,1.8c-0.2,0.9-1,1.6-1.9,1.8
	c-1.4,0.3-2.9,0.1-4.2-0.7c0.1-0.6,0.5-1.2,0.8-1.7c0.9,0.4,1.9,1.1,2.8,0.6c0-0.2,0-0.4,0-0.6c-0.7-0.6-1.7-0.7-2.4-1.3
	c-0.6-0.5-0.7-1.5-0.4-2.2C337.6,88.7,338.3,88.2,339.1,88z"/>
<path fill="#808084" d="M347.6,90c0.5,0,1.1,0.2,1.3,0.8c0.3,0.9,0.1,2-0.8,2.5c-0.7,0.5-1.7,0.2-2.1-0.5c-0.4-1,0-2.4,1.2-2.7
	C347.4,90,347.5,90,347.6,90z M347,87.9c-0.4,0-0.7,0.1-1.1,0.2c-1.4,0.5-2.3,1.8-2.5,3.1c-0.1,1-0.1,2.1,0.4,3
	c0.5,0.9,1.5,1.4,2.5,1.3c0.8,0,1.5-0.5,2.1-0.9c0,0.2,0.1,0.4,0.1,0.6c0.8,0,1.5,0,2.3,0c0.4-2.4,0.8-4.7,1.1-7.1
	c-0.8,0-1.6,0-2.3,0c-0.1,0.3-0.2,0.5-0.2,0.8c-0.4-0.3-0.8-0.7-1.3-0.9C347.7,87.9,347.4,87.9,347,87.9z"/>
<path fill="#808084" d="M365.8,90c0.5,0,1,0.2,1.2,0.6c0.5,0.8,0.2,1.9-0.5,2.5c-0.6,0.6-1.8,0.6-2.2-0.2c-0.5-1,0.1-2.6,1.3-2.8
	C365.7,90,365.7,90,365.8,90z M365.9,87.9c-0.3,0-0.5,0-0.8,0.1c-1.1,0.2-2.1,0.7-2.7,1.6c-0.7,1-0.9,2.3-0.6,3.5
	c0.3,1.2,1.3,2.1,2.5,2.4c1.2,0.2,2.6,0.1,3.7-0.6c1.8-1.2,2.3-4,0.9-5.7C368.1,88.2,367,87.9,365.9,87.9z"/>
<path fill="#808084" d="M373.7,88.9c0.7-0.6,1.6-1.2,2.6-1c0.9,0,1.6,0.7,2,1.5v1.9c-0.4,1.3-0.5,2.6-0.7,3.9c-0.8,0-1.7,0-2.5,0
	c0.1-1.4,0.4-2.7,0.6-4c0-0.4,0-1-0.4-1.1c-0.8-0.4-1.6,0.2-1.8,1c-0.4,1.4-0.4,2.8-0.7,4.2c-0.8,0-1.6,0-2.5,0
	c0.1-1.1,0.3-2.3,0.5-3.4c0.2-1.2,0.4-2.5,0.6-3.7c0.8,0,1.6,0,2.3,0C373.7,88.4,373.7,88.7,373.7,88.9z"/>
<path fill="none" stroke="#808084" stroke-width="9.375000e-02" d="M373.7,88.9c0.7-0.6,1.6-1.2,2.6-1c0.9,0,1.6,0.7,2,1.5v1.9
	c-0.4,1.3-0.5,2.6-0.7,3.9c-0.8,0-1.7,0-2.5,0c0.1-1.4,0.4-2.7,0.6-4c0-0.4,0-1-0.4-1.1c-0.8-0.4-1.6,0.2-1.8,1
	c-0.4,1.4-0.4,2.8-0.7,4.2c-0.8,0-1.6,0-2.5,0c0.1-1.1,0.3-2.3,0.5-3.4c0.2-1.2,0.4-2.5,0.6-3.7c0.8,0,1.6,0,2.3,0
	C373.7,88.4,373.7,88.7,373.7,88.9z"/>
<path fill="#808084" d="M303.6,88.1c0.5-0.2,1-0.1,1.4-0.1c-0.1,0.7-0.3,1.5-0.5,2.2c-0.8-0.1-1.9-0.1-2.2,0.8
	c-0.5,1.3-0.5,2.8-0.8,4.2c-0.8,0-1.7,0-2.5,0c0.3-2.4,0.8-4.7,1-7c0.8-0.1,1.6-0.1,2.5-0.1c0,0.3-0.1,0.6-0.1,1
	C302.7,88.7,303.1,88.3,303.6,88.1z"/>
<path fill="none" stroke="#808084" stroke-width="9.375000e-02" d="M303.6,88.1c0.5-0.2,1-0.1,1.4-0.1c-0.1,0.7-0.3,1.5-0.5,2.2
	c-0.8-0.1-1.9-0.1-2.2,0.8c-0.5,1.3-0.5,2.8-0.8,4.2c-0.8,0-1.7,0-2.5,0c0.3-2.4,0.8-4.7,1-7c0.8-0.1,1.6-0.1,2.5-0.1
	c0,0.3-0.1,0.6-0.1,1C302.7,88.7,303.1,88.3,303.6,88.1z"/>
<path fill="#808084" d="M198.1,88.2c0.8-0.1,1.7-0.1,2.5,0c-0.3,2.4-0.7,4.7-1,7c-0.9,0.1-1.7,0-2.6,0
	C197.3,92.8,197.7,90.5,198.1,88.2z"/>
<path fill="none" stroke="#808084" stroke-width="9.375000e-02" d="M198.1,88.2c0.8-0.1,1.7-0.1,2.5,0c-0.3,2.4-0.7,4.7-1,7
	c-0.9,0.1-1.7,0-2.6,0C197.3,92.8,197.7,90.5,198.1,88.2z"/>
<path fill="#808084" d="M233.7,88.2c0.8-0.1,1.7-0.1,2.5,0c-0.2,1.5-0.6,3-0.6,4.5c-0.1,0.8,0.9,1.1,1.5,0.8
	c0.4-0.3,0.5-0.8,0.7-1.3c0.3-1.3,0.4-2.7,0.7-4c0.8,0,1.7,0,2.5,0c-0.2,1.3-0.4,2.6-0.6,4c-0.1,0.9-0.4,1.9-1.2,2.5
	c-1.1,0.9-2.6,1-3.9,0.8c-1.1-0.2-2.2-1.2-2.2-2.4C233.1,91.4,233.5,89.8,233.7,88.2z"/>
<path fill="none" stroke="#808084" stroke-width="9.375000e-02" d="M233.7,88.2c0.8-0.1,1.7-0.1,2.5,0c-0.2,1.5-0.6,3-0.6,4.5
	c-0.1,0.8,0.9,1.1,1.5,0.8c0.4-0.3,0.5-0.8,0.7-1.3c0.3-1.3,0.4-2.7,0.7-4c0.8,0,1.7,0,2.5,0c-0.2,1.3-0.4,2.6-0.6,4
	c-0.1,0.9-0.4,1.9-1.2,2.5c-1.1,0.9-2.6,1-3.9,0.8c-1.1-0.2-2.2-1.2-2.2-2.4C233.1,91.4,233.5,89.8,233.7,88.2z"/>
<path fill="#808084" d="M249,88.2c0.8-0.1,1.7-0.1,2.5,0c-0.3,2.4-0.7,4.7-1,7c-0.9,0.1-1.7,0-2.6,0C248.2,92.8,248.6,90.5,249,88.2
	z"/>
<path fill="none" stroke="#808084" stroke-width="9.375000e-02" d="M249,88.2c0.8-0.1,1.7-0.1,2.5,0c-0.3,2.4-0.7,4.7-1,7
	c-0.9,0.1-1.7,0-2.6,0C248.2,92.8,248.6,90.5,249,88.2z"/>
<path fill="#808084" d="M333.6,88.1c0.8,0,1.7,0,2.5,0c-0.3,2.4-0.7,4.7-1.1,7.1c-0.9,0-1.7,0-2.5,0
	C332.8,92.8,333.2,90.5,333.6,88.1z"/>
<path fill="none" stroke="#808084" stroke-width="9.375000e-02" d="M333.6,88.1c0.8,0,1.7,0,2.5,0c-0.3,2.4-0.7,4.7-1.1,7.1
	c-0.9,0-1.7,0-2.5,0C332.8,92.8,333.2,90.5,333.6,88.1z"/>
<path fill="#808084" d="M358.5,88.2c0.8-0.1,1.7-0.1,2.5,0c-0.1,1.4-0.4,2.7-0.6,4.1c-0.2,1-0.3,2-0.5,3c-0.8,0-1.7,0-2.5,0
	C357.7,92.8,358.1,90.5,358.5,88.2z"/>
<path fill="none" stroke="#808084" stroke-width="9.375000e-02" d="M358.5,88.2c0.8-0.1,1.7-0.1,2.5,0c-0.1,1.4-0.4,2.7-0.6,4.1
	c-0.2,1-0.3,2-0.5,3c-0.8,0-1.7,0-2.5,0C357.7,92.8,358.1,90.5,358.5,88.2z"/>
<path fill="#00285D" d="M41.9,46.4c0.9,0,1.9-0.2,2.8-0.1c5,0.1,10,1.8,13.9,4.8c0.5,0.4,1,0.8,1.5,1.2c0.7,0.7,1.5,1.4,2.2,2.3
	c1.6,1.9,2.8,4,3.7,6.3c0.9,2.3,1.5,4.8,1.6,7.3c0,1.6,0.1,3.1-0.2,4.7c-0.5,2.7-1.4,5.4-2.9,7.7c-0.9,1.5-2,2.9-3.2,4.1
	c-0.3,0.4-0.6,0.7-0.9,1c-0.3,0.3-0.6,0.6-0.9,0.8c-3.9,3.4-9,5.6-14.2,5.9c-2.9,0.1-5.8-0.2-8.6-1c-3.8-1.1-7.2-3.3-9.9-6.1
	C24.7,83,23,80.4,22,77.5c-1.8-5-1.8-10.5,0-15.5c0.3-0.9,0.7-1.8,1.1-2.6c1.8-3.8,4.8-7.1,8.4-9.4C34.6,47.9,38.2,46.7,41.9,46.4z"
	/>
<path fill="none" stroke="#00285D" stroke-width="4.085500e-02" d="M41.9,46.4c0.9,0,1.9-0.2,2.8-0.1c5,0.1,10,1.8,13.9,4.8
	c0.5,0.4,1,0.8,1.5,1.2c0.7,0.7,1.5,1.4,2.2,2.3c1.6,1.9,2.8,4,3.7,6.3c0.9,2.3,1.5,4.8,1.6,7.3c0,1.6,0.1,3.1-0.2,4.7
	c-0.5,2.7-1.4,5.4-2.9,7.7c-0.9,1.5-2,2.9-3.2,4.1c-0.3,0.4-0.6,0.7-0.9,1c-0.3,0.3-0.6,0.6-0.9,0.8c-3.9,3.4-9,5.6-14.2,5.9
	c-2.9,0.1-5.8-0.2-8.6-1c-3.8-1.1-7.2-3.3-9.9-6.1C24.7,83,23,80.4,22,77.5c-1.8-5-1.8-10.5,0-15.5c0.3-0.9,0.7-1.8,1.1-2.6
	c1.8-3.8,4.8-7.1,8.4-9.4C34.6,47.9,38.2,46.7,41.9,46.4z"/>
<path fill="#FFFFFF" d="M42.1,61.1c0.6-0.3,1.4-0.4,2.1-0.3c0.7,0.1,1.3,0.6,2,0.9c0.2,0.1,0.5,0.1,0.6,0c0.2-0.2,0.3-0.6,0.3-0.9
	c0.1,0,0.3,0,0.4,0c0,2,0,4.1,0,6.1c-0.1,0-0.3,0-0.4,0c-0.1-1.3-0.4-2.6-1.2-3.7c-0.5-0.7-1.3-1.3-2.2-1.4
	c-0.6-0.1-1.2,0.1-1.7,0.5c-1,0.9-1.2,2.4-0.6,3.5c0.6,1,1.7,1.7,2.6,2.4c1.2,0.8,2.4,1.7,3.3,2.8c0.6,0.8,0.9,1.8,1,2.9
	c0,1.3-0.3,2.7-1.2,3.7c-0.6,0.8-1.6,1.4-2.6,1.5c-0.6,0-1.2,0-1.8-0.2c-0.7-0.2-1.3-0.7-2.1-0.8c-0.2,0-0.5,0.1-0.6,0.3
	c-0.1,0.2-0.1,0.5-0.2,0.7c-0.1,0-0.3,0-0.4,0c0-2,0-4,0-6.1c0.1,0,0.3,0,0.4,0c0.1,1.2,0.3,2.4,1,3.4c0.5,0.8,1.3,1.4,2.3,1.6
	c0.8,0.2,1.8,0,2.4-0.6c0.6-0.5,0.8-1.3,0.8-2.1c0-0.8-0.3-1.6-0.8-2.2c-0.7-0.8-1.6-1.5-2.5-2.1c-1-0.7-2.1-1.5-2.8-2.5
	c-0.5-0.7-0.8-1.5-0.9-2.3c-0.1-0.8,0-1.7,0.3-2.5C40.3,62.6,41.1,61.6,42.1,61.1z"/>
<path fill="none" stroke="#FFFFFF" stroke-width="4.085500e-02" d="M42.1,61.1c0.6-0.3,1.4-0.4,2.1-0.3c0.7,0.1,1.3,0.6,2,0.9
	c0.2,0.1,0.5,0.1,0.6,0c0.2-0.2,0.3-0.6,0.3-0.9c0.1,0,0.3,0,0.4,0c0,2,0,4.1,0,6.1c-0.1,0-0.3,0-0.4,0c-0.1-1.3-0.4-2.6-1.2-3.7
	c-0.5-0.7-1.3-1.3-2.2-1.4c-0.6-0.1-1.2,0.1-1.7,0.5c-1,0.9-1.2,2.4-0.6,3.5c0.6,1,1.7,1.7,2.6,2.4c1.2,0.8,2.4,1.7,3.3,2.8
	c0.6,0.8,0.9,1.8,1,2.9c0,1.3-0.3,2.7-1.2,3.7c-0.6,0.8-1.6,1.4-2.6,1.5c-0.6,0-1.2,0-1.8-0.2c-0.7-0.2-1.3-0.7-2.1-0.8
	c-0.2,0-0.5,0.1-0.6,0.3c-0.1,0.2-0.1,0.5-0.2,0.7c-0.1,0-0.3,0-0.4,0c0-2,0-4,0-6.1c0.1,0,0.3,0,0.4,0c0.1,1.2,0.3,2.4,1,3.4
	c0.5,0.8,1.3,1.4,2.3,1.6c0.8,0.2,1.8,0,2.4-0.6c0.6-0.5,0.8-1.3,0.8-2.1c0-0.8-0.3-1.6-0.8-2.2c-0.7-0.8-1.6-1.5-2.5-2.1
	c-1-0.7-2.1-1.5-2.8-2.5c-0.5-0.7-0.8-1.5-0.9-2.3c-0.1-0.8,0-1.7,0.3-2.5C40.3,62.6,41.1,61.6,42.1,61.1z"/>
<path fill="#FFFFFF" d="M27.8,61.2c3.3,0,6.6,0,9.9,0c0,1.3,0,2.6,0,3.9c-0.1,0-0.2,0-0.4,0c-0.2-0.8-0.4-1.6-0.9-2.2
	c-0.4-0.5-1.1-0.6-1.7-0.7c-1.1,0-2.2,0-3.2,0c0,2.3,0,4.6,0,6.9c0.8,0,1.6,0,2.4,0c0.5,0,1.1-0.1,1.3-0.6c0.3-0.6,0.3-1.2,0.4-1.9
	c0.1,0,0.2,0,0.4,0c0,2,0,4,0,6c-0.1,0-0.3,0-0.4,0c0-0.7,0-1.4-0.4-1.9c-0.3-0.4-0.9-0.5-1.4-0.5c-0.8,0-1.6,0-2.3,0
	c0,2.1,0,4.2,0,6.2c0,0.5,0,1.1,0.4,1.5c0.4,0.4,1,0.4,1.5,0.4c0,0.2,0,0.3,0,0.5c-1.9,0-3.8,0-5.7,0c0-0.2,0-0.3,0-0.5
	c0.5,0,1.2,0,1.6-0.5c0.3-0.5,0.3-1,0.3-1.6c0-4.2,0-8.3,0-12.5c-0.1-0.6,0-1.2-0.4-1.6c-0.4-0.4-1-0.4-1.5-0.4
	C27.8,61.6,27.8,61.4,27.8,61.2z"/>
<path fill="none" stroke="#FFFFFF" stroke-width="4.085500e-02" d="M27.8,61.2c3.3,0,6.6,0,9.9,0c0,1.3,0,2.6,0,3.9
	c-0.1,0-0.2,0-0.4,0c-0.2-0.8-0.4-1.6-0.9-2.2c-0.4-0.5-1.1-0.6-1.7-0.7c-1.1,0-2.2,0-3.2,0c0,2.3,0,4.6,0,6.9c0.8,0,1.6,0,2.4,0
	c0.5,0,1.1-0.1,1.3-0.6c0.3-0.6,0.3-1.2,0.4-1.9c0.1,0,0.2,0,0.4,0c0,2,0,4,0,6c-0.1,0-0.3,0-0.4,0c0-0.7,0-1.4-0.4-1.9
	c-0.3-0.4-0.9-0.5-1.4-0.5c-0.8,0-1.6,0-2.3,0c0,2.1,0,4.2,0,6.2c0,0.5,0,1.1,0.4,1.5c0.4,0.4,1,0.4,1.5,0.4c0,0.2,0,0.3,0,0.5
	c-1.9,0-3.8,0-5.7,0c0-0.2,0-0.3,0-0.5c0.5,0,1.2,0,1.6-0.5c0.3-0.5,0.3-1,0.3-1.6c0-4.2,0-8.3,0-12.5c-0.1-0.6,0-1.2-0.4-1.6
	c-0.4-0.4-1-0.4-1.5-0.4C27.8,61.6,27.8,61.4,27.8,61.2z"/>
<path fill="#FFFFFF" d="M49.6,61.2c2.1,0,4.2,0,6.3,0c1.2,0,2.4,0.3,3.3,1c0.8,0.6,1.3,1.5,1.5,2.5c0.3,1.2,0.2,2.6-0.5,3.7
	c-0.4,0.6-1,1.1-1.7,1.4c0.9,0.2,1.6,0.7,2.1,1.4c0.7,1,0.9,2.3,0.8,3.4c-0.1,1.1-0.6,2.2-1.4,3c-1,0.9-2.3,1.2-3.6,1.2
	c-2.3,0-4.6,0-6.8,0c0-0.2,0-0.3,0-0.5c0.5,0,1.2,0,1.5-0.4c0.4-0.6,0.3-1.3,0.4-2c0-3.6,0-7.2,0-10.8c0-0.4,0-0.9,0-1.3
	c0-0.5,0-1.1-0.3-1.6c-0.4-0.4-1-0.4-1.5-0.4C49.6,61.6,49.6,61.4,49.6,61.2z"/>
<path fill="none" stroke="#FFFFFF" stroke-width="4.085500e-02" d="M49.6,61.2c2.1,0,4.2,0,6.3,0c1.2,0,2.4,0.3,3.3,1
	c0.8,0.6,1.3,1.5,1.5,2.5c0.3,1.2,0.2,2.6-0.5,3.7c-0.4,0.6-1,1.1-1.7,1.4c0.9,0.2,1.6,0.7,2.1,1.4c0.7,1,0.9,2.3,0.8,3.4
	c-0.1,1.1-0.6,2.2-1.4,3c-1,0.9-2.3,1.2-3.6,1.2c-2.3,0-4.6,0-6.8,0c0-0.2,0-0.3,0-0.5c0.5,0,1.2,0,1.5-0.4c0.4-0.6,0.3-1.3,0.4-2
	c0-3.6,0-7.2,0-10.8c0-0.4,0-0.9,0-1.3c0-0.5,0-1.1-0.3-1.6c-0.4-0.4-1-0.4-1.5-0.4C49.6,61.6,49.6,61.4,49.6,61.2z"/>
<path fill="#00285D" d="M53.4,62.4c1.1-0.4,2.3-0.4,3.4,0c0.8,0.3,1.5,1,1.8,1.9c0.3,0.9,0.3,1.9,0.1,2.8c-0.2,0.7-0.7,1.4-1.4,1.8
	c-0.4,0.2-0.9,0.3-1.4,0.4c-0.8,0-1.6,0-2.4-0.2C53.4,66.9,53.4,64.7,53.4,62.4z"/>
<path fill="none" stroke="#00285D" stroke-width="4.085500e-02" d="M53.4,62.4c1.1-0.4,2.3-0.4,3.4,0c0.8,0.3,1.5,1,1.8,1.9
	c0.3,0.9,0.3,1.9,0.1,2.8c-0.2,0.7-0.7,1.4-1.4,1.8c-0.4,0.2-0.9,0.3-1.4,0.4c-0.8,0-1.6,0-2.4-0.2C53.4,66.9,53.4,64.7,53.4,62.4z"
	/>
<path fill="#00285D" d="M53.4,70.4c0.7-0.1,1.5-0.1,2.2-0.1c1,0.1,2.1,0.5,2.8,1.3c0.7,0.8,0.9,1.9,0.8,2.9c0,0.9-0.3,1.7-1,2.4
	c-0.7,0.7-1.6,1-2.5,1c-0.8,0-1.6-0.1-2.3-0.3C53.4,75.1,53.4,72.7,53.4,70.4z"/>
<path fill="none" stroke="#00285D" stroke-width="4.085500e-02" d="M53.4,70.4c0.7-0.1,1.5-0.1,2.2-0.1c1,0.1,2.1,0.5,2.8,1.3
	c0.7,0.8,0.9,1.9,0.8,2.9c0,0.9-0.3,1.7-1,2.4c-0.7,0.7-1.6,1-2.5,1c-0.8,0-1.6-0.1-2.3-0.3C53.4,75.1,53.4,72.7,53.4,70.4z"/>
<path fill="#00285D" d="M21.1,84.6"/>
<path fill="none" stroke="#00285D" stroke-width="4.039400e-02" d="M21.1,84.6"/>
<path fill="#A0892C" d="M37.1,93.5h14.4c0,0,0,9.2,0,9.8c0,3.1-5.8,5.6-7.3,5.6c-1.5,0-7.1-2.6-7.1-5.6
	C37.1,100.5,37.1,93.5,37.1,93.5z"/>
<path fill="none" stroke="#BA8740" stroke-width="4.085500e-02" d="M37.1,93.5h14.4c0,0,0,9.2,0,9.8c0,3.1-5.8,5.6-7.3,5.6
	c-1.5,0-7.1-2.6-7.1-5.6C37.1,100.5,37.1,93.5,37.1,93.5z"/>
<path fill="#FFFFFF" d="M46.2,98.8c1-0.9,2.8-2.8,2.8-2.8v1.7c0,0-1.3,1.3-1.8,1.9c-0.1,0.1-0.2,0.2-0.2,0.3c0,1.4,0,4.3,0,4.3h-2
	V102l-2.2,2.1h-1.9l3.7-3.8c0,0-3.7,0-3.7,0c0,0,0-1.5,0-1.5c0,0,3.4,0,5,0C45.9,98.8,46.1,98.9,46.2,98.8z"/>
<path fill="none" stroke="#FFFFFF" stroke-width="4.085500e-02" d="M46.2,98.8c1-0.9,2.8-2.8,2.8-2.8v1.7c0,0-1.3,1.3-1.8,1.9
	c-0.1,0.1-0.2,0.2-0.2,0.3c0,1.4,0,4.3,0,4.3h-2V102l-2.2,2.1h-1.9l3.7-3.8c0,0-3.7,0-3.7,0c0,0,0-1.5,0-1.5c0,0,3.4,0,5,0
	C45.9,98.8,46.1,98.9,46.2,98.8z"/>
<polygon fill="#FFFFFF" points="40.9,101.1 42.6,101.1 40.9,102.9 "/>
<polygon fill="none" stroke="#FFFFFF" stroke-width="3.907700e-02" points="40.9,101.1 42.6,101.1 40.9,102.9 "/>
<path fill="#FFFFFF" d="M43.6,104.1c0,0,0.8-0.7,0.8-0.8c0,0,0,0.8,0,0.8C44.4,104.1,43.6,104.1,43.6,104.1z"/>
<path fill="none" stroke="#FFFFFF" stroke-width="5.820100e-02" d="M43.6,104.1c0,0,0.8-0.7,0.8-0.8c0,0,0,0.8,0,0.8
	C44.4,104.1,43.6,104.1,43.6,104.1z"/>
<ellipse fill="#FFFFFF" cx="45.5" cy="96.8" rx="1.3" ry="1.3"/>
<path fill="#A0892C" d="M26.4,97.7c3.6-2.2,4-0.5,5.7-1c-1.7-2.3-3.2-2.3-2.2-5.4c3.8,1.6,3,3.1,4.9,6.3
	C31.4,98.7,29.7,100.9,26.4,97.7z"/>
<path fill="none" stroke="#BA8740" stroke-width="5.491500e-02" d="M26.4,97.7c3.6-2.2,4-0.5,5.7-1c-1.7-2.3-3.2-2.3-2.2-5.4
	c3.8,1.6,3,3.1,4.9,6.3C31.4,98.7,29.7,100.9,26.4,97.7z"/>
<path fill="#A0892C" d="M20.3,92.1c3.6-1.4,3.6,0.2,5.2,0c-1.1-2.4-2.4-2.7-1-5.4c3.1,2.2,2,3.4,3.2,6.7c-2.7,0.4-4.5,1.7-6.3,0.1
	C21.1,93.2,20.7,92.7,20.3,92.1z"/>
<path fill="none" stroke="#BA8740" stroke-width="5.051200e-02" d="M20.3,92.1c3.6-1.4,3.6,0.2,5.2,0c-1.1-2.4-2.4-2.7-1-5.4
	c3.1,2.2,2,3.4,3.2,6.7c-2.7,0.4-4.5,1.7-6.3,0.1C21.1,93.2,20.7,92.7,20.3,92.1z"/>
<path fill="#A0892C" d="M15.6,85.1c3.5-0.7,3.2,0.8,4.8,1c-0.6-2.4-1.7-2.9,0.1-5.1c2.4,2.6,1.3,3.5,1.8,6.7
	C19.1,87.5,17.1,88.8,15.6,85.1z"/>
<path fill="none" stroke="#BA8740" stroke-width="4.701900e-02" d="M15.6,85.1c3.5-0.7,3.2,0.8,4.8,1c-0.6-2.4-1.7-2.9,0.1-5.1
	c2.4,2.6,1.3,3.5,1.8,6.7C19.1,87.5,17.1,88.8,15.6,85.1z"/>
<path fill="#A0892C" d="M13,77.4c3.4,0.3,2.8,1.5,4.1,2c0.1-2.2-0.8-2.9,1.5-4.3c1.5,2.8,0.2,3.3-0.3,6.1
	C15.5,80.3,13.3,80.9,13,77.4z"/>
<path fill="none" stroke="#BA8740" stroke-width="4.348300e-02" d="M13,77.4c3.4,0.3,2.8,1.5,4.1,2c0.1-2.2-0.8-2.9,1.5-4.3
	c1.5,2.8,0.2,3.3-0.3,6.1C15.5,80.3,13.3,80.9,13,77.4z"/>
<path fill="#A0892C" d="M12.5,70c3,0.8,2.2,1.8,3.4,2.5c0.4-2.1-0.2-2.9,2-3.8c1,2.9-0.3,3.1-1.2,5.8C14.3,73.1,12.2,73.4,12.5,70z"
	/>
<path fill="none" stroke="#BA8740" stroke-width="4.058900e-02" d="M12.5,70c3,0.8,2.2,1.8,3.4,2.5c0.4-2.1-0.2-2.9,2-3.8
	c1,2.9-0.3,3.1-1.2,5.8C14.3,73.1,12.2,73.4,12.5,70z"/>
<path fill="#A0892C" d="M13.6,62.7c2.9,1.3,1.8,2,2.8,2.9c1-1.7,0.5-2.5,3.1-2.9c0.2,2.6-1.2,2.6-2.7,4.7
	C14.7,65.8,12.5,65.6,13.6,62.7z"/>
<path fill="none" stroke="#BA8740" stroke-width="3.908700e-02" d="M13.6,62.7c2.9,1.3,1.8,2,2.8,2.9c1-1.7,0.5-2.5,3.1-2.9
	c0.2,2.6-1.2,2.6-2.7,4.7C14.7,65.8,12.5,65.6,13.6,62.7z"/>
<path fill="#A0892C" d="M16.5,57c2.1,1.5,1.1,2,1.8,2.9c1.1-1.3,0.8-2.2,3-2.1c-0.3,2.3-1.4,2.1-3,3.8C16.8,59.8,15,59.3,16.5,57z"
	/>
<path fill="none" stroke="#BA8740" stroke-width="3.366800e-02" d="M16.5,57c2.1,1.5,1.1,2,1.8,2.9c1.1-1.3,0.8-2.2,3-2.1
	c-0.3,2.3-1.4,2.1-3,3.8C16.8,59.8,15,59.3,16.5,57z"/>
<path fill="#A0892C" d="M20.1,51.9c1.5,1.8,0.5,2,1,2.9c1.2-1,1.2-1.8,3.1-1.4c-0.7,2.1-1.7,1.7-3.5,2.9
	C19.7,54.5,18.3,53.8,20.1,51.9z"/>
<path fill="none" stroke="#BA8740" stroke-width="3.075700e-02" d="M20.1,51.9c1.5,1.8,0.5,2,1,2.9c1.2-1,1.2-1.8,3.1-1.4
	c-0.7,2.1-1.7,1.7-3.5,2.9C19.7,54.5,18.3,53.8,20.1,51.9z"/>
<path fill="#A0892C" d="M24.4,47.9c1,1.9,0,2,0.2,2.9c1.3-0.7,1.4-1.4,3-0.7c-1.1,1.8-1.8,1.3-3.7,2C23.5,50.3,22.4,49.3,24.4,47.9z
	"/>
<path fill="none" stroke="#BA8740" stroke-width="2.815800e-02" d="M24.4,47.9c1,1.9,0,2,0.2,2.9c1.3-0.7,1.4-1.4,3-0.7
	c-1.1,1.8-1.8,1.3-3.7,2C23.5,50.3,22.4,49.3,24.4,47.9z"/>
<path fill="#A0892C" d="M28.5,45.1c0.6,1.8-0.2,1.8-0.2,2.6c1.3-0.5,1.5-1.1,2.8-0.3c-1.3,1.5-1.9,0.9-3.6,1.4
	C27.4,47.1,26.6,46.1,28.5,45.1z"/>
<path fill="none" stroke="#BA8740" stroke-width="2.574100e-02" d="M28.5,45.1c0.6,1.8-0.2,1.8-0.2,2.6c1.3-0.5,1.5-1.1,2.8-0.3
	c-1.3,1.5-1.9,0.9-3.6,1.4C27.4,47.1,26.6,46.1,28.5,45.1z"/>
<path fill="#A0892C" d="M32.9,43.3c0.1,1.7-0.6,1.5-0.8,2.2c1.3-0.1,1.7-0.6,2.7,0.4c-1.5,1-1.9,0.4-3.6,0.4
	C31.4,44.8,30.8,43.8,32.9,43.3z"/>
<path fill="none" stroke="#BA8740" stroke-width="2.382100e-02" d="M32.9,43.3c0.1,1.7-0.6,1.5-0.8,2.2c1.3-0.1,1.7-0.6,2.7,0.4
	c-1.5,1-1.9,0.4-3.6,0.4C31.4,44.8,30.8,43.8,32.9,43.3z"/>
<path fill="#00285D" d="M12.9,84.1"/>
<path fill="none" stroke="#00285D" stroke-width="4.039400e-02" d="M12.9,84.1"/>
<path fill="#00285D" d="M67.3,84.7"/>
<path fill="none" stroke="#00285D" stroke-width="4.015200e-02" d="M67.3,84.7"/>
<path fill="#A0892C" d="M61.5,97.7c-3.6-2.2-3.9-0.5-5.7-1c1.7-2.3,3.2-2.3,2.1-5.4c-3.8,1.6-2.9,3.1-4.9,6.3
	C56.6,98.7,58.2,101,61.5,97.7z"/>
<path fill="none" stroke="#BA8740" stroke-width="5.458600e-02" d="M61.5,97.7c-3.6-2.2-3.9-0.5-5.7-1c1.7-2.3,3.2-2.3,2.1-5.4
	c-3.8,1.6-2.9,3.1-4.9,6.3C56.6,98.7,58.2,101,61.5,97.7z"/>
<path fill="#A0892C" d="M67.5,92.2c-3.5-1.4-3.5,0.2-5.2,0c1.1-2.4,2.4-2.7,0.9-5.4c-3.1,2.2-2,3.4-3.2,6.7c2.7,0.4,4.5,1.7,6.3,0.1
	C66.7,93.2,67.1,92.8,67.5,92.2z"/>
<path fill="none" stroke="#BA8740" stroke-width="5.020900e-02" d="M67.5,92.2c-3.5-1.4-3.5,0.2-5.2,0c1.1-2.4,2.4-2.7,0.9-5.4
	c-3.1,2.2-2,3.4-3.2,6.7c2.7,0.4,4.5,1.7,6.3,0.1C66.7,93.2,67.1,92.8,67.5,92.2z"/>
<path fill="#A0892C" d="M72.1,85.2c-3.5-0.7-3.2,0.8-4.7,1c0.6-2.4,1.7-2.9-0.1-5.1c-2.4,2.6-1.2,3.5-1.7,6.7
	C68.7,87.6,70.7,88.9,72.1,85.2z"/>
<path fill="none" stroke="#BA8740" stroke-width="4.673700e-02" d="M72.1,85.2c-3.5-0.7-3.2,0.8-4.7,1c0.6-2.4,1.7-2.9-0.1-5.1
	c-2.4,2.6-1.2,3.5-1.7,6.7C68.7,87.6,70.7,88.9,72.1,85.2z"/>
<path fill="#A0892C" d="M74.7,77.4c-3.4,0.3-2.7,1.5-4.1,2c-0.1-2.2,0.8-2.9-1.5-4.3c-1.5,2.8-0.2,3.3,0.2,6.1
	C72.2,80.3,74.4,80.9,74.7,77.4z"/>
<path fill="none" stroke="#BA8740" stroke-width="4.322200e-02" d="M74.7,77.4c-3.4,0.3-2.7,1.5-4.1,2c-0.1-2.2,0.8-2.9-1.5-4.3
	c-1.5,2.8-0.2,3.3,0.2,6.1C72.2,80.3,74.4,80.9,74.7,77.4z"/>
<path fill="#A0892C" d="M75.2,70c-3,0.8-2.2,1.8-3.4,2.5c-0.4-2.1,0.2-2.9-2-3.8c-0.9,2.9,0.3,3.1,1.2,5.8
	C73.4,73.2,75.5,73.4,75.2,70z"/>
<path fill="none" stroke="#BA8740" stroke-width="4.034500e-02" d="M75.2,70c-3,0.8-2.2,1.8-3.4,2.5c-0.4-2.1,0.2-2.9-2-3.8
	c-0.9,2.9,0.3,3.1,1.2,5.8C73.4,73.2,75.5,73.4,75.2,70z"/>
<path fill="#A0892C" d="M74.1,62.8c-2.9,1.3-1.8,2-2.8,2.9c-1-1.7-0.5-2.5-3-2.9c-0.2,2.6,1.1,2.6,2.7,4.7
	C73,65.9,75.2,65.6,74.1,62.8z"/>
<path fill="none" stroke="#BA8740" stroke-width="3.885300e-02" d="M74.1,62.8c-2.9,1.3-1.8,2-2.8,2.9c-1-1.7-0.5-2.5-3-2.9
	c-0.2,2.6,1.1,2.6,2.7,4.7C73,65.9,75.2,65.6,74.1,62.8z"/>
<path fill="#A0892C" d="M71.3,57c-2.1,1.5-1.1,2-1.8,2.9c-1.1-1.3-0.8-2.2-3-2.1c0.3,2.3,1.4,2.1,3,3.8C70.9,59.9,72.7,59.4,71.3,57
	z"/>
<path fill="none" stroke="#BA8740" stroke-width="3.346600e-02" d="M71.3,57c-2.1,1.5-1.1,2-1.8,2.9c-1.1-1.3-0.8-2.2-3-2.1
	c0.3,2.3,1.4,2.1,3,3.8C70.9,59.9,72.7,59.4,71.3,57z"/>
<path fill="#A0892C" d="M67.7,51.9c-1.5,1.8-0.5,2-0.9,2.9c-1.2-1-1.2-1.8-3-1.4c0.7,2.1,1.7,1.7,3.4,2.9
	C68,54.6,69.5,53.8,67.7,51.9z"/>
<path fill="none" stroke="#BA8740" stroke-width="3.057300e-02" d="M67.7,51.9c-1.5,1.8-0.5,2-0.9,2.9c-1.2-1-1.2-1.8-3-1.4
	c0.7,2.1,1.7,1.7,3.4,2.9C68,54.6,69.5,53.8,67.7,51.9z"/>
<path fill="#A0892C" d="M63.5,48c-0.9,1.9,0,2-0.2,2.9c-1.3-0.7-1.4-1.4-3-0.7c1.1,1.8,1.8,1.3,3.6,2C64.3,50.3,65.4,49.4,63.5,48z"
	/>
<path fill="none" stroke="#BA8740" stroke-width="2.798900e-02" d="M63.5,48c-0.9,1.9,0,2-0.2,2.9c-1.3-0.7-1.4-1.4-3-0.7
	c1.1,1.8,1.8,1.3,3.6,2C64.3,50.3,65.4,49.4,63.5,48z"/>
<path fill="#A0892C" d="M59.4,45.1c-0.6,1.8,0.2,1.8,0.2,2.6c-1.3-0.5-1.5-1.1-2.8-0.3c1.2,1.5,1.8,0.9,3.6,1.4
	C60.4,47.1,61.3,46.1,59.4,45.1z"/>
<path fill="none" stroke="#BA8740" stroke-width="2.558700e-02" d="M59.4,45.1c-0.6,1.8,0.2,1.8,0.2,2.6c-1.3-0.5-1.5-1.1-2.8-0.3
	c1.2,1.5,1.8,0.9,3.6,1.4C60.4,47.1,61.3,46.1,59.4,45.1z"/>
<path fill="#A0892C" d="M55.1,43.4c-0.1,1.7,0.6,1.5,0.8,2.2c-1.3-0.1-1.6-0.6-2.6,0.4c1.5,1,1.9,0.4,3.6,0.4
	C56.6,44.9,57.1,43.8,55.1,43.4z"/>
<path fill="none" stroke="#BA8740" stroke-width="2.367700e-02" d="M55.1,43.4c-0.1,1.7,0.6,1.5,0.8,2.2c-1.3-0.1-1.6-0.6-2.6,0.4
	c1.5,1,1.9,0.4,3.6,0.4C56.6,44.9,57.1,43.8,55.1,43.4z"/>
<path fill="#00285D" d="M75.4,84.2"/>
<path fill="none" stroke="#00285D" stroke-width="4.015200e-02" d="M75.4,84.2"/>
<g>
</g>
<g>
</g>
<g>
</g>
<g>
</g>
<g>
</g>
<g>
</g>
<g>
</g>
<g>
</g>
<g>
</g>
<g>
</g>
</svg>
