<?xml version="1.0" encoding="utf-8"?>
<!-- Generator: Adobe Illustrator 18.1.1, SVG Export Plug-In . SVG Version: 6.00 Build 0)  -->
<svg version="1.1" id="Layer_25" xmlns="http://www.w3.org/2000/svg" xmlns:xlink="http://www.w3.org/1999/xlink" x="0px" y="0px"
	 viewBox="0 0 390 150" enable-background="new 0 0 390 150" xml:space="preserve">
<path fill="#3A1F41" d="M12.2,79c0-10.8,7.7-20.1,16.9-20.1c5.2,0,9,3.4,9.9,7.9l2-7.5h5l-5.7,23.4c-0.3,1.3-0.5,2.5-0.5,3.1
	c0,1.5,0.8,2.3,2.1,2.3c1.4,0,2.8-1.3,4.3-5l2.6,0.9c-1.7,5.4-4.6,7.8-8,7.8c-3.6,0-5.9-2.4-5.9-5.8v-0.7c-2.8,3.7-6.6,6.6-11.3,6.6
	C16.9,91.9,12.2,86.9,12.2,79z M37.6,72.2c0-5.1-2.8-8.7-8-8.7c-6.9,0-11.9,7.4-11.9,15.1c0,5.2,2.5,8.7,7.5,8.7
	C32.5,87.4,37.6,79.3,37.6,72.2z"/>
<path fill="#3A1F41" d="M58.7,64.1h-6l1.1-4.6h10.6L62.6,67c2.8-4.6,6.7-8.1,10.9-8.1c4.8,0,8,3.1,8.2,8c3-4.9,7-8,11.1-8
	c4.8,0,8.3,3.5,8.3,8.7c0,1.6-0.3,3.3-0.8,5l-3,10.3c-0.2,1-0.4,2.2-0.4,2.8c0,1.5,0.9,2.4,2.2,2.4c1.4,0,2.8-1.3,4.3-5l2.6,0.9
	c-1.6,5.1-4.3,7.8-8,7.8c-3.9,0-6.3-2.5-6.3-5.9c0-1,0.2-2.5,0.6-3.6l2.9-10.2c0.4-1.5,0.6-2.7,0.6-3.9c0-2.9-1.9-4.8-4.6-4.8
	c-4.1,0-8.7,4.1-10.7,11.9l-4.1,16h-5.2L76,72.2c0.4-1.6,0.6-2.8,0.6-4c0-2.7-1.9-4.7-4.7-4.7c-4,0-8.9,4.1-10.8,11.8l-4,16.1h-5.2
	L58.7,64.1z"/>
<path fill="#3A1F41" d="M101.3,101.5h4.8l9-37.4h-6l1.1-4.6h10.7l-1.5,6.6c2.6-3.9,6.5-7.2,11.5-7.2c7,0,11.8,5.2,11.8,13.1
	c0,11-7.9,19.9-17,19.9c-5,0-8.9-3.2-10.4-7.4l-3.9,16.9h6.5l-1.1,4.5h-16.6L101.3,101.5z M137,72.7c0-5.5-2.8-9.2-7.8-9.2
	c-7,0-12.5,7.9-12.5,15.2c0,5.1,3.1,8.6,8.5,8.6C132,87.3,137,80.1,137,72.7z"/>
<path fill="#3A1F41" d="M145.4,85.9c0-0.9,0.2-2.1,0.5-3.3l9.6-41.4h-6l1.1-4.5h11.1l-10.7,45.9c-0.2,1.2-0.5,2.5-0.5,3.1
	c0,1.6,0.8,2.4,2.1,2.4c1.6,0,2.9-1.3,4.4-5l2.6,0.9c-1.7,5.4-4.5,7.8-8.1,7.8C147.8,91.8,145.4,89.4,145.4,85.9z"/>
<path fill="#3A1F41" d="M164.5,85.9c0-0.9,0.3-2.3,0.6-3.4l5-18.4h-6.2l1.2-4.6h11.4l-6.3,23.1c-0.3,1.2-0.5,2.5-0.5,3.1
	c0,1.5,0.9,2.3,2.2,2.3c1.6,0,2.9-1.3,4.3-5l2.6,0.9c-1.7,5.4-4.4,7.8-8.1,7.8C166.9,91.8,164.5,89.4,164.5,85.9z M171,49.6
	c0-2.1,1.7-3.8,3.8-3.8c2,0,3.7,1.7,3.7,3.8c0,2.1-1.7,3.8-3.7,3.8C172.7,53.4,171,51.7,171,49.6z"/>
<path fill="#3A1F41" d="M188.9,64.1h-5.7l1.1-4.6h5.6l2.4-10.4c1-4.6,2.6-7.3,4.8-9.6c2-2,5-3.3,8.2-3.3c3.7,0,5.8,1.9,5.8,4.4
	c0,2.2-1.7,3.7-3.6,3.7c-2,0-3.5-1.4-3.7-3.5c-1.1,0.2-2.3,0.8-3.1,1.6c-1.5,1.5-2.6,4-3.4,7.3l-2.2,9.7h8.3l-1.1,4.6H194l-6.3,27.2
	h-5.1L188.9,64.1z"/>
<path fill="#3A1F41" d="M198.8,102c0-2,1.6-3.7,3.6-3.7c1.9,0,3.3,1.3,3.5,3.3h0.1c1.8,0,5.4-2.7,12.2-10.9l-5.5-26.6h-5.7l1.1-4.6
	h9.2l4.6,26.6c5.5-7.2,10.8-14.6,11.9-19.3c-1.6-0.5-3.1-1.9-3.1-4c0-2,1.6-3.8,3.9-3.8c2.5,0,4.3,1.9,4.3,5.2
	c0,4.9-3.7,11.9-15.4,26.6c-10.5,13-15.2,15.6-19.9,15.6C201,106.2,198.8,104.4,198.8,102z"/>
<path opacity="0.8" fill="#3A1F41" d="M289.3,75.9c0,10.9-8.9,19.7-19.8,19.7c-10.9,0-19.7-8.9-19.7-19.8c0-10.9,8.9-19.7,19.8-19.7
	C280.5,56.1,289.3,65,289.3,75.9z"/>
<path opacity="0.8" fill="#3A1F41" d="M327.8,75.9c0,16.4-13.3,29.6-29.7,29.6c-16.4,0-29.6-13.3-29.6-29.7
	c0-16.4,13.3-29.6,29.7-29.6C314.6,46.3,327.8,59.6,327.8,75.9z"/>
<path opacity="0.8" fill="#391E40" d="M275.3,57.1c-4.2,5.1-6.7,11.6-6.7,18.8c0,7.2,2.5,13.7,6.7,18.8c8.1-2.5,14-9.9,14-18.8
	C289.3,67,283.4,59.5,275.3,57.1z"/>
<path opacity="0.8" fill="#3A1F41" d="M377.5,75.9c0,21.8-17.7,39.5-39.6,39.4c-21.8,0-39.5-17.7-39.4-39.6
	c0-21.8,17.7-39.5,39.6-39.4C359.9,36.4,377.6,54.1,377.5,75.9z"/>
<path opacity="0.8" fill="#391E40" d="M309.6,48.5c-6.8,7.1-11,16.7-11,27.3c0,10.6,4.2,20.3,11,27.4c10.7-4.5,18.2-15,18.2-27.3
	C327.8,63.6,320.3,53,309.6,48.5z"/>
<g>
	<path fill="#3A1F41" d="M370.2,37.6h-1.3V37h3.2v0.6h-1.3v3.3h-0.6V37.6z M372.6,37h1l1,3.1h0l0.9-3.1h0.9v3.9h-0.6v-3.3h0l-1,3.3
		h-0.6l-1-3.3h0v3.3h-0.6V37z"/>
</g>
<g>
</g>
<g>
</g>
<g>
</g>
<g>
</g>
<g>
</g>
<g>
</g>
<g>
</g>
<g>
</g>
<g>
</g>
<g>
</g>
</svg>
